<svg width="300" height="377" viewBox="0 0 300 377" fill="none" xmlns="http://www.w3.org/2000/svg">
<mask id="mask0_588_1356" style="mask-type:alpha" maskUnits="userSpaceOnUse" x="0" y="0" width="300" height="377">
<rect width="300" height="377" rx="20" fill="#11151C" fill-opacity="0.7"/>
<rect x="0.5" y="0.5" width="299" height="376" rx="19.5" stroke="#1D2027" stroke-opacity="0.2"/>
</mask>
<g mask="url(#mask0_588_1356)">
<path d="M180.019 189.896C179.851 189.433 179.683 188.97 179.515 188.507C179.353 188.059 179.606 187.864 179.835 187.499C180.352 186.679 181.545 186.503 182.395 186.159C183.281 185.8 183.647 184.66 184.487 184.194C184.807 184.017 185.092 183.78 185.416 183.6C185.851 183.359 186.363 183.26 186.821 183.07C187.24 182.896 187.628 182.592 188.056 182.437C189.121 182.051 189.897 181.378 190.627 180.531C191.054 180.034 191.596 179.527 192.108 179.113C192.805 178.549 193.394 178.348 194.178 177.971C195.231 177.464 196.393 177.131 197.417 176.585C198.143 176.198 199.033 175.885 199.832 175.669C200.527 175.48 201.483 175.289 202.202 175.34C202.406 175.355 202.862 175.4 203.036 175.337" stroke="#444444" stroke-linecap="round" stroke-dasharray="2 4"/>
<path d="M203.035 175.337C203.937 175.01 204.897 174.848 205.81 174.517C206.161 174.39 206.559 174.36 206.896 174.216C207.229 174.074 207.592 173.502 207.883 173.255C208.577 172.666 209.332 172.297 210.195 172C211.173 171.663 212.293 171.889 213.255 171.54" stroke="#444444" stroke-linecap="round" stroke-dasharray="2 4"/>
<path d="M213.338 171.51C214.763 170.994 215.76 170.108 216.782 168.983C217.522 168.169 218.204 167.322 218.962 166.523C220.079 165.347 221.359 164.427 222.764 163.619C223.521 163.184 224.41 162.951 225.229 162.654C225.704 162.482 226.257 162.35 226.558 161.914C228.039 159.774 230.321 158.111 232.686 157.095C233.818 156.61 234.996 156.33 236.144 155.914C236.467 155.797 236.992 155.644 237.333 155.668C237.964 155.713 238.757 155.245 239.331 155.037C240.484 154.619 241.367 153.846 242.309 153.071C243.217 152.325 244.084 151.627 245.084 151.003C245.668 150.64 246.293 150.565 246.925 150.336C248.789 149.66 250.654 148.984 252.519 148.309" stroke="#444444" stroke-linecap="round" stroke-dasharray="2 4"/>
<path d="M252.488 148.227C252.612 148.025 252.887 147.953 253.056 147.789C253.397 147.458 253.744 147.111 254.078 146.769C254.936 145.891 255.718 144.961 256.626 144.129C259.178 141.793 262.56 140.216 265.787 139.046C266.879 138.65 268.071 138.252 269.093 137.703C270.077 137.175 271.125 136.846 272.08 136.26C273.155 135.599 274.291 134.971 275.185 134.062C275.394 133.85 276.098 133.305 276.125 133.072C279.924 130.172 288.718 123.788 297.106 118.61C298.501 117.749 299.885 116.921 301.232 116.148C304.792 114.107 308.392 112.841 311.902 111.711C316.27 110.303 320.5 109.106 324.336 106.885C327.648 104.967 330.667 102.287 333.231 98.0495C339.568 87.5789 354.713 75.3656 361.494 70.5677C366.144 68.964 375.578 62.618 376.118 50.0635C376.658 37.5091 386.518 33.293 391.38 32.7542M413.012 80.6196C409.686 85.2004 400.848 96.038 392.107 102.743C383.365 109.448 369.219 120.211 363.238 124.754C361.778 126.099 358.39 129.693 356.519 133.308C354.648 136.923 350.065 139.135 348.008 139.788C346.574 142.006 341.922 147.008 334.79 149.275C333.901 150.094 332.354 151.235 330.158 152.519C325.136 155.455 316.721 159.132 305.036 161.375C297.632 164.609 279.843 171.195 267.911 171.665M324.138 121.704C327.723 120.313 336.634 118.26 343.603 121.18M268.055 161.426C272.261 160.467 281.09 158.415 282.757 157.886" stroke="#444444" stroke-linecap="round" stroke-dasharray="2 4"/>
<path d="M179.998 190.089C180.747 190.44 181.311 191.032 182.157 191.183C183.147 191.36 184.007 191.468 185.038 191.396C186.208 191.315 187.826 190.772 188.761 190.067C189.908 189.202 190.86 188.1 192.224 187.606C193.741 187.056 195.281 186.59 196.796 186.041C197.357 185.838 197.75 185.633 198.168 185.193C198.401 184.948 198.646 184.448 198.903 184.262C199.33 183.953 200.064 183.968 200.547 184.078C201.125 184.21 201.72 184.401 202.312 184.454C203.059 184.52 203.865 184.37 204.606 184.272C206.068 184.077 207.486 183.465 208.864 182.965" stroke="#444444" stroke-linecap="round" stroke-dasharray="2 4"/>
<path d="M206.644 181.451C206.767 181.654 207.089 181.769 207.272 181.919C207.693 182.265 208.012 182.704 208.519 182.941C208.977 183.155 209.462 183.286 209.904 183.536C210.487 183.865 211.432 183.959 212.087 184.07C212.377 184.118 212.671 184.224 212.964 184.241C213.139 184.252 213.383 184.138 213.504 184.252" stroke="#444444" stroke-linecap="round" stroke-dasharray="2 4"/>
<path d="M209.657 199.747C208.661 199.281 207.289 198.846 206.874 197.7C206.696 197.21 206.519 196.719 206.341 196.229C206.167 195.751 206.347 195.266 206.579 194.838C206.857 194.326 207.406 193.845 207.772 193.38C208.186 192.855 208.654 192.337 209.115 191.852C209.281 191.677 209.509 191.686 209.705 191.561C210.417 191.108 211.046 190.359 211.594 189.722C211.885 189.384 212.113 188.985 212.41 188.658C212.62 188.426 212.893 187.885 213.14 187.729C213.437 187.54 213.742 187.166 213.99 186.905C214.334 186.543 214.72 186.226 215.1 185.9C215.455 185.595 215.888 185.51 216.247 185.226C216.712 184.858 217.248 184.66 217.668 184.227C218.24 183.637 218.954 182.881 219.325 182.142C219.664 181.464 220.453 180.697 220.493 179.935C220.512 179.587 220.821 179.021 220.942 178.685C221.15 178.11 221.247 177.521 221.554 176.974C222.007 176.165 222.231 175.204 222.626 174.359C222.789 174.01 223.064 173.682 223.29 173.376" stroke="#444444" stroke-linecap="round" stroke-dasharray="2 4"/>
<path d="M209.657 199.748C210.129 199.576 210.645 199.668 211.135 199.49C211.932 199.201 212.857 199.058 213.694 198.913C215.234 198.646 216.789 197.95 218.02 196.999C218.973 196.264 220.508 194.966 220.787 193.713C221.214 191.796 223.274 190.517 224.44 189.06C225.345 187.928 226.125 186.877 227.274 185.96C228.062 185.332 228.815 184.639 229.754 184.299" stroke="#444444" stroke-linecap="round" stroke-dasharray="2 4"/>
<path d="M219.501 215.383C218.345 215.802 217.388 215.152 216.592 214.396C215.464 213.326 215.446 211.588 214.532 210.376C213.595 209.135 212.941 207.522 212.41 206.058C212.029 205.009 211.634 204.003 211.492 202.886C211.361 201.856 211.338 200.798 210.985 199.823" stroke="#444444" stroke-linecap="round" stroke-dasharray="2 4"/>
<path d="M210.368 190.955C210.29 190.741 210.497 190.587 210.611 190.403C210.815 190.074 210.943 189.696 211.147 189.379C211.597 188.681 211.748 187.866 212.163 187.15C212.501 186.569 212.791 185.906 213.078 185.293C213.172 185.093 213.365 184.636 213.288 184.423" stroke="#444444" stroke-linecap="round" stroke-dasharray="2 4"/>
<path d="M219.449 215.494C222.829 213.769 219.814 209.125 219.277 206.517C219.123 205.771 218.72 204.798 218.777 204.044C218.854 203.025 218.643 201.928 218.567 200.919C218.498 199.992 218.393 199.102 218.388 198.18C218.386 197.735 218.626 196.702 218.924 196.388" stroke="#444444" stroke-linecap="round" stroke-dasharray="2 4"/>
<path d="M220.985 213.082C221.775 213.8 222.732 214.212 223.81 213.821C224.319 213.636 224.935 213.465 225.272 213.007C225.524 212.666 225.932 211.623 225.858 211.182C225.756 210.583 225.65 210.083 225.43 209.476C225.218 208.893 225.105 208.336 224.98 207.738C224.791 206.831 224.851 205.489 225.359 204.673C225.618 204.256 225.741 203.633 225.736 203.155C225.726 202.087 225.859 200.862 225.662 199.821C225.6 199.496 225.565 199.154 225.471 198.839C225.432 198.71 225.878 198.549 225.967 198.474C226.437 198.074 226.771 197.587 227.104 197.062C227.778 196.002 227.285 194.313 228.15 193.436C228.417 193.165 228.833 193.075 229.18 192.949C229.511 192.829 229.688 193.328 229.775 193.568C229.944 194.032 229.548 194.72 229.484 195.21C229.35 196.235 229.038 197.321 229.097 198.365C229.132 198.981 228.695 199.8 228.907 200.387C229.203 201.201 229.529 201.989 229.863 202.782C230.377 204 230.81 204.89 231.723 205.85C232.315 206.473 232.775 207.195 233.534 207.647C233.93 207.883 234.37 208.016 234.792 208.175C235.243 208.345 235.545 208.175 235.982 208.017C236.966 207.66 237.003 206.213 237.1 205.385C237.219 204.359 237.209 203.326 236.852 202.341C236.683 201.875 236.603 201.597 236.131 201.376C235.803 201.223 235.473 201.181 235.126 201.163C233.485 201.08 232.583 202.225 231.546 203.316" stroke="#444444" stroke-linecap="round" stroke-dasharray="2 4"/>
<path d="M236.384 201.563C236.176 200.99 236.502 200.353 236.296 199.786C236.135 199.342 236.141 198.552 235.74 198.251C234.832 197.569 233.848 197.936 232.877 198.288" stroke="#444444" stroke-linecap="round" stroke-dasharray="2 4"/>
<path d="M235.77 198.075C235.679 197.822 236.059 197.291 236.147 197.01C236.325 196.446 236.517 196.012 236.544 195.403C236.569 194.84 236.421 193.955 235.874 193.641C235.215 193.263 234.626 193.183 233.885 193.001C233.105 192.81 232.246 192.209 231.432 192.504" stroke="#444444" stroke-linecap="round" stroke-dasharray="2 4"/>
<path d="M223.692 189.836C224.254 189.984 224.717 190.208 225.295 190.276C226.334 190.397 227.307 191.303 227.863 192.128" stroke="#444444" stroke-linecap="round" stroke-dasharray="2 4"/>
<path d="M219.565 181.777C218.975 181.696 218.334 181.689 217.773 181.499C216.975 181.228 216.216 180.963 215.444 180.632C214.65 180.291 213.913 179.791 213.152 179.386C212.835 179.216 212.464 178.751 212.146 178.714" stroke="#444444" stroke-linecap="round" stroke-dasharray="2 4"/>
<path d="M214.509 205.967C215.999 205.553 217.553 205.858 218.539 207.104" stroke="#444444" stroke-linecap="round" stroke-dasharray="2 4"/>
<path d="M235.96 193.738C237.756 193.087 239.779 192.578 241.35 191.46C242.181 190.868 242.954 190.227 243.645 189.473C244.479 188.564 245.572 188.187 246.645 187.639C247.654 187.123 248.605 186.392 249.374 185.557C250.121 184.745 250.369 183.36 250.833 182.389C251.132 181.764 251.472 181.138 251.892 180.588C252.3 180.053 252.953 179.789 253.411 179.321C254.264 178.449 255.282 177.304 255.643 176.121C255.746 175.782 256.04 175.464 256.095 175.122C256.147 174.799 256.26 174.312 256.47 174.053C256.579 173.919 256.426 173.831 256.61 173.729C257.014 173.505 257.413 173.261 257.845 173.096C258.249 172.941 258.659 172.801 259.066 172.653C260.529 172.123 262.006 171.466 263.578 171.353C264.665 171.274 265.786 171.278 266.871 171.38C267.072 171.399 267.911 171.665 267.911 171.665" stroke="#444444" stroke-linecap="round" stroke-dasharray="2 4"/>
<path d="M229.51 184.387C230.218 184.918 230.663 185.292 231.535 185.467C232.392 185.64 233.288 185.556 234.144 185.398" stroke="#444444" stroke-linecap="round" stroke-dasharray="2 4"/>
<path d="M233.071 184.488C233.273 184.439 233.593 184.598 233.791 184.655C234.826 184.95 235.974 185.212 237.042 185.347C239.026 185.598 241.074 185.355 243.053 185.168C243.62 185.114 244.163 185.013 244.695 184.82" stroke="#444444" stroke-linecap="round" stroke-dasharray="2 4"/>
<path d="M237.276 183.799C239.772 182.788 242.259 181.299 244.22 179.426C245.37 178.328 246.379 176.911 247.009 175.447C247.42 174.491 247.337 173.283 247.358 172.259C247.366 171.916 247.467 171.477 247.348 171.149" stroke="#444444" stroke-linecap="round" stroke-dasharray="2 4"/>
<path d="M234.179 186.777C233.905 186.961 234.988 187.899 235.112 188.015C235.834 188.695 236.584 188.909 237.463 189.297C238.162 189.606 239.087 189.743 239.831 189.83" stroke="#444444" stroke-linecap="round" stroke-dasharray="2 4"/>
<path d="M29.5836 201.729C30.9357 201.345 31.9071 200.685 33.1724 200.105C34.9277 199.3 36.6285 198.051 38.0483 196.753C41.4554 193.637 44.9434 190.322 49.0351 188.14C49.9589 187.647 51.1932 187.39 52.1736 187.016C52.8093 186.774 53.5015 186.233 54.0777 186.069C55.211 185.746 56.7928 184.644 57.6961 183.854C58.3295 183.301 58.7627 182.614 59.2359 181.934C60.0958 180.699 61.3143 179.673 62.4799 178.75C64.0886 177.477 65.8164 176.802 67.7826 176.243" stroke="white" stroke-opacity="0.7" stroke-linecap="round"/>
<path d="M65.7718 176.815C65.6082 175.841 67.2317 174.191 67.9918 173.659C68.7402 173.136 70.0667 173.025 70.9458 172.775C72.8992 172.219 74.8525 171.664 76.8059 171.108C77.9246 170.79 79.12 170.745 80.2643 170.531C80.9444 170.404 81.9103 170.242 82.6184 170.355C83.7822 170.543 85.1059 170.276 86.2108 170.519C87.3157 170.763 88.5368 170.632 89.6338 170.435C91.6528 170.073 93.8432 170.088 95.8778 170.273C97.4394 170.415 99.0106 170.473 100.489 171.047C101.515 171.446 102.425 171.9 103.397 172.394C105.589 173.507 108.361 173.377 110.747 173.421C113.643 173.474 116.524 173.164 119.386 173.226C120.161 173.242 121.107 173.26 121.846 173.536C122.268 173.694 123.311 174.171 123.444 174.64" stroke="white" stroke-opacity="0.7" stroke-linecap="round"/>
<path d="M101.022 171.533C102.649 171.07 104.467 171.266 106.124 171.059C107.417 170.897 108.669 170.543 109.926 170.186C111.549 169.724 113.218 169.794 114.877 169.568C118.623 169.059 124.459 171.262 125.584 175.217" stroke="white" stroke-opacity="0.7" stroke-linecap="round"/>
<path d="M125.465 175.111C126.629 174.781 127.738 174.455 128.943 174.333C129.947 174.231 130.813 174.277 131.837 174.418C132.601 174.524 133.361 174.543 134.116 174.725C134.924 174.918 135.657 175.383 136.431 175.666C137.045 175.89 137.565 176.066 138.197 176.23C138.861 176.401 139.617 176.146 140.274 176.357C141.24 176.667 142.175 176.839 143.127 177.224C143.936 177.55 144.403 178.174 145.079 178.67C145.561 179.023 145.96 179.646 146.296 180.127C146.523 180.452 146.884 180.768 147.07 181.111C147.323 181.579 148.031 181.987 148.459 182.316C149.934 183.448 151.132 184.863 152.61 185.986C153.83 186.914 154.692 188.247 155.854 189.224C156.766 189.99 157.761 190.873 158.546 191.769C159.863 193.272 157.548 194.067 156.445 194.381C155.804 194.563 155.141 194.828 154.472 194.85C153.638 194.876 152.831 194.44 152.083 194.134C150.895 193.647 149.649 192.342 148.942 191.328C148.728 191.022 148.309 189.943 147.895 189.914C146.946 189.849 146.227 189.52 145.35 189.183C144.61 188.899 144.141 188.265 143.485 187.877C142.821 187.485 142.261 186.774 141.722 186.239C141.079 185.602 140.353 185.035 139.723 184.392C139.561 184.228 138.957 183.73 138.714 183.784C138.197 183.899 137.688 184.076 137.179 184.221C136.267 184.48 135.301 184.399 134.412 184.652C133.819 184.821 132.841 184.77 132.218 184.736C131.775 184.712 131.327 184.715 130.886 184.681C130.486 184.65 130.128 184.382 129.719 184.328C128.784 184.205 127.841 183.623 126.926 183.582" stroke="white" stroke-opacity="0.7" stroke-linecap="round"/>
<path d="M117.61 185.402C118.01 185.379 118.489 185.808 118.878 185.924C119.577 186.132 120.271 186.273 121.02 186.328C122.007 186.4 122.794 186.179 123.756 185.905C124.577 185.672 125.438 185.506 126.164 185.043C126.423 184.877 126.661 184.605 126.957 184.521" stroke="white" stroke-opacity="0.7" stroke-linecap="round"/>
<path d="M111.874 190.233C112.148 189.848 112.817 189.747 113.15 189.396C113.503 189.023 114.065 188.824 114.419 188.442C115.017 187.797 115.591 187.201 116.087 186.487C116.475 185.93 117.187 185.649 117.584 185.107C117.977 184.57 118.98 183.946 119.63 183.761" stroke="white" stroke-opacity="0.7" stroke-linecap="round"/>
<path d="M109.026 188.554C109.398 188.448 110.874 189.835 111.122 190.183C111.867 191.226 113.305 191.992 114.335 192.731C115.954 193.893 118.008 194.733 119.945 195.191C122.159 195.714 123.991 196.868 125.817 198.227C126.684 198.872 127.778 199.36 128.725 199.888C129.372 200.248 130.064 200.462 130.621 200.975C131.544 201.826 132.486 202.654 133.403 203.514C134.101 204.168 134.359 204.724 134.619 205.636C134.985 206.923 135.078 207.5 134.492 208.707C133.748 210.238 131.856 211.474 130.195 210.587C128.86 209.875 127.584 209.352 126.321 208.516C125.266 207.817 124.116 207.293 123.015 206.679C122.664 206.484 122.052 206.331 121.644 206.233C121.111 206.105 120.753 205.834 120.306 205.534C119.053 204.692 117.86 203.807 116.538 203.071C116.013 202.778 115.415 202.63 114.895 202.34C114.436 202.084 113.514 201.642 113.018 201.755C112.38 201.901 111.61 201.578 110.967 201.535C110.482 201.503 110.034 201.327 109.543 201.295C108.536 201.229 107.576 201.212 106.56 201.222C105.927 201.228 105.099 201.253 104.485 201.101C103.194 200.782 102.171 199.863 101.038 199.231C100.221 198.777 99.6674 198.09 99.132 197.345C98.641 196.661 98.1401 196.102 97.904 195.272" stroke="white" stroke-opacity="0.7" stroke-linecap="round"/>
<path d="M103.565 201.008C99.9332 202.04 96.7904 199.188 94.522 196.707" stroke="white" stroke-opacity="0.7" stroke-linecap="round"/>
<path d="M83.9884 195.083C83.7684 195.145 84.4347 195.23 84.6063 195.381C84.9129 195.651 85.2938 195.897 85.6237 196.158C86.2891 196.683 87.0589 197.357 87.5556 198.044C88.2702 199.032 89.6807 199.407 90.7992 199.636C92.641 200.013 94.6633 200.168 96.277 201.237C97.1828 201.837 98.8172 201.741 99.8533 201.708" stroke="white" stroke-opacity="0.7" stroke-linecap="round"/>
<path d="M83.7246 192.907C83.4112 191.805 82.9456 191.042 82.1573 190.219C81.7637 189.808 81.2603 189.516 80.9569 189.007C80.5308 188.293 79.4387 187.422 78.5864 187.384C78.1523 187.365 76.5468 187.549 76.3271 187.309" stroke="white" stroke-opacity="0.7" stroke-linecap="round"/>
<path d="M83.8002 195.255C83.3298 195.388 83.11 195.827 82.6687 196.044C82.1431 196.302 81.6274 196.864 81.174 197.245C80.8053 197.556 80.3271 197.781 79.8938 197.998C79.4141 198.238 79.028 198.581 78.5692 198.849C77.8793 199.25 77.214 200.167 76.6762 200.756C76.187 201.292 75.6573 201.76 75.2185 202.342C73.7839 204.245 72.8272 206.519 71.5114 208.517C70.2538 210.428 68.8679 212.214 67.5225 214.049C66.1787 215.882 64.8936 217.756 63.5493 219.589C63.0789 220.231 62.7176 220.921 62.1538 221.487C61.4214 222.221 60.5583 222.844 59.8779 223.621C59.0463 224.572 58.1008 225.385 57.1718 226.234C55.7604 227.525 54.3888 228.826 52.8711 229.998C51.3701 231.157 50.0909 232.634 48.7111 233.932C47.5849 234.992 46.488 236.223 45.536 237.442C44.7523 238.446 43.8943 239.434 43.1756 240.483C42.8805 240.913 42.753 241.517 42.4155 241.884C42.2654 242.047 41.4863 242.514 41.4927 242.712C37.9019 246.572 30.8819 252.756 22.077 258.003C15.4842 261.933 7.89055 265.337 -0.0136379 266.847C-0.78712 266.995 -1.56358 267.124 -2.34237 267.235C-4.33788 266.775 -9.87853 266.794 -16.077 270.553C-22.2755 274.312 -26.3428 272.63 -27.6016 271.319C-41.5941 279.141 -74.4364 295.071 -93.8656 296.213C-113.295 297.354 -126.1 291.483 -130.074 288.406M-162.473 256.259C-159.575 254.151 -153.741 251.367 -146.132 250.353M-133.582 250.49C-133.582 250.49 -139.915 249.525 -146.132 250.353M-146.132 250.353C-140.866 245.965 -124.438 240.204 -100.848 252.271C-101.766 251.809 -62.8301 235.817 -42.753 237.023C-38.2712 236.075 -28.1714 232.531 -23.6259 225.941C-19.0805 219.351 7.57737 208.577 20.3381 204.013L29.8761 201.708M-121.661 259.723C-122.191 262.543 -124.437 268.954 -129.183 272.039C-135.116 275.895 -128.865 280.038 -135.361 294.932M-122.011 279.997C-111.761 283.981 -107.304 274.021 -96.1065 278.583M-30.0426 242.836C-26.56 243.879 -19.7026 247.525 -20.133 253.766" stroke="white" stroke-opacity="0.7" stroke-linecap="round"/>
<path d="M111.654 190.295C112.083 190.218 112.722 190.486 113.132 190.585C113.799 190.746 114.471 190.926 115.16 190.957C116.857 191.032 118.522 191.034 120.216 190.822" stroke="white" stroke-opacity="0.7" stroke-linecap="round"/>
<path d="M120.217 190.822C120.015 190.971 120.248 192.394 120.282 192.672C120.368 193.354 120.655 194.092 120.941 194.71C121.241 195.359 121.532 195.675 121.532 195.675" stroke="white" stroke-opacity="0.7" stroke-linecap="round"/>
<path d="M122.671 206.948C122.705 207.302 122.548 207.701 122.519 208.057C122.467 208.698 122.617 209.361 122.657 210C122.698 210.666 122.782 211.315 123.049 211.935C123.43 212.819 124.545 214.233 125.535 214.519C126.592 214.825 126.952 212.715 127.077 212.027C127.206 211.326 127.486 210.132 127.286 209.427" stroke="white" stroke-opacity="0.7" stroke-linecap="round"/>
<path d="M120.409 186.502C120.545 186.821 121.325 187.334 121.604 187.577C122.161 188.063 122.763 188.52 123.414 188.873C124.175 189.285 125.032 189.614 125.886 189.743C126.437 189.826 126.648 190.75 126.94 191.134C128.098 192.657 129.368 194.582 131.207 195.305C132.122 195.666 133.06 196.208 134.041 196.362C134.703 196.466 135.071 197.317 135.419 197.826C135.97 198.634 136.524 199.603 137.283 200.238C138.025 200.86 139.117 201.159 139.685 201.951C140.278 202.777 140.439 203.698 140.737 204.654C141.21 206.17 142.02 206.934 143.324 207.66C143.894 207.978 144.397 208.096 145.286 208.096C145.528 208.096 146.168 207.971 146.375 207.66C146.811 207.007 145.915 205.366 145.504 204.654" stroke="white" stroke-opacity="0.7" stroke-linecap="round"/>
<path d="M129.113 200.021C128.96 199.483 129.129 198.941 129.005 198.393C128.797 197.47 128.707 196.513 128.445 195.59C128.102 194.385 127.759 193.179 127.416 191.973" stroke="white" stroke-opacity="0.7" stroke-linecap="round"/>
<path d="M151.756 206.733C149.119 207.483 145.295 205.489 144.282 202.928C144.01 202.241 143.863 201.478 143.661 200.768C143.495 200.183 142.64 199.733 142.176 199.387C140.675 198.268 139.278 197.233 138.23 195.651C137.697 194.846 137.255 193.923 136.83 193.087C136.639 192.713 136.434 192.435 136.316 192.022C136.207 191.639 135.977 191.452 135.829 191.121C135.623 190.656 134.918 190.581 134.488 190.41C133.734 190.108 133.041 189.72 132.227 189.539C130.601 189.178 129.162 187.942 127.719 187.207C127 186.84 126.162 186.297 125.639 185.725" stroke="white" stroke-opacity="0.7" stroke-linecap="round"/>
<path d="M151.606 206.789C152.734 206.468 151.688 203.753 151.132 203.198C150.584 202.652 150.216 201.954 149.896 201.259C149.586 200.586 149.121 199.97 148.917 199.253C148.816 198.898 148.694 198.587 148.494 198.274C148.123 197.693 148.115 196.961 147.79 196.355C147.241 195.332 146.712 194.287 146.128 193.287C145.448 192.123 145.036 190.846 144.404 189.656C144.237 189.342 143.339 187.885 143.107 187.611" stroke="white" stroke-opacity="0.7" stroke-linecap="round"/>
<path d="M148.215 189.015C148.153 188.796 148.153 188.267 148.215 188.047" stroke="white" stroke-opacity="0.7" stroke-linecap="round"/>
</g>
</svg>
