<svg width="300" height="377" viewBox="0 0 300 377" fill="none" xmlns="http://www.w3.org/2000/svg">
<mask id="mask0_588_1141" style="mask-type:alpha" maskUnits="userSpaceOnUse" x="0" y="0" width="300" height="377">
<rect width="300" height="377" rx="20" fill="#11151C" fill-opacity="0.7"/>
<rect x="0.5" y="0.5" width="299" height="376" rx="19.5" stroke="#1D2027" stroke-opacity="0.2"/>
</mask>
<g mask="url(#mask0_588_1141)">
<path d="M97.8729 319.684C97.8228 320.468 97.7727 321.252 97.7226 322.036C97.6742 322.794 98.1484 322.98 98.6628 323.435C99.8194 324.46 101.725 324.196 103.18 324.343C104.695 324.497 105.765 326.078 107.259 326.415C107.828 326.544 108.37 326.78 108.946 326.91C109.719 327.085 110.548 327.008 111.334 327.094C112.053 327.173 112.783 327.465 113.506 327.511C115.31 327.627 116.798 328.309 118.293 329.28C119.17 329.85 120.225 330.384 121.193 330.789C122.512 331.342 123.504 331.385 124.872 331.613C126.71 331.918 128.637 331.909 130.449 332.287C131.733 332.555 133.235 332.636 134.555 332.611C135.702 332.589 137.251 332.454 138.329 332.055C138.635 331.942 139.313 331.668 139.607 331.687" stroke="white" stroke-linecap="round"/>
<path d="M139.605 331.687C141.132 331.785 142.673 331.604 144.218 331.703C144.812 331.741 145.435 331.609 146.016 331.679C146.589 331.747 147.4 332.461 147.955 332.708C149.281 333.3 150.602 333.528 152.055 333.597C153.703 333.676 155.316 332.83 156.944 332.934" stroke="white" stroke-linecap="round"/>
<path d="M157.085 332.943C159.497 333.097 161.419 334.007 163.486 335.272C164.982 336.187 166.404 337.18 167.921 338.063C170.155 339.365 172.526 340.202 175.038 340.81C176.391 341.137 177.855 341.098 179.241 341.187C180.046 341.238 180.951 341.193 181.607 341.725C184.83 344.34 189.065 345.866 193.139 346.363C195.088 346.601 197.015 346.503 198.96 346.627C199.505 346.662 200.377 346.661 200.889 346.472C201.835 346.122 203.256 346.483 204.229 346.546C206.18 346.67 207.877 347.46 209.665 348.224C211.388 348.961 213.027 349.642 214.837 350.15C215.893 350.446 216.882 350.28 217.952 350.349C221.108 350.55 224.264 350.752 227.42 350.954" stroke="white" stroke-linecap="round"/>
<path d="M227.409 351.093C227.687 351.346 228.142 351.333 228.474 351.509C229.143 351.863 229.829 352.239 230.493 352.614C232.199 353.574 233.811 354.649 235.572 355.516C240.522 357.952 246.403 358.856 251.865 359.205C253.714 359.323 255.716 359.4 257.525 359.783C259.267 360.152 261.019 360.187 262.741 360.658C264.683 361.189 266.702 361.643 268.475 362.635C268.89 362.867 270.211 363.386 270.356 363.73C277.467 366.473 293.778 372.315 308.931 376.494C311.45 377.189 313.938 377.838 316.346 378.419C322.705 379.953 328.781 380.283 334.658 380.446C341.974 380.648 348.982 380.592 355.846 382.278C361.772 383.733 367.591 386.487 373.408 391.827C387.784 405.023 416.421 416.952 428.943 421.267C436.776 421.644 454.051 427.143 460.485 446.118C466.92 465.093 483.895 467.142 491.578 465.794M503.306 382.869C496.169 377.343 477.802 364.702 461.427 358.345C445.052 351.987 418.591 341.832 407.408 337.549C404.572 336.143 397.781 332.155 393.303 327.458C388.824 322.761 380.822 321.423 377.381 321.341C374.195 318.587 364.84 313.009 352.912 312.725C351.186 311.869 348.308 310.813 344.373 309.829C335.374 307.579 320.852 305.709 301.965 307.496C289.189 305.853 259.018 303.719 240.546 308.329M348.924 359.684C355.032 360.212 369.588 359.373 378.95 351.791M245.339 323.937C252.206 323.526 266.636 322.722 269.424 322.788" stroke="white" stroke-linecap="round"/>
<path d="M97.7559 319.398C98.7457 318.527 99.345 317.37 100.572 316.76C102.009 316.047 103.278 315.497 104.886 315.147C106.715 314.749 109.433 314.856 111.18 315.518C113.322 316.33 115.27 317.591 117.579 317.738C120.148 317.903 122.712 317.927 125.275 318.091C126.225 318.152 126.919 318.289 127.755 318.776C128.221 319.047 128.819 319.703 129.295 319.873C130.087 320.155 131.203 319.804 131.894 319.419C132.721 318.96 133.545 318.402 134.428 318.056C135.542 317.621 136.842 317.491 138.021 317.31C140.345 316.956 142.789 317.259 145.122 317.408" stroke="white" stroke-linecap="round"/>
<path d="M142.398 320.718C142.496 320.352 142.939 320.032 143.151 319.721C143.641 319.003 143.933 318.189 144.603 317.6C145.209 317.066 145.892 316.65 146.458 316.069C147.202 315.306 148.607 314.74 149.561 314.278C149.982 314.074 150.385 313.781 150.825 313.624C151.088 313.53 151.514 313.595 151.647 313.366" stroke="white" stroke-linecap="round"/>
<path d="M138.838 291.367C137.521 292.526 135.616 293.805 135.493 295.744C135.439 296.574 135.386 297.404 135.333 298.235C135.282 299.044 135.774 299.705 136.319 300.256C136.973 300.917 138.028 301.408 138.796 301.955C139.664 302.574 140.613 303.157 141.534 303.694C141.867 303.888 142.212 303.773 142.567 303.876C143.86 304.251 145.158 305.117 146.281 305.847C146.878 306.235 147.405 306.743 148.004 307.111C148.43 307.372 149.09 308.078 149.537 308.207C150.077 308.364 150.71 308.799 151.207 309.088C151.895 309.489 152.627 309.802 153.354 310.131C154.034 310.439 154.735 310.375 155.411 310.65C156.287 311.005 157.196 311.069 158.033 311.545C159.172 312.192 160.602 313.031 161.499 313.996C162.322 314.882 163.872 315.704 164.274 316.852C164.457 317.376 165.183 318.104 165.519 318.565C166.094 319.352 166.506 320.21 167.219 320.911C168.274 321.946 169.046 323.317 170.029 324.434C170.435 324.896 171.002 325.274 171.485 325.642" stroke="white" stroke-linecap="round"/>
<path d="M138.837 291.367C139.636 291.418 140.386 291.048 141.215 291.101C142.563 291.187 144.044 290.993 145.389 290.841C147.865 290.562 150.556 290.933 152.865 291.838C154.652 292.538 157.582 293.838 158.569 295.631C160.078 298.375 163.803 299.412 166.238 301.123C168.129 302.451 169.793 303.711 171.961 304.6C173.448 305.21 174.909 305.934 176.499 306.036" stroke="white" stroke-linecap="round"/>
<path d="M146.92 263.038C144.964 262.913 143.789 264.335 142.909 265.847C141.661 267.989 142.409 270.658 141.551 272.921C140.672 275.239 140.39 278 140.232 280.478C140.119 282.254 139.962 283.97 140.244 285.743C140.504 287.379 140.941 289.008 140.836 290.658" stroke="white" stroke-linecap="round"/>
<path d="M143.852 304.507C143.829 304.87 144.215 305.013 144.471 305.243C144.93 305.656 145.295 306.177 145.749 306.571C146.749 307.439 147.345 308.619 148.3 309.529C149.077 310.268 149.816 311.153 150.529 311.962C150.762 312.228 151.263 312.84 151.24 313.2" stroke="white" stroke-linecap="round"/>
<path d="M146.791 262.891C152.735 264.022 150.195 272.477 150.537 276.708C150.635 277.919 150.453 279.588 150.877 280.717C151.45 282.243 151.616 284.015 151.951 285.593C152.259 287.043 152.497 288.453 152.902 289.865C153.097 290.548 153.925 292.021 154.522 292.369" stroke="white" stroke-linecap="round"/>
<path d="M150.22 265.897C151.106 264.444 152.388 263.388 154.212 263.504C155.074 263.559 156.094 263.546 156.814 264.096C157.352 264.507 158.443 265.92 158.526 266.629C158.638 267.591 158.699 268.404 158.633 269.43C158.57 270.418 158.645 271.32 158.721 272.292C158.837 273.765 159.528 275.792 160.67 276.814C161.253 277.336 161.719 278.236 161.926 278.969C162.387 280.607 163.139 282.424 163.301 284.104C163.351 284.63 163.451 285.169 163.447 285.693C163.445 285.908 164.2 285.955 164.37 286.031C165.268 286.432 165.996 287.029 166.741 287.684C168.245 289.006 168.246 291.811 169.962 292.767C170.491 293.061 171.168 293.014 171.755 293.052C172.316 293.088 172.364 292.245 172.39 291.838C172.44 291.054 171.528 290.177 171.211 289.456C170.548 287.946 169.586 286.424 169.209 284.799C168.987 283.84 167.952 282.783 168.016 281.789C168.104 280.411 168.251 279.06 168.409 277.696C168.651 275.602 168.917 274.046 169.885 272.17C170.513 270.952 170.895 269.641 171.854 268.611C172.355 268.072 172.969 267.672 173.544 267.24C174.158 266.778 174.696 266.903 175.436 266.95C177.102 267.057 177.805 269.255 178.323 270.479C178.964 271.997 179.409 273.583 179.303 275.249C179.252 276.039 179.254 276.499 178.631 277.048C178.197 277.429 177.711 277.641 177.188 277.823C174.713 278.684 172.82 277.334 170.747 276.126" stroke="white" stroke-linecap="round"/>
<path d="M178.935 276.649C178.873 277.619 179.656 278.448 179.595 279.409C179.547 280.16 179.909 281.367 179.429 282.007C178.344 283.455 176.674 283.333 175.031 283.228" stroke="white" stroke-linecap="round"/>
<path d="M179.554 282.263C179.526 282.69 180.345 283.333 180.606 283.724C181.13 284.508 181.617 285.087 181.931 286.007C182.221 286.858 182.39 288.279 181.693 289.003C180.854 289.876 179.988 290.261 178.934 290.871C177.826 291.511 176.78 292.815 175.401 292.727" stroke="white" stroke-linecap="round"/>
<path d="M164.747 300.268C165.54 299.791 166.149 299.24 167.003 298.879C168.54 298.23 169.625 296.408 170.107 294.897" stroke="white" stroke-linecap="round"/>
<path d="M162.031 314.447C161.165 314.834 160.186 315.132 159.413 315.673C158.313 316.444 157.269 317.188 156.235 318.041C155.172 318.916 154.267 320.011 153.284 320.972C152.874 321.373 152.514 322.25 152.044 322.449" stroke="white" stroke-linecap="round"/>
<path d="M143.485 279.68C145.95 279.648 148.193 278.488 149.146 276.14" stroke="white" stroke-linecap="round"/>
<path d="M181.783 288.815C184.822 289.01 188.146 288.885 191.05 289.895C192.586 290.43 194.056 291.066 195.45 291.911C197.133 292.93 198.974 293.02 200.86 293.379C202.636 293.717 204.418 294.411 205.968 295.346C207.474 296.255 208.472 298.263 209.617 299.543C210.353 300.366 211.154 301.173 212.041 301.827C212.904 302.463 214.023 302.576 214.933 303.088C216.628 304.041 218.697 305.339 219.778 306.989C220.087 307.461 220.679 307.817 220.916 308.316C221.14 308.788 221.53 309.482 221.968 309.785C222.195 309.941 221.999 310.144 222.328 310.218C223.044 310.38 223.765 310.575 224.499 310.635C225.187 310.692 225.877 310.723 226.566 310.767C229.042 310.926 231.597 311.27 234.053 310.743C235.753 310.378 237.466 309.87 239.081 309.229C239.38 309.111 240.547 308.329 240.547 308.329" stroke="white" stroke-linecap="round"/>
<path d="M176.086 306.009C176.933 304.881 177.446 304.11 178.703 303.452C179.938 302.805 181.347 302.533 182.727 302.393" stroke="white" stroke-linecap="round"/>
<path d="M181.491 304.264C181.822 304.249 182.241 303.863 182.519 303.688C183.971 302.774 185.611 301.859 187.185 301.176C190.11 299.905 193.353 299.363 196.466 298.765C197.357 298.594 198.233 298.506 199.134 298.564" stroke="white" stroke-linecap="round"/>
<path d="M188.235 303.441C192.508 303.873 196.978 305.041 200.818 307.032C203.068 308.198 205.246 309.917 206.864 311.877C207.92 313.156 208.332 315.043 208.823 316.601C208.987 317.122 209.338 317.749 209.302 318.303" stroke="white" stroke-linecap="round"/>
<path d="M182.164 300.267C181.663 300.107 182.902 298.188 183.04 297.954C183.841 296.592 184.894 295.929 186.066 294.942C186.998 294.157 188.352 293.533 189.452 293.068" stroke="white" stroke-linecap="round"/>
<path d="M180.487 181.163L181.74 180.737L181.113 178.89C182.324 178.432 183.302 177.68 184.048 176.633C184.794 175.587 184.931 174.372 184.461 172.99C184.058 171.804 183.378 170.972 182.422 170.494C181.465 170.016 179.966 169.733 177.924 169.644C176.029 169.581 174.748 169.403 174.082 169.11C173.417 168.816 172.938 168.24 172.646 167.383C172.364 166.551 172.459 165.743 172.933 164.959C173.407 164.175 174.172 163.603 175.228 163.244C175.995 162.983 176.717 162.926 177.395 163.074C178.072 163.221 178.714 163.525 179.321 163.985L180.206 163.161C179.52 162.572 178.766 162.175 177.942 161.973C177.119 161.77 176.289 161.775 175.453 161.989L174.839 160.181L173.585 160.607L174.2 162.415C172.917 163.051 172.051 163.864 171.601 164.854C171.151 165.844 171.091 166.826 171.422 167.799C171.808 168.934 172.472 169.711 173.416 170.129C174.359 170.548 175.775 170.793 177.664 170.864C179.587 170.965 180.925 171.186 181.678 171.529C182.43 171.871 182.96 172.493 183.267 173.396C183.632 174.47 183.495 175.404 182.856 176.199C182.216 176.995 181.395 177.563 180.392 177.904C179.454 178.223 178.511 178.252 177.564 177.99C176.616 177.729 175.771 177.204 175.029 176.416L174.08 177.236C174.944 178.079 175.844 178.647 176.781 178.942C177.719 179.237 178.736 179.336 179.833 179.239L180.487 181.163ZM182.359 184.472C180.459 185.118 178.55 185.362 176.634 185.202C174.717 185.043 172.917 184.549 171.235 183.72C169.552 182.891 168.064 181.766 166.769 180.343C165.475 178.92 164.505 177.259 163.859 175.359C163.211 173.453 162.965 171.537 163.121 169.61C163.277 167.684 163.771 165.886 164.605 164.216C165.438 162.546 166.566 161.064 167.989 159.77C169.411 158.475 171.073 157.505 172.972 156.86C174.878 156.212 176.794 155.966 178.721 156.121C180.648 156.277 182.444 156.765 184.109 157.586C185.775 158.406 187.256 159.533 188.554 160.965C189.851 162.398 190.824 164.067 191.472 165.973C192.118 167.873 192.361 169.781 192.202 171.698C192.043 173.615 191.555 175.412 190.739 177.09C189.923 178.769 188.799 180.257 187.366 181.554C185.934 182.852 184.264 183.825 182.359 184.472ZM181.957 183.292C185.47 182.098 188.035 179.857 189.653 176.568C191.271 173.279 191.484 169.881 190.292 166.374C189.098 162.861 186.858 160.296 183.572 158.677C180.286 157.058 176.886 156.846 173.374 158.04C169.867 159.232 167.303 161.471 165.681 164.758C164.059 168.045 163.845 171.445 165.039 174.958C166.231 178.465 168.472 181.028 171.762 182.649C175.052 184.27 178.451 184.484 181.957 183.292Z" fill="white"/>
<path d="M126.873 225.873L128.572 226.055L128.839 223.552C130.505 223.673 132.058 223.323 133.499 222.503C134.94 221.682 135.76 220.335 135.96 218.461C136.131 216.854 135.786 215.512 134.926 214.433C134.065 213.355 132.463 212.21 130.121 210.998C127.936 209.897 126.534 208.994 125.914 208.289C125.294 207.584 125.045 206.651 125.169 205.489C125.29 204.362 125.84 203.468 126.82 202.807C127.8 202.146 129.006 201.891 130.437 202.044C131.476 202.155 132.353 202.48 133.066 203.02C133.779 203.559 134.366 204.264 134.826 205.132L136.309 204.647C135.826 203.585 135.158 202.712 134.304 202.028C133.449 201.344 132.475 200.9 131.381 200.697L131.642 198.247L129.943 198.066L129.682 200.516C127.836 200.565 126.381 201.046 125.317 201.961C124.253 202.876 123.651 203.993 123.51 205.312C123.346 206.85 123.703 208.12 124.58 209.121C125.457 210.123 126.982 211.178 129.155 212.286C131.352 213.447 132.798 214.432 133.493 215.241C134.188 216.05 134.471 217.065 134.341 218.289C134.185 219.744 133.518 220.764 132.338 221.348C131.159 221.932 129.89 222.152 128.53 222.007C127.259 221.872 126.14 221.394 125.172 220.574C124.204 219.754 123.5 218.681 123.059 217.356L121.503 217.801C122.057 219.256 122.803 220.411 123.74 221.264C124.677 222.117 125.814 222.785 127.151 223.267L126.873 225.873ZM127.269 230.763C124.695 230.489 122.329 229.738 120.171 228.512C118.014 227.286 116.175 225.732 114.655 223.849C113.134 221.966 112.003 219.84 111.259 217.473C110.516 215.105 110.281 212.634 110.556 210.06C110.831 207.477 111.583 205.101 112.81 202.93C114.037 200.759 115.592 198.922 117.473 197.419C119.354 195.916 121.479 194.793 123.846 194.05C126.214 193.306 128.685 193.072 131.259 193.346C133.842 193.622 136.218 194.373 138.389 195.601C140.56 196.828 142.398 198.374 143.903 200.238C145.407 202.101 146.531 204.224 147.273 206.605C148.015 208.986 148.248 211.467 147.973 214.05C147.698 216.624 146.948 218.99 145.722 221.148C144.496 223.305 142.95 225.145 141.084 226.667C139.219 228.189 137.095 229.321 134.714 230.063C132.333 230.805 129.852 231.039 127.269 230.763ZM127.44 229.164C132.199 229.672 136.418 228.439 140.096 225.466C143.775 222.493 145.867 218.631 146.374 213.879C146.881 209.12 145.651 204.901 142.682 201.223C139.713 197.546 135.848 195.453 131.089 194.945C126.337 194.439 122.12 195.67 118.439 198.638C114.757 201.606 112.662 205.471 112.155 210.23C111.648 214.982 112.881 219.199 115.853 222.881C118.826 226.563 122.688 228.658 127.44 229.164Z" fill="white"/>
<path d="M173.141 232.357L174.227 232.192L173.984 230.592C175.041 230.395 175.95 229.924 176.712 229.178C177.474 228.432 177.764 227.46 177.582 226.262C177.426 225.235 176.992 224.456 176.281 223.926C175.569 223.396 174.386 222.945 172.731 222.574C171.193 222.246 170.173 221.913 169.672 221.576C169.171 221.239 168.864 220.699 168.751 219.956C168.642 219.235 168.838 218.589 169.34 218.018C169.842 217.446 170.55 217.091 171.465 216.952C172.13 216.852 172.728 216.911 173.26 217.13C173.792 217.349 174.272 217.691 174.699 218.156L175.543 217.612C175.069 217.031 174.511 216.597 173.868 216.311C173.225 216.025 172.546 215.908 171.832 215.96L171.595 214.393L170.508 214.558L170.746 216.125C169.606 216.457 168.779 216.994 168.267 217.737C167.755 218.48 167.562 219.273 167.69 220.117C167.84 221.1 168.269 221.831 168.978 222.311C169.687 222.791 170.808 223.198 172.341 223.532C173.897 223.896 174.957 224.273 175.522 224.662C176.086 225.051 176.428 225.637 176.547 226.419C176.688 227.35 176.439 228.093 175.801 228.649C175.163 229.206 174.409 229.55 173.54 229.681C172.727 229.805 171.953 229.69 171.217 229.338C170.481 228.986 169.868 228.434 169.377 227.682L168.482 228.213C169.064 229.028 169.717 229.624 170.439 230.002C171.161 230.379 171.978 230.609 172.888 230.69L173.141 232.357ZM174.186 235.334C172.54 235.584 170.946 235.504 169.403 235.093C167.861 234.683 166.463 234.017 165.21 233.094C163.957 232.171 162.905 231.033 162.056 229.682C161.207 228.331 160.658 226.832 160.408 225.186C160.157 223.535 160.236 221.934 160.645 220.383C161.054 218.832 161.721 217.435 162.646 216.193C163.57 214.951 164.708 213.905 166.06 213.056C167.411 212.207 168.91 211.658 170.556 211.408C172.207 211.157 173.808 211.236 175.359 211.645C176.91 212.054 178.306 212.715 179.546 213.629C180.787 214.543 181.832 215.679 182.682 217.039C183.533 218.399 184.083 219.904 184.334 221.556C184.584 223.202 184.504 224.796 184.093 226.339C183.683 227.881 183.022 229.278 182.11 230.529C181.198 231.781 180.062 232.832 178.703 233.682C177.343 234.533 175.837 235.083 174.186 235.334ZM174.031 234.311C177.074 233.85 179.497 232.394 181.3 229.944C183.102 227.494 183.773 224.749 183.312 221.711C182.85 218.667 181.395 216.244 178.948 214.442C176.5 212.639 173.755 211.969 170.711 212.43C167.672 212.891 165.251 214.346 163.445 216.794C161.64 219.241 160.969 221.987 161.43 225.031C161.891 228.069 163.347 230.491 165.798 232.296C168.248 234.101 170.992 234.773 174.031 234.311Z" fill="white"/>
<path d="M112.533 269.506L113.388 269.573L113.486 268.313C114.324 268.351 115.099 268.153 115.81 267.721C116.521 267.289 116.914 266.601 116.988 265.658C117.051 264.849 116.859 264.181 116.412 263.652C115.965 263.123 115.145 262.571 113.953 261.996C112.841 261.474 112.124 261.041 111.803 260.696C111.482 260.351 111.344 259.886 111.39 259.301C111.434 258.734 111.698 258.277 112.181 257.932C112.663 257.586 113.264 257.441 113.985 257.498C114.508 257.539 114.952 257.69 115.318 257.95C115.683 258.211 115.988 258.556 116.231 258.985L116.968 258.721C116.711 258.195 116.363 257.766 115.925 257.435C115.487 257.104 114.991 256.895 114.44 256.809L114.536 255.575L113.681 255.508L113.584 256.742C112.659 256.792 111.935 257.054 111.414 257.528C110.894 258.003 110.607 258.572 110.555 259.236C110.494 260.01 110.691 260.642 111.146 261.132C111.6 261.622 112.38 262.13 113.486 262.655C114.605 263.207 115.344 263.681 115.705 264.077C116.065 264.473 116.221 264.979 116.173 265.595C116.116 266.327 115.795 266.848 115.211 267.158C114.628 267.468 113.994 267.596 113.31 267.543C112.67 267.492 112.101 267.268 111.604 266.871C111.107 266.473 110.738 265.944 110.498 265.286L109.724 265.531C110.023 266.253 110.413 266.822 110.895 267.237C111.378 267.652 111.958 267.971 112.635 268.194L112.533 269.506ZM112.8 271.954C111.505 271.853 110.307 271.51 109.207 270.925C108.107 270.34 107.162 269.586 106.373 268.663C105.583 267.739 104.985 266.688 104.579 265.511C104.172 264.333 104.02 263.097 104.121 261.801C104.223 260.501 104.567 259.298 105.152 258.191C105.737 257.084 106.491 256.141 107.414 255.36C108.337 254.579 109.387 253.986 110.565 253.579C111.742 253.173 112.979 253.02 114.275 253.122C115.574 253.223 116.778 253.567 117.884 254.152C118.991 254.738 119.935 255.487 120.717 256.401C121.498 257.315 122.092 258.365 122.498 259.549C122.904 260.733 123.056 261.975 122.954 263.275C122.852 264.571 122.509 265.769 121.925 266.869C121.34 267.969 120.59 268.914 119.675 269.704C118.76 270.494 117.711 271.092 116.527 271.498C115.342 271.904 114.1 272.056 112.8 271.954ZM112.863 271.149C115.259 271.337 117.359 270.659 119.163 269.115C120.966 267.571 121.962 265.604 122.149 263.212C122.337 260.816 121.66 258.717 120.118 256.913C118.576 255.11 116.607 254.114 114.212 253.926C111.82 253.739 109.721 254.416 107.916 255.958C106.11 257.5 105.114 259.468 104.926 261.864C104.739 264.255 105.417 266.354 106.961 268.16C108.504 269.966 110.472 270.962 112.863 271.149Z" fill="white"/>
<path d="M41.5836 141.729C42.9357 141.345 43.9071 140.685 45.1724 140.105C46.9277 139.3 48.6285 138.051 50.0483 136.753C53.4554 133.637 56.9434 130.322 61.0351 128.14C61.9589 127.647 63.1932 127.39 64.1736 127.016C64.8093 126.774 65.5015 126.233 66.0777 126.069C67.211 125.746 68.7928 124.644 69.6961 123.854C70.3295 123.301 70.7627 122.614 71.2359 121.934C72.0958 120.699 73.3143 119.673 74.4799 118.75C76.0886 117.477 77.8164 116.802 79.7826 116.243" stroke="#444444" stroke-opacity="0.7" stroke-linecap="round"/>
<path d="M77.7713 116.815C77.6077 115.841 79.2312 114.191 79.9913 113.659C80.7397 113.136 82.0662 113.025 82.9453 112.775C84.8987 112.219 86.852 111.664 88.8054 111.108C89.9242 110.79 91.1195 110.745 92.2638 110.531C92.9439 110.404 93.9098 110.242 94.6179 110.355C95.7818 110.543 97.1055 110.276 98.2103 110.519C99.3152 110.763 100.536 110.632 101.633 110.435C103.652 110.073 105.843 110.088 107.877 110.273C109.439 110.415 111.01 110.473 112.489 111.047C113.514 111.446 114.425 111.9 115.396 112.394C117.589 113.507 120.36 113.377 122.747 113.421C125.643 113.474 128.523 113.164 131.386 113.226C132.16 113.242 133.106 113.26 133.845 113.536C134.268 113.694 135.31 114.171 135.443 114.64" stroke="#444444" stroke-opacity="0.7" stroke-linecap="round"/>
<path d="M113.022 111.533C114.649 111.07 116.467 111.266 118.124 111.059C119.417 110.897 120.669 110.543 121.926 110.186C123.549 109.724 125.218 109.794 126.877 109.568C130.623 109.059 136.459 111.262 137.584 115.217" stroke="#444444" stroke-opacity="0.7" stroke-linecap="round"/>
<path d="M137.465 115.111C138.628 114.781 139.737 114.455 140.943 114.333C141.947 114.231 142.812 114.277 143.837 114.418C144.6 114.524 145.361 114.543 146.116 114.725C146.924 114.918 147.656 115.383 148.431 115.666C149.045 115.89 149.564 116.066 150.197 116.23C150.861 116.401 151.617 116.146 152.274 116.357C153.24 116.667 154.174 116.839 155.127 117.224C155.936 117.55 156.403 118.174 157.078 118.67C157.561 119.023 157.96 119.646 158.296 120.127C158.523 120.452 158.884 120.768 159.069 121.111C159.322 121.579 160.03 121.987 160.459 122.316C161.934 123.448 163.132 124.863 164.609 125.986C165.829 126.914 166.692 128.247 167.854 129.224C168.765 129.99 169.76 130.873 170.545 131.769C171.862 133.272 169.548 134.067 168.445 134.381C167.803 134.563 167.141 134.828 166.472 134.85C165.638 134.876 164.831 134.44 164.083 134.134C162.894 133.647 161.649 132.342 160.942 131.328C160.728 131.022 160.309 129.943 159.894 129.914C158.946 129.849 158.226 129.52 157.35 129.183C156.61 128.899 156.141 128.265 155.484 127.877C154.82 127.485 154.261 126.774 153.722 126.239C153.079 125.602 152.353 125.035 151.722 124.392C151.56 124.228 150.957 123.73 150.713 123.784C150.197 123.899 149.687 124.076 149.178 124.221C148.267 124.48 147.301 124.399 146.412 124.652C145.819 124.821 144.84 124.77 144.217 124.736C143.775 124.712 143.326 124.715 142.885 124.681C142.485 124.65 142.127 124.382 141.718 124.328C140.783 124.205 139.84 123.623 138.926 123.582" stroke="#444444" stroke-opacity="0.7" stroke-linecap="round"/>
<path d="M129.61 125.402C130.01 125.379 130.489 125.808 130.878 125.924C131.577 126.132 132.271 126.273 133.02 126.328C134.007 126.4 134.794 126.179 135.756 125.905C136.577 125.672 137.438 125.506 138.164 125.043C138.423 124.877 138.661 124.605 138.957 124.521" stroke="#444444" stroke-opacity="0.7" stroke-linecap="round"/>
<path d="M123.874 130.233C124.148 129.848 124.817 129.747 125.15 129.396C125.503 129.023 126.066 128.824 126.419 128.442C127.018 127.797 127.591 127.201 128.088 126.487C128.476 125.93 129.187 125.649 129.585 125.107C129.978 124.57 130.98 123.946 131.631 123.761" stroke="#444444" stroke-opacity="0.7" stroke-linecap="round"/>
<path d="M121.026 128.554C121.398 128.448 122.874 129.835 123.122 130.183C123.867 131.226 125.305 131.992 126.335 132.731C127.954 133.893 130.008 134.733 131.945 135.191C134.159 135.714 135.991 136.868 137.817 138.227C138.684 138.872 139.778 139.36 140.725 139.888C141.372 140.248 142.064 140.462 142.621 140.975C143.544 141.826 144.486 142.654 145.403 143.514C146.101 144.168 146.359 144.724 146.619 145.636C146.985 146.923 147.078 147.5 146.492 148.707C145.748 150.238 143.856 151.474 142.195 150.587C140.86 149.875 139.584 149.352 138.321 148.516C137.266 147.817 136.116 147.293 135.015 146.679C134.664 146.484 134.052 146.331 133.644 146.233C133.111 146.105 132.753 145.834 132.306 145.534C131.053 144.692 129.86 143.807 128.538 143.071C128.013 142.778 127.415 142.63 126.895 142.34C126.436 142.084 125.514 141.642 125.018 141.755C124.38 141.901 123.61 141.578 122.967 141.535C122.482 141.503 122.034 141.327 121.543 141.295C120.536 141.229 119.576 141.212 118.56 141.222C117.927 141.228 117.099 141.253 116.485 141.101C115.194 140.782 114.171 139.863 113.038 139.231C112.221 138.777 111.667 138.09 111.132 137.345C110.641 136.661 110.14 136.102 109.904 135.272" stroke="#444444" stroke-opacity="0.7" stroke-linecap="round"/>
<path d="M115.565 141.008C111.934 142.04 108.791 139.188 106.522 136.707" stroke="#444444" stroke-opacity="0.7" stroke-linecap="round"/>
<path d="M95.9879 135.083C95.7679 135.145 96.4342 135.23 96.6058 135.381C96.9124 135.651 97.2933 135.897 97.6233 136.158C98.2886 136.683 99.0584 137.357 99.5551 138.044C100.27 139.032 101.68 139.407 102.799 139.636C104.64 140.013 106.663 140.168 108.276 141.237C109.182 141.837 110.817 141.741 111.853 141.708" stroke="#444444" stroke-opacity="0.7" stroke-linecap="round"/>
<path d="M95.7246 132.907C95.4112 131.805 94.9456 131.042 94.1573 130.219C93.7637 129.808 93.2603 129.516 92.9569 129.007C92.5308 128.293 91.4387 127.422 90.5864 127.384C90.1523 127.365 88.5468 127.549 88.3271 127.309" stroke="#444444" stroke-opacity="0.7" stroke-linecap="round"/>
<path d="M95.8007 135.255C95.3303 135.388 95.1105 135.827 94.6692 136.044C94.1436 136.302 93.6279 136.864 93.1745 137.245C92.8058 137.556 92.3276 137.781 91.8943 137.998C91.4146 138.238 91.0285 138.581 90.5697 138.849C89.8798 139.25 89.2145 140.167 88.6767 140.756C88.1875 141.292 87.6578 141.76 87.219 142.342C85.7844 144.245 84.8277 146.519 83.5119 148.517C82.2543 150.428 80.8684 152.214 79.523 154.049C78.1792 155.882 76.8941 157.756 75.5498 159.589C75.0794 160.231 74.7181 160.921 74.1543 161.487C73.4219 162.221 72.5587 162.844 71.8784 163.621C71.0468 164.572 70.1013 165.385 69.1723 166.234C67.7609 167.525 66.3893 168.826 64.8716 169.998C63.3706 171.157 62.0914 172.634 60.7116 173.932C59.5854 174.992 58.4885 176.223 57.5365 177.442C56.7527 178.446 55.8948 179.434 55.1761 180.483C54.881 180.913 54.7535 181.517 54.416 181.884C54.2659 182.047 53.4868 182.514 53.4932 182.712C49.9024 186.572 42.8824 192.756 34.0775 198.003C27.4847 201.933 19.891 205.337 11.9869 206.847C11.2134 206.995 10.4369 207.124 9.65812 207.235C7.66261 206.775 2.12196 206.794 -4.07654 210.553C-10.275 214.312 -14.3423 212.63 -15.6011 211.319C-29.5936 219.141 -62.4359 235.071 -81.8651 236.213C-101.294 237.354 -114.1 231.483 -118.074 228.406M-150.472 196.259C-147.574 194.151 -141.741 191.367 -134.132 190.353M-121.582 190.49C-121.582 190.49 -127.915 189.525 -134.132 190.353M-134.132 190.353C-128.866 185.965 -112.437 180.204 -88.8476 192.271C-89.7658 191.809 -50.8296 175.817 -30.7525 177.023C-26.2708 176.075 -16.1709 172.531 -11.6255 165.941C-7.08005 159.351 19.5779 148.577 32.3386 144.013L41.8766 141.708M-109.66 199.723C-110.19 202.543 -112.437 208.954 -117.183 212.039C-123.116 215.895 -116.864 220.038 -123.361 234.932M-110.011 219.997C-99.761 223.981 -95.3032 214.021 -84.106 218.583M-18.0421 182.836C-14.5595 183.879 -7.70208 187.525 -8.13247 193.766" stroke="#444444" stroke-opacity="0.7" stroke-linecap="round"/>
<path d="M123.654 130.295C124.083 130.218 124.722 130.486 125.132 130.585C125.799 130.746 126.471 130.926 127.16 130.957C128.857 131.032 130.522 131.034 132.216 130.822" stroke="#444444" stroke-opacity="0.7" stroke-linecap="round"/>
<path d="M132.217 130.822C132.015 130.971 132.248 132.394 132.282 132.672C132.368 133.354 132.655 134.092 132.941 134.71C133.241 135.359 133.532 135.675 133.532 135.675" stroke="#444444" stroke-opacity="0.7" stroke-linecap="round"/>
<path d="M134.671 146.948C134.705 147.302 134.548 147.701 134.519 148.058C134.467 148.698 134.617 149.361 134.657 150C134.698 150.666 134.782 151.315 135.049 151.935C135.43 152.819 136.545 154.233 137.535 154.519C138.592 154.825 138.952 152.715 139.077 152.027C139.206 151.326 139.486 150.132 139.286 149.427" stroke="#444444" stroke-opacity="0.7" stroke-linecap="round"/>
<path d="M132.409 126.502C132.545 126.821 133.325 127.334 133.604 127.577C134.161 128.063 134.763 128.52 135.414 128.873C136.175 129.285 137.032 129.614 137.886 129.743C138.437 129.826 138.648 130.75 138.94 131.134C140.098 132.657 141.368 134.582 143.207 135.305C144.122 135.666 145.06 136.208 146.041 136.362C146.703 136.466 147.071 137.317 147.419 137.826C147.97 138.634 148.524 139.603 149.283 140.238C150.025 140.86 151.117 141.159 151.685 141.951C152.278 142.777 152.439 143.698 152.737 144.654C153.21 146.17 154.02 146.934 155.324 147.66C155.894 147.978 156.397 148.096 157.286 148.096C157.528 148.096 158.168 147.971 158.375 147.66C158.811 147.007 157.915 145.366 157.504 144.654" stroke="#444444" stroke-opacity="0.7" stroke-linecap="round"/>
<path d="M141.113 140.021C140.96 139.483 141.129 138.941 141.005 138.393C140.797 137.47 140.707 136.513 140.445 135.59C140.102 134.385 139.759 133.179 139.416 131.973" stroke="#444444" stroke-opacity="0.7" stroke-linecap="round"/>
<path d="M163.756 146.733C161.119 147.483 157.296 145.489 156.282 142.928C156.011 142.241 155.863 141.478 155.662 140.768C155.495 140.183 154.641 139.733 154.176 139.387C152.676 138.268 151.279 137.233 150.231 135.651C149.697 134.846 149.256 133.923 148.83 133.087C148.64 132.713 148.434 132.435 148.317 132.022C148.208 131.639 147.977 131.452 147.83 131.121C147.623 130.656 146.919 130.581 146.489 130.41C145.734 130.108 145.041 129.72 144.227 129.539C142.601 129.178 141.162 127.942 139.72 127.207C139 126.84 138.162 126.297 137.64 125.725" stroke="#444444" stroke-opacity="0.7" stroke-linecap="round"/>
<path d="M163.606 146.789C164.735 146.468 163.688 143.753 163.132 143.198C162.585 142.652 162.216 141.954 161.896 141.259C161.587 140.586 161.122 139.97 160.918 139.253C160.817 138.898 160.695 138.587 160.495 138.274C160.123 137.693 160.116 136.961 159.791 136.355C159.242 135.332 158.713 134.287 158.128 133.287C157.448 132.123 157.037 130.846 156.405 129.656C156.238 129.342 155.339 127.885 155.107 127.611" stroke="#444444" stroke-opacity="0.7" stroke-linecap="round"/>
<path d="M160.215 129.015C160.152 128.796 160.152 128.267 160.215 128.047" stroke="#444444" stroke-opacity="0.7" stroke-linecap="round"/>
</g>
</svg>
