<svg width="111" height="39" viewBox="0 0 111 39" fill="none" xmlns="http://www.w3.org/2000/svg">
<path d="M6.12342 6.80183C6.55271 6.7789 6.98047 6.86929 7.36375 7.06393C7.74704 7.25856 8.07234 7.55058 8.30698 7.91067L8.41179 8.07221L10.5429 6.06841L10.46 5.95054C9.47737 4.59723 7.97071 3.90747 5.98367 3.90747C5.19267 3.8815 4.40454 4.015 3.66625 4.30001C2.92797 4.58502 2.25464 5.01569 1.68642 5.56637C0.602922 6.72247 0 8.24733 0 9.83152C0 11.4157 0.602922 12.9406 1.68642 14.0967C2.25464 14.6473 2.92797 15.078 3.66625 15.363C4.40454 15.648 5.19267 15.7815 5.98367 15.7556C7.97071 15.7556 9.47737 15.0614 10.46 13.6907L10.5429 13.5728L8.41616 11.5952L8.30698 11.748C8.06849 12.1046 7.74256 12.3941 7.3603 12.589C6.97804 12.7839 6.55221 12.8776 6.12342 12.8612C5.74475 12.8773 5.36708 12.8111 5.01649 12.6671C4.6659 12.5232 4.35072 12.3049 4.0927 12.0274C3.55495 11.422 3.27315 10.6317 3.30662 9.82278C3.27426 9.02062 3.55629 8.23749 4.0927 7.64001C4.35313 7.36532 4.66863 7.14868 5.01856 7.00424C5.3685 6.85981 5.74499 6.79084 6.12342 6.80183Z" fill="white"/>
<path d="M19.5567 3.90717C18.75 3.89716 17.952 4.07345 17.2246 4.4223C16.7233 4.66273 16.2621 4.97935 15.8577 5.36089V0H12.6392V15.4846H15.8577V7.98896C16.1209 7.61574 16.4714 7.31246 16.8786 7.10551C17.2858 6.89856 17.7374 6.79421 18.1941 6.80153C18.7002 6.76629 19.2022 6.91341 19.6091 7.21625C19.783 7.40707 19.9146 7.63254 19.9951 7.87783C20.0757 8.12312 20.1034 8.38267 20.0764 8.63942V15.4846H23.2906V7.52621C23.3182 7.0416 23.2485 6.55635 23.0858 6.09903C22.9231 5.64171 22.6705 5.22154 22.3429 4.86322C21.6966 4.23022 20.7576 3.90717 19.5567 3.90717Z" fill="white"/>
<path d="M36.3353 14.1926L36.4402 14.0966L34.9728 11.9531L34.8331 12.0928C34.466 12.4384 34.0256 12.6966 33.5448 12.8481C33.055 13.0289 32.5383 13.1263 32.0163 13.1362C31.2634 13.1697 30.5246 12.9241 29.9419 12.4464C29.4751 12.0564 29.1585 11.5162 29.0466 10.9185H37.1826V10.1152C37.2519 8.47545 36.6909 6.8713 35.6148 5.6318C35.0977 5.06491 34.4636 4.61711 33.7563 4.31937C33.049 4.02163 32.2854 3.88107 31.5184 3.90742C30.738 3.88516 29.9615 4.02542 29.2383 4.31928C28.515 4.61313 27.8608 5.05417 27.3172 5.61435C26.778 6.17208 26.3548 6.83122 26.0721 7.55361C25.7895 8.276 25.6531 9.04727 25.6708 9.82273C25.6398 10.6189 25.7757 11.4127 26.0698 12.1532C26.3639 12.8938 26.8096 13.5646 27.3784 14.1228C27.9556 14.6654 28.6342 15.0889 29.3753 15.3691C30.1164 15.6492 30.9055 15.7805 31.6975 15.7555C33.6408 15.7555 35.1999 15.2316 36.3353 14.1926ZM29.7279 7.20777C29.9605 6.97298 30.2405 6.79041 30.5493 6.67223C30.858 6.55405 31.1884 6.50296 31.5184 6.52238C31.8575 6.49818 32.1978 6.54769 32.516 6.66752C32.8341 6.78734 33.1225 6.97463 33.3613 7.2165C33.724 7.60758 33.9599 8.0991 34.0382 8.62658H29.0029C29.1038 8.0966 29.3555 7.60698 29.7279 7.2165V7.20777Z" fill="white"/>
<path d="M49.3535 13.5724L47.2223 11.5948L47.1132 11.7476C46.875 12.1045 46.5491 12.3943 46.1668 12.5892C45.7844 12.7841 45.3585 12.8776 44.9296 12.8608C44.5509 12.8769 44.1733 12.8107 43.8227 12.6667C43.4721 12.5228 43.1569 12.3045 42.8989 12.027C42.3623 11.4212 42.082 10.6308 42.1172 9.82238C42.0832 9.02075 42.3637 8.23752 42.8989 7.63961C43.1591 7.3655 43.4749 7.1501 43.8251 7.00781C44.1753 6.86552 44.5519 6.79962 44.9296 6.81453C45.359 6.79115 45.7869 6.88135 46.1702 7.07602C46.5536 7.2707 46.8788 7.56296 47.1132 7.92337L47.2223 8.0849L49.3535 6.0811L49.2705 5.96324C48.2836 4.60992 46.7813 3.92017 44.7942 3.92017C44.0032 3.8942 43.2151 4.0277 42.4768 4.3127C41.7385 4.59771 41.0652 5.02839 40.497 5.57907C39.4135 6.73516 38.8105 8.26003 38.8105 9.84422C38.8105 11.4284 39.4135 12.9533 40.497 14.1093C41.0652 14.66 41.7385 15.0907 42.4768 15.3757C43.2151 15.6607 44.0032 15.7942 44.7942 15.7683C46.7813 15.7683 48.2879 15.0741 49.2705 13.7034L49.3535 13.5724Z" fill="white"/>
<path d="M62.5469 4.18219H58.5641L54.6424 8.78784V0H51.4282V15.4846H54.6424V12.5684L55.7779 11.3548L58.6209 15.4846H62.6474L58.0531 9.32917L62.5469 4.18219Z" fill="white"/>
<path d="M77.7794 15.485H81.0154V7.3913C81.0154 6.24316 80.7141 5.36569 80.142 4.77198C79.8036 4.46791 79.4081 4.23414 78.9785 4.08425C78.5489 3.93436 78.0938 3.87134 77.6396 3.89887C76.8335 3.897 76.0411 4.10783 75.3425 4.51005C74.7906 4.81389 74.3039 5.22329 73.9101 5.71493C73.3991 4.51004 72.3598 3.89887 70.8182 3.89887C70.036 3.8983 69.2666 4.0966 68.5822 4.47512C68.1481 4.70191 67.747 4.98684 67.39 5.32204V4.16954H64.1758V15.4763H67.39V7.98502C67.6365 7.65658 67.9433 7.37804 68.294 7.1643C68.6527 6.93041 69.0711 6.80463 69.4993 6.80196C70.5081 6.80196 70.9754 7.30836 70.9754 8.39102V15.485H74.2114V7.96756C74.4519 7.64952 74.7478 7.37742 75.0849 7.1643C75.4471 6.92753 75.8705 6.8016 76.3033 6.80196C77.3077 6.80196 77.7794 7.30836 77.7794 8.39102V15.485Z" fill="white"/>
<path d="M89.7407 13.1361C88.9879 13.1696 88.2491 12.924 87.6664 12.4463C87.2077 12.0529 86.8991 11.5131 86.7929 10.9184H91.8195C92.5166 9.67355 93.4444 8.57277 94.5533 7.67477C94.3021 6.9184 93.8961 6.2226 93.3611 5.63168C92.8428 5.06515 92.2078 4.61763 91.4999 4.31994C90.792 4.02226 90.0279 3.88148 89.2604 3.9073C88.4819 3.8826 87.7068 4.02003 86.9842 4.31088C86.2617 4.60173 85.6077 5.03964 85.0636 5.59677C84.5229 6.15371 84.0985 6.81262 83.8151 7.53512C83.5317 8.25763 83.3949 9.0293 83.4128 9.80516C83.3826 10.6016 83.5193 11.3955 83.8142 12.136C84.109 12.8765 84.5554 13.5473 85.1247 14.1052C85.7018 14.648 86.3803 15.0716 87.1215 15.3518C87.8626 15.632 88.6518 15.7632 89.4438 15.7379C89.7757 15.7379 90.0901 15.7379 90.4002 15.6899C90.458 14.7565 90.6326 13.834 90.9199 12.944C90.5375 13.0617 90.1407 13.1263 89.7407 13.1361ZM87.4524 7.21638C87.6844 6.98192 87.9636 6.79954 88.2716 6.68136C88.5796 6.56318 88.9092 6.51193 89.2385 6.531C89.5783 6.50645 89.9194 6.55578 90.2383 6.6756C90.5572 6.79543 90.8463 6.9829 91.0858 7.22512C91.4469 7.61727 91.6826 8.10826 91.7627 8.63518H86.7231C86.8259 8.10243 87.079 7.61016 87.4524 7.21638Z" fill="white"/>
<path d="M37.0776 23.6391C36.6733 23.1873 36.1758 22.8285 35.6194 22.5873C35.063 22.3461 34.4609 22.2284 33.8547 22.2421C33.1675 22.2248 32.4851 22.3617 31.8578 22.6427C31.2306 22.9238 30.6743 23.3418 30.2299 23.8661C29.2954 24.9357 28.8237 26.3894 28.8237 28.1793C28.8237 29.9691 29.2997 31.4534 30.2299 32.5012C30.6798 33.0165 31.238 33.4261 31.8646 33.7008C32.4912 33.9755 33.1707 34.1084 33.8547 34.0902C34.461 34.0986 35.0621 33.9775 35.6179 33.7351C36.1737 33.4927 36.6713 33.1345 37.0776 32.6845V33.8195H40.3136V18.335H37.0776V23.6391ZM37.0776 30.0608C36.8227 30.404 36.4866 30.6785 36.0994 30.8597C35.6791 31.0761 35.2139 31.1912 34.7412 31.1959C34.3858 31.2087 34.0321 31.1407 33.7068 30.997C33.3815 30.8533 33.0931 30.6377 32.8633 30.3664C32.3589 29.7536 32.0977 28.9766 32.1296 28.1836C32.0938 27.3808 32.355 26.5929 32.8633 25.9703C33.0931 25.699 33.3815 25.4834 33.7068 25.3397C34.0321 25.196 34.3858 25.128 34.7412 25.1408C35.2139 25.1455 35.6791 25.2606 36.0994 25.477C36.4869 25.6597 36.823 25.9357 37.0776 26.2803V30.0608Z" fill="white"/>
<path d="M46.6332 22.5176H43.4189V33.82H46.6332V22.5176Z" fill="white"/>
<path d="M45.017 17.9034C44.7697 17.9009 44.5245 17.9479 44.2958 18.0416C44.067 18.1353 43.8593 18.2739 43.685 18.4491C43.5071 18.6176 43.3658 18.8207 43.2696 19.046C43.1735 19.2713 43.1246 19.5139 43.126 19.7588C43.1306 20.2587 43.3312 20.7369 43.6849 21.0904C44.0385 21.4439 44.5169 21.6445 45.017 21.649C45.268 21.654 45.5174 21.6064 45.749 21.5094C45.9806 21.4125 46.1894 21.2682 46.362 21.0859C46.5351 20.9145 46.6725 20.7105 46.7662 20.4857C46.8599 20.2609 46.9081 20.0198 46.9079 19.7762C46.9095 19.5325 46.862 19.2909 46.7682 19.0659C46.6744 18.8409 46.5363 18.6371 46.362 18.4666C46.1878 18.2864 45.9787 18.1435 45.7475 18.0467C45.5162 17.9499 45.2677 17.9011 45.017 17.9034Z" fill="white"/>
<path d="M57.2667 23.6481C56.8601 23.1985 56.3624 22.8406 55.8067 22.5983C55.251 22.3559 54.65 22.2346 54.0438 22.2424C53.3668 22.222 52.6934 22.3484 52.07 22.6129C51.4465 22.8774 50.8878 23.2737 50.4322 23.7747C49.5063 24.7831 49.0347 26.2063 49.0347 27.9961C49.0347 29.786 49.5063 31.231 50.4322 32.2307C50.8897 32.7284 51.4491 33.1216 52.0723 33.3838C52.6955 33.6459 53.3679 33.7708 54.0438 33.7499C54.6533 33.7548 55.2567 33.6282 55.8129 33.3789C56.3691 33.1295 56.865 32.7632 57.2667 32.3049V32.9729C57.2667 33.8984 56.9872 34.5707 56.437 34.9679C55.8425 35.3832 55.1313 35.5987 54.4062 35.5835C53.7925 35.6181 53.1785 35.5189 52.6069 35.2927C52.0354 35.0666 51.5198 34.7189 51.096 34.2738L50.9475 34.1123L49.4627 36.5046L49.5675 36.5963C50.9182 37.7328 52.6416 38.3299 54.4062 38.2726C55.1193 38.2781 55.8305 38.1974 56.5243 38.0325C57.2011 37.8614 57.8486 37.5907 58.4458 37.2293C59.0983 36.8243 59.6211 36.2411 59.9525 35.5485C60.3382 34.7227 60.5266 33.8185 60.5027 32.9074V22.513H57.2667V23.6481ZM57.2667 29.7162C57.0061 30.0544 56.6695 30.3266 56.2841 30.5107C55.8741 30.7305 55.4173 30.8488 54.9521 30.8556C54.6004 30.8726 54.2492 30.8132 53.9227 30.6813C53.5962 30.5494 53.3022 30.3482 53.0612 30.0916C52.594 29.4937 52.3403 28.7569 52.3403 27.9983C52.3403 27.2397 52.594 26.5029 53.0612 25.905C53.3019 25.6477 53.5956 25.4457 53.9221 25.313C54.2486 25.1804 54.6001 25.1202 54.9521 25.1367C55.4208 25.1403 55.882 25.2555 56.2972 25.4729C56.6816 25.6568 57.0146 25.9327 57.2667 26.2761V29.7162Z" fill="white"/>
<path d="M66.8221 22.5176H63.6079V33.82H66.8221V22.5176Z" fill="white"/>
<path d="M65.206 17.9037C64.9625 17.9041 64.7214 17.9525 64.4966 18.0461C64.2718 18.1398 64.0676 18.2768 63.8959 18.4494C63.7174 18.6177 63.5754 18.8207 63.4785 19.0459C63.3816 19.2712 63.3319 19.5139 63.3325 19.7591C63.3393 20.2591 63.5413 20.7366 63.8954 21.0898C64.2495 21.4429 64.7277 21.6437 65.2279 21.6494C65.4788 21.6537 65.728 21.606 65.9596 21.509C66.1911 21.4121 66.4 21.2681 66.5729 21.0862C66.746 20.9148 66.8834 20.7108 66.9771 20.486C67.0708 20.2612 67.1189 20.0201 67.1188 19.7766C67.1206 19.5324 67.0727 19.2904 66.9782 19.0653C66.8836 18.8401 66.7442 18.6366 66.5686 18.4669C66.3928 18.2839 66.1809 18.1394 65.9464 18.0424C65.7119 17.9455 65.4598 17.8983 65.206 17.9037Z" fill="white"/>
<path d="M75.4561 30.9173C75.2109 31.1171 74.8979 31.2141 74.5827 31.188C74.468 31.1918 74.354 31.1684 74.2501 31.1199C74.1461 31.0713 74.0551 30.9989 73.9844 30.9086C73.8207 30.69 73.7375 30.4218 73.7485 30.149V25.3469H75.9758V22.4962H73.7485V19.4971H70.5125V22.4962H68.6914V25.3469H70.5125V30.9173C70.4858 31.3449 70.5467 31.7734 70.6917 32.1765C70.8366 32.5797 71.0625 32.9489 71.3553 33.2616C72.0271 33.8432 72.9011 34.1365 73.7878 34.078C74.9015 34.078 75.7487 33.8292 76.3077 33.3359L76.3863 33.266L75.6657 30.7165L75.4561 30.9173Z" fill="white"/>
<path d="M86.5792 23.2506C85.5337 22.5444 84.2896 22.191 83.0287 22.2422C81.2299 22.1951 79.4792 22.8263 78.1245 24.0102L78.024 24.0975L79.2818 26.324L79.4346 26.1843C80.2661 25.3825 81.3757 24.9335 82.5309 24.9313C83.1175 24.9021 83.6974 25.0662 84.1817 25.3985C84.3724 25.5368 84.5262 25.7198 84.6298 25.9314C84.7333 26.1429 84.7834 26.3767 84.7756 26.6121V27.6773C83.9939 26.9526 82.8803 26.5815 81.4609 26.5815C80.4589 26.5661 79.4813 26.8908 78.6878 27.5026C78.2784 27.8376 77.9549 28.2655 77.7445 28.7508C77.5341 29.236 77.4428 29.7645 77.4781 30.2922C77.4544 30.8219 77.5532 31.3499 77.7668 31.8353C77.9804 32.3206 78.303 32.7501 78.7097 33.0906C79.478 33.7414 80.4539 34.096 81.4609 34.0903C82.6751 34.1561 83.8663 33.7404 84.7756 32.9334V33.8065H87.9898V26.551C87.9898 25.0448 87.5182 23.9316 86.5792 23.2506ZM84.7756 30.9645C84.336 31.5262 83.6169 31.8085 82.6182 31.8114C82.127 31.8295 81.643 31.6887 81.2382 31.4098C81.0698 31.2933 80.9335 31.1362 80.8419 30.9531C80.7503 30.7699 80.7064 30.5667 80.7142 30.3621C80.7045 30.1517 80.7474 29.9422 80.8389 29.7524C80.9303 29.5627 81.0676 29.3986 81.2382 29.2751C81.6415 28.9923 82.1259 28.8482 82.6182 28.8647C83.6139 28.8647 84.3331 29.147 84.7756 29.7116V30.9645Z" fill="white"/>
<path d="M91.0947 20.4395V33.8242H94.3089V24.984C92.8759 23.7601 91.7711 22.1981 91.0947 20.4395Z" fill="white"/>
<path d="M101.615 25.8041C106.798 25.8041 111 21.6039 111 16.4226C111 11.2413 106.798 7.04102 101.615 7.04102C96.4318 7.04102 92.23 11.2413 92.23 16.4226C92.23 21.6039 96.4318 25.8041 101.615 25.8041Z" fill="url(#paint0_linear_483_7306)"/>
<defs>
<linearGradient id="paint0_linear_483_7306" x1="94.979" y1="23.0595" x2="108.25" y2="9.78408" gradientUnits="userSpaceOnUse">
<stop offset="0.04" stop-color="#F19300"/>
<stop offset="0.34" stop-color="#EB5D2D"/>
<stop offset="0.64" stop-color="#E62B57"/>
<stop offset="0.87" stop-color="#E20C70"/>
<stop offset="1" stop-color="#E1007A"/>
</linearGradient>
</defs>
</svg>
