<svg width="17" height="17" viewBox="0 0 17 17" fill="none" xmlns="http://www.w3.org/2000/svg">
<path d="M7.20937 11.8923L12.8111 6.29063L12.2928 5.77739L7.20937 10.8776L4.65168 8.31995L4.15528 8.83318L7.20937 11.8923ZM8.50293 16.375C7.41732 16.375 6.39799 16.1684 5.44494 15.7551C4.49187 15.3418 3.65712 14.7773 2.94067 14.0615C2.22423 13.3457 1.65918 12.5117 1.24551 11.5596C0.831835 10.6074 0.625 9.58853 0.625 8.50293C0.625 7.41395 0.831639 6.39013 1.24492 5.43146C1.65821 4.4728 2.22274 3.63889 2.93852 2.92973C3.6543 2.22058 4.48827 1.65918 5.44043 1.24551C6.39259 0.831835 7.41147 0.625 8.49707 0.625C9.58605 0.625 10.6099 0.831639 11.5685 1.24492C12.5272 1.65821 13.3611 2.2191 14.0703 2.92758C14.7794 3.63607 15.3408 4.4692 15.7545 5.42696C16.1682 6.38473 16.375 7.4081 16.375 8.49707C16.375 9.58268 16.1684 10.602 15.7551 11.5551C15.3418 12.5081 14.7809 13.3429 14.0724 14.0593C13.3639 14.7758 12.5308 15.3408 11.573 15.7545C10.6153 16.1682 9.5919 16.375 8.50293 16.375ZM8.5 15.7019C10.5035 15.7019 12.2047 15.0016 13.6036 13.6011C15.0025 12.2005 15.7019 10.5002 15.7019 8.5C15.7019 6.49647 15.0025 4.79526 13.6036 3.39639C12.2047 1.99751 10.5035 1.29807 8.5 1.29807C6.49984 1.29807 4.79948 1.99751 3.39892 3.39639C1.99836 4.79526 1.29807 6.49647 1.29807 8.5C1.29807 10.5002 1.99836 12.2005 3.39892 13.6011C4.79948 15.0016 6.49984 15.7019 8.5 15.7019Z" fill="white"/>
</svg>
