<svg width="21" height="21" viewBox="0 0 21 21" fill="none" xmlns="http://www.w3.org/2000/svg">
<path d="M4.0415 16.4093C5.08183 15.6921 6.11682 15.1362 7.14645 14.7416C8.1761 14.347 9.29389 14.1497 10.4998 14.1497C11.7057 14.1497 12.8262 14.347 13.8612 14.7416C14.8962 15.1362 15.9338 15.6921 16.9742 16.4093C17.7314 15.5319 18.2939 14.6054 18.6618 13.63C19.0298 12.6545 19.2137 11.6111 19.2137 10.4998C19.2137 8.04255 18.3757 5.97591 16.6997 4.29989C15.0237 2.62388 12.9571 1.78588 10.4998 1.78588C8.04255 1.78588 5.97591 2.62388 4.29989 4.29989C2.62388 5.97591 1.78588 8.04255 1.78588 10.4998C1.78588 11.6111 1.97251 12.6545 2.34577 13.63C2.71904 14.6054 3.28428 15.5319 4.0415 16.4093ZM10.4942 11.0907C9.55775 11.0907 8.77005 10.7694 8.13104 10.1266C7.49201 9.48378 7.17249 8.69419 7.17249 7.75778C7.17249 6.82139 7.49389 6.03368 8.13669 5.39466C8.77946 4.75564 9.56906 4.43614 10.5055 4.43614C11.4419 4.43614 12.2296 4.75753 12.8686 5.40031C13.5076 6.04308 13.8271 6.83268 13.8271 7.76908C13.8271 8.70549 13.5057 9.4932 12.8629 10.1322C12.2202 10.7712 11.4306 11.0907 10.4942 11.0907ZM10.512 20.3956C9.14037 20.3956 7.85354 20.1372 6.65153 19.6204C5.44953 19.1035 4.39952 18.3954 3.5015 17.496C2.6035 16.5965 1.89609 15.5486 1.37926 14.3521C0.862424 13.1555 0.604004 11.8708 0.604004 10.4979C0.604004 9.12497 0.862424 7.8409 1.37926 6.64567C1.89609 5.45043 2.60421 4.40308 3.50364 3.50364C4.40308 2.60421 5.45106 1.89609 6.64757 1.37926C7.8441 0.862424 9.12882 0.604004 10.5017 0.604004C11.8747 0.604004 13.1587 0.862424 14.354 1.37926C15.5492 1.89609 16.5965 2.60421 17.496 3.50364C18.3954 4.40308 19.1035 5.45071 19.6204 6.6465C20.1372 7.8423 20.3956 9.12268 20.3956 10.4876C20.3956 11.8593 20.1372 13.1461 19.6204 14.3481C19.1035 15.5501 18.3954 16.6001 17.496 17.4981C16.5965 18.3961 15.5489 19.1035 14.3531 19.6204C13.1573 20.1372 11.8769 20.3956 10.512 20.3956ZM10.4998 19.2137C11.468 19.2137 12.4229 19.0598 13.3644 18.752C14.3059 18.4442 15.1927 17.9464 16.0247 17.2586C15.1927 16.647 14.3116 16.1729 13.3814 15.8363C12.4513 15.4998 11.4907 15.3315 10.4998 15.3315C9.50889 15.3315 8.54669 15.4981 7.6132 15.8313C6.67969 16.1645 5.80362 16.6403 4.98499 17.2586C5.81031 17.9464 6.69372 18.4442 7.63523 18.752C8.57674 19.0598 9.5316 19.2137 10.4998 19.2137ZM10.5012 9.90887C11.1239 9.90887 11.637 9.70676 12.0403 9.30252C12.4436 8.89827 12.6453 8.38478 12.6453 7.76205C12.6453 7.13931 12.4431 6.62628 12.0389 6.22296C11.6346 5.81965 11.1211 5.61799 10.4984 5.61799C9.87568 5.61799 9.36266 5.82012 8.95934 6.22437C8.55603 6.6286 8.35437 7.14209 8.35437 7.76484C8.35437 8.38756 8.5565 8.90058 8.96075 9.3039C9.36498 9.70722 9.87847 9.90887 10.5012 9.90887Z" fill="white"/>
</svg>
