<svg width="21" height="21" viewBox="0 0 21 21" fill="none" xmlns="http://www.w3.org/2000/svg">
<path d="M9.89486 17.7234H11.0367V16.4193C11.9822 16.3445 12.7701 16.054 13.4004 15.5479C14.0308 15.0417 14.346 14.3326 14.346 13.4205C14.346 12.5751 14.0992 11.8914 13.6058 11.3692C13.1123 10.847 12.2599 10.3409 11.0487 9.85078C9.97495 9.42744 9.23911 9.05418 8.84114 8.73098C8.44317 8.40781 8.24419 7.96176 8.24419 7.39286C8.24419 6.8413 8.45452 6.39257 8.8752 6.04669C9.29588 5.7008 9.85478 5.52786 10.5519 5.52786C11.0727 5.52786 11.5241 5.64604 11.9061 5.88242C12.288 6.11879 12.6125 6.46 12.8796 6.90606L13.8592 6.44734C13.564 5.89312 13.1801 5.45575 12.7073 5.13523C12.2346 4.81472 11.695 4.62643 11.0887 4.57033V3.29228H9.94695V4.57033C9.04816 4.69186 8.35104 5.01237 7.85559 5.53187C7.36014 6.05136 7.11242 6.67169 7.11242 7.39286C7.11242 8.20348 7.36448 8.84717 7.86861 9.32393C8.37275 9.80068 9.16902 10.2561 10.2574 10.6901C11.414 11.1629 12.1975 11.5879 12.6082 11.9651C13.0189 12.3424 13.2242 12.8275 13.2242 13.4205C13.2242 14.0628 12.9708 14.5566 12.464 14.9019C11.9571 15.2471 11.3599 15.4197 10.6721 15.4197C10.015 15.4197 9.42342 15.2354 8.89726 14.8668C8.37108 14.4982 7.98379 13.9907 7.73538 13.3444L6.69775 13.717C7.05565 14.4621 7.49435 15.0431 8.01385 15.4597C8.53334 15.8764 9.16035 16.1789 9.89486 16.3672V17.7234ZM10.4998 20.3956C9.14297 20.3956 7.86426 20.1355 6.66369 19.6154C5.4631 19.0952 4.41309 18.3854 3.51367 17.486C2.61422 16.5865 1.90442 15.5365 1.38426 14.3359C0.864091 13.1354 0.604004 11.8567 0.604004 10.4998C0.604004 9.13229 0.864091 7.84657 1.38426 6.64265C1.90442 5.43873 2.61422 4.39139 3.51367 3.50064C4.41309 2.60988 5.4631 1.90442 6.66369 1.38426C7.86426 0.86409 9.14297 0.604004 10.4998 0.604004C11.8673 0.604004 13.1531 0.86409 14.357 1.38426C15.5609 1.90442 16.6082 2.60988 17.499 3.50064C18.3897 4.39139 19.0952 5.43873 19.6154 6.64265C20.1355 7.84657 20.3956 9.13229 20.3956 10.4998C20.3956 11.8567 20.1355 13.1354 19.6154 14.3359C19.0952 15.5365 18.3897 16.5865 17.499 17.486C16.6082 18.3854 15.5609 19.0952 14.357 19.6154C13.1531 20.1355 11.8673 20.3956 10.4998 20.3956ZM10.4998 19.2137C12.925 19.2137 14.9836 18.3651 16.6757 16.6677C18.3677 14.9703 19.2137 12.9143 19.2137 10.4998C19.2137 8.0746 18.3677 6.01597 16.6757 4.32393C14.9836 2.63189 12.925 1.78588 10.4998 1.78588C8.08528 1.78588 6.02933 2.63189 4.33195 4.32393C2.63457 6.01597 1.78588 8.0746 1.78588 10.4998C1.78588 12.9143 2.63457 14.9703 4.33195 16.6677C6.02933 18.3651 8.08528 19.2137 10.4998 19.2137Z" fill="white"/>
</svg>
