<svg width="25" height="16" viewBox="0 0 25 16" fill="none" xmlns="http://www.w3.org/2000/svg">
<path d="M12.6241 7.05325C13.0288 6.57115 13.3196 6.06168 13.4965 5.52484C13.6734 4.98798 13.7619 4.38068 13.7619 3.70294C13.7619 3.02519 13.6734 2.41956 13.4965 1.88604C13.3196 1.35253 13.0288 0.844724 12.6241 0.362623C13.7432 0.147606 14.7168 0.352268 15.5447 0.976608C16.3727 1.60093 16.7867 2.51137 16.7867 3.70794C16.7867 4.9045 16.3727 5.81327 15.5447 6.43426C14.7168 7.05525 13.7432 7.26158 12.6241 7.05325ZM18.0187 15.1121V13.165C18.0187 12.401 17.8398 11.6919 17.4819 11.0375C17.124 10.3833 16.493 9.8391 15.5889 9.40507C17.9379 9.72025 19.5735 10.189 20.4956 10.8113C21.4178 11.4336 21.8788 12.2182 21.8788 13.165V15.1121H18.0187ZM20.4726 8.10695V5.64301H18.0087V4.46116H20.4726V1.99723H21.6545V4.46116H24.1184V5.64301H21.6545V8.10695H20.4726ZM8.59867 7.16343C7.59274 7.16343 6.76618 6.83816 6.11898 6.18762C5.47179 5.53709 5.1482 4.70886 5.1482 3.70294C5.1482 2.697 5.47179 1.87043 6.11898 1.22322C6.76618 0.576035 7.59274 0.252441 8.59867 0.252441C9.6046 0.252441 10.4328 0.576035 11.0834 1.22322C11.7339 1.87043 12.0592 2.697 12.0592 3.70294C12.0592 4.70886 11.7339 5.53709 11.0834 6.18762C10.4328 6.83816 9.6046 7.16343 8.59867 7.16343ZM0.881374 15.1121V13.135C0.881374 12.6142 1.02526 12.1364 1.31304 11.7017C1.60084 11.267 1.99046 10.9382 2.48192 10.7151C3.63843 10.2063 4.69378 9.83373 5.64796 9.59736C6.60216 9.36099 7.58573 9.24281 8.59867 9.24281C9.61162 9.24281 10.5909 9.36099 11.5364 9.59736C12.4819 9.83373 13.5362 10.2063 14.6994 10.7151C15.1842 10.9382 15.5748 11.267 15.8713 11.7017C16.1677 12.1364 16.316 12.6142 16.316 13.135V15.1121H0.881374ZM8.60369 5.98158C9.25406 5.98158 9.79558 5.76523 10.2283 5.33252C10.661 4.89983 10.8773 4.3583 10.8773 3.70794C10.8773 3.05757 10.661 2.51604 10.2283 2.08335C9.79558 1.65066 9.25238 1.43432 8.59867 1.43432C7.94497 1.43432 7.40344 1.65066 6.97408 2.08335C6.54472 2.51604 6.33005 3.05757 6.33005 3.70794C6.33005 4.3583 6.54453 4.89983 6.97351 5.33252C7.40248 5.76523 7.94588 5.98158 8.60369 5.98158ZM2.06322 13.9303H15.1341V13.135C15.1341 12.865 15.058 12.6083 14.9057 12.3646C14.7535 12.121 14.5198 11.9231 14.2046 11.7708C13.1202 11.262 12.1557 10.9104 11.3111 10.7161C10.4665 10.5218 9.56238 10.4247 8.59867 10.4247C7.63495 10.4247 6.73347 10.5218 5.89421 10.7161C5.05496 10.9104 4.08245 11.262 2.97669 11.7708C2.68288 11.9124 2.45719 12.1073 2.2996 12.3557C2.14202 12.6042 2.06322 12.8639 2.06322 13.135V13.9303Z" fill="white"/>
</svg>
