<svg width="21" height="21" viewBox="0 0 21 21" fill="none" xmlns="http://www.w3.org/2000/svg">
<path d="M7.51553 15.4317H13.3148C13.5111 15.4317 13.6734 15.3913 13.8016 15.3105C13.9298 15.2297 14.0413 15.1051 14.1361 14.9369L16.0171 10.5779C16.0585 10.4711 16.0922 10.3359 16.1183 10.1723C16.1443 10.0087 16.1573 9.88015 16.1573 9.78666V9.28187C16.1573 9.09892 16.1176 8.96771 16.0381 8.88825C15.9587 8.80879 15.8275 8.76906 15.6445 8.76906H9.98145L10.6781 5.44658C10.7118 5.32051 10.7096 5.19837 10.6715 5.08018C10.6335 4.96198 10.5744 4.85948 10.4943 4.77268L10.1677 4.43015L6.57605 8.30031C6.51996 8.40866 6.46554 8.51821 6.4128 8.62895C6.36004 8.7397 6.33366 8.85985 6.33366 8.9894V14.2498C6.33366 14.5526 6.45227 14.8253 6.68949 15.0678C6.9267 15.3104 7.20204 15.4317 7.51553 15.4317ZM10.502 20.3956C9.14404 20.3956 7.86455 20.1359 6.66358 19.6165C5.46261 19.097 4.41236 18.3877 3.51283 17.4886C2.61328 16.5894 1.90367 15.5396 1.384 14.3392C0.864327 13.1388 0.604492 11.8595 0.604492 10.5016C0.604492 9.13288 0.864215 7.84638 1.38366 6.64208C1.9031 5.43775 2.61239 4.39017 3.51152 3.49932C4.41067 2.60845 5.46046 1.90318 6.6609 1.38351C7.86135 0.863839 9.14057 0.604004 10.4986 0.604004C11.8672 0.604004 13.1537 0.863726 14.358 1.38317C15.5624 1.90262 16.6099 2.60756 17.5008 3.49801C18.3917 4.38848 19.0969 5.43561 19.6166 6.63939C20.1363 7.84316 20.3961 9.12939 20.3961 10.4981C20.3961 11.8561 20.1364 13.1356 19.6169 14.3365C19.0975 15.5375 18.3925 16.5878 17.5021 17.4873C16.6116 18.3868 15.5645 19.0964 14.3607 19.6161C13.1569 20.1358 11.8707 20.3956 10.502 20.3956ZM10.5003 19.2137C12.9255 19.2137 14.9841 18.3651 16.6762 16.6677C18.3682 14.9703 19.2142 12.9143 19.2142 10.4998C19.2142 8.0746 18.3682 6.01597 16.6762 4.32393C14.9841 2.63189 12.9255 1.78588 10.5003 1.78588C8.08577 1.78588 6.02981 2.63189 4.33244 4.32393C2.63506 6.01597 1.78637 8.0746 1.78637 10.4998C1.78637 12.9143 2.63506 14.9703 4.33244 16.6677C6.02981 18.3651 8.08577 19.2137 10.5003 19.2137Z" fill="white"/>
</svg>
