<svg width="17" height="21" viewBox="0 0 17 21" fill="none" xmlns="http://www.w3.org/2000/svg">
<path d="M8.49997 12.3428C9.00612 12.3428 9.43647 12.1655 9.79102 11.8109C10.1456 11.4563 10.3229 11.026 10.3229 10.5198C10.3229 10.0137 10.1456 9.58336 9.79102 9.2288C9.43647 8.87423 9.00612 8.69695 8.49997 8.69695C7.99383 8.69695 7.56348 8.87423 7.20893 9.2288C6.85437 9.58336 6.67708 10.0137 6.67708 10.5198C6.67708 11.026 6.85437 11.4563 7.20893 11.8109C7.56348 12.1655 7.99383 12.3428 8.49997 12.3428ZM4.59375 16.1889H12.4062V15.8103C12.4062 15.4404 12.3067 15.1118 12.1077 14.8247C11.9087 14.5376 11.6363 14.3172 11.2904 14.1637C10.8591 13.9794 10.4114 13.8368 9.94729 13.736C9.48321 13.6351 9.00077 13.5847 8.49997 13.5847C7.99918 13.5847 7.51674 13.6351 7.05266 13.736C6.58859 13.8368 6.14088 13.9794 5.70951 14.1637C5.36364 14.3172 5.09121 14.5376 4.89221 14.8247C4.69324 15.1118 4.59375 15.4404 4.59375 15.8103V16.1889ZM14.81 20.3956H2.18992C1.78143 20.3956 1.42891 20.2473 1.13234 19.9508C0.835781 19.6542 0.6875 19.3017 0.6875 18.8932V2.10643C0.6875 1.69794 0.835781 1.34541 1.13234 1.04885C1.42891 0.752285 1.78143 0.604004 2.18992 0.604004H10.379L16.3124 6.53749V18.8932C16.3124 19.3017 16.1642 19.6542 15.8676 19.9508C15.571 20.2473 15.2185 20.3956 14.81 20.3956ZM14.81 19.2137C14.8902 19.2137 14.9636 19.1804 15.0304 19.1136C15.0972 19.0468 15.1306 18.9733 15.1306 18.8932V7.07033L9.84612 1.78588H2.18992C2.10978 1.78588 2.03632 1.81926 1.96953 1.88604C1.90276 1.95282 1.86937 2.02629 1.86937 2.10643V18.8932C1.86937 18.9733 1.90276 19.0468 1.96953 19.1136C2.03632 19.1804 2.10978 19.2137 2.18992 19.2137H14.81Z" fill="white"/>
</svg>
