<svg width="21" height="22" viewBox="0 0 21 22" fill="none" xmlns="http://www.w3.org/2000/svg">
<path d="M2.14842 20.3957C1.73993 20.3957 1.3874 20.2474 1.09084 19.9508C0.794277 19.6543 0.645996 19.3018 0.645996 18.8933V3.80923C0.645996 3.40074 0.794277 3.04821 1.09084 2.75165C1.3874 2.45508 1.73993 2.3068 2.14842 2.3068H4.07149V0.483887H5.38357V2.3068H13.6568V0.483887H14.9388V2.3068H16.8519C17.2603 2.3068 17.6129 2.45508 17.9094 2.75165C18.206 3.04821 18.3543 3.40074 18.3543 3.80923V10.8164H17.1724V8.54678H1.82787V18.8933C1.82787 18.9734 1.86126 19.0469 1.92803 19.1137C1.99482 19.1804 2.06828 19.2138 2.14842 19.2138H8.94316V20.3957H2.14842ZM19.1595 14.7126L17.571 13.1241L18.3262 12.3689C18.4451 12.2634 18.5874 12.2106 18.7529 12.2106C18.9185 12.2106 19.054 12.2634 19.1595 12.3689L19.9147 13.1241C20.0269 13.243 20.083 13.3852 20.083 13.5508C20.083 13.7163 20.0269 13.8519 19.9147 13.9574L19.1595 14.7126ZM11.0466 21.247V19.6585L16.5614 14.1437L18.1499 15.7322L12.6351 21.247H11.0466ZM1.82787 7.36493H17.1724V3.80923C17.1724 3.72909 17.139 3.65562 17.0722 3.58883C17.0055 3.52206 16.932 3.48868 16.8519 3.48868H2.14842C2.06828 3.48868 1.99482 3.52206 1.92803 3.58883C1.86126 3.65562 1.82787 3.72909 1.82787 3.80923V7.36493Z" fill="white"/>
</svg>
