<svg width="21" height="20" viewBox="0 0 21 20" fill="none" xmlns="http://www.w3.org/2000/svg">
<path d="M14.667 9.33794C14.922 9.33794 15.1394 9.24813 15.319 9.06851C15.4986 8.88889 15.5884 8.67155 15.5884 8.41648C15.5884 8.16141 15.4986 7.94407 15.319 7.76445C15.1394 7.58483 14.922 7.49502 14.667 7.49502C14.4119 7.49502 14.1946 7.58483 14.0149 7.76445C13.8353 7.94407 13.7455 8.16141 13.7455 8.41648C13.7455 8.67155 13.8353 8.88889 14.0149 9.06851C14.1946 9.24813 14.4119 9.33794 14.667 9.33794ZM6.33363 6.73377H11.542V5.55192H6.33363V6.73377ZM3.07845 19.354C2.52824 17.4549 1.97836 15.5652 1.42882 13.6849C0.879267 11.8046 0.604492 9.87481 0.604492 7.89564C0.604492 6.44533 1.10997 5.21471 2.12092 4.20377C3.13186 3.19281 4.36249 2.68734 5.8128 2.68734H11.2816C11.7583 2.06102 12.3302 1.55722 12.9973 1.17593C13.6644 0.794646 14.3945 0.604004 15.1878 0.604004C15.4749 0.604004 15.7203 0.705835 15.9239 0.909498C16.1276 1.11314 16.2294 1.35853 16.2294 1.64564C16.2294 1.71643 16.2198 1.78721 16.2004 1.85799C16.181 1.92875 16.1607 1.99419 16.1393 2.05429C16.0431 2.30537 15.9613 2.56245 15.8939 2.82554C15.8264 3.08863 15.7687 3.35439 15.7206 3.62283L18.431 6.33317H20.3961V12.6973L17.5536 13.6308L15.8388 19.354H11.0212V17.2706H7.89611V19.354H3.07845ZM3.96986 18.1721H6.71423V16.0887H12.203V18.1721H14.9574L16.588 12.7334L19.2142 11.8319V7.51505H17.9402L14.5267 4.10158C14.5374 3.68759 14.5838 3.28828 14.666 2.90367C14.7481 2.51905 14.8446 2.13511 14.9554 1.75184C14.3424 1.91209 13.7709 2.16482 13.2407 2.51005C12.7105 2.85527 12.2959 3.30833 11.9967 3.86921H5.8128C4.69539 3.86921 3.74496 4.26093 2.96152 5.04437C2.17809 5.82782 1.78637 6.77825 1.78637 7.89564C1.78637 9.66361 2.03309 11.391 2.52655 13.0778C3.02 14.7646 3.50111 16.4627 3.96986 18.1721Z" fill="white"/>
</svg>
