<svg width="21" height="21" viewBox="0 0 21 21" fill="none" xmlns="http://www.w3.org/2000/svg">
<path d="M4.04199 16.4093C5.08232 15.6921 6.1173 15.1362 7.14694 14.7416C8.17659 14.347 9.29438 14.1497 10.5003 14.1497C11.7062 14.1497 12.8267 14.347 13.8617 14.7416C14.8967 15.1362 15.9343 15.6921 16.9746 16.4093C17.7319 15.5319 18.2944 14.6054 18.6623 13.63C19.0303 12.6545 19.2142 11.6111 19.2142 10.4998C19.2142 8.04255 18.3762 5.97591 16.7002 4.29989C15.0242 2.62388 12.9576 1.78588 10.5003 1.78588C8.04304 1.78588 5.9764 2.62388 4.30038 4.29989C2.62437 5.97591 1.78637 8.04255 1.78637 10.4998C1.78637 11.6111 1.973 12.6545 2.34626 13.63C2.71953 14.6054 3.28477 15.5319 4.04199 16.4093ZM10.4946 11.0907C9.55824 11.0907 8.77053 10.7694 8.13152 10.1266C7.4925 9.48378 7.17298 8.69419 7.17298 7.75778C7.17298 6.82139 7.49438 6.03368 8.13718 5.39466C8.77995 4.75564 9.56954 4.43614 10.506 4.43614C11.4424 4.43614 12.2301 4.75753 12.8691 5.40031C13.5081 6.04308 13.8276 6.83268 13.8276 7.76908C13.8276 8.70549 13.5062 9.4932 12.8634 10.1322C12.2206 10.7712 11.4311 11.0907 10.4946 11.0907ZM10.5125 20.3956C9.14085 20.3956 7.85403 20.1372 6.65202 19.6204C5.45002 19.1035 4.40001 18.3954 3.50199 17.496C2.60399 16.5965 1.89658 15.5486 1.37975 14.3521C0.862912 13.1555 0.604492 11.8708 0.604492 10.4979C0.604492 9.12497 0.862912 7.8409 1.37975 6.64567C1.89658 5.45043 2.6047 4.40308 3.50413 3.50364C4.40357 2.60421 5.45155 1.89609 6.64806 1.37926C7.84459 0.862424 9.12931 0.604004 10.5022 0.604004C11.8751 0.604004 13.1592 0.862424 14.3544 1.37926C15.5497 1.89609 16.597 2.60421 17.4965 3.50364C18.3959 4.40308 19.104 5.45071 19.6208 6.6465C20.1377 7.8423 20.3961 9.12268 20.3961 10.4876C20.3961 11.8593 20.1377 13.1461 19.6208 14.3481C19.104 15.5501 18.3959 16.6001 17.4965 17.4981C16.597 18.3961 15.5494 19.1035 14.3536 19.6204C13.1578 20.1372 11.8774 20.3956 10.5125 20.3956ZM10.5003 19.2137C11.4685 19.2137 12.4234 19.0598 13.3649 18.752C14.3064 18.4442 15.1931 17.9464 16.0251 17.2586C15.1931 16.647 14.3121 16.1729 13.3819 15.8363C12.4518 15.4998 11.4912 15.3315 10.5003 15.3315C9.50938 15.3315 8.54717 15.4981 7.61368 15.8313C6.68018 16.1645 5.80411 16.6403 4.98548 17.2586C5.81079 17.9464 6.69421 18.4442 7.63572 18.752C8.57723 19.0598 9.53209 19.2137 10.5003 19.2137ZM10.5017 9.90887C11.1244 9.90887 11.6375 9.70676 12.0408 9.30252C12.4441 8.89827 12.6457 8.38478 12.6457 7.76205C12.6457 7.13931 12.4436 6.62628 12.0394 6.22296C11.6351 5.81965 11.1216 5.61799 10.4989 5.61799C9.87617 5.61799 9.36315 5.82012 8.95983 6.22437C8.55652 6.6286 8.35486 7.14209 8.35486 7.76484C8.35486 8.38756 8.55698 8.90058 8.96124 9.3039C9.36547 9.70722 9.87896 9.90887 10.5017 9.90887Z" fill="url(#paint0_linear_787_308)"/>
<defs>
<linearGradient id="paint0_linear_787_308" x1="20.3961" y1="31.2077" x2="-0.558557" y2="30.3895" gradientUnits="userSpaceOnUse">
<stop stop-color="#E1007A"/>
<stop offset="0.994792" stop-color="#F19300"/>
</linearGradient>
</defs>
</svg>
