<svg width="16" height="16" viewBox="0 0 16 16" fill="none" xmlns="http://www.w3.org/2000/svg">
<path d="M8.00833 15.5C6.96422 15.5 5.98996 15.3032 5.08554 14.9096C4.18111 14.516 3.38773 13.9783 2.7054 13.2966C2.02308 12.615 1.48493 11.8218 1.09096 10.9172C0.696986 10.0126 0.5 9.03765 0.5 7.99237C0.5 6.95778 0.696799 5.98508 1.0904 5.07427C1.48401 4.16347 2.02166 3.37037 2.70335 2.69498C3.38505 2.0196 4.17819 1.48493 5.08279 1.09096C5.9874 0.696986 6.96235 0.5 8.00763 0.5C9.04222 0.5 10.0149 0.696799 10.9257 1.0904C11.8365 1.48401 12.6296 2.01819 13.305 2.69294C13.9804 3.36769 14.5151 4.16114 14.909 5.07329C15.303 5.98546 15.5 6.95825 15.5 7.99167C15.5 9.03578 15.3032 10.01 14.9096 10.9145C14.516 11.8189 13.9818 12.611 13.3071 13.2907C12.6323 13.9705 11.8389 14.5087 10.9267 14.9052C10.0145 15.3017 9.04175 15.5 8.00833 15.5ZM8.01042 14.859C9.9116 14.859 11.5283 14.192 12.8606 12.8582C14.1928 11.5243 14.859 9.90144 14.859 7.98958C14.859 6.0884 14.1941 4.47168 12.8645 3.13942C11.5348 1.80715 9.91333 1.14102 8 1.14102C6.09508 1.14102 4.47569 1.80585 3.14183 3.13552C1.80796 4.46517 1.14102 6.08667 1.14102 8C1.14102 9.90492 1.80796 11.5243 3.14183 12.8582C4.47569 14.192 6.09856 14.859 8.01042 14.859Z" fill="white"/>
<rect x="4.20703" y="7.65527" width="7.58621" height="0.689655" fill="white"/>
</svg>
