<svg width="16" height="16" viewBox="0 0 16 16" fill="none" xmlns="http://www.w3.org/2000/svg">
<path d="M7.70994 11.75H8.35096V8.35577H11.75V7.71475H8.35096V4.25H7.70994V7.71475H4.25V8.35577H7.70994V11.75ZM8.00833 15.5C6.96422 15.5 5.98996 15.3032 5.08554 14.9096C4.18111 14.516 3.38773 13.9783 2.7054 13.2966C2.02308 12.615 1.48493 11.8218 1.09096 10.9172C0.696986 10.0126 0.5 9.03765 0.5 7.99237C0.5 6.95778 0.696799 5.98508 1.0904 5.07427C1.48401 4.16347 2.02166 3.37037 2.70335 2.69498C3.38505 2.0196 4.17819 1.48493 5.08279 1.09096C5.9874 0.696986 6.96235 0.5 8.00763 0.5C9.04222 0.5 10.0149 0.696799 10.9257 1.0904C11.8365 1.48401 12.6296 2.01819 13.305 2.69294C13.9804 3.36769 14.5151 4.16114 14.909 5.07329C15.303 5.98546 15.5 6.95825 15.5 7.99167C15.5 9.03578 15.3032 10.01 14.9096 10.9145C14.516 11.8189 13.9818 12.611 13.3071 13.2907C12.6323 13.9705 11.8389 14.5087 10.9267 14.9052C10.0145 15.3017 9.04175 15.5 8.00833 15.5Z" fill="url(#paint0_linear_754_263)"/>
<path d="M8.35089 11.7503H7.70987V8.3561H4.24994V7.71508H7.70987V4.25033H8.35089V7.71508H11.7499V8.3561H8.35089V11.7503Z" fill="white"/>
<defs>
<linearGradient id="paint0_linear_754_263" x1="15.5" y1="23.6944" x2="-0.381471" y2="23.0743" gradientUnits="userSpaceOnUse">
<stop offset="0.135417" stop-color="#E1007A"/>
<stop offset="1" stop-color="#F19300"/>
</linearGradient>
</defs>
</svg>
