<svg width="109" height="26" viewBox="0 0 109 26" fill="none" xmlns="http://www.w3.org/2000/svg">
<path d="M0 1.71194H3.11698C3.72442 1.71194 4.28382 1.82182 4.79535 2.04158C5.30688 2.2532 5.74641 2.55028 6.11407 2.93283C6.48969 3.31537 6.78145 3.76707 6.98923 4.28801C7.197 4.80894 7.30092 5.37459 7.30092 5.98503C7.30092 6.59548 7.197 7.16113 6.98923 7.68206C6.78145 8.203 6.48969 8.65472 6.11407 9.03724C5.74641 9.41976 5.30688 9.72094 4.79535 9.9407C4.28382 10.1523 3.72442 10.2581 3.11698 10.2581H0V1.71194ZM1.70235 3.29909V8.67098H2.91318C3.32078 8.67098 3.6844 8.60589 4.00412 8.47564C4.33178 8.34538 4.60751 8.16225 4.83132 7.92624C5.06307 7.69023 5.23892 7.40942 5.35881 7.08383C5.48671 6.75015 5.55062 6.38388 5.55062 5.98503C5.55062 5.58619 5.48671 5.22404 5.35881 4.89845C5.23892 4.56477 5.06307 4.27984 4.83132 4.04383C4.60751 3.80782 4.33178 3.62469 4.00412 3.49443C3.6844 3.3642 3.32078 3.29909 2.91318 3.29909H1.70235ZM8.81565 1.71194H14.3543V3.29909H10.518V5.03275H13.8748V6.61989H10.518V8.67098H14.3543V10.2581H8.81565V1.71194ZM18.1533 10.2581L15.1442 1.71194H17.0144L19.0884 8.09716L21.1624 1.71194H22.9846L19.9756 10.2581H18.1533ZM24.1407 1.71194H29.6793V3.29909H25.8431V5.03275H29.1998V6.61989H25.8431V8.67098H29.6793V10.2581H24.1407V1.71194ZM31.1885 1.71194H32.8909V8.67098H36.7272V10.2581H31.1885V1.71194ZM42.1362 10.4535C41.4888 10.4535 40.8969 10.3436 40.3619 10.1238C39.8261 9.89591 39.3624 9.5826 38.9712 9.18375C38.5794 8.7849 38.2759 8.31288 38.0601 7.76752C37.8443 7.22217 37.7364 6.62806 37.7364 5.98503C37.7364 5.34201 37.8443 4.7479 38.0601 4.20255C38.2759 3.65719 38.5794 3.18514 38.9712 2.78632C39.3624 2.3875 39.8261 2.07821 40.3619 1.85845C40.8969 1.63055 41.4888 1.5166 42.1362 1.5166C42.7753 1.5166 43.3627 1.63055 43.8985 1.85845C44.4334 2.07821 44.8935 2.3875 45.2771 2.78632C45.6682 3.18514 45.9724 3.65719 46.1882 4.20255C46.404 4.7479 46.5119 5.34201 46.5119 5.98503C46.5119 6.62806 46.404 7.22217 46.1882 7.76752C45.9724 8.31288 45.6682 8.7849 45.2771 9.18375C44.8935 9.5826 44.4334 9.89591 43.8985 10.1238C43.3627 10.3436 42.7753 10.4535 42.1362 10.4535ZM42.1601 8.81748C42.5438 8.81748 42.8914 8.74828 43.2031 8.60993C43.5223 8.46343 43.798 8.26404 44.0303 8.0117C44.2619 7.75127 44.4417 7.45009 44.5698 7.10825C44.6972 6.75823 44.7616 6.37572 44.7616 5.96062C44.7616 5.56177 44.6972 5.19146 44.5698 4.84961C44.4417 4.50777 44.2619 4.21071 44.0303 3.95837C43.798 3.70603 43.5223 3.51069 43.2031 3.37234C42.8914 3.22584 42.5438 3.15258 42.1601 3.15258C41.76 3.15258 41.3966 3.22584 41.0692 3.37234C40.741 3.51069 40.4578 3.70603 40.218 3.95837C39.9857 4.21071 39.8059 4.50777 39.6785 4.84961C39.5504 5.19146 39.4867 5.56177 39.4867 5.96062C39.4867 6.37572 39.5504 6.75823 39.6785 7.10825C39.8059 7.45009 39.9857 7.75127 40.218 8.0117C40.4578 8.26404 40.741 8.46343 41.0692 8.60993C41.3966 8.74828 41.76 8.81748 42.1601 8.81748ZM49.6784 5.86295H51.3088C51.7081 5.86295 52.0236 5.74086 52.2559 5.49668C52.4956 5.2525 52.6155 4.93912 52.6155 4.5566C52.6155 4.17408 52.4956 3.8607 52.2559 3.61652C52.0236 3.37234 51.7081 3.25026 51.3088 3.25026H49.6784V5.86295ZM48.024 10.2581V1.71194H51.4047C51.8363 1.71194 52.2274 1.78113 52.5795 1.91949C52.9392 2.04972 53.2464 2.24099 53.5026 2.49331C53.7664 2.74563 53.9657 3.04677 54.1021 3.39676C54.2459 3.73861 54.3179 4.12525 54.3179 4.5566C54.3179 4.98795 54.2459 5.37864 54.1021 5.72865C53.9657 6.07866 53.7664 6.37976 53.5026 6.6321C53.2464 6.87628 52.9392 7.06758 52.5795 7.20592C52.2274 7.33617 51.8363 7.40126 51.4047 7.40126H49.6784V10.2581H48.024ZM55.6808 1.71194H61.2194V3.29909H57.3831V5.03275H60.7391V6.61989H57.3831V8.67098H61.2194V10.2581H55.6808V1.71194ZM62.7285 1.71194H65.8454C66.4523 1.71194 67.0121 1.82182 67.5238 2.04158C68.0348 2.2532 68.4746 2.55028 68.8425 2.93283C69.2179 3.31537 69.5094 3.76707 69.7177 4.28801C69.9252 4.80894 70.0294 5.37459 70.0294 5.98503C70.0294 6.59548 69.9252 7.16113 69.7177 7.68206C69.5094 8.203 69.2179 8.65472 68.8425 9.03724C68.4746 9.41976 68.0348 9.72094 67.5238 9.9407C67.0121 10.1523 66.4523 10.2581 65.8454 10.2581H62.7285V1.71194ZM64.4308 3.29909V8.67098H65.6416C66.0492 8.67098 66.4126 8.60589 66.7326 8.47564C67.06 8.34538 67.3357 8.16225 67.5598 7.92624C67.7913 7.69023 67.9674 7.40942 68.0873 7.08383C68.2146 6.75015 68.2791 6.38388 68.2791 5.98503C68.2791 5.58619 68.2146 5.22404 68.0873 4.89845C67.9674 4.56477 67.7913 4.27984 67.5598 4.04383C67.3357 3.80782 67.06 3.62469 66.7326 3.49443C66.4126 3.3642 66.0492 3.29909 65.6416 3.29909H64.4308ZM73.9391 10.2581L76.5526 5.85074L74.1189 1.71194H76.0371L77.6795 4.61765L79.3219 1.71194H81.1921L78.7584 5.85074L81.3719 10.2581H79.3818L77.6315 7.12046L75.8812 10.2581H73.9391Z" fill="white"/>
<path d="M3.11698 15.0323H0V23.5784H3.11698C3.72464 23.5784 4.28361 23.4726 4.79536 23.261C5.30712 23.0413 5.74618 22.7401 6.11408 22.3576C6.48946 21.975 6.78168 21.5233 6.98923 21.0024C7.19678 20.4814 7.30093 19.9158 7.30093 19.3053C7.30093 18.6949 7.19678 18.1293 6.98923 17.6083C6.78168 17.0874 6.48946 16.6357 6.11408 16.2531C5.74618 15.8706 5.30712 15.5735 4.79536 15.3619C4.28361 15.1421 3.72464 15.0323 3.11698 15.0323Z" fill="white"/>
<path d="M14.3546 15.0323H8.81596V23.5784H14.3546V21.9913H10.5183V19.9402H13.8743V18.3531H10.5183V16.6194H14.3546V15.0323Z" fill="white"/>
<path d="M15.2402 21.4297C15.9273 22.9924 17.1539 23.7738 18.9207 23.7738C19.4399 23.7738 19.9037 23.7087 20.3113 23.5784C20.7264 23.4564 21.0823 23.2773 21.3783 23.0412C21.6735 22.7971 21.8975 22.5081 22.0496 22.1744C22.2092 21.8407 22.2894 21.4663 22.2894 21.0512C22.2894 20.514 22.165 20.0867 21.9178 19.7693C21.678 19.4437 21.3738 19.1873 21.0066 19.0001C20.6387 18.8048 20.2431 18.6542 19.8198 18.5484C19.3957 18.4426 19.0001 18.3408 18.6329 18.2432C18.265 18.1455 17.9571 18.0275 17.7098 17.8891C17.4701 17.7508 17.3502 17.5554 17.3502 17.3031C17.3502 17.0589 17.4738 16.8432 17.7218 16.656C17.9691 16.4688 18.3212 16.3752 18.7768 16.3752C19.2399 16.3752 19.6437 16.4851 19.9876 16.7049C20.3308 16.9165 20.5945 17.2176 20.7789 17.6083L22.2055 16.8514C21.8616 16.1758 21.394 15.6712 20.8028 15.3375C20.2109 15.0038 19.5321 14.8369 18.7648 14.8369C18.2853 14.8369 17.8537 14.898 17.4701 15.02C17.0864 15.1421 16.7583 15.3171 16.487 15.545C16.2233 15.7729 16.015 16.0456 15.8636 16.363C15.7198 16.6723 15.6478 17.0183 15.6478 17.4008C15.6478 17.9135 15.7677 18.3246 16.0075 18.6339C16.2547 18.9431 16.559 19.1914 16.9186 19.3786C17.2857 19.5577 17.6814 19.7001 18.1055 19.8059C18.5288 19.9117 18.9207 20.0175 19.2803 20.1233C19.6475 20.2292 19.9517 20.3594 20.1914 20.514C20.4387 20.6687 20.5631 20.8885 20.5631 21.1733C20.5631 21.4907 20.411 21.7431 20.1075 21.9302C19.8033 22.1174 19.4197 22.211 18.9566 22.211C18.4209 22.211 17.9691 22.0808 17.6019 21.8204C17.2341 21.5599 16.9343 21.1855 16.7028 20.6972L15.2402 21.4297Z" fill="white"/>
<path d="M25.3629 15.0323H23.6606V23.5784H25.3629V15.0323Z" fill="white"/>
<path d="M35.048 21.3686C35.2398 20.8559 35.3358 20.2821 35.3358 19.6472C35.3358 19.5333 35.3313 19.4152 35.3238 19.2931C35.3155 19.1629 35.3035 19.0164 35.2878 18.8536H30.5404V20.3919H33.6094C33.5135 20.9698 33.2618 21.4134 32.8542 21.7227C32.4541 22.032 31.943 22.1866 31.3196 22.1866C30.8881 22.1866 30.4999 22.1134 30.1568 21.9669C29.8211 21.8204 29.5334 21.621 29.2936 21.3686C29.0613 21.1082 28.8815 20.803 28.7541 20.453C28.6343 20.0949 28.5743 19.7123 28.5743 19.3053C28.5743 18.8902 28.638 18.5077 28.7661 18.1577C28.8935 17.7996 29.0733 17.4944 29.3056 17.2421C29.5371 16.9816 29.8166 16.7822 30.1448 16.6438C30.4722 16.4973 30.8356 16.4241 31.2357 16.4241C31.7632 16.4241 32.2225 16.5502 32.6144 16.8025C33.0055 17.0549 33.3172 17.417 33.5495 17.8891L34.9881 16.9979C34.6524 16.3142 34.1564 15.7851 33.5015 15.4107C32.8542 15.0282 32.1026 14.8369 31.2477 14.8369C30.5921 14.8369 29.9964 14.9509 29.4615 15.1788C28.9257 15.3985 28.4664 15.7078 28.0828 16.1066C27.6992 16.5055 27.3995 16.9775 27.1837 17.5229C26.9754 18.0682 26.872 18.6583 26.872 19.2931C26.872 19.9362 26.9754 20.5303 27.1837 21.0756C27.3995 21.621 27.7029 22.093 28.0948 22.4919C28.4859 22.8907 28.9534 23.204 29.4974 23.4319C30.0406 23.6599 30.6483 23.7738 31.3196 23.7738C31.9266 23.7738 32.478 23.6802 32.974 23.493C33.4693 23.2976 33.8889 23.0209 34.2328 22.6628C34.5842 22.3047 34.8562 21.8732 35.048 21.3686Z" fill="white"/>
<path d="M38.6176 15.0323H36.8433V23.5784H38.4497V17.6938L42.2021 23.5784H43.9764V15.0323H42.3699V20.9169L38.6176 15.0323Z" fill="white"/>
<path d="M51.3844 15.0323H45.8458V23.5784H51.3844V21.9913H47.5482V19.9402H50.9049V18.3531H47.5482V16.6194H51.3844V15.0323Z" fill="white"/>
<path d="M56.0112 15.0323H52.8942V23.5784H56.0112C56.6181 23.5784 57.1778 23.4726 57.6896 23.261C58.2006 23.0413 58.6404 22.7401 59.0083 22.3576C59.3837 21.975 59.6752 21.5233 59.8835 21.0024C60.091 20.4814 60.1952 19.9158 60.1952 19.3053C60.1952 18.6949 60.091 18.1293 59.8835 17.6083C59.6752 17.0874 59.3837 16.6357 59.0083 16.2531C58.6404 15.8706 58.2006 15.5735 57.6896 15.3619C57.1778 15.1421 56.6181 15.0323 56.0112 15.0323Z" fill="white"/>
<path d="M68.3608 15.0323H64.8242V23.5784H68.5406C68.9639 23.5784 69.3438 23.5214 69.6795 23.4075C70.0226 23.2854 70.3104 23.1185 70.5426 22.907C70.7742 22.6954 70.9502 22.443 71.0701 22.15C71.1975 21.857 71.2619 21.5314 71.2619 21.1733C71.2619 20.6524 71.1338 20.217 70.8783 19.867C70.6221 19.5089 70.2384 19.2525 69.7274 19.0978C70.1111 18.9431 70.4063 18.7071 70.6146 18.3897C70.8221 18.0723 70.9263 17.6938 70.9263 17.2543C70.9263 16.9124 70.8618 16.6072 70.7345 16.3386C70.6146 16.0619 70.4385 15.8258 70.207 15.6305C69.9829 15.4351 69.711 15.2886 69.3918 15.191C69.0801 15.0852 68.7362 15.0323 68.3608 15.0323Z" fill="white"/>
<path d="M74.3445 20.2332V23.5784H76.0468V20.2332L78.8761 15.0323H77.0778L75.2196 18.7437L73.3614 15.0323H71.5152L74.3445 20.2332Z" fill="white"/>
<path d="M1.70215 21.992V16.6201H2.91297C3.32058 16.6201 3.68398 16.6852 4.00392 16.8155C4.33136 16.9457 4.60708 17.1288 4.83111 17.3649C5.06264 17.6009 5.23872 17.8858 5.35861 18.2195C5.48673 18.5451 5.55043 18.9072 5.55043 19.3061C5.55043 19.7049 5.48673 20.0712 5.35861 20.4049C5.23872 20.7305 5.06264 21.0113 4.83111 21.2473C4.60708 21.4833 4.33136 21.6664 4.00392 21.7967C3.68398 21.9269 3.32058 21.992 2.91297 21.992H1.70215Z" fill="#080A0E"/>
<path d="M66.4785 22.0897V19.9165H68.4086C68.7518 19.9165 69.0275 20.0142 69.2358 20.2095C69.4516 20.4049 69.5595 20.6694 69.5595 21.0031C69.5595 21.3368 69.4516 21.6013 69.2358 21.7967C69.0275 21.992 68.7518 22.0897 68.4086 22.0897H66.4785Z" fill="#080A0E"/>
<path d="M68.2048 18.4759H66.4785V16.5225H68.2048C68.5001 16.5225 68.7443 16.612 68.9361 16.7911C69.128 16.9701 69.2239 17.2062 69.2239 17.4992C69.2239 17.7922 69.128 18.0282 68.9361 18.2073C68.7443 18.3864 68.5001 18.4759 68.2048 18.4759Z" fill="#080A0E"/>
<path d="M54.5967 21.992V16.6201H55.8075C56.2151 16.6201 56.5785 16.6852 56.8985 16.8155C57.2259 16.9457 57.5016 17.1288 57.7257 17.3649C57.9572 17.6009 58.1333 17.8858 58.2531 18.2195C58.3805 18.5451 58.445 18.9072 58.445 19.3061C58.445 19.7049 58.3805 20.0712 58.2531 20.4049C58.1333 20.7305 57.9572 21.0113 57.7257 21.2473C57.5016 21.4833 57.2259 21.6664 56.8985 21.7967C56.5785 21.9269 56.2151 21.992 55.8075 21.992H54.5967Z" fill="#080A0E"/>
<path fill-rule="evenodd" clip-rule="evenodd" d="M84.6791 0H108.981C108.992 0 109 0.00885769 109 0.0197821V25.4153C109 25.4262 108.992 25.4351 108.981 25.4351H84.6791C84.6686 25.4351 84.6602 25.4262 84.6602 25.4153V0.0197821C84.6602 0.00885769 84.6686 0 84.6791 0ZM98.7422 21.196L99.5009 16.0486C98.6851 16.4706 97.7633 16.7102 96.7898 16.7102C93.4507 16.7102 90.7451 13.9183 90.7451 10.4733C90.7451 8.93907 91.2835 7.53314 92.1753 6.44661C92.779 5.70232 93.5513 5.10917 94.4296 4.73273C95.1556 4.41332 95.9523 4.23935 96.7898 4.23935C100.129 4.23935 102.908 7.03124 102.908 10.4733C102.986 11.0986 102.385 15.5523 101.906 19.0978C101.804 19.8538 101.708 20.5686 101.625 21.196H98.7422ZM97.6301 7.5788C97.3636 7.49607 97.0835 7.45334 96.7898 7.45334C95.1719 7.45334 93.8613 8.80503 93.8613 10.4733C93.8613 12.0276 94.9951 13.3052 96.4553 13.4763H96.4581H96.4635L96.5152 13.482H96.5206L96.5234 13.4849H96.5288H96.5342H96.5397H96.5451H96.5505L96.575 13.4877H96.5805H96.5859H96.5914L96.6185 13.4905H96.6239H96.6267H96.6321L96.6485 13.4934H96.6539H96.6593L96.711 13.4962H96.7137H96.7164H96.7218H96.7898C98.4077 13.4962 99.7211 12.1416 99.7211 10.4733C99.7211 10.4623 99.7205 10.4512 99.7199 10.4398C99.7191 10.4277 99.7184 10.4153 99.7184 10.402V10.3764L99.7157 10.3308V10.3023L99.7129 10.2566L99.7102 10.2338L99.7048 10.1768V10.1625C99.7021 10.1368 99.6994 10.1141 99.6967 10.0912L99.694 10.0798L99.6858 10.0199L99.6831 9.99998L99.6749 9.95146L99.6722 9.92869L99.664 9.88018L99.6586 9.85735L99.6477 9.80317L99.645 9.79179L99.6423 9.7832C99.6396 9.76324 99.6341 9.74327 99.6287 9.7233L99.6232 9.7062L99.6124 9.66061L99.6042 9.6292L99.5933 9.59212L99.5852 9.5665L99.5716 9.51798L99.5634 9.50087C99.5607 9.49089 99.5573 9.48091 99.5539 9.47099C99.5505 9.461 99.5471 9.45102 99.5444 9.44104L99.5416 9.43531L99.5362 9.42107L99.5199 9.37541L99.509 9.34972L99.4954 9.31265L99.4845 9.28417L99.4683 9.24996L99.4574 9.22141L99.441 9.18719L99.4302 9.16437V9.1615C99.422 9.1444 99.4139 9.12729 99.4057 9.10733H99.403L99.3866 9.07026L99.3731 9.05029L99.3568 9.01608L99.3432 8.99045L99.3241 8.95618L99.3106 8.93341L99.2915 8.902V8.89914L99.2616 8.84783L99.2398 8.81648L99.2262 8.79365L99.2018 8.75944L99.1936 8.74519L99.1664 8.70812L99.1582 8.69382C99.1147 8.63398 99.0712 8.57694 99.025 8.52276L99.0168 8.51132L98.9897 8.47711L98.9761 8.46286L98.9461 8.42865L98.9407 8.42293L98.9382 8.42007C98.9011 8.37836 98.8664 8.33937 98.8265 8.30313L98.8211 8.29747L98.7857 8.2604L98.7803 8.25468C98.696 8.17767 98.609 8.10067 98.5165 8.03225L98.5111 8.02938C98.435 7.97234 98.3561 7.91817 98.2745 7.86685H98.2718C98.0733 7.74705 97.8585 7.65008 97.6328 7.5788H97.6301Z" fill="white"/>
</svg>
