<svg width="300" height="377" viewBox="0 0 300 377" fill="none" xmlns="http://www.w3.org/2000/svg">
<mask id="mask0_588_1228" style="mask-type:alpha" maskUnits="userSpaceOnUse" x="0" y="0" width="300" height="377">
<rect width="300" height="377" rx="20" fill="#11151C" fill-opacity="0.7"/>
<rect x="0.5" y="0.5" width="299" height="376" rx="19.5" stroke="#1D2027" stroke-opacity="0.2"/>
</mask>
<g mask="url(#mask0_588_1228)">
<path d="M181.931 243.142C182.35 242.882 182.769 242.623 183.188 242.364C183.592 242.113 183.835 242.32 184.24 242.47C185.148 242.807 185.565 243.939 186.077 244.701C186.609 245.494 187.8 245.618 188.428 246.345C188.668 246.622 188.958 246.852 189.201 247.132C189.526 247.508 189.728 247.989 190.008 248.399C190.264 248.773 190.641 249.091 190.881 249.477C191.477 250.441 192.295 251.062 193.274 251.602C193.848 251.919 194.455 252.345 194.965 252.761C195.661 253.327 195.978 253.863 196.508 254.552C197.22 255.479 197.784 256.548 198.529 257.439C199.056 258.07 199.546 258.877 199.921 259.614C200.248 260.255 200.631 261.152 200.729 261.866C200.757 262.069 200.806 262.525 200.903 262.682" stroke="white" stroke-opacity="0.7" stroke-linecap="round"/>
<path d="M200.903 262.681C201.408 263.497 201.763 264.403 202.275 265.228C202.471 265.546 202.582 265.929 202.792 266.23C203 266.527 203.634 266.765 203.935 266.998C204.654 267.557 205.17 268.221 205.638 269.004C206.169 269.892 206.178 271.035 206.716 271.904" stroke="white" stroke-opacity="0.7" stroke-linecap="round"/>
<path d="M206.763 271.979C207.561 273.268 208.632 274.062 209.943 274.832C210.891 275.389 211.86 275.882 212.798 276.461C214.178 277.312 215.341 278.376 216.42 279.586C217.001 280.238 217.412 281.059 217.87 281.8C218.137 282.229 218.379 282.744 218.867 282.949C221.266 283.96 223.362 285.851 224.841 287.958C225.549 288.966 226.064 290.061 226.707 291.1C226.887 291.392 227.145 291.874 227.191 292.214C227.277 292.84 227.897 293.52 228.219 294.039C228.864 295.082 229.802 295.787 230.754 296.55C231.671 297.286 232.532 297.991 233.347 298.842C233.823 299.339 234.024 299.935 234.378 300.507C235.422 302.193 236.466 303.879 237.51 305.566" stroke="white" stroke-opacity="0.7" stroke-linecap="round"/>
<path d="M237.584 305.519C237.806 305.598 237.933 305.853 238.129 305.985C238.522 306.251 238.933 306.519 239.336 306.776C240.372 307.435 241.443 308.01 242.443 308.728C245.253 310.747 247.491 313.733 249.298 316.651C249.91 317.639 250.544 318.723 251.291 319.611C252.009 320.466 252.546 321.424 253.316 322.238C254.183 323.155 255.031 324.138 256.104 324.826C256.355 324.987 257.032 325.564 257.266 325.543C260.884 328.666 268.936 335.963 275.725 343.11C276.854 344.299 277.948 345.483 278.981 346.644C281.709 349.708 283.687 352.972 285.514 356.175C287.788 360.162 289.827 364.056 292.789 367.355C295.345 370.203 298.588 372.608 303.261 374.248C314.809 378.302 329.87 390.619 335.957 396.27C338.481 400.492 346.628 408.423 359.026 406.376C371.424 404.328 377.573 413.113 379.098 417.762M336.69 448.754C331.524 446.439 319.104 440.014 310.748 432.834C302.392 425.654 288.955 414.017 283.281 409.096C281.665 407.943 277.453 405.364 273.531 404.275C269.609 403.185 266.504 399.154 265.442 397.275C262.977 396.326 257.127 392.799 253.445 386.284C252.462 385.583 251.027 384.303 249.32 382.417C245.416 378.104 240.09 370.622 235.497 359.646C230.813 353.064 220.717 337.004 217.809 325.423M278.244 370.202C280.341 373.425 284.178 381.726 282.751 389.145M227.859 323.463C229.661 327.383 233.481 335.603 234.341 337.125" stroke="white" stroke-opacity="0.7" stroke-linecap="round"/>
<path d="M181.737 243.161C181.548 243.966 181.085 244.639 181.11 245.498C181.14 246.504 181.211 247.368 181.493 248.362C181.813 249.491 182.675 250.963 183.558 251.733C184.64 252.678 185.913 253.384 186.677 254.618C187.527 255.99 188.298 257.401 189.146 258.771C189.46 259.278 189.741 259.622 190.258 259.94C190.545 260.118 191.085 260.255 191.32 260.468C191.71 260.823 191.846 261.544 191.837 262.04C191.827 262.633 191.762 263.253 191.832 263.844C191.92 264.589 192.232 265.347 192.481 266.052C192.971 267.443 193.861 268.705 194.633 269.951" stroke="white" stroke-opacity="0.7" stroke-linecap="round"/>
<path d="M195.66 267.467C195.486 267.629 195.44 267.969 195.331 268.178C195.079 268.661 194.715 269.063 194.586 269.608C194.471 270.101 194.442 270.602 194.288 271.086C194.085 271.724 194.187 272.668 194.214 273.332C194.226 273.626 194.183 273.935 194.226 274.225C194.251 274.399 194.413 274.615 194.326 274.756" stroke="white" stroke-opacity="0.7" stroke-linecap="round"/>
<path d="M178.371 274.171C178.623 273.1 178.768 271.668 179.804 271.027C180.247 270.752 180.691 270.478 181.135 270.203C181.567 269.935 182.078 270.012 182.544 270.151C183.103 270.317 183.686 270.756 184.216 271.019C184.815 271.316 185.418 271.669 185.987 272.02C186.193 272.147 186.231 272.372 186.393 272.538C186.983 273.142 187.845 273.604 188.581 274.01C188.972 274.225 189.409 274.366 189.789 274.589C190.059 274.748 190.645 274.904 190.849 275.113C191.095 275.366 191.523 275.588 191.829 275.777C192.255 276.039 192.644 276.351 193.041 276.656C193.412 276.942 193.584 277.348 193.936 277.641C194.391 278.021 194.695 278.504 195.205 278.827C195.9 279.266 196.787 279.809 197.586 280.02C198.319 280.214 199.232 280.828 199.985 280.711C200.33 280.658 200.947 280.844 201.301 280.894C201.907 280.979 202.503 280.954 203.101 281.141C203.986 281.419 204.972 281.441 205.881 281.654C206.256 281.742 206.633 281.944 206.979 282.103" stroke="white" stroke-opacity="0.7" stroke-linecap="round"/>
<path d="M178.37 274.17C178.635 274.598 178.651 275.121 178.926 275.565C179.372 276.285 179.702 277.162 180.015 277.95C180.593 279.403 181.593 280.782 182.776 281.792C183.691 282.573 185.276 283.81 186.56 283.826C188.524 283.85 190.198 285.604 191.864 286.446C193.157 287.099 194.346 287.648 195.479 288.584C196.256 289.226 197.088 289.821 197.614 290.67" stroke="white" stroke-opacity="0.7" stroke-linecap="round"/>
<path d="M165.088 287.013C164.441 285.968 164.88 284.898 165.456 283.964C166.273 282.64 167.97 282.266 168.969 281.122C169.991 279.951 171.435 278.98 172.759 278.16C173.708 277.572 174.611 276.979 175.675 276.611C176.657 276.271 177.687 276.031 178.569 275.485" stroke="white" stroke-opacity="0.7" stroke-linecap="round"/>
<path d="M187.121 273.062C187.315 272.942 187.508 273.114 187.711 273.187C188.075 273.319 188.471 273.367 188.823 273.501C189.6 273.798 190.428 273.779 191.214 274.039C191.852 274.25 192.56 274.398 193.219 274.553C193.434 274.603 193.921 274.699 194.113 274.58" stroke="white" stroke-opacity="0.7" stroke-linecap="round"/>
<path d="M164.968 286.985C167.35 289.939 171.277 286.036 173.719 284.974C174.418 284.671 175.287 284.077 176.037 283.978C177.05 283.844 178.08 283.412 179.052 283.131C179.945 282.873 180.795 282.588 181.696 282.395C182.132 282.301 183.191 282.324 183.56 282.551" stroke="white" stroke-opacity="0.7" stroke-linecap="round"/>
<path d="M167.644 287.994C167.103 288.914 166.897 289.935 167.5 290.91C167.785 291.37 168.079 291.938 168.597 292.174C168.983 292.35 170.087 292.536 170.503 292.373C171.069 292.15 171.536 291.944 172.085 291.604C172.613 291.277 173.134 291.052 173.694 290.807C174.543 290.436 175.869 290.219 176.771 290.549C177.232 290.717 177.868 290.709 178.335 290.607C179.377 290.378 180.604 290.257 181.582 289.85C181.888 289.723 182.215 289.619 182.504 289.461C182.622 289.397 182.871 289.801 182.963 289.872C183.451 290.251 183.996 290.477 184.579 290.696C185.754 291.137 187.306 290.308 188.342 290.975C188.661 291.181 188.836 291.569 189.03 291.883C189.215 292.183 188.764 292.458 188.546 292.593C188.127 292.853 187.372 292.607 186.88 292.645C185.849 292.724 184.722 292.641 183.712 292.913C183.116 293.074 182.225 292.814 181.694 293.143C180.958 293.599 180.254 294.079 179.546 294.57C178.459 295.322 177.677 295.929 176.925 297.019C176.437 297.726 175.825 298.325 175.538 299.16C175.388 299.596 175.349 300.054 175.279 300.5C175.205 300.976 175.433 301.237 175.678 301.632C176.229 302.522 177.653 302.262 178.483 302.186C179.513 302.093 180.521 301.87 181.412 301.319C181.834 301.058 182.089 300.923 182.208 300.416C182.291 300.063 182.265 299.732 182.211 299.388C181.955 297.765 180.65 297.117 179.369 296.327" stroke="white" stroke-opacity="0.7" stroke-linecap="round"/>
<path d="M182.078 300.701C182.596 300.381 183.286 300.569 183.799 300.251C184.201 300.002 184.975 299.846 185.188 299.391C185.668 298.363 185.107 297.475 184.563 296.598" stroke="white" stroke-opacity="0.7" stroke-linecap="round"/>
<path d="M185.366 299.385C185.594 299.244 186.192 299.507 186.485 299.535C187.074 299.594 187.538 299.692 188.14 299.594C188.696 299.503 189.532 299.177 189.727 298.577C189.961 297.855 189.919 297.262 189.944 296.499C189.971 295.696 190.384 294.732 189.928 293.996" stroke="white" stroke-opacity="0.7" stroke-linecap="round"/>
<path d="M190.951 285.873C190.921 286.453 190.797 286.953 190.85 287.532C190.945 288.574 190.257 289.712 189.564 290.425" stroke="white" stroke-opacity="0.7" stroke-linecap="round"/>
<path d="M197.992 280.18C197.95 279.587 197.825 278.958 197.896 278.37C197.998 277.533 198.101 276.736 198.267 275.912C198.437 275.065 198.775 274.241 199.016 273.414C199.117 273.068 199.496 272.61 199.467 272.291" stroke="white" stroke-opacity="0.7" stroke-linecap="round"/>
<path d="M173.279 280.196C173.99 281.569 174.011 283.152 172.994 284.373" stroke="white" stroke-opacity="0.7" stroke-linecap="round"/>
<path d="M189.649 298.681C190.654 300.305 191.568 302.181 192.985 303.489C193.734 304.181 194.521 304.806 195.4 305.327C196.461 305.957 197.055 306.949 197.811 307.886C198.522 308.769 199.433 309.549 200.408 310.131C201.356 310.695 202.762 310.654 203.808 310.909C204.481 311.073 205.164 311.278 205.788 311.575C206.395 311.865 206.788 312.45 207.34 312.803C208.368 313.458 209.698 314.22 210.93 314.33C211.282 314.361 211.655 314.584 212.001 314.567C212.327 314.552 212.827 314.562 213.124 314.715C213.277 314.794 213.332 314.627 213.47 314.786C213.771 315.135 214.092 315.476 214.342 315.864C214.577 316.228 214.798 316.6 215.026 316.968C215.845 318.291 216.791 319.603 217.225 321.118C217.525 322.166 217.751 323.263 217.873 324.346C217.896 324.547 217.809 325.423 217.809 325.423" stroke="white" stroke-opacity="0.7" stroke-linecap="round"/>
<path d="M197.478 290.449C197.104 291.251 196.829 291.763 196.836 292.653C196.843 293.527 197.109 294.387 197.439 295.192" stroke="white" stroke-opacity="0.7" stroke-linecap="round"/>
<path d="M198.11 293.956C198.199 294.143 198.11 294.489 198.095 294.695C198.019 295.768 197.997 296.945 198.084 298.018C198.246 300.012 198.904 301.966 199.493 303.865C199.662 304.408 199.872 304.919 200.17 305.4" stroke="white" stroke-opacity="0.7" stroke-linecap="round"/>
<path d="M199.647 297.929C201.149 300.165 203.116 302.293 205.352 303.829C206.662 304.729 208.257 305.426 209.819 305.742C210.838 305.948 212.004 305.618 213.011 305.429C213.348 305.366 213.798 305.375 214.094 305.191" stroke="white" stroke-opacity="0.7" stroke-linecap="round"/>
<path d="M196.097 295.509C195.86 295.279 195.165 296.531 195.076 296.677C194.559 297.523 194.504 298.301 194.304 299.241C194.145 299.988 194.2 300.922 194.268 301.668" stroke="white" stroke-opacity="0.7" stroke-linecap="round"/>
<path d="M161.134 105.902C160.908 105.437 160.681 104.971 160.454 104.506C160.234 104.057 160.477 103.824 160.676 103.418C161.124 102.504 162.352 102.187 163.202 101.733C164.087 101.26 164.343 100.029 165.168 99.4485C165.483 99.2274 165.754 98.9479 166.072 98.7244C166.5 98.424 167.024 98.2639 167.482 98.0143C167.9 97.786 168.272 97.425 168.701 97.2158C169.771 96.6938 170.507 95.9051 171.175 94.9385C171.566 94.372 172.075 93.7819 172.564 93.2925C173.229 92.6257 173.823 92.3504 174.599 91.8692C175.643 91.2226 176.82 90.7456 177.829 90.0615C178.545 89.5765 179.44 89.1503 180.25 88.8354C180.955 88.5615 181.933 88.2558 182.69 88.2288C182.904 88.2212 183.386 88.2178 183.56 88.1326" stroke="white" stroke-opacity="0.7" stroke-linecap="round"/>
<path d="M183.56 88.1332C184.466 87.6912 185.451 87.415 186.367 86.9679C186.72 86.7959 187.133 86.7203 187.469 86.5325C187.801 86.347 188.117 85.7091 188.393 85.4192C189.053 84.7266 189.801 84.2569 190.669 83.8503C191.653 83.3894 192.848 83.5008 193.814 83.0298" stroke="white" stroke-opacity="0.7" stroke-linecap="round"/>
<path d="M193.897 82.9891C195.328 82.2911 196.271 81.2551 197.214 79.9665C197.897 79.034 198.515 78.0728 199.218 77.1542C200.254 75.8015 201.489 74.6978 202.867 73.6978C203.61 73.1593 204.512 72.8164 205.334 72.4153C205.811 72.1825 206.374 71.983 206.641 71.4947C207.95 69.0937 210.148 67.1027 212.507 65.779C213.635 65.1458 214.834 64.7231 215.988 64.1604C216.311 64.0025 216.843 63.7845 217.203 63.7717C217.866 63.748 218.642 63.1715 219.219 62.89C220.377 62.3252 221.213 61.4192 222.111 60.5052C222.977 59.6244 223.805 58.7989 224.781 58.0364C225.35 57.5915 225.994 57.4445 226.629 57.1348C228.502 56.2213 230.374 55.3079 232.247 54.3944" stroke="white" stroke-opacity="0.7" stroke-linecap="round"/>
<path d="M232.206 54.3126C232.312 54.0882 232.592 53.9823 232.75 53.7921C233.069 53.4086 233.394 53.0074 233.704 52.6131C234.503 51.6004 235.216 50.5412 236.072 49.5721C238.479 46.8477 241.836 44.8237 245.077 43.2429C246.174 42.7077 247.375 42.1592 248.382 41.4724C249.351 40.8115 250.409 40.351 251.341 39.6324C252.391 38.8228 253.508 38.0403 254.34 36.9915C254.535 36.7464 255.21 36.0991 255.212 35.8526C258.858 32.4002 267.335 24.7535 275.522 18.4113C276.883 17.3567 278.237 16.3382 279.558 15.381C283.05 12.8528 286.67 11.1298 290.211 9.55838C294.618 7.60232 298.903 5.88111 302.663 3.1341C305.91 0.762666 308.766 -2.37323 310.974 -7.08466C316.429 -18.7275 330.892 -33.1705 337.442 -38.9366C342.121 -41.129 351.27 -48.8076 350.438 -61.9826C349.606 -75.1576 359.437 -80.6586 364.457 -81.7622M392.377 -34.1653C389.412 -29.0101 381.386 -16.7058 372.999 -8.72951C364.613 -0.753238 351.032 12.0639 345.29 17.4754C343.914 19.0428 340.775 23.1737 339.222 27.1582C337.669 31.1426 333.128 33.9626 331.052 34.8745C329.8 37.3507 325.497 43.0935 318.298 46.2547C317.461 47.2085 315.972 48.5735 313.82 50.1588C308.9 53.7841 300.519 58.561 288.562 62.2038C281.187 66.4056 263.336 75.2637 250.924 77.0817M304.105 18.637C307.695 16.7851 316.776 13.6501 324.38 15.9249M249.935 66.3699C254.223 64.8998 263.218 61.775 264.9 61.0363" stroke="white" stroke-opacity="0.7" stroke-linecap="round"/>
<path d="M161.135 106.106C161.956 106.389 162.611 106.944 163.512 107.008C164.566 107.083 165.477 107.1 166.545 106.91C167.759 106.695 169.389 105.949 170.287 105.108C171.389 104.076 172.261 102.82 173.631 102.151C175.155 101.408 176.711 100.751 178.233 100.009C178.796 99.7339 179.185 99.4766 179.572 98.9703C179.788 98.6884 179.988 98.1386 180.236 97.9159C180.648 97.5459 181.416 97.4799 181.933 97.541C182.552 97.6141 183.194 97.7479 183.819 97.7371C184.607 97.7236 185.432 97.4772 186.195 97.2915C187.7 96.9257 189.114 96.1287 190.498 95.4534" stroke="white" stroke-opacity="0.7" stroke-linecap="round"/>
<path d="M188.009 94.1182C188.16 94.3169 188.51 94.4008 188.717 94.5372C189.196 94.852 189.577 95.2749 190.133 95.4663C190.636 95.6395 191.157 95.7221 191.647 95.9342C192.292 96.2132 193.29 96.2063 193.987 96.2486C194.295 96.2673 194.614 96.3451 194.921 96.3307C195.105 96.3221 195.348 96.1758 195.487 96.2816" stroke="white" stroke-opacity="0.7" stroke-linecap="round"/>
<path d="M193.192 112.897C192.1 112.52 190.619 112.218 190.057 111.067C189.817 110.575 189.577 110.082 189.336 109.59C189.102 109.109 189.236 108.583 189.431 108.111C189.664 107.544 190.184 106.981 190.515 106.455C190.889 105.86 191.321 105.267 191.747 104.71C191.902 104.508 192.141 104.491 192.332 104.34C193.026 103.787 193.599 102.934 194.101 102.208C194.367 101.822 194.561 101.381 194.834 101.006C195.028 100.741 195.254 100.145 195.494 99.9542C195.784 99.7233 196.061 99.2997 196.291 98.999C196.61 98.5822 196.977 98.2082 197.338 97.8255C197.675 97.4677 198.118 97.3311 198.462 96.9942C198.906 96.5583 199.444 96.2914 199.835 95.792C200.367 95.1124 201.029 94.2428 201.333 93.43C201.613 92.6839 202.352 91.7947 202.309 90.9946C202.289 90.6289 202.549 90.0036 202.639 89.6387C202.792 89.0148 202.828 88.3885 203.087 87.7831C203.471 86.8877 203.597 85.8589 203.917 84.9319C204.048 84.5493 204.299 84.1766 204.501 83.8312" stroke="white" stroke-opacity="0.7" stroke-linecap="round"/>
<path d="M193.192 112.897C193.666 112.665 194.216 112.703 194.708 112.463C195.508 112.073 196.459 111.821 197.317 111.576C198.895 111.126 200.443 110.226 201.623 109.096C202.537 108.222 203.996 106.695 204.148 105.355C204.381 103.305 206.391 101.74 207.446 100.088C208.266 98.8048 208.965 97.6199 210.063 96.5347C210.816 95.7904 211.525 94.9833 212.469 94.5231" stroke="white" stroke-opacity="0.7" stroke-linecap="round"/>
<path d="M205.215 128.135C204.054 128.702 202.982 128.129 202.066 127.428C200.769 126.435 200.557 124.622 199.467 123.457C198.351 122.265 197.487 120.654 196.77 119.183C196.256 118.129 195.731 117.123 195.458 115.971C195.207 114.91 195.066 113.807 194.588 112.828" stroke="white" stroke-opacity="0.7" stroke-linecap="round"/>
<path d="M192.957 103.633C192.852 103.417 193.051 103.234 193.149 103.029C193.326 102.663 193.418 102.254 193.595 101.9C193.988 101.12 194.055 100.252 194.409 99.4584C194.697 98.8131 194.927 98.0889 195.158 97.4168C195.234 97.1968 195.385 96.698 195.281 96.4846" stroke="white" stroke-opacity="0.7" stroke-linecap="round"/>
<path d="M205.173 128.258C208.511 126.079 204.846 121.563 203.994 118.899C203.751 118.136 203.222 117.165 203.197 116.371C203.164 115.297 202.821 114.176 202.63 113.13C202.455 112.169 202.246 111.251 202.139 110.289C202.087 109.823 202.223 108.718 202.5 108.357" stroke="white" stroke-opacity="0.7" stroke-linecap="round"/>
<path d="M206.509 125.567C207.413 126.23 208.459 126.553 209.541 126.025C210.053 125.775 210.677 125.528 210.979 125.012C211.204 124.627 211.514 123.492 211.387 123.04C211.215 122.425 211.048 121.915 210.751 121.306C210.465 120.72 210.285 120.151 210.088 119.539C209.789 118.613 209.702 117.205 210.142 116.296C210.367 115.832 210.426 115.167 210.368 114.668C210.239 113.554 210.242 112.259 209.919 111.194C209.818 110.861 209.744 110.507 209.61 110.189C209.555 110.059 210.004 109.841 210.088 109.752C210.535 109.283 210.829 108.736 211.119 108.151C211.705 106.969 211.002 105.259 211.809 104.246C212.057 103.935 212.482 103.794 212.83 103.624C213.163 103.461 213.403 103.962 213.521 104.204C213.748 104.67 213.412 105.432 213.399 105.951C213.374 107.038 213.168 108.206 213.346 109.29C213.451 109.931 213.085 110.834 213.373 111.424C213.772 112.242 214.2 113.028 214.638 113.82C215.31 115.035 215.861 115.917 216.921 116.818C217.609 117.403 218.171 118.106 219.013 118.493C219.453 118.696 219.928 118.786 220.386 118.905C220.876 119.033 221.173 118.822 221.612 118.608C222.6 118.126 222.478 116.61 222.487 115.734C222.498 114.649 222.372 113.571 221.89 112.582C221.661 112.113 221.547 111.832 221.029 111.654C220.669 111.53 220.32 111.523 219.956 111.543C218.232 111.639 217.417 112.935 216.455 114.191" stroke="white" stroke-opacity="0.7" stroke-linecap="round"/>
<path d="M221.314 111.821C221.034 111.246 221.303 110.544 221.025 109.974C220.808 109.528 220.726 108.702 220.273 108.432C219.249 107.822 218.262 108.315 217.287 108.79" stroke="white" stroke-opacity="0.7" stroke-linecap="round"/>
<path d="M220.286 108.245C220.162 107.992 220.5 107.395 220.561 107.091C220.684 106.482 220.836 106.007 220.796 105.368C220.76 104.777 220.507 103.869 219.901 103.602C219.171 103.28 218.546 103.262 217.752 103.155C216.916 103.042 215.952 102.509 215.134 102.908" stroke="white" stroke-opacity="0.7" stroke-linecap="round"/>
<path d="M206.752 100.982C207.355 101.074 207.864 101.257 208.475 101.263C209.574 101.274 210.691 102.112 211.364 102.912" stroke="white" stroke-opacity="0.7" stroke-linecap="round"/>
<path d="M201.543 93.022C200.919 93.0029 200.248 93.0668 199.641 92.9305C198.777 92.7365 197.955 92.5445 197.111 92.2841C196.244 92.0165 195.418 91.5764 194.579 91.237C194.229 91.0954 193.789 90.651 193.453 90.6477" stroke="white" stroke-opacity="0.7" stroke-linecap="round"/>
<path d="M198.952 118.854C200.462 118.256 202.12 118.402 203.289 119.594" stroke="white" stroke-opacity="0.7" stroke-linecap="round"/>
<path d="M220.002 103.694C221.805 102.814 223.862 102.058 225.379 100.714C226.181 100.004 226.917 99.2478 227.555 98.3841C228.325 97.3412 229.425 96.8254 230.484 96.134C231.482 95.4833 232.394 94.6137 233.104 93.6555C233.794 92.7247 233.9 91.2504 234.276 90.1839C234.519 89.4981 234.805 88.8056 235.182 88.1849C235.548 87.581 236.202 87.2321 236.628 86.692C237.422 85.6866 238.358 84.3774 238.603 83.1008C238.673 82.7361 238.945 82.3703 238.965 82.007C238.983 81.6638 239.047 81.1428 239.238 80.8487C239.337 80.6966 239.167 80.622 239.348 80.4946C239.744 80.2162 240.135 79.9167 240.567 79.6961C240.972 79.4896 241.385 79.2973 241.793 79.0981C243.263 78.3813 244.734 77.5312 246.363 77.2375C247.49 77.0343 248.661 76.9142 249.806 76.9002C250.018 76.8976 250.924 77.0817 250.924 77.0817" stroke="white" stroke-opacity="0.7" stroke-linecap="round"/>
<path d="M212.223 94.6429C213.021 95.1184 213.527 95.4597 214.458 95.5459C215.372 95.6306 216.3 95.4434 217.176 95.1833" stroke="white" stroke-opacity="0.7" stroke-linecap="round"/>
<path d="M215.955 94.3518C216.16 94.2785 216.513 94.4089 216.726 94.4459C217.84 94.639 219.068 94.7856 220.199 94.8079C222.299 94.8493 224.411 94.3672 226.459 93.952C227.044 93.8331 227.6 93.6671 228.135 93.4061" stroke="white" stroke-opacity="0.7" stroke-linecap="round"/>
<path d="M220.27 93.1647C222.766 91.831 225.198 89.9993 227.039 87.8244C228.118 86.5495 229.014 84.9565 229.51 83.357C229.833 82.3133 229.611 81.0601 229.52 79.9878C229.489 79.6289 229.546 79.159 229.386 78.83" stroke="white" stroke-opacity="0.7" stroke-linecap="round"/>
<path d="M217.366 96.6199C217.1 96.8431 218.336 97.7018 218.479 97.8101C219.309 98.4394 220.116 98.5796 221.077 98.8874C221.842 99.1325 222.823 99.1732 223.611 99.181" stroke="white" stroke-opacity="0.7" stroke-linecap="round"/>
<path d="M189.788 179.037C189.81 178.545 189.833 178.053 189.855 177.561C189.877 177.085 190.185 177.002 190.537 176.753C191.328 176.193 192.498 176.488 193.415 176.496C194.37 176.504 195.145 175.591 196.1 175.483C196.463 175.441 196.817 175.331 197.185 175.289C197.679 175.233 198.19 175.338 198.687 175.338C199.14 175.338 199.615 175.206 200.069 175.226C201.202 175.278 202.176 174.954 203.175 174.451C203.76 174.156 204.454 173.895 205.086 173.708C205.946 173.454 206.567 173.495 207.435 173.446C208.602 173.382 209.803 173.519 210.959 173.408C211.777 173.328 212.72 173.38 213.54 173.486C214.254 173.579 215.21 173.769 215.855 174.091C216.038 174.182 216.442 174.399 216.627 174.407" stroke="white" stroke-opacity="0.7" stroke-linecap="round"/>
<path d="M216.626 174.408C217.585 174.451 218.534 174.669 219.503 174.713C219.876 174.73 220.256 174.855 220.622 174.851C220.985 174.847 221.539 174.458 221.902 174.342C222.769 174.064 223.608 174.012 224.519 174.068C225.552 174.131 226.5 174.769 227.521 174.815" stroke="white" stroke-opacity="0.7" stroke-linecap="round"/>
<path d="M227.609 174.819C229.123 174.888 230.383 174.452 231.759 173.805C232.754 173.337 233.709 172.815 234.715 172.368C236.197 171.709 237.732 171.35 239.34 171.142C240.205 171.031 241.115 171.155 241.985 171.195C242.49 171.218 243.052 171.308 243.497 171.021C245.685 169.611 248.43 168.949 251.004 168.917C252.235 168.902 253.43 169.096 254.651 169.151C254.993 169.167 255.537 169.227 255.843 169.38C256.409 169.663 257.32 169.534 257.93 169.562C259.155 169.618 260.267 169.242 261.434 168.887C262.558 168.545 263.627 168.233 264.79 168.04C265.468 167.928 266.074 168.099 266.745 168.129C268.727 168.219 270.708 168.309 272.689 168.399" stroke="white" stroke-opacity="0.7" stroke-linecap="round"/>
<path d="M272.692 168.312C272.883 168.173 273.165 168.212 273.384 168.125C273.826 167.95 274.279 167.763 274.719 167.575C275.848 167.093 276.927 166.533 278.084 166.113C281.336 164.933 285.065 164.771 288.493 164.927C289.654 164.98 290.907 165.068 292.062 164.953C293.173 164.843 294.267 164.94 295.374 164.764C296.62 164.566 297.91 164.421 299.084 163.924C299.358 163.808 300.217 163.575 300.331 163.37C304.951 162.146 315.52 159.619 325.252 158.049C326.871 157.788 328.466 157.554 330.007 157.356C334.076 156.835 337.887 157.044 341.562 157.345C346.137 157.719 350.502 158.233 354.897 157.651C358.691 157.149 362.506 155.83 366.498 152.898C376.363 145.654 395.032 140.175 403.133 138.341C408.043 138.641 419.188 136.394 424.497 125.005C429.806 113.615 440.528 113.498 445.226 114.863M446.869 167.364C442.042 170.321 429.726 176.946 419.083 179.79C408.44 182.634 391.249 187.156 383.984 189.062C382.12 189.745 377.614 191.766 374.5 194.388C371.387 197.011 366.307 197.298 364.156 197.114C361.982 198.612 355.768 201.451 348.312 200.812C347.178 201.228 345.311 201.69 342.791 202.034C337.027 202.822 327.845 202.994 316.193 200.589C308.115 200.74 289.16 200.008 277.959 195.871M349.036 171.264C352.88 171.352 361.898 172.871 367.216 178.237M282.014 186.468C286.267 187.193 295.208 188.681 296.951 188.831" stroke="white" stroke-opacity="0.7" stroke-linecap="round"/>
<path d="M189.694 179.208C190.252 179.818 190.546 180.581 191.27 181.045C192.117 181.588 192.87 182.017 193.849 182.346C194.962 182.719 196.664 182.838 197.798 182.544C199.189 182.185 200.49 181.532 201.94 181.598C203.552 181.671 205.152 181.831 206.762 181.904C207.358 181.931 207.8 181.893 208.354 181.647C208.663 181.51 209.081 181.141 209.39 181.068C209.902 180.946 210.574 181.241 210.979 181.528C211.463 181.871 211.938 182.276 212.465 182.551C213.13 182.899 213.932 183.069 214.654 183.262C216.079 183.642 217.623 183.62 219.088 183.687" stroke="white" stroke-opacity="0.7" stroke-linecap="round"/>
<path d="M217.617 181.437C217.653 181.672 217.907 181.901 218.018 182.11C218.275 182.591 218.401 183.118 218.778 183.532C219.12 183.906 219.517 184.212 219.83 184.613C220.242 185.14 221.079 185.589 221.642 185.941C221.891 186.097 222.122 186.308 222.386 186.436C222.543 186.513 222.813 186.501 222.88 186.653" stroke="white" stroke-opacity="0.7" stroke-linecap="round"/>
<path d="M213.391 199.492C212.649 198.68 211.549 197.752 211.604 196.535C211.628 196.013 211.652 195.492 211.675 194.971C211.699 194.463 212.05 194.084 212.428 193.778C212.881 193.411 213.573 193.177 214.089 192.888C214.672 192.562 215.303 192.263 215.914 191.992C216.135 191.893 216.343 191.989 216.571 191.949C217.403 191.803 218.271 191.352 219.021 190.974C219.42 190.773 219.783 190.492 220.182 190.304C220.465 190.17 220.925 189.775 221.212 189.725C221.56 189.664 221.984 189.436 222.314 189.29C222.77 189.087 223.248 188.942 223.724 188.786C224.168 188.641 224.601 188.729 225.042 188.604C225.612 188.442 226.183 188.464 226.737 188.225C227.491 187.899 228.441 187.474 229.066 186.934C229.639 186.438 230.662 186.031 230.991 185.343C231.141 185.028 231.643 184.624 231.884 184.36C232.297 183.909 232.612 183.402 233.105 183.014C233.833 182.44 234.408 181.638 235.097 181.009C235.382 180.749 235.761 180.552 236.087 180.356" stroke="white" stroke-opacity="0.7" stroke-linecap="round"/>
<path d="M213.391 199.492C213.893 199.515 214.335 199.797 214.855 199.82C215.702 199.859 216.611 200.081 217.44 200.268C218.964 200.611 220.667 200.564 222.169 200.158C223.331 199.843 225.246 199.233 225.984 198.182C227.112 196.575 229.506 196.183 231.14 195.283C232.41 194.585 233.534 193.913 234.946 193.506C235.915 193.228 236.875 192.876 237.873 192.922" stroke="white" stroke-opacity="0.7" stroke-linecap="round"/>
<path d="M216.493 217.706C215.265 217.65 214.63 216.683 214.184 215.68C213.553 214.259 214.201 212.647 213.821 211.177C213.432 209.672 213.445 207.932 213.516 206.376C213.566 205.261 213.586 204.181 213.883 203.094C214.157 202.092 214.541 201.107 214.588 200.07" stroke="white" stroke-opacity="0.7" stroke-linecap="round"/>
<path d="M217.416 191.643C217.426 191.415 217.677 191.352 217.852 191.226C218.166 191 218.429 190.7 218.739 190.486C219.422 190.013 219.874 189.318 220.532 188.816C221.067 188.408 221.588 187.907 222.088 187.451C222.252 187.302 222.605 186.954 222.616 186.728" stroke="white" stroke-opacity="0.7" stroke-linecap="round"/>
<path d="M216.402 217.789C220.185 217.49 219.18 212.045 219.682 209.43C219.826 208.682 219.827 207.629 220.168 206.954C220.63 206.043 220.855 204.949 221.171 203.988C221.462 203.105 221.707 202.242 222.056 201.39C222.225 200.977 222.842 200.116 223.237 199.94" stroke="white" stroke-opacity="0.7" stroke-linecap="round"/>
<path d="M218.746 216.149C219.199 217.115 219.926 217.862 221.071 217.914C221.612 217.938 222.247 218.016 222.734 217.723C223.097 217.503 223.874 216.697 223.974 216.261C224.11 215.668 224.203 215.166 224.233 214.521C224.261 213.901 224.369 213.344 224.483 212.743C224.656 211.833 225.225 210.616 226.007 210.057C226.406 209.772 226.758 209.243 226.937 208.8C227.337 207.81 227.93 206.729 228.145 205.692C228.213 205.368 228.312 205.038 228.345 204.712C228.359 204.577 228.833 204.6 228.944 204.564C229.531 204.376 230.026 204.053 230.535 203.696C231.563 202.975 231.755 201.226 232.891 200.747C233.241 200.6 233.66 200.675 234.028 200.692C234.38 200.708 234.353 201.236 234.341 201.492C234.319 201.985 233.69 202.469 233.443 202.897C232.927 203.793 232.222 204.676 231.877 205.663C231.673 206.246 230.955 206.834 230.927 207.458C230.888 208.323 230.887 209.175 230.892 210.037C230.9 211.358 230.959 212.347 231.434 213.583C231.743 214.385 231.891 215.228 232.419 215.936C232.694 216.306 233.05 216.598 233.379 216.906C233.73 217.236 234.074 217.195 234.538 217.216C235.584 217.264 236.173 215.941 236.579 215.214C237.083 214.311 237.469 213.353 237.517 212.307C237.539 211.811 237.572 211.524 237.22 211.139C236.976 210.872 236.688 210.707 236.374 210.558C234.89 209.852 233.618 210.564 232.242 211.175" stroke="white" stroke-opacity="0.7" stroke-linecap="round"/>
<path d="M237.383 211.409C237.41 210.8 237.955 210.337 237.983 209.733C238.004 209.262 238.312 208.534 238.057 208.102C237.48 207.125 236.43 207.087 235.398 207.04" stroke="white" stroke-opacity="0.7" stroke-linecap="round"/>
<path d="M238.153 207.952C238.165 207.683 238.719 207.338 238.909 207.113C239.289 206.66 239.632 206.332 239.891 205.78C240.13 205.269 240.332 204.395 239.947 203.896C239.484 203.294 238.97 202.995 238.355 202.543C237.708 202.068 237.145 201.183 236.279 201.144" stroke="white" stroke-opacity="0.7" stroke-linecap="round"/>
<path d="M230.152 195.714C230.614 196.066 230.956 196.451 231.464 196.734C232.378 197.244 232.929 198.454 233.127 199.429" stroke="white" stroke-opacity="0.7" stroke-linecap="round"/>
<path d="M229.427 186.689C228.914 186.388 228.324 186.136 227.879 185.745C227.246 185.189 226.646 184.654 226.06 184.052C225.457 183.433 224.967 182.689 224.42 182.023C224.192 181.745 224.028 181.174 223.748 181.017" stroke="white" stroke-opacity="0.7" stroke-linecap="round"/>
<path d="M215.489 207.096C217.024 207.284 218.343 208.161 218.776 209.69" stroke="white" stroke-opacity="0.7" stroke-linecap="round"/>
<path d="M239.989 204.019C241.897 204.105 243.961 204.41 245.84 203.979C246.835 203.751 247.795 203.455 248.721 203.024C249.84 202.503 250.994 202.573 252.195 202.478C253.325 202.389 254.483 202.078 255.514 201.601C256.515 201.137 257.274 199.953 258.075 199.234C258.591 198.771 259.145 198.323 259.743 197.976C260.324 197.638 261.03 197.644 261.632 197.387C262.754 196.909 264.133 196.241 264.919 195.286C265.144 195.013 265.538 194.831 265.72 194.537C265.891 194.258 266.182 193.852 266.476 193.693C266.628 193.611 266.52 193.471 266.73 193.448C267.188 193.395 267.65 193.323 268.112 193.336C268.545 193.348 268.977 193.375 269.409 193.395C270.964 193.465 272.581 193.425 274.076 193.922C275.11 194.266 276.144 194.699 277.107 195.209C277.285 195.304 277.959 195.871 277.959 195.871" stroke="white" stroke-opacity="0.7" stroke-linecap="round"/>
<path d="M237.613 192.91C238.064 193.671 238.332 194.187 239.07 194.683C239.796 195.171 240.656 195.437 241.506 195.619" stroke="white" stroke-opacity="0.7" stroke-linecap="round"/>
<path d="M240.865 194.367C241.07 194.4 241.305 194.669 241.467 194.797C242.309 195.466 243.269 196.149 244.204 196.682C245.94 197.674 247.925 198.234 249.825 198.82C250.369 198.987 250.909 199.102 251.475 199.128" stroke="white" stroke-opacity="0.7" stroke-linecap="round"/>
<path d="M245.012 195.342C247.706 195.364 250.573 194.942 253.102 193.963C254.585 193.39 256.06 192.467 257.203 191.356C257.949 190.631 258.335 189.483 258.747 188.545C258.885 188.231 259.147 187.864 259.163 187.516" stroke="white" stroke-opacity="0.7" stroke-linecap="round"/>
<path d="M241.01 196.906C240.687 196.971 241.328 198.252 241.398 198.408C241.805 199.312 242.416 199.797 243.078 200.492C243.606 201.045 244.407 201.527 245.062 201.892" stroke="white" stroke-opacity="0.7" stroke-linecap="round"/>
<path d="M29.5836 201.729C30.9357 201.345 31.9071 200.685 33.1724 200.105C34.9277 199.3 36.6285 198.051 38.0483 196.753C41.4554 193.637 44.9434 190.322 49.0351 188.14C49.9589 187.647 51.1932 187.39 52.1736 187.016C52.8093 186.774 53.5015 186.233 54.0777 186.069C55.211 185.746 56.7928 184.644 57.6961 183.854C58.3295 183.301 58.7627 182.614 59.2359 181.934C60.0958 180.699 61.3143 179.673 62.4799 178.75C64.0886 177.477 65.8164 176.802 67.7826 176.243" stroke="#444444" stroke-linecap="round"/>
<path d="M65.7713 176.815C65.6077 175.841 67.2312 174.191 67.9913 173.659C68.7397 173.136 70.0662 173.025 70.9453 172.775C72.8987 172.219 74.852 171.664 76.8054 171.108C77.9242 170.79 79.1195 170.745 80.2638 170.531C80.9439 170.404 81.9098 170.242 82.6179 170.355C83.7818 170.543 85.1055 170.276 86.2103 170.519C87.3152 170.763 88.5363 170.632 89.6333 170.435C91.6524 170.073 93.8427 170.088 95.8773 170.273C97.4389 170.415 99.0101 170.473 100.489 171.047C101.514 171.446 102.425 171.9 103.396 172.394C105.589 173.507 108.36 173.377 110.747 173.421C113.643 173.474 116.523 173.164 119.386 173.226C120.16 173.242 121.106 173.26 121.845 173.536C122.268 173.694 123.31 174.171 123.443 174.64" stroke="#444444" stroke-linecap="round"/>
<path d="M101.022 171.533C102.649 171.07 104.467 171.266 106.124 171.059C107.417 170.897 108.669 170.543 109.926 170.186C111.549 169.724 113.218 169.794 114.877 169.568C118.623 169.059 124.459 171.262 125.584 175.217" stroke="#444444" stroke-linecap="round"/>
<path d="M125.465 175.111C126.628 174.781 127.737 174.455 128.943 174.333C129.947 174.231 130.812 174.277 131.837 174.418C132.6 174.524 133.361 174.543 134.116 174.725C134.924 174.918 135.656 175.383 136.431 175.666C137.045 175.89 137.564 176.066 138.197 176.23C138.861 176.401 139.617 176.146 140.274 176.357C141.24 176.667 142.174 176.839 143.127 177.224C143.936 177.55 144.403 178.174 145.078 178.67C145.561 179.023 145.96 179.646 146.296 180.127C146.523 180.452 146.884 180.768 147.069 181.111C147.322 181.579 148.03 181.987 148.459 182.316C149.934 183.448 151.132 184.863 152.609 185.986C153.829 186.914 154.692 188.247 155.854 189.224C156.765 189.99 157.76 190.873 158.545 191.769C159.862 193.272 157.548 194.067 156.445 194.381C155.803 194.563 155.141 194.828 154.472 194.85C153.638 194.876 152.831 194.44 152.083 194.134C150.894 193.647 149.649 192.342 148.942 191.328C148.728 191.022 148.309 189.943 147.894 189.914C146.946 189.849 146.226 189.52 145.35 189.183C144.61 188.899 144.141 188.265 143.484 187.877C142.82 187.485 142.261 186.774 141.722 186.239C141.079 185.602 140.353 185.035 139.722 184.392C139.56 184.228 138.957 183.73 138.713 183.784C138.197 183.899 137.687 184.076 137.178 184.221C136.267 184.48 135.301 184.399 134.412 184.652C133.819 184.821 132.84 184.77 132.217 184.736C131.775 184.712 131.326 184.715 130.885 184.681C130.485 184.65 130.127 184.382 129.718 184.328C128.783 184.205 127.84 183.623 126.926 183.582" stroke="#444444" stroke-linecap="round"/>
<path d="M117.61 185.402C118.01 185.379 118.489 185.808 118.878 185.924C119.577 186.132 120.271 186.273 121.02 186.328C122.007 186.4 122.794 186.179 123.756 185.905C124.577 185.672 125.438 185.506 126.164 185.043C126.423 184.877 126.661 184.605 126.957 184.521" stroke="#444444" stroke-linecap="round"/>
<path d="M111.874 190.233C112.148 189.848 112.817 189.747 113.15 189.396C113.503 189.023 114.066 188.824 114.419 188.442C115.018 187.797 115.591 187.201 116.088 186.487C116.476 185.93 117.187 185.649 117.585 185.107C117.978 184.57 118.98 183.946 119.631 183.761" stroke="#444444" stroke-linecap="round"/>
<path d="M109.026 188.554C109.398 188.448 110.874 189.835 111.122 190.183C111.867 191.226 113.305 191.992 114.335 192.731C115.954 193.893 118.008 194.733 119.945 195.191C122.159 195.714 123.991 196.868 125.817 198.227C126.684 198.872 127.778 199.36 128.725 199.888C129.372 200.248 130.064 200.462 130.621 200.975C131.544 201.826 132.486 202.654 133.403 203.514C134.101 204.168 134.359 204.724 134.619 205.636C134.985 206.923 135.078 207.5 134.492 208.707C133.748 210.238 131.856 211.474 130.195 210.587C128.86 209.875 127.584 209.352 126.321 208.516C125.266 207.817 124.116 207.293 123.015 206.679C122.664 206.484 122.052 206.331 121.644 206.233C121.111 206.105 120.753 205.834 120.306 205.534C119.053 204.692 117.86 203.807 116.538 203.071C116.013 202.778 115.415 202.63 114.895 202.34C114.436 202.084 113.514 201.642 113.018 201.755C112.38 201.901 111.61 201.578 110.967 201.535C110.482 201.503 110.034 201.327 109.543 201.295C108.536 201.229 107.576 201.212 106.56 201.222C105.927 201.228 105.099 201.253 104.485 201.101C103.194 200.782 102.171 199.863 101.038 199.231C100.221 198.777 99.6674 198.09 99.132 197.345C98.641 196.661 98.1401 196.102 97.904 195.272" stroke="#444444" stroke-linecap="round"/>
<path d="M103.565 201.008C99.9337 202.04 96.7909 199.188 94.5225 196.707" stroke="#444444" stroke-linecap="round"/>
<path d="M83.9879 195.083C83.7679 195.145 84.4342 195.23 84.6058 195.381C84.9124 195.651 85.2933 195.897 85.6233 196.158C86.2886 196.683 87.0584 197.357 87.5551 198.044C88.2697 199.032 89.6802 199.407 90.7987 199.636C92.6405 200.013 94.6628 200.168 96.2765 201.237C97.1823 201.837 98.8167 201.741 99.8528 201.708" stroke="#444444" stroke-linecap="round"/>
<path d="M83.7246 192.907C83.4112 191.805 82.9456 191.042 82.1573 190.219C81.7637 189.808 81.2603 189.516 80.9569 189.007C80.5308 188.293 79.4387 187.422 78.5864 187.384C78.1523 187.365 76.5468 187.549 76.3271 187.309" stroke="#444444" stroke-linecap="round"/>
<path d="M83.8002 195.255C83.3298 195.388 83.11 195.827 82.6687 196.044C82.1431 196.302 81.6274 196.864 81.174 197.245C80.8053 197.556 80.3271 197.781 79.8938 197.998C79.4141 198.238 79.028 198.581 78.5692 198.849C77.8793 199.25 77.214 200.167 76.6762 200.756C76.187 201.292 75.6573 201.76 75.2185 202.342C73.7839 204.245 72.8272 206.519 71.5114 208.517C70.2538 210.428 68.8679 212.214 67.5225 214.049C66.1787 215.882 64.8936 217.756 63.5493 219.589C63.0789 220.231 62.7176 220.921 62.1538 221.487C61.4214 222.221 60.5583 222.844 59.8779 223.621C59.0463 224.572 58.1008 225.385 57.1718 226.234C55.7604 227.525 54.3888 228.826 52.8711 229.998C51.3701 231.157 50.0909 232.634 48.7111 233.932C47.5849 234.992 46.488 236.223 45.536 237.442C44.7523 238.446 43.8943 239.434 43.1756 240.483C42.8805 240.913 42.753 241.517 42.4155 241.884C42.2654 242.047 41.4863 242.514 41.4927 242.712C37.9019 246.572 30.8819 252.756 22.077 258.003C15.4842 261.933 7.89055 265.337 -0.0136379 266.847C-0.78712 266.995 -1.56358 267.124 -2.34237 267.235C-4.33788 266.775 -9.87853 266.794 -16.077 270.553C-22.2755 274.312 -26.3428 272.63 -27.6016 271.319C-41.5941 279.141 -74.4364 295.071 -93.8656 296.213C-113.295 297.354 -126.1 291.483 -130.074 288.406M-162.473 256.259C-159.575 254.151 -153.741 251.367 -146.132 250.353M-133.582 250.49C-133.582 250.49 -139.915 249.525 -146.132 250.353M-146.132 250.353C-140.866 245.965 -124.438 240.204 -100.848 252.271C-101.766 251.809 -62.8301 235.817 -42.753 237.023C-38.2712 236.075 -28.1714 232.531 -23.6259 225.941C-19.0805 219.351 7.57737 208.577 20.3381 204.013L29.8761 201.708M-121.661 259.723C-122.191 262.543 -124.437 268.954 -129.183 272.039C-135.116 275.895 -128.865 280.038 -135.361 294.932M-122.011 279.997C-111.761 283.981 -107.304 274.021 -96.1065 278.583M-30.0426 242.836C-26.56 243.879 -19.7026 247.525 -20.133 253.766" stroke="#444444" stroke-linecap="round"/>
<path d="M111.654 190.295C112.083 190.218 112.722 190.486 113.132 190.585C113.799 190.746 114.471 190.926 115.16 190.957C116.857 191.032 118.522 191.034 120.216 190.822" stroke="#444444" stroke-linecap="round"/>
<path d="M120.217 190.822C120.015 190.971 120.248 192.394 120.282 192.672C120.368 193.354 120.655 194.092 120.941 194.71C121.241 195.359 121.532 195.675 121.532 195.675" stroke="#444444" stroke-linecap="round"/>
<path d="M122.671 206.948C122.705 207.302 122.548 207.701 122.519 208.057C122.467 208.698 122.617 209.361 122.657 210C122.698 210.666 122.782 211.315 123.049 211.935C123.43 212.819 124.545 214.233 125.535 214.519C126.592 214.825 126.952 212.715 127.077 212.027C127.206 211.326 127.486 210.132 127.286 209.427" stroke="#444444" stroke-linecap="round"/>
<path d="M120.409 186.502C120.545 186.821 121.325 187.334 121.604 187.577C122.161 188.063 122.763 188.52 123.414 188.873C124.175 189.285 125.032 189.614 125.886 189.743C126.437 189.826 126.648 190.75 126.94 191.134C128.098 192.657 129.368 194.582 131.207 195.305C132.122 195.666 133.06 196.208 134.041 196.362C134.703 196.466 135.071 197.317 135.419 197.826C135.97 198.634 136.524 199.603 137.283 200.238C138.025 200.86 139.117 201.159 139.685 201.951C140.278 202.777 140.439 203.698 140.737 204.654C141.21 206.17 142.02 206.934 143.324 207.66C143.894 207.978 144.397 208.096 145.286 208.096C145.528 208.096 146.168 207.971 146.375 207.66C146.811 207.007 145.915 205.366 145.504 204.654" stroke="#444444" stroke-linecap="round"/>
<path d="M129.113 200.021C128.96 199.483 129.129 198.941 129.005 198.393C128.797 197.47 128.707 196.513 128.445 195.59C128.102 194.385 127.759 193.179 127.416 191.973" stroke="#444444" stroke-linecap="round"/>
<path d="M151.756 206.733C149.119 207.483 145.296 205.489 144.282 202.928C144.011 202.241 143.863 201.478 143.662 200.768C143.495 200.183 142.641 199.733 142.176 199.387C140.676 198.268 139.279 197.233 138.231 195.651C137.697 194.846 137.256 193.923 136.83 193.087C136.64 192.713 136.434 192.435 136.317 192.022C136.208 191.639 135.977 191.452 135.83 191.121C135.623 190.656 134.919 190.581 134.489 190.41C133.734 190.108 133.041 189.72 132.227 189.539C130.601 189.178 129.162 187.942 127.72 187.207C127 186.84 126.162 186.297 125.64 185.725" stroke="#444444" stroke-linecap="round"/>
<path d="M151.606 206.789C152.735 206.468 151.688 203.753 151.132 203.198C150.585 202.652 150.216 201.954 149.896 201.259C149.587 200.586 149.122 199.97 148.918 199.253C148.817 198.898 148.695 198.587 148.495 198.274C148.123 197.693 148.116 196.961 147.791 196.355C147.242 195.332 146.713 194.287 146.128 193.287C145.448 192.123 145.037 190.846 144.405 189.656C144.238 189.342 143.339 187.885 143.107 187.611" stroke="#444444" stroke-linecap="round"/>
<path d="M148.215 189.015C148.152 188.796 148.152 188.267 148.215 188.047" stroke="#444444" stroke-linecap="round"/>
<path d="M171.742 263.281L172.535 262.722L168.629 257.138L169.659 251.202L168.743 251.043L167.645 257.374L171.742 263.281ZM166.237 267.964C164.76 267.708 163.422 267.186 162.223 266.398C161.024 265.611 160.021 264.646 159.216 263.503C158.41 262.36 157.838 261.091 157.5 259.698C157.162 258.305 157.121 256.87 157.378 255.393C157.634 253.916 158.156 252.578 158.943 251.379C159.731 250.179 160.696 249.177 161.839 248.371C162.982 247.565 164.25 246.994 165.644 246.656C167.037 246.318 168.472 246.277 169.949 246.533C171.426 246.79 172.764 247.311 173.963 248.099C175.163 248.886 176.165 249.852 176.971 250.995C177.777 252.138 178.348 253.406 178.686 254.799C179.024 256.192 179.065 257.627 178.809 259.105C178.552 260.582 178.03 261.92 177.243 263.119C176.456 264.318 175.49 265.32 174.347 266.126C173.204 266.932 171.936 267.504 170.543 267.842C169.15 268.18 167.714 268.221 166.237 267.964ZM166.392 267.048C169.094 267.517 171.569 266.96 173.817 265.376C176.065 263.793 177.423 261.651 177.892 258.95C178.361 256.248 177.804 253.773 176.221 251.525C174.638 249.277 172.496 247.919 169.794 247.45C167.093 246.981 164.618 247.538 162.37 249.121C160.122 250.704 158.763 252.846 158.294 255.548C157.825 258.249 158.382 260.724 159.965 262.972C161.548 265.22 163.691 266.579 166.392 267.048Z" fill="white" fill-opacity="0.7"/>
<path d="M186.366 197.63C186.138 197.615 185.944 197.517 185.783 197.337C185.621 197.157 185.549 196.943 185.565 196.693L185.708 194.492L183.94 194.376L184.22 190.071L185.989 190.187L186.132 187.985C186.148 187.736 186.248 187.532 186.431 187.375C186.615 187.217 186.82 187.146 187.048 187.16L205.374 188.354C205.617 188.37 205.815 188.468 205.968 188.647C206.122 188.827 206.191 189.041 206.174 189.291L205.607 197.994C205.591 198.251 205.495 198.457 205.319 198.613C205.144 198.769 204.935 198.839 204.692 198.823L186.366 197.63ZM186.501 196.656L203.42 197.758L203.975 189.246L187.055 188.144L186.501 196.656Z" fill="white" fill-opacity="0.7"/>
<path d="M181.167 126.12L182.057 125.66L181.38 124.35C182.235 123.871 182.882 123.199 183.322 122.332C183.762 121.466 183.729 120.542 183.222 119.56C182.788 118.718 182.186 118.172 181.417 117.922C180.647 117.672 179.494 117.629 177.957 117.791C176.532 117.957 175.555 117.968 175.023 117.823C174.492 117.678 174.07 117.301 173.755 116.693C173.451 116.102 173.431 115.487 173.698 114.847C173.964 114.208 174.472 113.694 175.222 113.307C175.766 113.026 176.3 112.902 176.824 112.936C177.347 112.97 177.861 113.126 178.366 113.402L178.936 112.686C178.357 112.322 177.748 112.111 177.109 112.051C176.47 111.992 175.851 112.089 175.249 112.343L174.587 111.06L173.697 111.519L174.359 112.803C173.472 113.422 172.915 114.127 172.689 114.918C172.464 115.709 172.53 116.45 172.886 117.142C173.302 117.947 173.887 118.453 174.639 118.661C175.392 118.868 176.478 118.892 177.899 118.733C179.349 118.593 180.375 118.608 180.976 118.78C181.577 118.951 182.043 119.357 182.374 119.998C182.768 120.76 182.77 121.475 182.382 122.141C181.993 122.808 181.443 123.325 180.731 123.693C180.065 124.037 179.363 124.164 178.624 124.075C177.886 123.986 177.195 123.688 176.552 123.182L175.934 123.902C176.675 124.435 177.412 124.76 178.146 124.875C178.88 124.99 179.652 124.95 180.462 124.755L181.167 126.12ZM182.939 128.385C181.59 129.082 180.19 129.478 178.738 129.574C177.287 129.67 175.885 129.503 174.534 129.072C173.182 128.641 171.942 127.966 170.814 127.047C169.686 126.128 168.774 124.994 168.078 123.645C167.379 122.293 166.98 120.887 166.881 119.428C166.781 117.97 166.949 116.569 167.385 115.227C167.82 113.884 168.498 112.649 169.417 111.521C170.336 110.393 171.469 109.481 172.818 108.785C174.171 108.086 175.576 107.687 177.035 107.587C178.494 107.488 179.892 107.651 181.23 108.078C182.568 108.504 183.802 109.181 184.934 110.107C186.065 111.032 186.98 112.172 187.679 113.525C188.375 114.873 188.771 116.273 188.867 117.725C188.964 119.176 188.801 120.576 188.379 121.923C187.957 123.27 187.283 124.509 186.357 125.64C185.431 126.772 184.292 127.687 182.939 128.385ZM182.506 127.548C185 126.26 186.667 124.296 187.508 121.654C188.348 119.012 188.126 116.446 186.841 113.957C185.554 111.464 183.59 109.796 180.95 108.954C178.31 108.112 175.744 108.335 173.25 109.622C170.761 110.908 169.095 112.871 168.251 115.512C167.406 118.152 167.628 120.72 168.916 123.213C170.201 125.702 172.165 127.368 174.808 128.211C177.451 129.054 180.017 128.833 182.506 127.548Z" fill="white" fill-opacity="0.7"/>
</g>
</svg>
