<svg width="839" height="285" viewBox="0 0 839 285" fill="none" xmlns="http://www.w3.org/2000/svg">
<path d="M504.194 79.1034C507.709 78.6882 510.389 77.4358 513.766 76.5002C518.452 75.2023 523.18 72.7775 527.229 70.1176C536.947 63.7343 546.945 56.8871 557.99 53.0974C560.484 52.2418 563.656 52.0965 566.243 51.5605C567.92 51.213 569.858 50.1429 571.356 49.966C574.302 49.6179 578.676 47.5087 581.238 45.9072C583.034 44.7842 584.386 43.2509 585.834 41.7499C588.466 39.0215 591.906 36.9584 595.173 35.1314C599.681 32.6099 604.247 31.6232 609.359 31.0194" stroke="white" stroke-linecap="round"/>
<path d="M604.136 31.6368C604.119 29.1503 608.815 25.6954 610.918 24.6778C612.988 23.6757 616.33 23.9314 618.616 23.6615C623.695 23.0616 628.773 22.4618 633.852 21.8619C636.761 21.5184 639.751 21.8845 642.681 21.8097C644.423 21.7653 646.889 21.7484 648.604 22.315C651.423 23.2461 654.821 23.1123 657.47 24.1594C660.12 25.2066 663.208 25.3692 666.014 25.319C671.179 25.2265 676.619 26.1396 681.603 27.4135C685.429 28.3913 689.312 29.163 692.758 31.1831C695.148 32.5843 697.23 34.0788 699.448 35.6941C704.455 39.3393 711.396 40.1241 717.313 41.1879C724.492 42.4784 731.776 42.8599 738.869 44.1573C740.788 44.5085 743.133 44.9307 744.859 45.913C745.847 46.475 748.248 48.0788 748.392 49.2977" stroke="white" stroke-linecap="round"/>
<path d="M693.89 32.6025C698.118 32.1032 702.561 33.3175 706.763 33.465C710.041 33.58 713.297 33.202 716.566 32.8159C720.785 32.3175 724.906 33.158 729.122 33.2606C738.638 33.4922 752.267 41.305 753.482 51.5883" stroke="white" stroke-linecap="round"/>
<path d="M753.227 51.2773C756.252 50.92 759.139 50.5549 762.185 50.7329C764.722 50.8812 766.857 51.3407 769.347 52.1026C771.202 52.6703 773.085 53.0234 774.89 53.7756C776.822 54.5805 778.456 56.0297 780.269 57.0415C781.706 57.8441 782.927 58.49 784.435 59.1502C786.016 59.8425 787.999 59.5089 789.547 60.2963C791.825 61.4547 794.079 62.2552 796.294 63.5932C798.174 64.7291 799.086 66.4676 800.567 67.9688C801.626 69.0418 802.368 70.7497 803.011 72.0789C803.446 72.9775 804.217 73.9091 804.541 74.8361C804.983 76.1007 806.58 77.3979 807.513 78.3862C810.727 81.792 813.14 85.7876 816.364 89.1726C819.027 91.9679 820.637 95.626 823.135 98.519C825.095 100.789 827.216 103.381 828.81 105.924C831.482 110.187 825.411 111.238 822.542 111.577C820.875 111.774 819.122 112.168 817.45 111.953C815.366 111.686 813.533 110.279 811.796 109.218C809.036 107.531 806.462 103.789 805.109 100.985C804.7 100.138 804.089 97.2881 803.071 97.0518C800.738 96.5105 799.082 95.4035 797.037 94.2166C795.311 93.2145 794.398 91.451 792.921 90.2237C791.428 88.9824 790.321 86.9919 789.194 85.4463C787.851 83.6041 786.273 81.9033 784.961 80.0545C784.625 79.5805 783.324 78.1017 782.696 78.1387C781.367 78.2169 780.029 78.4537 778.706 78.6099C776.336 78.8899 773.966 78.3028 771.655 78.5759C770.113 78.7579 767.701 78.2407 766.166 77.9078C765.075 77.6712 763.959 77.4986 762.875 77.2368C761.894 76.9996 761.111 76.1901 760.116 75.8931C757.84 75.2136 755.729 73.3886 753.472 72.9212" stroke="white" stroke-linecap="round"/>
<path d="M729.583 73.7192C730.585 73.8209 731.605 75.0793 732.525 75.523C734.182 76.3213 735.849 76.949 737.69 77.3853C740.115 77.9601 742.16 77.7243 744.662 77.4287C746.794 77.1769 749.003 77.1098 750.993 76.2475C751.703 75.9396 752.403 75.3586 753.173 75.2676" stroke="white" stroke-linecap="round"/>
<path d="M713.389 83.4361C714.224 82.5891 715.927 82.606 716.896 81.866C717.922 81.0814 719.4 80.8097 720.432 80.0034C722.179 78.639 723.842 77.3855 725.363 75.8089C726.55 74.5784 728.431 74.1648 729.636 72.9764C730.829 71.7997 733.57 70.6495 735.261 70.4497" stroke="white" stroke-linecap="round"/>
<path d="M706.982 78.123C707.947 78.009 711.063 82.0467 711.541 83.0108C712.975 85.9013 716.245 88.3828 718.51 90.6321C722.069 94.1685 726.841 97.0768 731.473 98.9902C736.769 101.178 740.862 104.779 744.859 108.888C746.756 110.838 749.28 112.49 751.424 114.181C752.888 115.336 754.524 116.144 755.702 117.641C757.658 120.127 759.668 122.563 761.604 125.067C763.077 126.974 763.497 128.458 763.778 130.831C764.173 134.175 764.173 135.647 762.233 138.414C759.773 141.923 754.574 144.238 750.799 141.37C747.765 139.065 744.8 137.255 741.997 134.671C739.652 132.511 737.003 130.747 734.51 128.781C733.717 128.155 732.256 127.53 731.28 127.124C730.006 126.593 729.226 125.776 728.234 124.85C725.455 122.256 722.843 119.579 719.852 117.22C718.663 116.282 717.236 115.674 716.06 114.746C715.021 113.926 712.905 112.457 711.625 112.54C709.982 112.647 708.198 111.536 706.616 111.173C705.421 110.899 704.378 110.284 703.171 110.007C700.694 109.439 698.312 109.014 695.784 108.632C694.207 108.393 692.139 108.124 690.674 107.501C687.59 106.192 685.416 103.498 682.85 101.474C681.002 100.017 679.899 98.089 678.867 96.0207C677.919 94.1237 676.898 92.5344 676.643 90.3756" stroke="white" stroke-linecap="round"/>
<path d="M688.422 106.901C678.981 108.016 672.308 99.6676 667.66 92.5928" stroke="white" stroke-linecap="round"/>
<path d="M642.119 84.3401C641.547 84.4077 643.17 84.884 643.536 85.3286C644.19 86.123 645.039 86.8878 645.755 87.6673C647.199 89.2393 648.843 91.2219 649.803 93.1291C651.185 95.8732 654.542 97.3681 657.231 98.3844C661.659 100.058 666.625 101.254 670.209 104.557C672.221 106.412 676.323 106.826 678.913 107.158" stroke="white" stroke-linecap="round"/>
<path d="M642.334 78.8241C641.996 75.9589 641.143 73.8767 639.513 71.5157C638.698 70.3369 637.564 69.4088 637.013 68.0222C636.239 66.0751 633.872 63.4743 631.769 63.0387C630.697 62.8168 626.632 62.6338 626.182 61.9487" stroke="white" stroke-linecap="round"/>
<path d="M641.577 84.6927C640.354 84.8371 639.632 85.8391 638.448 86.202C637.038 86.6342 635.531 87.8242 634.251 88.5921C633.21 89.2166 631.931 89.5855 630.768 89.9507C629.479 90.3551 628.382 91.0547 627.134 91.5358C625.258 92.2591 623.237 94.271 621.665 95.521C620.234 96.6579 618.73 97.6099 617.406 98.8816C613.078 103.04 609.79 108.31 605.719 112.752C601.829 116.998 597.668 120.885 593.59 124.909C589.515 128.928 585.571 133.073 581.495 137.093C580.069 138.5 578.895 140.072 577.267 141.253C575.152 142.786 572.757 143.989 570.754 145.65C568.307 147.681 565.631 149.323 562.981 151.064C558.956 153.708 555.025 156.394 550.783 158.701C546.588 160.983 542.817 164.144 538.867 166.819C535.643 169.003 532.424 171.625 529.569 174.275C527.219 176.456 524.691 178.571 522.484 180.891C521.579 181.843 521.02 183.292 520.034 184.07C519.596 184.416 517.472 185.265 517.409 185.761C506.937 193.92 487.011 206.487 463.021 216.011C445.058 223.143 424.817 228.569 404.561 229.162C402.579 229.22 400.597 229.232 398.616 229.194C393.839 227.253 380.056 225.085 363.142 231.951C346.227 238.817 336.788 233.008 334.183 229.245C296.266 243.096 208.241 269.566 159.479 264.631C110.717 259.696 81.2288 239.98 72.5798 230.738M4.88815 137.854C12.9367 133.774 28.5527 129.185 47.8765 129.709M79.0234 135.067C79.0234 135.067 63.6641 130.137 47.8765 129.709M47.8765 129.709C62.7235 120.904 105.873 113.154 159.695 152.591C157.597 151.074 260.798 126.89 310.231 137.919C321.753 137.354 348.281 132.582 362.218 118.017C376.155 103.451 446.742 87.3255 480.293 81.0832L504.928 79.1688M104.97 162.792C102.525 169.591 94.3748 184.632 81.3408 190.403C65.0484 197.618 78.934 210.418 56.8242 244.85M95.989 213.058C119.879 227.063 134.946 204.082 160.959 219.905M339.507 157.453C347.748 161.439 363.339 173.248 359.772 188.593" stroke="white" stroke-linecap="round"/>
<path d="M712.819 83.5024C713.916 83.4828 715.398 84.4058 716.378 84.816C717.971 85.4828 719.569 86.1976 721.27 86.5499C725.46 87.4175 729.597 88.0865 733.896 88.2374" stroke="white" stroke-linecap="round"/>
<path d="M733.895 88.2366C733.334 88.5263 733.343 92.1585 733.318 92.8641C733.257 94.5933 733.676 96.5439 734.14 98.1932C734.628 99.9265 735.225 100.829 735.225 100.829" stroke="white" stroke-linecap="round"/>
<path d="M733.548 129.313C733.492 130.207 732.942 131.135 732.726 132.011C732.34 133.583 732.449 135.29 732.292 136.894C732.128 138.568 732.077 140.215 732.493 141.863C733.087 144.213 735.292 148.174 737.64 149.282C740.147 150.465 741.883 145.364 742.472 143.703C743.071 142.011 744.246 139.155 744.03 137.322" stroke="white" stroke-linecap="round"/>
<path d="M736.104 77.5737C736.313 78.4215 738.048 80.0102 738.643 80.7254C739.834 82.1567 741.149 83.5329 742.625 84.6699C744.352 86.0006 746.353 87.1609 748.423 87.822C749.76 88.2487 749.914 90.6316 750.487 91.7041C752.756 95.9526 755.144 101.246 759.427 103.78C761.56 105.042 763.674 106.767 766.052 107.541C767.656 108.064 768.231 110.329 768.891 111.733C769.938 113.961 770.929 116.593 772.561 118.476C774.157 120.317 776.752 121.499 777.849 123.695C778.993 125.986 779.025 128.34 779.382 130.834C779.951 134.793 781.661 137.017 784.612 139.345C785.902 140.362 787.105 140.858 789.314 141.213C789.917 141.31 791.558 141.255 792.198 140.565C793.543 139.114 791.971 134.676 791.233 132.741" stroke="white" stroke-linecap="round"/>
<path d="M752.334 114.667C752.168 113.267 752.805 111.988 752.717 110.576C752.57 108.199 752.729 105.783 752.446 103.384C752.076 100.249 751.705 97.1141 751.335 93.9792" stroke="white" stroke-linecap="round"/>
<path d="M805.943 140.411C799.087 141.221 790.379 134.733 788.884 127.962C788.483 126.146 788.422 124.188 788.204 122.343C788.025 120.823 786.08 119.363 785.064 118.315C781.781 114.932 778.722 111.802 776.749 107.449C775.745 105.235 775.015 102.764 774.292 100.515C773.968 99.5083 773.568 98.7349 773.441 97.6616C773.324 96.665 772.826 96.1084 772.592 95.2254C772.263 93.9881 770.542 93.5195 769.542 92.9207C767.787 91.8694 766.219 90.6262 764.267 89.8513C760.37 88.3036 757.287 84.6557 753.994 82.251C752.351 81.0512 750.486 79.3646 749.415 77.7349" stroke="white" stroke-linecap="round"/>
<path d="M805.549 140.49C808.482 140.144 806.966 132.975 805.806 131.373C804.664 129.795 804.026 127.913 803.509 126.058C803.008 124.261 802.098 122.544 801.878 120.68C801.769 119.757 801.589 118.935 801.217 118.077C800.527 116.483 800.801 114.66 800.235 113.023C799.28 110.261 798.382 107.45 797.329 104.73C796.104 101.565 795.591 98.2257 794.496 95.0144C794.207 94.1674 792.556 90.184 792.089 89.4116" stroke="white" stroke-linecap="round"/>
<path d="M804.227 94.9454C804.16 94.3738 804.372 93.06 804.615 92.5385" stroke="white" stroke-linecap="round"/>
</svg>
