<svg width="17" height="17" viewBox="0 0 17 17" fill="none" xmlns="http://www.w3.org/2000/svg">
<path d="M0 17V1.37836C0 0.996756 0.127209 0.671628 0.381626 0.402977C0.63606 0.134326 0.944744 0 1.30768 0H15.6923C16.0544 0 16.3628 0.134326 16.6177 0.402977C16.8726 0.671628 17 0.996756 17 1.37836V12.5586C17 12.9402 16.8726 13.2653 16.6177 13.534C16.3628 13.8026 16.0544 13.9369 15.6923 13.9369H2.90598L0 17Z" fill="#EB5D2D"/>
<rect width="9" height="0.999998" transform="matrix(-1 1.74846e-07 1.74846e-07 1 13 5)" fill="white"/>
<rect width="9" height="0.999998" transform="matrix(-1 1.74846e-07 1.74846e-07 1 13 8)" fill="white"/>
</svg>
