<svg width="116" height="56" viewBox="0 0 116 56" fill="none" xmlns="http://www.w3.org/2000/svg">
<path d="M6.39831 7.10779C6.84692 7.08383 7.29394 7.17829 7.69447 7.38168C8.09501 7.58508 8.43495 7.89024 8.68016 8.26654L8.78968 8.43535L11.0168 6.34136L10.9301 6.21819C9.90322 4.80395 8.32875 4.08315 6.25227 4.08315C5.42566 4.05602 4.60206 4.19552 3.83054 4.49336C3.05902 4.79119 2.3554 5.24125 1.76159 5.81672C0.629328 7.02485 -0.000732422 8.61835 -0.000732422 10.2738C-0.000732422 11.9293 0.629328 13.5228 1.76159 14.731C2.3554 15.3064 3.05902 15.7565 3.83054 16.0543C4.60206 16.3522 5.42566 16.4917 6.25227 16.4645C8.32875 16.4645 9.90322 15.7392 10.9301 14.3067L11.0168 14.1835L8.79425 12.1169L8.68016 12.2766C8.43093 12.6492 8.09033 12.9518 7.69087 13.1555C7.2914 13.3591 6.8464 13.4571 6.39831 13.4399C6.00259 13.4567 5.60793 13.3875 5.24156 13.2371C4.87518 13.0867 4.54582 12.8586 4.27619 12.5686C3.71423 11.9359 3.41974 11.11 3.45472 10.2647C3.4209 9.42645 3.71563 8.60807 4.27619 7.98369C4.54834 7.69664 4.87804 7.47025 5.24372 7.31931C5.60941 7.16837 6.00284 7.0963 6.39831 7.10779Z" fill="white"/>
<path d="M20.4362 4.08303C19.5932 4.07258 18.7592 4.2568 17.9992 4.62135C17.4752 4.8726 16.9933 5.20347 16.5707 5.60219V0H13.2073V16.1816H16.5707V8.34855C16.8458 7.95853 17.212 7.6416 17.6375 7.42534C18.063 7.20907 18.535 7.10003 19.0123 7.10767C19.5412 7.07085 20.0657 7.22459 20.4909 7.54106C20.6727 7.74047 20.8102 7.97609 20.8944 8.23242C20.9785 8.48875 21.0075 8.75998 20.9792 9.02829V16.1816H24.3381V7.86497C24.367 7.35855 24.2942 6.85146 24.1241 6.37355C23.9541 5.89565 23.6901 5.45657 23.3478 5.08212C22.6724 4.42063 21.6912 4.08303 20.4362 4.08303Z" fill="white"/>
<path d="M37.9699 14.8313L38.0794 14.7309L36.546 12.4909L36.3999 12.6369C36.0164 12.9981 35.5562 13.2679 35.0537 13.4262C34.5418 13.6151 34.0019 13.7169 33.4564 13.7273C32.6696 13.7623 31.8976 13.5056 31.2886 13.0065C30.8008 12.5989 30.47 12.0344 30.3531 11.4097H38.8552V10.5703C38.9277 8.85674 38.3415 7.18039 37.2169 5.8851C36.6765 5.29269 36.0138 4.82473 35.2747 4.51359C34.5356 4.20245 33.7376 4.05556 32.9361 4.0831C32.1206 4.05984 31.3091 4.20641 30.5533 4.51349C29.7975 4.82058 29.1139 5.28146 28.5458 5.86686C27.9823 6.44969 27.54 7.13851 27.2447 7.89341C26.9494 8.64832 26.8068 9.45429 26.8253 10.2647C26.7929 11.0966 26.935 11.9262 27.2423 12.7001C27.5496 13.4739 28.0154 14.175 28.6097 14.7583C29.2129 15.3253 29.922 15.7679 30.6965 16.0606C31.471 16.3534 32.2956 16.4906 33.1232 16.4645C35.1541 16.4645 36.7833 15.917 37.9699 14.8313ZM31.065 7.532C31.3081 7.28664 31.6007 7.09586 31.9233 6.97236C32.246 6.84886 32.5912 6.79547 32.9361 6.81576C33.2905 6.79047 33.6461 6.84221 33.9786 6.96743C34.311 7.09265 34.6124 7.28836 34.862 7.54112C35.2409 7.94981 35.4875 8.46345 35.5694 9.01467H30.3074C30.4128 8.46084 30.6759 7.94918 31.065 7.54112V7.532Z" fill="white"/>
<path d="M51.5744 14.1833L49.3473 12.1166L49.2332 12.2763C48.9843 12.6493 48.6438 12.9521 48.2442 13.1558C47.8447 13.3595 47.3995 13.4572 46.9514 13.4397C46.5556 13.4565 46.161 13.3873 45.7946 13.2368C45.4282 13.0864 45.0989 12.8583 44.8292 12.5683C44.2685 11.9352 43.9756 11.1092 44.0123 10.2645C43.9768 9.42674 44.2699 8.60827 44.8292 7.98344C45.1012 7.69699 45.4312 7.4719 45.7971 7.3232C46.1631 7.17451 46.5566 7.10564 46.9514 7.12122C47.4 7.09679 47.8472 7.19104 48.2478 7.39448C48.6485 7.59792 48.9883 7.90334 49.2332 8.27997L49.3473 8.44877L51.5744 6.35478L51.4877 6.23161C50.4563 4.81738 48.8864 4.09658 46.8099 4.09658C45.9833 4.06944 45.1597 4.20895 44.3882 4.50679C43.6166 4.80462 42.913 5.25468 42.3192 5.83015C41.187 7.03828 40.5569 8.63178 40.5569 10.2873C40.5569 11.9428 41.187 13.5363 42.3192 14.7444C42.913 15.3199 43.6166 15.7699 44.3882 16.0678C45.1597 16.3656 45.9833 16.5051 46.8099 16.478C48.8864 16.478 50.4608 15.7526 51.4877 14.3201L51.5744 14.1833Z" fill="white"/>
<path d="M65.3614 4.37044H61.1993L57.1011 9.18339V0H53.7422V16.1816H57.1011V13.1341L58.2876 11.8659L61.2586 16.1816H65.4663L60.6653 9.74909L65.3614 4.37044Z" fill="white"/>
<path d="M81.2794 16.1816H84.6611V7.72359C84.6611 6.52377 84.3462 5.6068 83.7483 4.98636C83.3947 4.66861 82.9814 4.42432 82.5325 4.26768C82.0836 4.11104 81.608 4.04519 81.1333 4.07395C80.2909 4.072 79.4628 4.29233 78.7328 4.71265C78.1561 5.03017 77.6475 5.45799 77.2359 5.97177C76.702 4.71264 75.6158 4.07395 74.0049 4.07395C73.1875 4.07336 72.3834 4.28059 71.6682 4.67615C71.2146 4.91314 70.7954 5.2109 70.4223 5.56118V4.35681H67.0635V16.1725H70.4223V8.34403C70.6799 8.0008 71.0005 7.70973 71.367 7.48637C71.7419 7.24195 72.1791 7.11051 72.6266 7.10772C73.6808 7.10772 74.1691 7.63691 74.1691 8.7683V16.1816H77.5508V8.32578C77.8022 7.99343 78.1114 7.70908 78.4636 7.48637C78.8421 7.23894 79.2846 7.10735 79.7369 7.10772C80.7865 7.10772 81.2794 7.63691 81.2794 8.7683V16.1816Z" fill="white"/>
<path d="M93.7794 13.7271C92.9927 13.7622 92.2207 13.5055 91.6117 13.0063C91.1323 12.5952 90.8099 12.0312 90.6989 11.4096H95.9517C96.6802 10.1088 97.6498 8.95844 98.8086 8.02002C98.5461 7.22961 98.1218 6.50249 97.5627 5.88497C97.0211 5.29294 96.3575 4.82527 95.6178 4.51419C94.878 4.2031 94.0795 4.05599 93.2774 4.08297C92.4639 4.05716 91.6539 4.20078 90.8989 4.50472C90.1438 4.80866 89.4603 5.26628 88.8917 5.84848C88.3267 6.43049 87.8832 7.11906 87.5871 7.87409C87.2909 8.62912 87.148 9.43552 87.1666 10.2463C87.1351 11.0786 87.278 11.9082 87.5861 12.6821C87.8941 13.4559 88.3606 14.1569 88.9556 14.7399C89.5587 15.3071 90.2677 15.7498 91.0423 16.0426C91.8168 16.3354 92.6415 16.4725 93.4691 16.4461C93.8159 16.4461 94.1445 16.4461 94.4685 16.3959C94.529 15.4205 94.7114 14.4565 95.0116 13.5264C94.612 13.6494 94.1974 13.717 93.7794 13.7271ZM91.388 7.541C91.6305 7.29599 91.9223 7.10539 92.2441 6.98189C92.566 6.8584 92.9104 6.80484 93.2546 6.82477C93.6097 6.79911 93.9661 6.85066 94.2994 6.97588C94.6326 7.1011 94.9348 7.29701 95.185 7.55013C95.5624 7.95994 95.8087 8.47303 95.8924 9.02366H90.6259C90.7334 8.46693 90.9978 7.9525 91.388 7.541Z" fill="white"/>
<path d="M38.7457 24.7035C38.3232 24.2314 37.8033 23.8564 37.2219 23.6044C36.6405 23.3524 36.0113 23.2293 35.3777 23.2437C34.6596 23.2256 33.9466 23.3686 33.291 23.6623C32.6355 23.956 32.0542 24.3929 31.5899 24.9408C30.6132 26.0585 30.1204 27.5776 30.1204 29.4481C30.1204 31.3185 30.6178 32.8696 31.5899 33.9645C32.06 34.503 32.6433 34.931 33.2981 35.2181C33.9529 35.5052 34.663 35.6441 35.3777 35.6251C36.0114 35.6338 36.6395 35.5073 37.2203 35.2539C37.8011 35.0006 38.3212 34.6263 38.7457 34.1561V35.3422H42.1274V19.1606H38.7457V24.7035ZM38.7457 31.4143C38.4794 31.7729 38.1282 32.0598 37.7235 32.2491C37.2843 32.4753 36.7982 32.5956 36.3042 32.6004C35.9328 32.6138 35.5632 32.5428 35.2233 32.3926C34.8833 32.2425 34.5819 32.0172 34.3418 31.7336C33.8146 31.0932 33.5417 30.2813 33.5751 29.4526C33.5376 28.6136 33.8106 27.7903 34.3418 27.1397C34.5819 26.8561 34.8833 26.6308 35.2233 26.4807C35.5632 26.3305 35.9328 26.2595 36.3042 26.2729C36.7982 26.2777 37.2843 26.398 37.7235 26.6242C38.1285 26.8151 38.4797 27.1035 38.7457 27.4636V31.4143Z" fill="white"/>
<path d="M48.7312 23.531H45.3723V35.3421H48.7312V23.531Z" fill="white"/>
<path d="M47.0425 18.7088C46.7842 18.7062 46.5279 18.7553 46.2889 18.8532C46.0498 18.9512 45.8328 19.096 45.6506 19.2791C45.4647 19.4551 45.317 19.6674 45.2165 19.9028C45.116 20.1383 45.065 20.3918 45.0664 20.6477C45.0712 21.1701 45.2809 21.6698 45.6505 22.0392C46.02 22.4087 46.5199 22.6183 47.0425 22.6231C47.3049 22.6282 47.5654 22.5785 47.8075 22.4772C48.0495 22.3758 48.2677 22.2251 48.4481 22.0346C48.629 21.8555 48.7725 21.6423 48.8705 21.4074C48.9684 21.1724 49.0187 20.9205 49.0186 20.666C49.0203 20.4112 48.9706 20.1588 48.8726 19.9237C48.7746 19.6885 48.6302 19.4755 48.4481 19.2973C48.2661 19.109 48.0475 18.9598 47.8059 18.8586C47.5642 18.7574 47.3045 18.7065 47.0425 18.7088Z" fill="white"/>
<path d="M59.8438 24.7127C59.4189 24.2429 58.8987 23.8689 58.318 23.6156C57.7373 23.3623 57.1093 23.2355 56.4758 23.2437C55.7683 23.2224 55.0647 23.3545 54.4131 23.6309C53.7616 23.9073 53.1777 24.3215 52.7016 24.845C51.7341 25.8988 51.2412 27.386 51.2412 29.2564C51.2412 31.1269 51.7341 32.6369 52.7016 33.6816C53.1797 34.2017 53.7643 34.6126 54.4156 34.8866C55.0669 35.1605 55.7695 35.291 56.4758 35.2692C57.1127 35.2743 57.7433 35.142 58.3245 34.8815C58.9058 34.6209 59.4239 34.2381 59.8438 33.7592V34.4572C59.8438 35.4243 59.5517 36.1269 58.9767 36.542C58.3554 36.976 57.6123 37.2013 56.8545 37.1853C56.2132 37.2214 55.5716 37.1178 54.9743 36.8814C54.377 36.6451 53.8382 36.2818 53.3953 35.8167L53.2401 35.6479L51.6885 38.1479L51.798 38.2437C53.2095 39.4314 55.0105 40.0554 56.8545 39.9955C57.5998 40.0012 58.3429 39.9169 59.0679 39.7446C59.7752 39.5657 60.4519 39.2828 61.076 38.9052C61.7578 38.482 62.3041 37.8725 62.6504 37.1488C63.0535 36.2857 63.2504 35.3409 63.2255 34.3887V23.5265H59.8438V24.7127ZM59.8438 31.0539C59.5714 31.4074 59.2197 31.6918 58.8169 31.8842C58.3885 32.1139 57.9111 32.2375 57.425 32.2446C57.0575 32.2624 56.6904 32.2003 56.3492 32.0624C56.008 31.9246 55.7009 31.7143 55.4489 31.4462C54.9608 30.8215 54.6957 30.0515 54.6957 29.2587C54.6957 28.466 54.9608 27.696 55.4489 27.0712C55.7005 26.8023 56.0075 26.5912 56.3487 26.4525C56.6899 26.3139 57.0571 26.2511 57.425 26.2683C57.9148 26.272 58.3967 26.3924 58.8306 26.6196C59.2323 26.8118 59.5803 27.1001 59.8438 27.459V31.0539Z" fill="white"/>
<path d="M69.8291 23.531H66.4702V35.3421H69.8291V23.531Z" fill="white"/>
<path d="M68.1405 18.7089C67.8859 18.7093 67.634 18.7599 67.3991 18.8577C67.1641 18.9556 66.9508 19.0988 66.7713 19.2792C66.5849 19.455 66.4364 19.6671 66.3352 19.9025C66.2339 20.1379 66.182 20.3916 66.1826 20.6478C66.1897 21.1703 66.4008 21.6693 66.7709 22.0384C67.1409 22.4074 67.6406 22.6173 68.1633 22.6232C68.4256 22.6277 68.6859 22.5778 68.9279 22.4765C69.1699 22.3752 69.3881 22.2247 69.5689 22.0347C69.7498 21.8556 69.8933 21.6424 69.9912 21.4075C70.0891 21.1725 70.1395 20.9206 70.1394 20.6661C70.1412 20.4109 70.0912 20.158 69.9924 19.9228C69.8935 19.6875 69.7479 19.4748 69.5643 19.2974C69.3806 19.1062 69.1592 18.9552 68.9141 18.8539C68.6691 18.7526 68.4056 18.7032 68.1405 18.7089Z" fill="white"/>
<path d="M78.8516 32.3083C78.5954 32.5171 78.2683 32.6184 77.9389 32.5912C77.819 32.5951 77.7 32.5707 77.5913 32.52C77.4827 32.4692 77.3876 32.3936 77.3137 32.2992C77.1427 32.0708 77.0556 31.7905 77.0672 31.5054V26.4872H79.3947V23.5081H77.0672V20.374H73.6855V23.5081H71.7825V26.4872H73.6855V32.3083C73.6576 32.7551 73.7213 33.2029 73.8728 33.6242C74.0242 34.0455 74.2602 34.4314 74.5663 34.7581C75.2683 35.3659 76.1817 35.6724 77.1083 35.6112C78.272 35.6112 79.1574 35.3512 79.7416 34.8357L79.8237 34.7627L79.0707 32.0985L78.8516 32.3083Z" fill="white"/>
<path d="M90.4753 24.2974C89.3827 23.5594 88.0826 23.1901 86.765 23.2436C84.8852 23.1944 83.0557 23.854 81.64 25.0912L81.535 25.1825L82.8494 27.5091L83.0091 27.3631C83.878 26.5253 85.0375 26.0561 86.2448 26.0538C86.8577 26.0233 87.4638 26.1948 87.9698 26.542C88.1691 26.6865 88.3299 26.8777 88.4381 27.0988C88.5463 27.32 88.5986 27.5642 88.5905 27.8102V28.9233C87.7736 28.166 86.6098 27.7783 85.1266 27.7783C84.0795 27.7621 83.0579 28.1015 82.2287 28.7409C81.8008 29.0909 81.4628 29.5381 81.2429 30.0452C81.023 30.5523 80.9276 31.1046 80.9646 31.656C80.9398 32.2095 81.043 32.7613 81.2662 33.2685C81.4894 33.7757 81.8266 34.2246 82.2515 34.5803C83.0544 35.2604 84.0742 35.631 85.1266 35.625C86.3955 35.6938 87.6402 35.2594 88.5905 34.416V35.3285H91.9494V27.7463C91.9494 26.1724 91.4565 25.0091 90.4753 24.2974ZM88.5905 32.3586C88.1311 32.9455 87.3796 33.2406 86.336 33.2436C85.8226 33.2625 85.3169 33.1153 84.8939 32.8239C84.7179 32.7021 84.5755 32.538 84.4797 32.3466C84.384 32.1552 84.3381 31.9428 84.3463 31.729C84.3362 31.5091 84.3809 31.2902 84.4765 31.0919C84.5721 30.8936 84.7156 30.7222 84.8939 30.5931C85.3153 30.2975 85.8215 30.147 86.336 30.1642C87.3765 30.1642 88.128 30.4592 88.5905 31.0493V32.3586Z" fill="white"/>
<path d="M95.1941 21.3596V35.3468H98.553V26.1087C97.0554 24.8298 95.9009 23.1974 95.1941 21.3596Z" fill="white"/>
<path d="M106.188 26.9663C111.604 26.9663 115.995 22.577 115.995 17.1625C115.995 11.748 111.604 7.35864 106.188 7.35864C100.772 7.35864 96.3806 11.748 96.3806 17.1625C96.3806 22.577 100.772 26.9663 106.188 26.9663Z" fill="url(#paint0_linear_601_190)"/>
<path d="M17.732 52H17.036V44.62H14.42V43.996H20.348V44.62H17.732V52ZM21.2562 52H20.6322V46.204H21.2562V47.2C21.8242 46.456 22.4762 46.084 23.2122 46.084V46.768C23.1402 46.752 23.0362 46.744 22.9002 46.744C22.6122 46.744 22.3002 46.852 21.9642 47.068C21.6282 47.284 21.3922 47.52 21.2562 47.776V52ZM28.9768 52H28.3528V51.148C28.0888 51.436 27.7728 51.676 27.4048 51.868C27.0368 52.052 26.6568 52.144 26.2648 52.144C25.6568 52.144 25.2008 51.996 24.8968 51.7C24.5928 51.396 24.4408 50.924 24.4408 50.284V46.204H25.0648V50.14C25.0648 50.676 25.1848 51.052 25.4248 51.268C25.6648 51.476 26.0128 51.58 26.4688 51.58C26.8288 51.58 27.1808 51.488 27.5248 51.304C27.8768 51.12 28.1528 50.892 28.3528 50.62V46.204H28.9768V52ZM32.6492 52.144C31.7132 52.144 30.9692 51.84 30.4172 51.232L30.7892 50.764C30.9892 51.012 31.2532 51.216 31.5812 51.376C31.9092 51.536 32.2692 51.616 32.6612 51.616C33.1332 51.616 33.5092 51.508 33.7892 51.292C34.0692 51.068 34.2092 50.784 34.2092 50.44C34.2092 50.152 34.0812 49.924 33.8252 49.756C33.5772 49.58 33.2732 49.452 32.9132 49.372C32.5612 49.284 32.2052 49.192 31.8452 49.096C31.4852 48.992 31.1772 48.824 30.9212 48.592C30.6732 48.36 30.5492 48.052 30.5492 47.668C30.5492 47.212 30.7332 46.832 31.1012 46.528C31.4772 46.216 31.9812 46.06 32.6132 46.06C33.4852 46.06 34.1772 46.344 34.6892 46.912L34.3412 47.356C33.9652 46.844 33.3892 46.588 32.6132 46.588C32.1732 46.588 31.8212 46.688 31.5572 46.888C31.2932 47.088 31.1612 47.34 31.1612 47.644C31.1612 47.908 31.2852 48.116 31.5332 48.268C31.7892 48.42 32.0932 48.54 32.4452 48.628C32.8052 48.708 33.1652 48.8 33.5252 48.904C33.8852 49.008 34.1892 49.188 34.4372 49.444C34.6932 49.7 34.8212 50.032 34.8212 50.44C34.8212 50.936 34.6332 51.344 34.2572 51.664C33.8812 51.984 33.3452 52.144 32.6492 52.144ZM37.689 52.144C36.929 52.144 36.549 51.724 36.549 50.884V46.756H35.589V46.204H36.549V44.62H37.185V46.204H38.361V46.756H37.185V50.788C37.185 51.316 37.385 51.58 37.785 51.58C38.049 51.58 38.265 51.488 38.433 51.304L38.673 51.784C38.417 52.024 38.089 52.144 37.689 52.144ZM42.3017 52.144C41.4537 52.144 40.7577 51.86 40.2137 51.292C39.6697 50.724 39.3977 49.992 39.3977 49.096C39.3977 48.248 39.6617 47.532 40.1897 46.948C40.7257 46.356 41.3937 46.06 42.1937 46.06C43.0417 46.06 43.7097 46.356 44.1977 46.948C44.6857 47.532 44.9297 48.26 44.9297 49.132V49.3H40.0817C40.1137 49.956 40.3337 50.504 40.7417 50.944C41.1497 51.384 41.6857 51.604 42.3497 51.604C43.1177 51.604 43.7497 51.336 44.2457 50.8L44.5697 51.208C43.9697 51.832 43.2137 52.144 42.3017 52.144ZM44.2937 48.808C44.2857 48.248 44.0977 47.74 43.7297 47.284C43.3697 46.828 42.8537 46.6 42.1817 46.6C41.5497 46.6 41.0457 46.828 40.6697 47.284C40.3017 47.732 40.1057 48.24 40.0817 48.808H44.2937ZM51.4503 52H50.8143V51.076C50.5983 51.388 50.3103 51.644 49.9503 51.844C49.5983 52.044 49.2143 52.144 48.7983 52.144C48.0223 52.144 47.3943 51.868 46.9143 51.316C46.4423 50.764 46.2063 50.028 46.2063 49.108C46.2063 48.196 46.4463 47.46 46.9263 46.9C47.4063 46.34 48.0303 46.06 48.7983 46.06C49.6303 46.06 50.3023 46.42 50.8143 47.14V43.996H51.4503V52ZM48.9063 51.58C49.2983 51.58 49.6703 51.48 50.0223 51.28C50.3743 51.08 50.6383 50.836 50.8143 50.548V47.68C50.6383 47.384 50.3743 47.136 50.0223 46.936C49.6703 46.728 49.2983 46.624 48.9063 46.624C48.2823 46.624 47.7863 46.86 47.4183 47.332C47.0583 47.796 46.8783 48.388 46.8783 49.108C46.8783 49.828 47.0583 50.42 47.4183 50.884C47.7863 51.348 48.2823 51.58 48.9063 51.58ZM57.2113 52H56.5273V43.996H59.5273C60.2713 43.996 60.8593 44.224 61.2913 44.68C61.7233 45.128 61.9393 45.68 61.9393 46.336C61.9393 46.992 61.7193 47.548 61.2793 48.004C60.8473 48.452 60.2633 48.676 59.5273 48.676H57.2113V52ZM59.4553 48.052C59.9833 48.052 60.4073 47.892 60.7273 47.572C61.0553 47.252 61.2193 46.84 61.2193 46.336C61.2193 45.832 61.0553 45.42 60.7273 45.1C60.4073 44.78 59.9833 44.62 59.4553 44.62H57.2113V48.052H59.4553ZM67.4323 52H66.8083V51.316C66.3043 51.868 65.6483 52.144 64.8403 52.144C64.3043 52.144 63.8323 51.972 63.4243 51.628C63.0163 51.276 62.8123 50.804 62.8123 50.212C62.8123 49.612 63.0123 49.144 63.4123 48.808C63.8203 48.464 64.2963 48.292 64.8403 48.292C65.6563 48.292 66.3123 48.568 66.8083 49.12V47.944C66.8083 47.528 66.6603 47.204 66.3643 46.972C66.0683 46.732 65.6963 46.612 65.2483 46.612C64.5363 46.612 63.9323 46.896 63.4363 47.464L63.0883 47.032C63.6883 46.384 64.4323 46.06 65.3203 46.06C65.9443 46.06 66.4523 46.216 66.8443 46.528C67.2363 46.84 67.4323 47.304 67.4323 47.92V52ZM65.0563 51.652C65.8163 51.652 66.4003 51.388 66.8083 50.86V49.588C66.3923 49.052 65.8083 48.784 65.0563 48.784C64.5843 48.784 64.2003 48.92 63.9043 49.192C63.6163 49.464 63.4723 49.808 63.4723 50.224C63.4723 50.64 63.6163 50.984 63.9043 51.256C64.2003 51.52 64.5843 51.652 65.0563 51.652ZM70.0062 52H69.3822V46.204H70.0062V47.2C70.5742 46.456 71.2262 46.084 71.9622 46.084V46.768C71.8902 46.752 71.7862 46.744 71.6502 46.744C71.3622 46.744 71.0502 46.852 70.7142 47.068C70.3782 47.284 70.1422 47.52 70.0062 47.776V52ZM74.4508 52.144C73.6908 52.144 73.3108 51.724 73.3108 50.884V46.756H72.3508V46.204H73.3108V44.62H73.9468V46.204H75.1228V46.756H73.9468V50.788C73.9468 51.316 74.1468 51.58 74.5468 51.58C74.8108 51.58 75.0268 51.488 75.1948 51.304L75.4348 51.784C75.1788 52.024 74.8508 52.144 74.4508 52.144ZM79.0634 52.144C78.2154 52.144 77.5194 51.86 76.9754 51.292C76.4314 50.724 76.1594 49.992 76.1594 49.096C76.1594 48.248 76.4234 47.532 76.9514 46.948C77.4874 46.356 78.1554 46.06 78.9554 46.06C79.8034 46.06 80.4714 46.356 80.9594 46.948C81.4474 47.532 81.6914 48.26 81.6914 49.132V49.3H76.8434C76.8754 49.956 77.0954 50.504 77.5034 50.944C77.9114 51.384 78.4474 51.604 79.1114 51.604C79.8794 51.604 80.5114 51.336 81.0074 50.8L81.3314 51.208C80.7314 51.832 79.9754 52.144 79.0634 52.144ZM81.0554 48.808C81.0474 48.248 80.8594 47.74 80.4914 47.284C80.1314 46.828 79.6154 46.6 78.9434 46.6C78.3114 46.6 77.8074 46.828 77.4314 47.284C77.0634 47.732 76.8674 48.24 76.8434 48.808H81.0554ZM83.928 52H83.304V46.204H83.928V47.2C84.496 46.456 85.148 46.084 85.884 46.084V46.768C85.812 46.752 85.708 46.744 85.572 46.744C85.284 46.744 84.972 46.852 84.636 47.068C84.3 47.284 84.064 47.52 83.928 47.776V52ZM92.3541 52.144C91.7301 52.144 91.1821 52.02 90.7101 51.772C90.2381 51.516 89.8781 51.196 89.6301 50.812L90.0981 50.404C90.6181 51.148 91.3661 51.52 92.3421 51.52C92.9581 51.52 93.4461 51.368 93.8061 51.064C94.1741 50.76 94.3581 50.344 94.3581 49.816C94.3581 49.272 94.1581 48.868 93.7581 48.604C93.3661 48.332 92.8501 48.196 92.2101 48.196C91.7941 48.196 91.5461 48.2 91.4661 48.208V47.56C91.5461 47.568 91.7941 47.572 92.2101 47.572C92.7861 47.572 93.2661 47.444 93.6501 47.188C94.0421 46.932 94.2381 46.552 94.2381 46.048C94.2381 45.568 94.0541 45.192 93.6861 44.92C93.3181 44.64 92.8621 44.5 92.3181 44.5C91.4941 44.5 90.7781 44.84 90.1701 45.52L89.7381 45.088C90.4021 44.28 91.2741 43.876 92.3541 43.876C93.0821 43.876 93.6941 44.064 94.1901 44.44C94.6861 44.816 94.9341 45.332 94.9341 45.988C94.9341 46.364 94.8341 46.696 94.6341 46.984C94.4341 47.272 94.2141 47.48 93.9741 47.608C93.7341 47.728 93.4821 47.812 93.2181 47.86C93.6501 47.908 94.0621 48.104 94.4541 48.448C94.8541 48.792 95.0541 49.26 95.0541 49.852C95.0541 50.524 94.8101 51.076 94.3221 51.508C93.8421 51.932 93.1861 52.144 92.3541 52.144ZM99.4094 52.144C98.9934 52.144 98.6174 52.068 98.2814 51.916C97.9454 51.764 97.6654 51.56 97.4414 51.304C97.2174 51.048 97.0294 50.744 96.8774 50.392C96.7334 50.032 96.6294 49.656 96.5654 49.264C96.5014 48.872 96.4694 48.452 96.4694 48.004C96.4694 47.58 96.5014 47.176 96.5654 46.792C96.6374 46.4 96.7534 46.024 96.9134 45.664C97.0734 45.304 97.2654 44.996 97.4894 44.74C97.7214 44.476 98.0134 44.268 98.3654 44.116C98.7174 43.956 99.1054 43.876 99.5294 43.876C100.425 43.876 101.145 44.216 101.689 44.896L101.281 45.4C100.841 44.8 100.257 44.5 99.5294 44.5C99.1134 44.5 98.7454 44.604 98.4254 44.812C98.1134 45.012 97.8694 45.284 97.6934 45.628C97.5174 45.972 97.3854 46.344 97.2974 46.744C97.2094 47.144 97.1654 47.568 97.1654 48.016C97.1654 48.184 97.1694 48.308 97.1774 48.388C97.3774 48.06 97.6934 47.756 98.1254 47.476C98.5574 47.196 99.0214 47.056 99.5174 47.056C100.277 47.056 100.897 47.276 101.377 47.716C101.857 48.148 102.097 48.772 102.097 49.588C102.097 50.284 101.853 50.884 101.365 51.388C100.877 51.892 100.225 52.144 99.4094 52.144ZM99.3854 51.52C100.017 51.52 100.509 51.324 100.861 50.932C101.221 50.532 101.401 50.088 101.401 49.6C101.401 48.968 101.217 48.488 100.849 48.16C100.481 47.832 99.9974 47.668 99.3974 47.668C98.9654 47.668 98.5494 47.796 98.1494 48.052C97.7574 48.3 97.4454 48.628 97.2134 49.036C97.2454 49.444 97.3334 49.824 97.4774 50.176C97.6214 50.528 97.8574 50.84 98.1854 51.112C98.5134 51.384 98.9134 51.52 99.3854 51.52ZM107.797 51.772C107.405 52.02 106.953 52.144 106.441 52.144C105.929 52.144 105.473 52.02 105.073 51.772C104.673 51.524 104.361 51.196 104.137 50.788C103.921 50.372 103.757 49.932 103.645 49.468C103.533 48.996 103.477 48.508 103.477 48.004C103.477 47.5 103.533 47.016 103.645 46.552C103.757 46.08 103.921 45.64 104.137 45.232C104.361 44.824 104.669 44.496 105.061 44.248C105.461 44 105.921 43.876 106.441 43.876C106.953 43.876 107.405 44 107.797 44.248C108.189 44.496 108.497 44.824 108.721 45.232C108.945 45.64 109.113 46.08 109.225 46.552C109.337 47.016 109.393 47.5 109.393 48.004C109.393 48.5 109.337 48.984 109.225 49.456C109.113 49.928 108.945 50.372 108.721 50.788C108.497 51.196 108.189 51.524 107.797 51.772ZM106.441 51.52C106.841 51.52 107.189 51.416 107.485 51.208C107.789 51 108.021 50.724 108.181 50.38C108.349 50.028 108.469 49.656 108.541 49.264C108.621 48.864 108.661 48.444 108.661 48.004C108.661 47.564 108.621 47.148 108.541 46.756C108.469 46.356 108.349 45.984 108.181 45.64C108.021 45.288 107.789 45.012 107.485 44.812C107.189 44.604 106.841 44.5 106.441 44.5C106.033 44.5 105.677 44.604 105.373 44.812C105.077 45.012 104.845 45.288 104.677 45.64C104.517 45.984 104.397 46.356 104.317 46.756C104.237 47.148 104.197 47.564 104.197 48.004C104.197 48.444 104.237 48.864 104.317 49.264C104.397 49.656 104.517 50.028 104.677 50.38C104.845 50.724 105.077 51 105.373 51.208C105.677 51.416 106.033 51.52 106.441 51.52ZM112.758 44.296C113.03 44.568 113.166 44.896 113.166 45.28C113.166 45.664 113.03 45.992 112.758 46.264C112.486 46.528 112.154 46.66 111.762 46.66C111.378 46.66 111.05 46.528 110.778 46.264C110.514 45.992 110.382 45.664 110.382 45.28C110.382 44.896 110.514 44.568 110.778 44.296C111.05 44.016 111.378 43.876 111.762 43.876C112.154 43.876 112.486 44.016 112.758 44.296ZM112.698 45.28C112.698 45.024 112.606 44.804 112.422 44.62C112.238 44.436 112.018 44.344 111.762 44.344C111.514 44.344 111.298 44.436 111.114 44.62C110.938 44.804 110.85 45.024 110.85 45.28C110.85 45.536 110.938 45.752 111.114 45.928C111.29 46.104 111.506 46.192 111.762 46.192C112.018 46.192 112.238 46.104 112.422 45.928C112.606 45.744 112.698 45.528 112.698 45.28Z" fill="white"/>
<defs>
<linearGradient id="paint0_linear_601_190" x1="99.2534" y1="24.0981" x2="113.121" y2="10.2252" gradientUnits="userSpaceOnUse">
<stop offset="0.04" stop-color="#F19300"/>
<stop offset="0.34" stop-color="#EB5D2D"/>
<stop offset="0.64" stop-color="#E62B57"/>
<stop offset="0.87" stop-color="#E20C70"/>
<stop offset="1" stop-color="#E1007A"/>
</linearGradient>
</defs>
</svg>
