<svg width="22" height="23" viewBox="0 0 22 23" fill="none" xmlns="http://www.w3.org/2000/svg">
<path fill-rule="evenodd" clip-rule="evenodd" d="M10.7322 22.1751C16.4997 22.1751 21.1768 17.3811 21.1768 11.4694C21.1768 5.55773 16.4997 0.763672 10.7322 0.763672C4.96473 0.763672 0.287598 5.55773 0.287598 11.4694C0.287598 15.9441 2.96733 19.7785 6.77128 21.3782C6.44951 18.8235 7.02799 16.7166 7.59049 14.668C7.79699 13.9159 8.00133 13.1717 8.15819 12.416C7.14531 10.7488 8.28331 7.38381 10.4223 8.21437C11.6834 8.70278 11.2133 10.1464 10.7435 11.5894C10.2321 13.1596 9.72103 14.7292 11.4411 15.0665C14.8849 15.7444 16.291 9.22815 14.158 7.10899C11.0658 4.05545 5.17316 7.04181 5.90006 11.4145C5.98943 11.958 6.85932 12.813 6.85932 12.813C6.85932 12.813 6.81761 13.3321 6.5912 14.2909C4.6131 13.8634 3.78492 12.3428 3.86237 10.3152C3.98154 6.99295 6.91294 4.67226 9.85626 4.34859C13.5741 3.93941 17.0656 5.67993 17.5542 9.0999C18.0964 12.9596 15.874 17.1368 11.8939 16.8376C11.0859 16.7781 10.6291 16.4683 10.0949 16.106C9.91613 15.9848 9.72875 15.8577 9.51664 15.7322C9.06813 18.0308 8.52528 20.2384 6.97228 21.4602C8.13899 21.9219 9.40681 22.1751 10.7322 22.1751Z" fill="#444444"/>
</svg>
