<svg width="134" height="100" viewBox="0 0 134 100" fill="none" xmlns="http://www.w3.org/2000/svg">
<path d="M134 0H0V100H134V0Z" fill="white"/>
<path d="M134 0H0V100H134V0Z" fill="#EF533F"/>
<path fill-rule="evenodd" clip-rule="evenodd" d="M74.2995 41.3687C74.4182 41.2747 74.4894 41.2276 74.5843 41.1571C78.596 38.4995 80.5188 34.8306 79.9965 30.0094C79.6405 26.7168 78.2399 23.9652 75.6288 21.872C72.709 19.5437 69.2908 18.6265 65.6114 18.5559C62.2169 18.4854 55.1905 18.5559 55.0481 18.5795V53.6453C55.9501 53.6453 56.8047 53.6453 57.7305 53.6453V20.9548L64.8993 20.9078C66.7271 20.9313 68.5312 21.143 70.264 21.778C75.7712 23.7535 77.7889 28.4572 77.148 33.0432C76.7207 36.1477 74.9167 38.3819 72.2105 39.9341C71.7833 40.1693 71.3322 40.381 70.8812 40.6161L79.6405 53.4336C79.7117 53.5277 79.8304 53.6688 79.9253 53.6688C80.8511 53.6923 81.7769 53.6688 82.7976 53.6688L74.2995 41.3687Z" fill="white"/>
<path fill-rule="evenodd" clip-rule="evenodd" d="M34.9659 18.0621L18.5393 53.6924C19.3227 53.6924 20.0111 53.6689 20.6994 53.6924C21.103 53.7159 21.2929 53.5748 21.4591 53.2221L34.8947 23.6595L48.4015 53.2221C48.4727 53.3867 48.6151 53.6454 48.7338 53.6454C49.6121 53.6924 50.4904 53.6689 51.4162 53.6689L34.9659 18.0621Z" fill="white"/>
<path fill-rule="evenodd" clip-rule="evenodd" d="M115.864 53.1044L105.515 36.0536C105.325 35.7479 105.325 35.5127 105.515 35.2069L115.437 18.5795C114.559 18.5795 113.752 18.603 112.968 18.5795C112.612 18.5795 112.422 18.6971 112.256 18.9793L102.5 35.254C102.334 35.5362 102.334 35.7243 102.5 36.0066L112.968 53.269C113.063 53.4337 113.229 53.6688 113.348 53.6688C114.274 53.7159 115.176 53.6924 116.173 53.6924C116.054 53.4337 115.959 53.269 115.864 53.1044Z" fill="white"/>
<path fill-rule="evenodd" clip-rule="evenodd" d="M98.9155 34.9953L89.183 18.9323C89.0881 18.7677 88.8982 18.556 88.732 18.556C87.8537 18.509 86.9517 18.5325 85.9784 18.5325L95.9008 34.9013C96.1145 35.2305 96.0907 35.4657 95.9008 35.795L85.5037 53.1515C85.4087 53.3161 85.3138 53.4807 85.1951 53.6924C86.0496 53.6924 86.8092 53.6689 87.5689 53.6924C87.9249 53.7159 88.0911 53.5748 88.281 53.2691C91.8179 47.413 95.3549 41.5805 98.8918 35.7479C99.0817 35.4892 99.1054 35.2776 98.9155 34.9953Z" fill="white"/>
<path fill-rule="evenodd" clip-rule="evenodd" d="M67.0356 39.5813C67.0831 39.5343 67.1068 39.5108 67.1305 39.5108C67.2492 39.4873 67.3916 39.4402 67.5341 39.4167C70.0028 38.8523 72.0917 37.6763 73.3973 35.4186C75.5337 31.7732 74.5842 25.047 67.7002 23.5653C66.4421 23.3066 65.2078 23.2361 63.9497 23.2361L60.5314 23.3066C60.5077 23.3066 60.4839 23.3302 60.4602 23.3537V53.6688C61.3385 53.6688 62.1931 53.6688 63.1188 53.6688V38.2173L73.5397 53.2925C73.6347 53.4336 73.8246 53.6688 73.967 53.6688C74.8928 53.6923 75.7948 53.6923 76.8156 53.6923L67.0356 39.5813ZM63.1188 37.7704V25.7055C65.5401 25.6114 67.9139 25.5644 69.7892 27.3518C71.6407 29.0922 71.8781 31.3029 71.2372 33.6077C70.5963 35.936 68.8397 37.0884 66.5608 37.4882C65.4451 37.6999 64.3057 37.6763 63.1188 37.7704Z" fill="white"/>
<path fill-rule="evenodd" clip-rule="evenodd" d="M34.8472 29.7272L27.9158 44.8965H41.7312L34.8472 29.7272ZM34.7523 35.8184L37.7907 42.5212H31.7138L34.7523 35.8184Z" fill="white"/>
<path fill-rule="evenodd" clip-rule="evenodd" d="M100.577 37.7469L90.8921 53.6924C91.7467 53.6924 92.5063 53.6689 93.2659 53.6924C93.6219 53.6924 93.8118 53.5983 93.978 53.2926L100.435 42.4977L107.01 53.3161C107.105 53.4807 107.319 53.6689 107.461 53.6924C108.339 53.7394 109.241 53.7159 110.215 53.7159L100.577 37.7469Z" fill="white"/>
<path fill-rule="evenodd" clip-rule="evenodd" d="M107.414 18.5324C107.034 18.5089 106.844 18.65 106.654 18.9558L100.957 28.4336L95.1888 18.9793C95.0938 18.8146 94.9277 18.5795 94.809 18.5795C93.8832 18.5324 92.9812 18.5559 91.9604 18.5559L100.838 33.2314L109.716 18.5324C108.886 18.5559 108.15 18.5795 107.414 18.5324Z" fill="white"/>
<path fill-rule="evenodd" clip-rule="evenodd" d="M45.6716 53.5278L42.9418 47.5541C42.8706 47.413 42.6332 47.2954 42.467 47.2954H27.1799C27.0137 47.2954 26.7526 47.46 26.6576 47.6247L23.9041 53.6689C24.7111 53.6689 25.447 53.6454 26.1591 53.6689C26.5152 53.6924 26.6576 53.5513 26.8001 53.2455L28.2481 50.0471C28.3905 49.7413 28.5329 49.6237 28.889 49.6237H40.5917C40.9715 49.6237 41.114 49.7648 41.2564 50.0706L42.7519 53.2926C42.8231 53.4337 42.9893 53.6218 43.108 53.6218C43.9625 53.6454 44.8171 53.6454 45.6716 53.6454C45.6716 53.5983 45.6716 53.5513 45.6716 53.5278Z" fill="white"/>
<path d="M28.5503 75.7462H29.7806C30.7895 75.7462 30.2236 75.1692 30.8387 75.1692H31.011V76.7154H30.7895C30.199 76.7154 30.7403 76.1154 29.7806 76.1154H28.5503V78.2385C28.5503 78.9308 29.0916 78.4692 29.0916 78.8385V79H27V78.8385C27 78.4692 27.5414 78.9308 27.5414 78.2385V73.8538C27.5414 73.1615 27 73.6231 27 73.2538V73.1154H31.0356C31.2325 73.1154 31.5031 73.0923 31.7 73V74.5H31.4539C30.8141 74.5 31.4047 73.5077 30.0021 73.5077H28.5503V75.7462V75.7462Z" fill="white"/>
<path d="M39 79V78.8397C39 78.4733 39.5176 78.9313 39.5176 78.2214V73.7786C39.5176 73.0687 39 73.5496 39 73.1603V73H41V73.1603C41 73.5267 40.4824 73.0687 40.4824 73.7786V78.2214C40.4824 78.9313 41 78.4504 41 78.8397V79H39Z" fill="white"/>
<path d="M43.4415 78.2214C43.4415 78.9313 43.9294 78.4504 43.9294 78.8397V79H42V78.8397C42 78.4733 42.5101 78.9313 42.5101 78.2214V73.7786C42.5101 73.0687 42.0222 73.5496 42.0222 73.1603V73H44.8609C45.5262 73 46.7681 73.2977 46.7681 74.4428C46.7681 75.4504 45.8145 75.8168 44.8831 75.8397V75.8626C45.3044 75.9084 45.4597 76.229 45.6815 76.5496L46.7238 78.1527C47.2117 78.9084 47.5 78.4275 47.5 78.8168V78.9771H46.1472L44.994 77.0992C44.4839 76.2519 44.373 75.9313 43.752 75.9313H43.4415V78V78.2214ZM44.3286 75.6107C45.0161 75.6107 45.7702 75.4504 45.7702 74.5115C45.7702 73.7328 45.1714 73.3893 44.5948 73.3893H43.4415V75.6107H44.3286Z" fill="white"/>
<path d="M50.0503 75.7462H51.2806C52.2895 75.7462 51.7236 75.1692 52.3634 75.1692H52.5356V76.7154H52.3141C51.7236 76.7154 52.2649 76.1154 51.2806 76.1154H50.0503V78.2385C50.0503 78.9308 50.5916 78.4692 50.5916 78.8385V79H48.5V78.8385C48.5 78.4692 49.0414 78.9308 49.0414 78.2385V73.8538C49.0414 73.1615 48.5 73.6231 48.5 73.2538V73.1154H52.5356C52.7325 73.1154 53.0031 73.0923 53.2 73V74.5H52.9539C52.3141 74.5 52.9047 73.5077 51.5021 73.5077H50.0503V75.7462V75.7462Z" fill="white"/>
<path d="M61.5299 77.9278C61.4582 78.0418 61.2908 78.2243 61.2908 78.3612C61.2908 78.6806 61.8167 78.4981 61.8167 78.7947V78.9544H60V78.7947C60 78.4753 60.239 78.8859 60.8127 78.1331L62.4621 75.943L60.7649 73.6844C60.3347 73.1141 60.0717 73.5019 60.0717 73.1597V73H62.247V73.1597C62.247 73.4563 61.8406 73.2738 61.8406 73.5247C61.8406 73.6388 61.9841 73.7757 62.0319 73.8441L63.1076 75.2814L63.9203 74.2091C64.0159 74.0722 64.3028 73.73 64.3028 73.5703C64.3028 73.2053 63.8247 73.5019 63.8247 73.1825V73.0228H65.6653V73.1825C65.6653 73.5475 65.3307 73.1369 64.6614 73.981L63.3705 75.6464L65.3068 78.27C65.7371 78.8403 66 78.5209 66 78.8403V79H63.7291V78.8403C63.7291 78.5437 64.255 78.7491 64.255 78.4753C64.255 78.384 64.1355 78.2471 64.0637 78.1787L62.7012 76.3764L61.5299 77.9278Z" fill="white"/>
<path d="M34.5038 73.3448H33.8722V73H35.2481C35.2932 73 37.3684 78.1954 37.3684 78.1954C37.7068 78.954 38 78.4713 38 78.8621V79H35.9925V78.8621C35.9925 78.5402 36.4662 78.7931 36.4662 78.4713C36.4662 78.3333 36.4211 78.1264 36.3534 78.0115L35.7444 76.4713L33.9398 76.4483L33.3083 77.8965C33.2632 78.0115 33.1504 78.2414 33.1504 78.3793C33.1504 78.7471 33.6015 78.4943 33.6015 78.8391V78.977H32V78.8391C32 78.4943 32.3158 78.908 32.7218 77.9885L34.5038 73.3448ZM34.8872 74.0805L34.0977 76.0575H35.6316L34.8872 74.0805Z" fill="white"/>
<path d="M55.5169 73.3448H54.8876V73H56.2584C56.3034 73 58.3708 78.1954 58.3708 78.1954C58.7079 78.954 59 78.4713 59 78.8621V79H57V78.8621C57 78.5402 57.4719 78.7931 57.4719 78.4713C57.4719 78.3333 57.427 78.1264 57.3595 78.0115L56.7528 76.4713L54.9551 76.4483L54.3258 77.8965C54.2809 78.0115 54.1685 78.2414 54.1685 78.3793C54.1685 78.7471 54.618 78.4943 54.618 78.8391V78.977H53V78.8391C53 78.4943 53.3146 78.908 53.7191 77.9885L55.5169 73.3448ZM55.8989 74.0805L55.1124 76.0575H56.6404L55.8989 74.0805Z" fill="white"/>
<path d="M26.6814 70.5C26.5627 70.5 26.4678 70.3889 26.4678 70.25C26.4678 70.1111 26.5627 70 26.6814 70H66.1099C66.2286 70 66.3236 70.1111 66.3236 70.25C66.3236 70.3889 66.2286 70.5 66.1099 70.5H26.6814Z" fill="white"/>
<path d="M26.6814 82C26.5627 82 26.4678 81.8889 26.4678 81.75C26.4678 81.6111 26.5627 81.5 26.6814 81.5H66.1099C66.2286 81.5 66.3236 81.6111 66.3236 81.75C66.3236 81.8889 66.2286 82 66.1099 82H26.6814Z" fill="white"/>
<path d="M18.9643 79H18L20.5179 73H21.4821L24 79H23.0625L22.4196 77.4539H19.6071L18.9643 79ZM22.1786 76.7846L21.0268 73.8308L19.8482 76.7846H22.1786Z" fill="white"/>
<path d="M77 76.954C76.8884 77.7586 76.442 79 74.6562 79C73.0045 79 72 77.8966 72 76.1034C72 73.092 74.1652 73 74.6339 73C76.3973 73 76.8438 74.0575 76.933 74.908H76.1964C76.1518 74.4942 75.9062 73.6207 74.6339 73.6207C73.25 73.6207 72.8036 74.8161 72.8036 76.0575C72.8036 77.3678 73.5179 78.3563 74.6786 78.3563C75.5714 78.3563 76.2188 77.7586 76.2634 76.954H77V76.954Z" fill="white"/>
<path d="M81 73C82.1555 73 83.5 73.687 83.5 76C83.5 78.9542 81.3151 79 81 79C80.6639 79 78.5 78.9542 78.5 76C78.5 74.0076 79.5504 73 81 73ZM81 78.3359C81.3571 78.3359 82.7437 78.2443 82.7437 75.9771C82.7437 74.6489 82.1975 73.6183 81 73.6183C79.4034 73.6183 79.2563 75.3588 79.2563 75.9771C79.2563 76.8931 79.5084 78.3359 81 78.3359Z" fill="white"/>
<path d="M85.7734 73.9655V74.1954V79H85V73H86.1719L88 77.9425L89.8281 73H91V79H90.2266V74.1954L90.25 73.9655H90.2266L88.3281 79H87.6719L85.7734 73.9655Z" fill="white"/>
<path d="M95.5226 73C96.7839 73 97.6 73.4828 97.6 74.7241C97.6 75.8506 97.0312 76.6092 95.4237 76.6092H93.8161V79H93V73H95.5226V73ZM93.8409 75.9195H95.3495C96.3387 75.9195 96.7591 75.5057 96.7591 74.7241C96.7591 73.9885 96.2892 73.6667 95.3495 73.6667H93.8409V75.9195Z" fill="white"/>
<path d="M98.8036 79H98L100.098 73H100.902L103 79H102.196L101.661 77.4368H99.317L98.8036 79ZM101.482 76.7701L100.522 73.8046L99.5625 76.7701H101.482Z" fill="white"/>
<path d="M104.813 79H104V73H104.911L108.187 77.7586V73H109V79H108.089L104.813 74.2414V79Z" fill="white"/>
<path d="M114.083 73H115L112.89 76.4943V79H112.133V76.4943L110 73H110.917L112.5 75.7816L114.083 73Z" fill="white"/>
</svg>
