<svg width="18" height="18" viewBox="0 0 18 18" fill="none" xmlns="http://www.w3.org/2000/svg">
<path d="M9 18C7.77 18 6.6075 17.7638 5.5125 17.2913C4.4175 16.8188 3.46125 16.1737 2.64375 15.3563C1.82625 14.5388 1.18125 13.5825 0.70875 12.4875C0.23625 11.3925 0 10.23 0 9C0 7.755 0.23625 6.585 0.70875 5.49C1.18125 4.395 1.82625 3.4425 2.64375 2.6325C3.46125 1.8225 4.4175 1.18125 5.5125 0.70875C6.6075 0.23625 7.77 0 9 0C10.245 0 11.415 0.23625 12.51 0.70875C13.605 1.18125 14.5575 1.8225 15.3675 2.6325C16.1775 3.4425 16.8188 4.395 17.2913 5.49C17.7638 6.585 18 7.755 18 9C18 10.23 17.7638 11.3925 17.2913 12.4875C16.8188 13.5825 16.1775 14.5388 15.3675 15.3563C14.5575 16.1737 13.605 16.8188 12.51 17.2913C11.415 17.7638 10.245 18 9 18Z" fill="white"/>
<path d="M8.525 14V13.2866H12.25V12.6445H10.4V9.12485H12.25V8.31629C12.25 7.33333 11.8875 6.48712 11.1625 5.77765C10.4375 5.06817 9.55833 4.71344 8.525 4.71344C7.49167 4.71344 6.60417 5.06817 5.8625 5.77765C5.12083 6.48712 4.75 7.33333 4.75 8.31629V9.12485H6.6V12.6445H4.75C4.55 12.6445 4.375 12.5731 4.225 12.4304C4.075 12.2878 4 12.1213 4 11.931V8.31629C4 7.72388 4.11875 7.16549 4.35625 6.64113C4.59375 6.11676 4.91667 5.65844 5.325 5.26617C5.73333 4.8739 6.21335 4.5648 6.76505 4.33888C7.31676 4.11296 7.90426 4 8.52755 4C9.15085 4 9.73542 4.11296 10.2812 4.33888C10.8271 4.5648 11.3002 4.8739 11.7007 5.26617C12.1011 5.65844 12.4177 6.11676 12.6507 6.64113C12.8835 7.16549 13 7.72388 13 8.31629V13.2866C13 13.4768 12.925 13.6433 12.775 13.786C12.625 13.9287 12.45 14 12.25 14H8.525Z" fill="#050608"/>
</svg>
