<svg width="21" height="19" viewBox="0 0 21 19" fill="none" xmlns="http://www.w3.org/2000/svg">
<path d="M1.78588 4.75401H19.2137V2.18992C19.2137 2.10978 19.1804 2.03632 19.1136 1.96953C19.0468 1.90276 18.9733 1.86938 18.8932 1.86938H2.10643C2.02629 1.86938 1.95282 1.90276 1.88604 1.96953C1.81926 2.03632 1.78588 2.10978 1.78588 2.18992V4.75401ZM0.604004 2.18992C0.604004 1.78143 0.752285 1.42891 1.04885 1.13234C1.34541 0.835781 1.69794 0.6875 2.10643 0.6875H18.8932C19.3017 0.6875 19.6542 0.835781 19.9508 1.13234C20.2473 1.42891 20.3956 1.78143 20.3956 2.18992V7.68266H1.78588V14.81C1.78588 14.8902 1.81926 14.9636 1.88604 15.0304C1.95282 15.0972 2.02629 15.1306 2.10643 15.1306H7.9838V16.3124H2.10643C1.69794 16.3124 1.34541 16.1642 1.04885 15.8676C0.752285 15.571 0.604004 15.2185 0.604004 14.81V2.18992ZM13.4125 18.1554L9.34598 14.0889L10.1953 13.2396L13.4125 16.4567L19.5823 10.2868L20.4156 11.1522L13.4125 18.1554ZM1.78588 2.18992V14.81C1.78588 14.8902 1.81926 14.9636 1.88604 15.0304C1.95282 15.0972 2.02629 15.1306 2.10643 15.1306H1.78588V10.8357V14.1109V1.86938H2.10643C2.02629 1.86938 1.95282 1.90276 1.88604 1.96953C1.81926 2.03632 1.78588 2.10978 1.78588 2.18992Z" fill="white"/>
</svg>
