<svg width="17" height="17" viewBox="0 0 17 17" fill="none" xmlns="http://www.w3.org/2000/svg">
<path d="M3.61921 6.81743C2.7369 6.81743 1.98424 6.50506 1.36124 5.88032C0.738251 5.25556 0.426758 4.50202 0.426758 3.61969C0.426758 2.73738 0.739127 1.98473 1.36387 1.36173C1.98862 0.738739 2.74217 0.427246 3.62449 0.427246C4.5068 0.427246 5.25946 0.739615 5.88246 1.36436C6.50545 1.98911 6.81694 2.74265 6.81694 3.62498C6.81694 4.50729 6.50457 5.25995 5.87983 5.88295C5.25507 6.50594 4.50153 6.81743 3.61921 6.81743ZM3.61879 5.63558C4.17773 5.63558 4.65351 5.44028 5.04613 5.04969C5.43877 4.6591 5.63509 4.18434 5.63509 3.6254C5.63509 3.06646 5.4398 2.59067 5.04921 2.19805C4.65862 1.80541 4.18385 1.60909 3.62491 1.60909C3.06597 1.60909 2.59019 1.80439 2.19756 2.19498C1.80493 2.58557 1.60861 3.06034 1.60861 3.61928C1.60861 4.17822 1.8039 4.654 2.19449 5.04662C2.58508 5.43926 3.05985 5.63558 3.61879 5.63558ZM13.3748 16.573C12.4925 16.573 11.7398 16.2607 11.1168 15.6359C10.4938 15.0112 10.1824 14.2576 10.1824 13.3753C10.1824 12.493 10.4947 11.7403 11.1195 11.1173C11.7442 10.4943 12.4978 10.1828 13.3801 10.1828C14.2624 10.1828 15.0151 10.4952 15.6381 11.12C16.261 11.7447 16.5725 12.4983 16.5725 13.3806C16.5725 14.2629 16.2602 15.0155 15.6354 15.6385C15.0107 16.2615 14.2571 16.573 13.3748 16.573ZM13.3744 15.3912C13.9333 15.3912 14.4091 15.1959 14.8017 14.8053C15.1944 14.4147 15.3907 13.9399 15.3907 13.381C15.3907 12.8221 15.1954 12.3463 14.8048 11.9537C14.4142 11.561 13.9394 11.3647 13.3805 11.3647C12.8216 11.3647 12.3458 11.56 11.9532 11.9506C11.5605 12.3412 11.3642 12.8159 11.3642 13.3749C11.3642 13.9338 11.5595 14.4096 11.9501 14.8022C12.3407 15.1949 12.8154 15.3912 13.3744 15.3912ZM1.36022 16.4628L0.53694 15.6396L15.6391 0.537428L16.4624 1.36071L1.36022 16.4628Z" fill="url(#paint0_linear_787_304)"/>
<defs>
<linearGradient id="paint0_linear_787_304" x1="16.5725" y1="25.3934" x2="-0.522044" y2="24.7259" gradientUnits="userSpaceOnUse">
<stop stop-color="#E1007A"/>
<stop offset="0.994792" stop-color="#F19300"/>
</linearGradient>
</defs>
</svg>
