<svg width="21" height="22" viewBox="0 0 21 22" fill="none" xmlns="http://www.w3.org/2000/svg">
<path d="M2.14793 20.3957C1.73944 20.3957 1.38691 20.2474 1.09035 19.9508C0.793789 19.6543 0.645508 19.3018 0.645508 18.8933V3.80923C0.645508 3.40074 0.793789 3.04821 1.09035 2.75165C1.38691 2.45508 1.73944 2.3068 2.14793 2.3068H4.071V0.483887H5.38309V2.3068H13.6563V0.483887H14.9383V2.3068H16.8514C17.2599 2.3068 17.6124 2.45508 17.9089 2.75165C18.2055 3.04821 18.3538 3.40074 18.3538 3.80923V10.8164H17.1719V8.54678H1.82738V18.8933C1.82738 18.9734 1.86077 19.0469 1.92754 19.1137C1.99433 19.1804 2.06779 19.2138 2.14793 19.2138H8.94267V20.3957H2.14793ZM19.159 14.7126L17.5705 13.1241L18.3257 12.3689C18.4446 12.2634 18.5869 12.2106 18.7524 12.2106C18.918 12.2106 19.0535 12.2634 19.159 12.3689L19.9142 13.1241C20.0264 13.243 20.0825 13.3852 20.0825 13.5508C20.0825 13.7163 20.0264 13.8519 19.9142 13.9574L19.159 14.7126ZM11.0461 21.247V19.6585L16.5609 14.1437L18.1494 15.7322L12.6346 21.247H11.0461ZM1.82738 7.36493H17.1719V3.80923C17.1719 3.72909 17.1385 3.65562 17.0718 3.58883C17.005 3.52206 16.9315 3.48868 16.8514 3.48868H2.14793C2.06779 3.48868 1.99433 3.52206 1.92754 3.58883C1.86077 3.65562 1.82738 3.72909 1.82738 3.80923V7.36493Z" fill="url(#paint0_linear_787_312)"/>
<defs>
<linearGradient id="paint0_linear_787_312" x1="20.0825" y1="32.5898" x2="-0.500577" y2="31.8374" gradientUnits="userSpaceOnUse">
<stop stop-color="#E1007A"/>
<stop offset="0.994792" stop-color="#F19300"/>
</linearGradient>
</defs>
</svg>
