<svg width="21" height="21" viewBox="0 0 21 21" fill="none" xmlns="http://www.w3.org/2000/svg">
<path d="M9.89535 17.7234H11.0371V16.4193C11.9827 16.3445 12.7706 16.054 13.4009 15.5479C14.0313 15.0417 14.3464 14.3326 14.3464 13.4205C14.3464 12.5751 14.0997 11.8914 13.6063 11.3692C13.1128 10.847 12.2604 10.3409 11.0492 9.85078C9.97544 9.42744 9.2396 9.05418 8.84163 8.73098C8.44366 8.40781 8.24467 7.96176 8.24467 7.39286C8.24467 6.8413 8.45501 6.39257 8.87569 6.04669C9.29637 5.7008 9.85526 5.52786 10.5524 5.52786C11.0732 5.52786 11.5246 5.64604 11.9065 5.88242C12.2885 6.11879 12.613 6.46 12.8801 6.90606L13.8596 6.44734C13.5645 5.89312 13.1806 5.45575 12.7078 5.13523C12.2351 4.81472 11.6955 4.62643 11.0892 4.57033V3.29228H9.94743V4.57033C9.04865 4.69186 8.35153 5.01237 7.85608 5.53187C7.36063 6.05136 7.1129 6.67169 7.1129 7.39286C7.1129 8.20348 7.36497 8.84717 7.8691 9.32393C8.37323 9.80068 9.16951 10.2561 10.2579 10.6901C11.4144 11.1629 12.198 11.5879 12.6087 11.9651C13.0193 12.3424 13.2247 12.8275 13.2247 13.4205C13.2247 14.0628 12.9713 14.5566 12.4644 14.9019C11.9576 15.2471 11.3603 15.4197 10.6726 15.4197C10.0155 15.4197 9.42391 15.2354 8.89775 14.8668C8.37157 14.4982 7.98428 13.9907 7.73587 13.3444L6.69824 13.717C7.05614 14.4621 7.49484 15.0431 8.01434 15.4597C8.53383 15.8764 9.16084 16.1789 9.89535 16.3672V17.7234ZM10.5003 20.3956C9.14346 20.3956 7.86475 20.1355 6.66418 19.6154C5.46359 19.0952 4.41358 18.3854 3.51415 17.486C2.61471 16.5865 1.90491 15.5365 1.38475 14.3359C0.864579 13.1354 0.604492 11.8567 0.604492 10.4998C0.604492 9.13229 0.864579 7.84657 1.38475 6.64265C1.90491 5.43873 2.61471 4.39139 3.51415 3.50064C4.41358 2.60988 5.46359 1.90442 6.66418 1.38426C7.86475 0.86409 9.14346 0.604004 10.5003 0.604004C11.8678 0.604004 13.1535 0.86409 14.3575 1.38426C15.5614 1.90442 16.6087 2.60988 17.4995 3.50064C18.3902 4.39139 19.0957 5.43873 19.6158 6.64265C20.136 7.84657 20.3961 9.13229 20.3961 10.4998C20.3961 11.8567 20.136 13.1354 19.6158 14.3359C19.0957 15.5365 18.3902 16.5865 17.4995 17.486C16.6087 18.3854 15.5614 19.0952 14.3575 19.6154C13.1535 20.1355 11.8678 20.3956 10.5003 20.3956ZM10.5003 19.2137C12.9255 19.2137 14.9841 18.3651 16.6762 16.6677C18.3682 14.9703 19.2142 12.9143 19.2142 10.4998C19.2142 8.0746 18.3682 6.01597 16.6762 4.32393C14.9841 2.63189 12.9255 1.78588 10.5003 1.78588C8.08577 1.78588 6.02981 2.63189 4.33244 4.32393C2.63506 6.01597 1.78637 8.0746 1.78637 10.4998C1.78637 12.9143 2.63506 14.9703 4.33244 16.6677C6.02981 18.3651 8.08577 19.2137 10.5003 19.2137Z" fill="url(#paint0_linear_787_340)"/>
<defs>
<linearGradient id="paint0_linear_787_340" x1="20.3961" y1="31.2077" x2="-0.558557" y2="30.3895" gradientUnits="userSpaceOnUse">
<stop stop-color="#E1007A"/>
<stop offset="0.994792" stop-color="#F19300"/>
</linearGradient>
</defs>
</svg>
