<svg width="23" height="16" viewBox="0 0 23 16" fill="none" xmlns="http://www.w3.org/2000/svg">
<path d="M18.0705 9.32289V6.0076H14.7552V4.82572H18.0705V1.51044H19.2523V4.82572H22.5677V6.0076H19.2523V9.32289H18.0705ZM8.37497 7.16343C7.37239 7.16343 6.54583 6.83816 5.89529 6.18762C5.24475 5.53709 4.91948 4.70886 4.91948 3.70294C4.91948 2.697 5.24475 1.87043 5.89529 1.22322C6.54583 0.576035 7.37239 0.252441 8.37497 0.252441C9.37756 0.252441 10.2041 0.576035 10.8547 1.22322C11.5052 1.87043 11.8305 2.697 11.8305 3.70294C11.8305 4.70886 11.5052 5.53709 10.8547 6.18762C10.2041 6.83816 9.37756 7.16343 8.37497 7.16343ZM0.562526 15.1121V13.135C0.562526 12.6142 0.701068 12.1364 0.978151 11.7017C1.25527 11.267 1.65024 10.9382 2.16307 10.7151C3.3583 10.189 4.44375 9.81203 5.41943 9.58434C6.39512 9.35665 7.3787 9.24281 8.37016 9.24281C9.36162 9.24281 10.3441 9.35665 11.3177 9.58434C12.2912 9.81203 13.3756 10.189 14.5709 10.7151C15.0837 10.9555 15.4813 11.2887 15.7638 11.7147C16.0462 12.1407 16.1875 12.6142 16.1875 13.135V15.1121H0.562526ZM1.74438 13.9303H15.0056V13.135C15.0056 12.8639 14.9224 12.6042 14.7562 12.3557C14.5899 12.1073 14.3632 11.9124 14.0761 11.7708C12.9636 11.2513 11.9798 10.8971 11.1245 10.7081C10.2692 10.5191 9.35272 10.4247 8.37497 10.4247C7.39723 10.4247 6.47638 10.5191 5.61242 10.7081C4.74846 10.8971 3.7636 11.2513 2.65784 11.7708C2.36404 11.9124 2.13834 12.1073 1.98076 12.3557C1.82317 12.6042 1.74438 12.8639 1.74438 13.135V13.9303ZM8.37497 5.98158C9.02534 5.98158 9.56687 5.76523 9.99956 5.33252C10.4322 4.89983 10.6486 4.3583 10.6486 3.70794C10.6486 3.05757 10.4322 2.51604 9.99956 2.08335C9.56687 1.65066 9.02534 1.43432 8.37497 1.43432C7.72461 1.43432 7.18308 1.65066 6.75039 2.08335C6.3177 2.51604 6.10135 3.05757 6.10135 3.70794C6.10135 4.3583 6.3177 4.89983 6.75039 5.33252C7.18308 5.76523 7.72461 5.98158 8.37497 5.98158Z" fill="white"/>
</svg>
