<svg width="21" height="17" viewBox="0 0 21 17" fill="none" xmlns="http://www.w3.org/2000/svg">
<path d="M6.66819 13.5641H7.85004V12.4222H9.17017C9.41456 12.4222 9.61254 12.3314 9.7641 12.1498C9.91568 11.9682 9.99147 11.7616 9.99147 11.5302V8.77568C9.99147 8.52243 9.91568 8.30767 9.7641 8.13141C9.61254 7.95512 9.41456 7.86698 9.17017 7.86698H5.63452V5.75958H9.99147V4.57771H7.85004V3.43589H6.66819V4.57771H5.35809C5.10703 4.57771 4.89336 4.66852 4.71707 4.85016C4.54079 5.03177 4.45264 5.248 4.45264 5.49885V8.22787C4.45264 8.47872 4.54079 8.67826 4.71707 8.82649C4.89336 8.97471 5.10703 9.04883 5.35809 9.04883H8.80962V11.2404H4.45264V12.4222H6.66819V13.5641ZM14.8573 12.8028L16.3196 11.3405H13.3949L14.8573 12.8028ZM13.3949 5.91984H16.3196L14.8573 4.45753L13.3949 5.91984ZM2.10691 16.3124C1.69842 16.3124 1.3459 16.1642 1.04934 15.8676C0.752773 15.571 0.604492 15.2185 0.604492 14.81V2.18992C0.604492 1.78143 0.752773 1.42891 1.04934 1.13234C1.3459 0.835781 1.69842 0.6875 2.10691 0.6875H18.8937C19.3022 0.6875 19.6547 0.835781 19.9513 1.13234C20.2478 1.42891 20.3961 1.78143 20.3961 2.18992V14.81C20.3961 15.2185 20.2478 15.571 19.9513 15.8676C19.6547 16.1642 19.3022 16.3124 18.8937 16.3124H2.10691ZM2.10691 15.1306H18.8937C18.9738 15.1306 19.0473 15.0972 19.1141 15.0304C19.1808 14.9636 19.2142 14.8902 19.2142 14.81V2.18992C19.2142 2.10978 19.1808 2.03632 19.1141 1.96953C19.0473 1.90276 18.9738 1.86938 18.8937 1.86938H2.10691C2.02678 1.86938 1.95331 1.90276 1.88652 1.96953C1.81975 2.03632 1.78637 2.10978 1.78637 2.18992V14.81C1.78637 14.8902 1.81975 14.9636 1.88652 15.0304C1.95331 15.0972 2.02678 15.1306 2.10691 15.1306Z" fill="url(#paint0_linear_787_328)"/>
<defs>
<linearGradient id="paint0_linear_787_328" x1="20.3961" y1="24.8483" x2="-0.539292" y2="23.8128" gradientUnits="userSpaceOnUse">
<stop stop-color="#E1007A"/>
<stop offset="0.994792" stop-color="#F19300"/>
</linearGradient>
</defs>
</svg>
