<svg width="25" height="16" viewBox="0 0 25 16" fill="none" xmlns="http://www.w3.org/2000/svg">
<path d="M12.6246 7.05325C13.0292 6.57115 13.32 6.06168 13.497 5.52484C13.6739 4.98798 13.7624 4.38068 13.7624 3.70294C13.7624 3.02519 13.6739 2.41956 13.497 1.88604C13.32 1.35253 13.0292 0.844724 12.6246 0.362623C13.7437 0.147606 14.7173 0.352268 15.5452 0.976608C16.3732 1.60093 16.7872 2.51137 16.7872 3.70794C16.7872 4.9045 16.3732 5.81327 15.5452 6.43426C14.7173 7.05525 13.7437 7.26158 12.6246 7.05325ZM18.0192 15.1121V13.165C18.0192 12.401 17.8403 11.6919 17.4824 11.0375C17.1245 10.3833 16.4935 9.8391 15.5894 9.40507C17.9384 9.72025 19.574 10.189 20.4961 10.8113C21.4182 11.4336 21.8793 12.2182 21.8793 13.165V15.1121H18.0192ZM20.4731 8.10695V5.64301H18.0092V4.46116H20.4731V1.99723H21.655V4.46116H24.1189V5.64301H21.655V8.10695H20.4731ZM8.59915 7.16343C7.59323 7.16343 6.76667 6.83816 6.11947 6.18762C5.47228 5.53709 5.14868 4.70886 5.14868 3.70294C5.14868 2.697 5.47228 1.87043 6.11947 1.22322C6.76667 0.576035 7.59323 0.252441 8.59915 0.252441C9.60509 0.252441 10.4333 0.576035 11.0839 1.22322C11.7344 1.87043 12.0597 2.697 12.0597 3.70294C12.0597 4.70886 11.7344 5.53709 11.0839 6.18762C10.4333 6.83816 9.60509 7.16343 8.59915 7.16343ZM0.881862 15.1121V13.135C0.881862 12.6142 1.02575 12.1364 1.31353 11.7017C1.60132 11.267 1.99095 10.9382 2.48241 10.7151C3.63892 10.2063 4.69427 9.83373 5.64845 9.59736C6.60265 9.36099 7.58622 9.24281 8.59915 9.24281C9.61211 9.24281 10.5913 9.36099 11.5369 9.59736C12.4824 9.83373 13.5367 10.2063 14.6999 10.7151C15.1847 10.9382 15.5753 11.267 15.8718 11.7017C16.1682 12.1364 16.3165 12.6142 16.3165 13.135V15.1121H0.881862ZM8.60418 5.98158C9.25454 5.98158 9.79607 5.76523 10.2288 5.33252C10.6615 4.89983 10.8778 4.3583 10.8778 3.70794C10.8778 3.05757 10.6615 2.51604 10.2288 2.08335C9.79607 1.65066 9.25287 1.43432 8.59915 1.43432C7.94546 1.43432 7.40393 1.65066 6.97457 2.08335C6.54521 2.51604 6.33053 3.05757 6.33053 3.70794C6.33053 4.3583 6.54502 4.89983 6.974 5.33252C7.40297 5.76523 7.94637 5.98158 8.60418 5.98158ZM2.06371 13.9303H15.1346V13.135C15.1346 12.865 15.0585 12.6083 14.9062 12.3646C14.754 12.121 14.5203 11.9231 14.2051 11.7708C13.1207 11.262 12.1562 10.9104 11.3116 10.7161C10.467 10.5218 9.56287 10.4247 8.59915 10.4247C7.63544 10.4247 6.73395 10.5218 5.8947 10.7161C5.05545 10.9104 4.08294 11.262 2.97717 11.7708C2.68337 11.9124 2.45768 12.1073 2.30009 12.3557C2.1425 12.6042 2.06371 12.8639 2.06371 13.135V13.9303Z" fill="url(#paint0_linear_787_324)"/>
<defs>
<linearGradient id="paint0_linear_787_324" x1="24.1189" y1="23.2299" x2="-0.429667" y2="21.731" gradientUnits="userSpaceOnUse">
<stop stop-color="#E1007A"/>
<stop offset="0.994792" stop-color="#F19300"/>
</linearGradient>
</defs>
</svg>
