<svg width="21" height="17" viewBox="0 0 21 17" fill="none" xmlns="http://www.w3.org/2000/svg">
<path d="M6.6677 13.5641H7.84955V12.4222H9.16968C9.41407 12.4222 9.61205 12.3314 9.76361 12.1498C9.91519 11.9682 9.99098 11.7616 9.99098 11.5302V8.77568C9.99098 8.52243 9.91519 8.30767 9.76361 8.13141C9.61205 7.95512 9.41407 7.86698 9.16968 7.86698H5.63403V5.75958H9.99098V4.57771H7.84955V3.43589H6.6677V4.57771H5.3576C5.10654 4.57771 4.89287 4.66852 4.71658 4.85016C4.5403 5.03177 4.45216 5.248 4.45216 5.49885V8.22787C4.45216 8.47872 4.5403 8.67826 4.71658 8.82649C4.89287 8.97471 5.10654 9.04883 5.3576 9.04883H8.80913V11.2404H4.45216V12.4222H6.6677V13.5641ZM14.8568 12.8028L16.3191 11.3405H13.3944L14.8568 12.8028ZM13.3944 5.91984H16.3191L14.8568 4.45753L13.3944 5.91984ZM2.10643 16.3124C1.69794 16.3124 1.34541 16.1642 1.04885 15.8676C0.752285 15.571 0.604004 15.2185 0.604004 14.81V2.18992C0.604004 1.78143 0.752285 1.42891 1.04885 1.13234C1.34541 0.835781 1.69794 0.6875 2.10643 0.6875H18.8932C19.3017 0.6875 19.6542 0.835781 19.9508 1.13234C20.2473 1.42891 20.3956 1.78143 20.3956 2.18992V14.81C20.3956 15.2185 20.2473 15.571 19.9508 15.8676C19.6542 16.1642 19.3017 16.3124 18.8932 16.3124H2.10643ZM2.10643 15.1306H18.8932C18.9733 15.1306 19.0468 15.0972 19.1136 15.0304C19.1804 14.9636 19.2137 14.8902 19.2137 14.81V2.18992C19.2137 2.10978 19.1804 2.03632 19.1136 1.96953C19.0468 1.90276 18.9733 1.86938 18.8932 1.86938H2.10643C2.02629 1.86938 1.95282 1.90276 1.88604 1.96953C1.81926 2.03632 1.78588 2.10978 1.78588 2.18992V14.81C1.78588 14.8902 1.81926 14.9636 1.88604 15.0304C1.95282 15.0972 2.02629 15.1306 2.10643 15.1306Z" fill="white"/>
</svg>
