<svg width="36" height="12" viewBox="0 0 36 12" fill="none" xmlns="http://www.w3.org/2000/svg">
<path d="M4.99277 0.406738H5.30621C6.39435 0.42879 7.46475 0.836751 8.23355 1.55895C7.94968 1.82909 7.65991 2.0882 7.38196 2.35833C6.95025 1.99448 6.42983 1.71331 5.8621 1.61408C5.02234 1.44869 4.11753 1.59754 3.41378 2.04409C2.64499 2.5127 2.12457 3.30656 2.01221 4.15556C1.88802 4.99354 2.14231 5.87561 2.72778 6.52614C3.28959 7.16014 4.1471 7.55707 5.03417 7.58464C5.8621 7.62874 6.72552 7.39168 7.32873 6.85141C7.80184 6.47101 8.02065 5.89215 8.09162 5.32983C7.10992 5.32983 6.12823 5.33534 5.14653 5.32983V4.19415H9.28029C9.49319 5.41252 9.18567 6.78525 8.19215 7.6563C7.5298 8.27376 6.61316 8.63761 5.67878 8.70928C4.77396 8.79198 3.83958 8.6321 3.0353 8.22414C2.07134 7.74451 1.30255 6.9341 0.924063 5.98036C0.569234 5.1038 0.56332 4.11146 0.894494 3.22938C1.1961 2.42449 1.77565 1.71331 2.5208 1.21715C3.23637 0.726491 4.1057 0.456355 4.99277 0.406738Z" fill="#444444"/>
<path d="M28.707 0.693359H29.9726V8.56589C29.5527 8.56589 29.1269 8.5714 28.707 8.56038C28.7129 5.94171 28.707 3.31754 28.707 0.693359Z" fill="#444444"/>
<path d="M12.0951 3.4222C12.8757 3.28437 13.7214 3.43873 14.366 3.87426C14.9515 4.26017 15.3595 4.8666 15.4837 5.52815C15.6434 6.29446 15.4423 7.13243 14.9101 7.73886C14.3364 8.41695 13.3961 8.78081 12.4795 8.72568C11.6397 8.68158 10.8236 8.29015 10.3268 7.65065C9.76503 6.94499 9.62902 5.9747 9.93654 5.14776C10.2441 4.26017 11.1134 3.58207 12.0951 3.4222ZM12.2725 4.46966C11.9531 4.54684 11.6575 4.71774 11.4446 4.96032C10.8709 5.59982 10.9064 6.64177 11.5392 7.23718C11.8999 7.57898 12.444 7.73886 12.9467 7.64514C13.4139 7.56795 13.8219 7.27577 14.0466 6.88986C14.437 6.23381 14.3246 5.32969 13.7273 4.81698C13.3429 4.4862 12.7811 4.34838 12.2725 4.46966Z" fill="#444444"/>
<path d="M18.3642 3.42236C19.2572 3.26248 20.233 3.49403 20.9012 4.0784C21.9894 4.98804 22.1077 6.69155 21.1792 7.73902C20.6174 8.40058 19.7067 8.76443 18.8078 8.72584C17.9503 8.70379 17.1046 8.30685 16.596 7.65081C16.0223 6.92861 15.8982 5.93627 16.2234 5.09279C16.5487 4.23276 17.4003 3.57672 18.3642 3.42236ZM18.5416 4.46982C18.2223 4.547 17.9266 4.71791 17.7137 4.95496C17.146 5.58344 17.1696 6.60886 17.7788 7.20977C18.1395 7.56812 18.7013 7.74453 19.2217 7.6453C19.683 7.5626 20.097 7.27593 20.3217 6.89002C20.7061 6.22846 20.5937 5.32433 19.9905 4.81163C19.6061 4.48085 19.0443 4.34854 18.5416 4.46982Z" fill="#444444"/>
<path d="M23.6806 3.74204C24.3607 3.3451 25.2655 3.23484 25.9988 3.57665C26.2294 3.67037 26.4187 3.83024 26.602 3.99012C26.6079 3.84127 26.602 3.68691 26.6079 3.53254C27.0041 3.53806 27.4004 3.53254 27.8025 3.53806V8.4005C27.7966 9.13373 27.5955 9.91106 27.0278 10.4458C26.4068 11.0357 25.4547 11.2176 24.5972 11.0964C23.6806 10.9696 22.8822 10.3466 22.5274 9.55823C22.8822 9.39835 23.2548 9.27156 23.6214 9.1227C23.8284 9.57477 24.2483 9.96068 24.7746 10.0489C25.3009 10.1371 25.9101 10.0158 26.2531 9.60785C26.6197 9.18886 26.6197 8.61551 26.602 8.1028C26.33 8.35089 26.0165 8.57141 25.638 8.6541C24.816 8.86911 23.9112 8.60448 23.2784 8.08626C22.6397 7.56804 22.2612 6.76866 22.2967 5.97479C22.3145 5.07618 22.8585 4.21064 23.6806 3.74204ZM24.9047 4.4477C24.544 4.50283 24.2069 4.69027 23.9763 4.94938C23.4204 5.56683 23.4204 6.55366 23.9822 7.16008C24.3015 7.51843 24.816 7.71689 25.3128 7.66728C25.78 7.62317 26.2117 7.34753 26.4423 6.96713C26.8326 6.32211 26.7676 5.44555 26.2412 4.88322C25.916 4.53591 25.3956 4.365 24.9047 4.4477Z" fill="#444444"/>
<path d="M31.4924 4.02322C32.202 3.40577 33.2961 3.19628 34.2068 3.52154C35.0702 3.82475 35.6202 4.59106 35.8982 5.37941C34.6149 5.87558 33.3375 6.36624 32.0542 6.86241C32.2316 7.17665 32.5036 7.46332 32.8703 7.57909C33.3848 7.75 33.9998 7.68935 34.4315 7.3696C34.603 7.24831 34.739 7.08844 34.8692 6.93407C35.1944 7.13805 35.5197 7.33652 35.8449 7.5405C35.3837 8.18552 34.6089 8.63759 33.7751 8.70925C32.8525 8.814 31.8708 8.48322 31.2735 7.81064C30.2919 6.75215 30.3865 4.97697 31.4924 4.02322ZM32.1251 5.04312C31.9241 5.31326 31.8413 5.64404 31.8472 5.9693C32.7047 5.63852 33.5622 5.30775 34.4197 4.97145C34.2778 4.66273 33.9348 4.47529 33.5859 4.42567C33.024 4.33195 32.4386 4.61311 32.1251 5.04312Z" fill="#444444"/>
</svg>
