<svg width="35" height="13" viewBox="0 0 35 13" fill="none" xmlns="http://www.w3.org/2000/svg">
<path fill-rule="evenodd" clip-rule="evenodd" d="M17.5051 12.9242C26.8303 12.9242 34.391 10.0698 34.391 6.54017C34.391 3.01056 26.8303 0.145264 17.5051 0.145264C8.16908 0.145264 0.608398 3.01056 0.608398 6.54017C0.608398 10.07 8.16908 12.9242 17.5051 12.9242Z" fill="#444444"/>
<path fill-rule="evenodd" clip-rule="evenodd" d="M17.5055 12.2706C8.55062 12.2706 1.27344 9.72128 1.27344 6.54017C1.27344 3.37007 8.55062 0.788086 17.5055 0.788086C26.4822 0.788086 33.7484 3.37007 33.7484 6.54017C33.7484 9.72128 26.4822 12.2706 17.5055 12.2706Z" fill="#080A0E"/>
<path fill-rule="evenodd" clip-rule="evenodd" d="M17.5048 11.8241C26.1874 11.8241 33.2356 9.46007 33.2356 6.54024C33.2356 3.63161 26.1874 1.26758 17.5048 1.26758C8.8114 1.26758 1.78467 3.63161 1.78467 6.54024C1.78485 9.46007 8.8114 11.8241 17.5048 11.8241Z" fill="#444444"/>
<path fill-rule="evenodd" clip-rule="evenodd" d="M21.6237 7.597C22.3644 6.89982 22.7781 6.16995 23.846 6.18079C24.4887 6.19162 24.6519 6.70372 24.7608 6.92167L26.1662 4.5468H27.0268L24.6956 8.67573C24.6519 8.76277 24.5428 8.92619 24.5539 9.05692C24.5761 9.26385 24.8374 9.2095 24.7393 9.2095C25.2077 9.18765 26.0681 8.29437 26.2752 8.0766C26.3186 8.02189 26.3951 7.92402 26.4385 7.92402C26.4822 7.92402 26.5694 7.96754 26.5694 8.0329C26.5694 8.0766 26.4713 8.23984 26.3951 8.33789C25.9592 8.88267 25.2404 9.72142 24.4233 9.74327C24.0203 9.74327 23.8675 9.57985 23.8132 9.26403C23.6281 9.42727 22.9961 9.71058 22.3534 9.71058C21.8195 9.69975 21.6015 9.38375 21.4928 9.1333C21.3948 8.92637 21.3511 8.62138 21.4273 8.3164C21.1331 8.46898 20.8608 8.49065 20.4686 8.47981C20.0109 8.4688 19.7276 8.26187 19.5862 7.72792C19.0632 8.68675 19.0412 8.71925 18.5076 9.7216H17.5817L18.7691 7.70625C18.9219 7.43377 18.9981 7.216 19.0522 6.9874C19.0851 6.85648 18.987 6.73659 18.8453 6.72593C18.6929 6.72593 18.4426 6.87851 18.2026 7.10712C18.2026 7.10712 17.5927 7.76078 17.1459 8.42528C16.7209 9.05728 15.9912 9.77613 15.196 9.77613C14.6185 9.77613 14.0956 9.46031 13.9867 8.85017C13.9867 8.85017 13.9322 8.99173 13.4201 9.28588C13.3765 9.30755 13.2677 9.37292 13.2351 9.35125C13.1369 9.26421 13.0826 9.15515 13.0716 9.07877C13.1042 9.08978 13.1696 9.03525 13.3765 8.87183C13.7796 8.56685 13.8668 8.32687 13.8668 8.32687C13.9647 8.11994 14.1393 7.7931 14.259 7.56432C14.586 6.91066 15.1523 6.24616 16.0782 6.21347C16.2308 6.21347 16.2743 6.27884 16.307 6.33337C16.3941 6.39874 16.3615 6.52947 16.3615 6.52947C15.7079 6.62752 15.2613 7.00871 14.9888 7.37924C14.8256 7.61885 14.6512 8.01105 14.6185 8.29419C14.5531 8.78444 14.7819 9.11109 15.1196 9.18747C15.7514 9.28552 16.2743 8.82796 16.6884 8.11994C16.7974 7.93467 16.8736 7.45526 16.8736 7.19379C16.8736 6.93232 16.7319 6.66002 16.623 6.55096C16.623 6.36587 16.7427 6.24598 16.8843 6.24598C16.9278 6.24598 16.9715 6.24597 17.015 6.28949C17.233 6.50744 17.3529 6.92149 17.3529 7.23731C17.3529 7.34637 17.3529 7.45526 17.331 7.56432C17.7886 7.0087 18.3659 6.28967 18.8128 6.14811C18.8998 6.10459 18.987 6.10459 19.0741 6.10459C19.8912 6.08274 19.7823 6.82362 19.7823 6.82362C20.2178 6.32254 20.523 6.13727 20.926 6.15894C21.3619 6.18079 21.5143 6.48595 21.5143 6.72557C21.5033 7.00871 21.2967 7.33554 20.9374 7.34637C20.621 7.34637 20.4359 7.19379 20.3379 6.91066C20.131 6.98704 20.0331 7.1286 19.9894 7.41174C19.9238 7.77126 20.1963 8.05457 20.5448 8.05457C21.1441 8.05475 21.4058 7.7931 21.6237 7.597ZM22.2772 2.9018C22.2772 3.25049 21.0569 3.91499 20.0219 3.91499C18.4098 3.91499 16.7321 3.14142 15.9589 2.96717C15.1199 2.77107 14.3574 2.60766 13.7581 2.60766C11.6555 2.60766 10.7185 3.51195 10.7622 4.33987C10.7841 4.67754 11.0562 4.89549 11.4594 4.81911C11.8953 4.7429 12.5053 4.32886 12.6579 3.96934C12.6905 3.89314 12.7778 3.88212 12.8104 3.90397C12.8758 3.9585 12.854 4.03471 12.854 4.03471C12.7994 4.45959 12.1458 5.63619 11.0129 5.63619C10.381 5.63619 9.95617 5.04789 9.967 4.47042C9.97783 3.39187 11.0782 2.30249 13.7908 2.30249C14.3027 2.30249 14.8801 2.34601 15.5121 2.45507C16.2418 2.58581 18.0611 2.89079 19.5427 2.91264C20.0876 2.91264 20.7848 2.93449 21.3513 2.84727C21.9504 2.74922 21.8197 2.72737 22.0595 2.72737C22.2772 2.72737 22.2772 2.81459 22.2772 2.9018Z" fill="#080A0E"/>
<path fill-rule="evenodd" clip-rule="evenodd" d="M23.8893 6.69285C23.5078 6.64933 23.0283 6.97616 22.6363 7.45558C22.4402 7.69519 22.2333 8.15276 22.2004 8.42506C22.1571 8.69754 22.2333 8.96984 22.3313 9.04604C22.4294 9.12224 22.8653 9.35103 23.5406 8.66486C23.9218 8.28349 24.2922 7.66251 24.2922 7.66251L24.1723 7.62965C24.401 7.20494 24.3572 6.7472 23.8893 6.69285Z" fill="#444444"/>
<path fill-rule="evenodd" clip-rule="evenodd" d="M15.9266 5.40743C15.9266 5.52733 16.0898 5.62538 16.2316 5.6364C16.1989 5.75612 16.2097 5.81065 16.1554 5.79981C15.8286 5.79981 15.6978 5.48381 15.6978 5.48381C15.2623 5.56002 14.8374 5.61455 13.9766 5.70176C11.8087 9.20971 11.1334 9.78717 9.80418 9.78717C8.85637 9.78717 8.01762 9.16619 7.99577 8.05496C7.98475 7.37963 8.52954 6.55153 9.54272 6.3009C9.66262 6.3009 9.70613 6.34459 9.70613 6.40996C9.70613 6.45366 9.66262 6.50801 9.56439 6.55153C9.27024 6.66059 8.75832 7.23788 8.75832 7.77182C8.75832 8.17486 9.00895 8.62159 9.43365 8.71946C9.55355 8.75232 9.66262 8.74131 9.7715 8.74131C10.8282 8.74131 12.0156 7.55388 13.3011 5.74546C13.0942 5.75629 12.2117 5.85453 11.9938 6.10498C11.8959 6.18118 11.8305 6.13766 11.8087 6.05045C11.8087 6.0286 11.8414 5.95239 11.8742 5.9087C12.2227 5.5165 13.2686 5.42946 13.5191 5.39678C14.4996 3.89335 15.7632 2.95637 16.0247 2.96738C16.0682 2.96738 16.1664 3.03275 16.1227 3.14163C16.1117 3.16348 16.0028 3.2832 15.9595 3.31588C15.7415 3.51198 15.0006 3.9914 14.1946 5.35308C14.8482 5.3204 15.6108 5.18967 15.6108 5.18967C15.6108 5.18967 15.5673 5.0481 15.5673 4.9282C15.6 4.4598 15.8723 4.17648 16.2209 4.23101C16.4172 4.2637 16.5478 4.42711 16.5478 4.60137C16.5478 4.78663 16.4062 5.05893 16.2645 5.18967C16.1662 5.26569 16.0572 5.34207 15.9266 5.40743Z" fill="#080A0E"/>
<path fill-rule="evenodd" clip-rule="evenodd" d="M15.87 5.16746C15.87 5.16746 15.979 5.17847 16.1423 4.99321C16.2077 4.92784 16.3167 4.73174 16.2949 4.60101C16.2839 4.53564 16.2514 4.45944 16.1751 4.47027C16.0116 4.50314 15.9135 4.57934 15.87 4.74275C15.8156 4.91701 15.8375 5.03691 15.87 5.16746Z" fill="#444444"/>
</svg>
