<svg width="19" height="25" viewBox="0 0 19 25" fill="none" xmlns="http://www.w3.org/2000/svg">
<path d="M6.85334 5.43628C7.02888 4.84153 7.4734 5.14504 7.4734 5.14504C7.4734 5.14504 8.62539 6.0553 11.785 8.14165C14.9447 10.228 18.8838 7.33269 18.8838 7.33269L9.52809 0.434814C5.42461 4.94819 0.17235 6.56626 0.17235 6.56626L0.187245 6.57226L12.1462 15.2739C11.9707 15.8687 11.5262 15.5653 11.5262 15.5653C11.5262 15.5653 10.3742 14.6549 7.21452 12.5684C4.05486 10.4821 0.115723 13.3775 0.115723 13.3775L9.47147 20.2754C13.5749 15.7619 18.8272 14.144 18.8272 14.144L18.8121 14.1378L6.85334 5.43628Z" fill="#444444"/>
<path d="M0.255371 22.968L1.66286 22.9759C1.68705 23.1161 1.64901 23.1156 1.72305 23.1888C1.83897 23.303 2.01882 23.329 2.16978 23.3008C2.29341 23.2779 2.48505 23.2378 2.4942 23.0753C2.50419 22.8989 2.38887 22.8374 2.24417 22.8173C2.0441 22.7896 1.84222 22.7824 1.64275 22.7486C1.12885 22.6592 0.855586 22.6192 0.636735 22.4714C0.415958 22.3236 0.396938 22.0015 0.396938 21.7723C0.396938 21.6217 0.453396 21.4795 0.566313 21.3453C0.679229 21.2116 0.849086 21.1063 1.07576 21.0294C1.30256 20.9528 1.61326 20.9148 2.00823 20.9148C2.49264 20.9148 2.86232 20.9843 3.11644 21.1232C3.37093 21.2622 3.52225 21.5721 3.57052 21.8748H2.37382C2.38273 21.8569 2.35035 21.7758 2.34517 21.7555C2.2993 21.5797 2.13908 21.5285 1.98559 21.4925C1.8598 21.4631 1.71606 21.4605 1.60267 21.534C1.53369 21.5788 1.48012 21.6261 1.48012 21.6904C1.48012 21.7369 1.50853 21.7788 1.56559 21.8162C1.62108 21.8547 1.75218 21.8908 1.95911 21.9239C2.47133 22.0096 2.83813 22.0958 3.05987 22.1828C3.28137 22.2705 3.44255 22.3785 3.54355 22.5076C3.64431 22.6368 3.69487 22.7813 3.69487 22.9412C3.69487 23.1291 3.62758 23.3022 3.49299 23.4605C3.35865 23.6189 3.17074 23.7395 2.92937 23.8213C2.68789 23.9033 2.38369 23.9441 2.01653 23.9441C1.3719 23.9441 0.925166 23.8482 0.677063 23.6565C0.428598 23.465 0.288114 23.264 0.255371 22.968ZM5.96608 20.9699H7.00629V23.0409C7.00629 23.4659 6.75698 23.7669 6.25824 23.9447C6.02748 24.0258 5.75084 24.0288 5.43761 24.0288C5.15677 24.0288 4.90481 24.0343 4.67176 23.9701C4.12282 23.7378 3.84848 23.428 3.84848 23.0409V20.9699H4.89602V22.7435C4.89602 23.0664 4.93647 23.3067 5.43773 23.3067C5.94911 23.3067 5.95934 23.0559 5.95934 22.733L5.96608 20.9699ZM12.7674 20.9699H13.8078V23.0409C13.8078 23.4659 13.5585 23.7669 13.0597 23.9447C12.8291 24.0258 12.5523 24.0288 12.2391 24.0288C11.9582 24.0288 11.7062 24.0343 11.4732 23.9701C10.9242 23.7378 10.6498 23.428 10.6498 23.0409V20.9699H11.6974V22.7435C11.6974 23.0664 11.7379 23.3067 12.2391 23.3067C12.7505 23.3067 12.7607 23.0559 12.7607 22.733L12.7674 20.9699ZM7.22032 20.9913H10.4424V21.6279L8.86845 23.1259H10.4425V23.9597H7.22032V23.2429L8.75806 21.7662H7.22321L7.22032 20.9913ZM14.0654 23.9545V20.9862H15.0981L15.0979 22.0849L16.2118 20.9862H17.5043L16.0211 22.4248L17.566 23.9545H16.1715L15.1081 22.8924L15.1182 23.9545H14.0654ZM18.7443 20.9858V23.9545H17.7136V20.9862H18.7443V20.9858Z" fill="#444444"/>
</svg>
