<svg width="30" height="11" viewBox="0 0 30 11" fill="none" xmlns="http://www.w3.org/2000/svg">
<path fill-rule="evenodd" clip-rule="evenodd" d="M8.60715 9.68353C7.68424 10.3812 6.59488 10.787 5.41164 10.787C2.69383 10.787 0.240234 8.6355 0.240234 5.98794C0.240234 4.63091 0.772227 3.29837 1.78191 2.3407C2.69028 1.48359 3.96046 0.942139 5.23792 0.942139C6.48273 0.942139 7.66614 1.27531 8.61781 2.05262C9.51162 1.34117 10.6734 0.949113 11.8387 0.949113C13.0366 0.949113 14.1872 1.33419 15.1064 2.06997C16.0219 1.30646 17.1872 0.959494 18.3887 0.959494C19.5648 0.959494 20.6901 1.3621 21.6023 2.06656C22.5792 1.3342 23.7518 0.963063 24.9966 0.963063C26.1076 0.963063 27.2365 1.40378 28.0906 2.07695C29.2667 3.00007 29.9689 4.41242 29.9689 5.86986C29.9689 8.57679 27.6998 10.808 24.8665 10.808C23.6648 10.808 22.5105 10.447 21.5988 9.69051C20.6938 10.3742 19.5577 10.8044 18.396 10.8044C17.1835 10.8044 16.0219 10.4504 15.0956 9.68694C14.1656 10.388 13.0256 10.7938 11.8387 10.7938C10.6554 10.794 9.50096 10.4367 8.60715 9.68353Z" fill="#444444"/>
<path fill-rule="evenodd" clip-rule="evenodd" d="M7.47775 8.44502C7.02171 7.71606 6.73228 6.8695 6.73228 6.01563C6.73228 5.03363 6.96758 4.12786 7.48858 3.28113C6.82261 2.84041 6.05549 2.57666 5.23763 2.57666C3.35578 2.57666 1.94824 4.24935 1.94824 5.97751C1.94824 7.74023 3.62744 9.14219 5.41152 9.14219C6.16781 9.14236 6.88063 8.87877 7.47775 8.44502ZM8.60314 6.90405C8.74066 6.56065 8.78769 6.19974 8.78769 5.83201C8.78769 5.48489 8.71884 5.14474 8.61041 4.81513C8.50181 5.13793 8.43669 5.47094 8.43669 5.81109C8.43669 6.18579 8.48388 6.55011 8.60314 6.90405ZM9.73225 8.44502C10.3982 8.94819 11.1762 9.14576 12.0194 9.14576C12.7432 9.14576 13.409 8.85784 13.9772 8.44843C13.4523 7.62247 13.2245 6.72026 13.2245 5.75188C13.2245 4.8878 13.5357 4.0341 13.988 3.29508C13.362 2.86134 12.6238 2.58363 11.8421 2.58363C11.0605 2.58363 10.3476 2.837 9.73952 3.29151C10.2859 4.14164 10.4885 5.08213 10.4885 6.07452C10.4885 6.90048 10.181 7.75077 9.73225 8.44502ZM15.0918 6.91102C15.2076 6.5746 15.2836 6.20671 15.2836 5.85261C15.2836 5.49186 15.2254 5.16923 15.0953 4.83249C14.9828 5.16297 14.9254 5.50839 14.9251 5.85602C14.9253 6.22034 14.947 6.57103 15.0918 6.91102ZM16.21 8.45541C16.8831 8.93765 17.6465 9.15971 18.4828 9.15971C19.199 9.15971 19.912 8.87179 20.4694 8.44843C20.0025 7.69887 19.7168 6.8416 19.7168 5.96373C19.7168 5.01643 19.9736 4.11764 20.4804 3.30903C19.8689 2.85452 19.116 2.59418 18.3414 2.59418C17.5668 2.59418 16.8363 2.85777 16.2246 3.30546C16.7601 4.14878 16.9772 4.99891 16.9772 5.99503C16.9772 6.86252 16.6805 7.71947 16.21 8.45541ZM21.5914 6.91443C21.7068 6.56893 21.7654 6.20828 21.7651 5.84548C21.7651 5.50208 21.7033 5.1655 21.5949 4.8393C21.4899 5.1655 21.4175 5.48813 21.4175 5.83185C21.4175 6.20315 21.4718 6.56065 21.5914 6.91443ZM22.7274 8.46205C23.3389 8.90975 24.0845 9.17366 24.8554 9.17366C26.7587 9.17366 28.2715 7.68151 28.2715 5.8664C28.2715 4.08617 26.6684 2.59418 24.8226 2.59418C24.059 2.59418 23.3316 2.86474 22.7272 3.30205C23.2014 4.07595 23.4835 4.95739 23.4835 5.85943C23.4837 6.78272 23.1652 7.65004 22.7274 8.46205Z" fill="#080A0E"/>
</svg>
