<svg width="208" height="68" viewBox="0 0 208 68" fill="none" xmlns="http://www.w3.org/2000/svg">
<g>
<path d="M105.854 0H98.8983L86.6074 29.4203H93.2612L95.4959 23.9105H109.228L111.413 29.4203H118.066L105.854 0ZM97.5295 18.7007L102.379 5.8426L107.228 18.7007H97.5295Z" fill="#212121"/>
<path d="M47.7951 0H40.8397L28.5488 29.4203H35.2026L37.4373 23.9105H51.1695L53.3595 29.4203H60.0078L47.7951 0ZM39.4877 18.7007L44.337 5.8426L49.1863 18.7007H39.4877Z" fill="#212121"/>
<path d="M0 29.4312V0H6.43593V11.6852H11.2852L18.8832 0H26.0789L16.3356 14.331L26.6376 29.4312H19.4866L11.2852 17.4296H6.43593V29.4312H0Z" fill="#212121"/>
<path d="M75.1639 0C82.4267 0 88.1251 2.26939 88.1251 9.8795C88.1251 17.4896 82.4211 19.7535 75.1639 19.7535H70.2755V29.4312H63.834V0H75.1639ZM75.4656 5.54801H70.2755V14.2055H75.4656C78.7729 14.2055 81.5607 13.3218 81.5607 9.8795C81.5607 6.43722 78.7729 5.54801 75.4656 5.54801Z" fill="#212121"/>
<path d="M134.564 0C140.955 0 144.95 2.39487 144.95 7.44099C144.95 10.8833 143.062 12.989 140.402 13.8673C143.363 14.7074 146.151 16.8513 146.151 21.1828C146.151 27.8655 139.587 29.4203 134.346 29.4203H121.43V0H134.564ZM134.603 16.7259H127.826V24.2923H134.262C137.14 24.2923 139.715 23.7032 139.715 20.5064C139.715 17.3969 137.179 16.7259 134.603 16.7259ZM134.005 5.1716H127.86V11.8925H134.341C136.788 11.8925 138.547 10.8014 138.547 8.53205C138.547 6.26265 136.838 5.1716 134.005 5.1716Z" fill="#212121"/>
<path d="M207.989 0V29.4312H201.553V17.566H188.095V29.4312H181.637V0H188.095V11.8543H201.57V0H207.989Z" fill="#212121"/>
<path d="M25.7333 38.3799H17.4258V67.7293H25.7333V38.3799Z" fill="#212121"/>
<path d="M35.2022 38.3799H30.1406V67.7293H35.2022V38.3799Z" fill="#212121"/>
<path d="M28.5911 38.3799H27.2168V67.7293H28.5911V38.3799Z" fill="#212121"/>
<path d="M5.02303 38.3799H0.0117188V67.7293H5.02303V38.3799Z" fill="#212121"/>
<path d="M16.0124 38.3799H10.5039V67.7293H16.0124V38.3799Z" fill="#212121"/>
<path d="M9.53111 38.3799H6.72656V67.7293H9.53111V38.3799Z" fill="#212121"/>
<path d="M50.4352 38.3799H48.0273V67.7293H50.4352V38.3799Z" fill="#212121"/>
<path d="M45.9961 38.3799H44.3145V67.7293H45.9961V38.3799Z" fill="#212121"/>
<path d="M42.6717 38.3799H37.666V67.7293H42.6717V38.3799Z" fill="#212121"/>
<path d="M208.001 38.3164H198.141V67.7313H208.001V38.3164Z" fill="#212121"/>
<path d="M190.888 38.3164H181.027V67.7313H190.888V38.3164Z" fill="#212121"/>
<path d="M159.161 38.3164H157.328V67.7313H159.161V38.3164Z" fill="#212121"/>
<path d="M167.77 38.3164H160.412V67.7313H167.77V38.3164Z" fill="#212121"/>
<path d="M172.042 38.3164H169.188V67.7313H172.042V38.3164Z" fill="#212121"/>
<path d="M175.395 38.3164H173.602V67.7313H175.395V38.3164Z" fill="#212121"/>
<path d="M178.553 38.3164H176.76V67.7313H178.553V38.3164Z" fill="#212121"/>
<path d="M195.816 38.3164H193.285V67.7313H195.816V38.3164Z" fill="#212121"/>
<path d="M63.4403 68.0053C61.6174 68.0886 59.8338 67.4695 58.4737 66.2814C57.0435 64.9394 56.3303 63.1101 56.334 60.7934V45.1913C56.334 42.8747 57.0472 41.0435 58.4737 39.6979C59.8786 38.5862 61.632 37.9795 63.4403 37.9795C65.2486 37.9795 67.002 38.5862 68.4069 39.6979C69.8371 41.0399 70.5504 42.871 70.5467 45.1913V60.7934C70.5467 63.1137 69.8334 64.9431 68.4069 66.2814C67.0468 67.4695 65.2633 68.0886 63.4403 68.0053ZM63.4403 42.5946C62.812 42.5427 62.1864 42.7216 61.6861 43.0965C61.2559 43.4893 61.0436 44.1876 61.0436 45.1913V60.7934C61.0436 61.7972 61.2559 62.4955 61.6861 62.8882C62.1864 63.2631 62.812 63.4421 63.4403 63.3901C64.0696 63.4515 64.6987 63.2716 65.1946 62.8882C65.6247 62.5227 65.837 61.7972 65.837 60.7934V45.1913C65.837 44.1603 65.6247 43.462 65.1946 43.0965C64.6987 42.7132 64.0696 42.5332 63.4403 42.5946Z" fill="#212121"/>
<path d="M80.3544 68.004C78.5314 68.0873 76.7479 67.4683 75.3878 66.2801C73.9576 64.9381 73.2443 63.1088 73.2481 60.7921V38.3164H77.9577V60.7921C77.9577 61.8232 78.1532 62.5215 78.5555 62.887C79.0709 63.2657 79.7118 63.4445 80.3544 63.3888C80.9828 63.4408 81.6083 63.2618 82.1086 62.887C82.5388 62.4942 82.7511 61.7959 82.7511 60.7921V38.3164H87.4607V60.7921C87.5027 61.8025 87.3325 62.8106 86.9607 63.7544C86.5889 64.6982 86.0233 65.5577 85.2987 66.2801C83.934 67.4461 82.1667 68.0623 80.3544 68.004Z" fill="#212121"/>
<path d="M104.431 42.9261H99.6376V67.6658H94.9279V42.9261H90.1289V38.3164H104.431V42.9261Z" fill="#212121"/>
<path d="M119.524 67.6658H107.088V38.3164H111.803V63.0561H119.507L119.524 67.6658Z" fill="#212121"/>
<path d="M126.997 42.9261V50.3071H132.304V54.9223H126.997V63.0561H134.706V67.6658H122.287V38.3164H134.706V42.9261H126.997Z" fill="#212121"/>
<path d="M151.679 42.9261H146.88V67.6658H142.17V42.9261H137.377V38.3164H151.679V42.9261Z" fill="#212121"/>
<path d="M166.059 0H159.109L146.818 29.4203H153.467L155.701 23.9105H169.433L171.623 29.4203H178.272L166.059 0ZM157.735 18.7007L162.584 5.8426L167.422 18.7007H157.735Z" fill="#212121"/>
</g>
<defs>
<clipPath id="clip0">
<rect width="208" height="68" fill="white"/>
</clipPath>
</defs>
</svg>
