<?xml version="1.0" encoding="utf-8"?>
<!-- Generator: Adobe Illustrator 25.4.1, SVG Export Plug-In . SVG Version: 6.00 Build 0)  -->
<svg version="1.1" id="Layer_1" xmlns="http://www.w3.org/2000/svg" xmlns:xlink="http://www.w3.org/1999/xlink" x="0px" y="0px"
	 viewBox="0 0 1240 327.83" style="enable-background:new 0 0 1240 327.83;" xml:space="preserve">
<style type="text/css">
	.st0{fill:#0FA6E5;}
	.st1{fill:#FFFFFF;}
	.st2{fill:#8EC221;}
	.st3{fill:#FDB60F;}
	.st4{fill:#05B1B1;}
	.st5{fill:#FC931D;}
	.st6{fill:#686AD3;}
</style>
<g>
	<rect x="461.68" y="195.41" class="st0" width="778.32" height="132.41"/>
	<g>
		<g>
			<path class="st1" d="M545.47,283.51v15.16h-9.63v-6.96h-28.39v-37.22h9.68v29.03h13.97v-29.03h9.68v29.03H545.47z"/>
			<path class="st1" d="M560.58,254.48v37.22h-9.68v-37.22H560.58z"/>
			<path class="st1" d="M578.05,268.85h13.97v-14.37h9.68v37.22h-9.68v-15.35h-13.97v15.35h-9.68v-37.22h9.68V268.85z"/>
			<path class="st1" d="M619.17,254.48v22.81l17.82-22.81h9.68v37.22h-9.68v-22.76l-17.82,22.76h-9.68v-37.22H619.17z"/>
			<path class="st1" d="M724.67,283.51v15.16h-9.63v-6.96h-43.79v-37.22h9.67v29.03h9.87v-29.03h9.63v29.03h9.87v-29.03h9.68v29.03
				H724.67z"/>
			<path class="st1" d="M728.42,273.09c0-2.76,0.51-5.34,1.53-7.73c1.02-2.39,2.43-4.47,4.25-6.25c1.81-1.78,3.97-3.17,6.49-4.17
				s5.29-1.51,8.32-1.51c3,0,5.76,0.5,8.29,1.51s4.71,2.39,6.54,4.17c1.83,1.78,3.25,3.86,4.27,6.25c1.02,2.39,1.53,4.96,1.53,7.73
				c0,2.76-0.51,5.34-1.53,7.73c-1.02,2.39-2.44,4.47-4.27,6.24s-4.01,3.17-6.54,4.17c-2.53,1-5.3,1.51-8.29,1.51
				c-3.03,0-5.8-0.5-8.32-1.51c-2.52-1-4.68-2.39-6.49-4.17c-1.81-1.78-3.23-3.86-4.25-6.24
				C728.93,278.43,728.42,275.86,728.42,273.09z M738.54,273.09c0,1.48,0.28,2.85,0.84,4.1c0.56,1.25,1.32,2.34,2.27,3.26
				c0.95,0.92,2.07,1.64,3.33,2.15c1.27,0.51,2.61,0.77,4.02,0.77s2.76-0.25,4.02-0.77c1.27-0.51,2.39-1.23,3.36-2.15
				c0.97-0.92,1.74-2.01,2.29-3.26c0.56-1.25,0.84-2.62,0.84-4.1c0-1.48-0.28-2.85-0.84-4.1s-1.33-2.34-2.29-3.26
				c-0.97-0.92-2.09-1.64-3.36-2.15c-1.27-0.51-2.61-0.76-4.02-0.76s-2.76,0.25-4.02,0.76c-1.27,0.51-2.38,1.23-3.33,2.15
				c-0.95,0.92-1.71,2.01-2.27,3.26S738.54,271.61,738.54,273.09z"/>
			<path class="st1" d="M802.22,254.48v22.81l17.82-22.81h9.68v37.22h-9.68v-22.76l-17.82,22.76h-9.67v-37.22H802.22z
				 M807.11,242.34c0.49,2.21,1.94,3.31,4.34,3.31c2.44,0,3.9-1.1,4.39-3.31h6.27c-0.13,2.67-1.15,4.77-3.06,6.32
				c-1.81,1.51-4.34,2.27-7.6,2.27c-3.16,0-5.69-0.76-7.6-2.27c-1.84-1.51-2.85-3.62-3.01-6.32H807.11z"/>
			<path class="st1" d="M863.98,268.85h13.97v-14.37h9.68v37.22h-9.68v-15.35h-13.97v15.35h-9.67v-37.22h9.67V268.85z"/>
			<path class="st1" d="M916.6,262.68h-11.5v6.22h10.86v8.19H905.1v6.42h11.5v8.19h-21.18v-37.22h21.18V262.68z"/>
			<path class="st1" d="M967.15,266.92c-2.24-2.73-5-4.1-8.29-4.1c-1.45,0-2.79,0.26-4.02,0.79s-2.29,1.24-3.18,2.15
				s-1.59,1.98-2.1,3.23c-0.51,1.25-0.76,2.6-0.76,4.05c0,1.48,0.25,2.85,0.76,4.1c0.51,1.25,1.22,2.34,2.12,3.26
				c0.9,0.92,1.97,1.65,3.18,2.17c1.22,0.53,2.53,0.79,3.95,0.79c3.09,0,5.88-1.32,8.34-3.95v11.45l-0.99,0.34
				c-1.48,0.53-2.86,0.91-4.15,1.16c-1.28,0.25-2.55,0.37-3.8,0.37c-2.57,0-5.03-0.49-7.38-1.46c-2.35-0.97-4.43-2.34-6.22-4.1
				s-3.23-3.85-4.32-6.27s-1.63-5.06-1.63-7.92s0.53-5.49,1.6-7.87c1.07-2.39,2.5-4.44,4.29-6.17c1.79-1.73,3.88-3.08,6.24-4.05
				c2.37-0.97,4.85-1.46,7.45-1.46c1.48,0,2.94,0.16,4.37,0.47c1.43,0.31,2.94,0.8,4.52,1.46V266.92z"/>
			<path class="st1" d="M982.95,268.85h13.97v-14.37h9.68v37.22h-9.68v-15.35h-13.97v15.35h-9.67v-37.22h9.67V268.85z"/>
			<path class="st1" d="M1024.07,254.48v22.81l17.82-22.81h9.68v37.22h-9.68v-22.76l-17.82,22.76h-9.67v-37.22H1024.07z"/>
			<path class="st1" d="M1057.29,284.35c0.13,0.03,0.28,0.05,0.44,0.05c1.88,0,2.81-1.43,2.81-4.29v-25.62h30.46v37.22h-9.68v-29.03
				h-11.16v17.57c0,1.84-0.28,3.52-0.84,5.04c-0.56,1.51-1.37,2.83-2.42,3.95c-1.05,1.12-2.33,1.98-3.83,2.59
				c-1.5,0.61-3.18,0.91-5.06,0.91h-0.74V284.35z"/>
			<path class="st1" d="M1108.48,254.48v22.81l17.82-22.81h9.68v37.22h-9.68v-22.76l-17.82,22.76h-9.67v-37.22H1108.48z"/>
			<path class="st1" d="M1170.59,266.92c-2.24-2.73-5-4.1-8.29-4.1c-1.45,0-2.79,0.26-4.02,0.79s-2.29,1.24-3.18,2.15
				s-1.59,1.98-2.1,3.23c-0.51,1.25-0.76,2.6-0.76,4.05c0,1.48,0.25,2.85,0.76,4.1c0.51,1.25,1.22,2.34,2.12,3.26
				c0.9,0.92,1.97,1.65,3.18,2.17c1.22,0.53,2.53,0.79,3.95,0.79c3.09,0,5.88-1.32,8.34-3.95v11.45l-0.99,0.34
				c-1.48,0.53-2.86,0.91-4.15,1.16c-1.28,0.25-2.55,0.37-3.8,0.37c-2.57,0-5.03-0.49-7.38-1.46c-2.35-0.97-4.43-2.34-6.22-4.1
				s-3.23-3.85-4.32-6.27s-1.63-5.06-1.63-7.92s0.53-5.49,1.6-7.87c1.07-2.39,2.5-4.44,4.29-6.17c1.79-1.73,3.88-3.08,6.24-4.05
				c2.37-0.97,4.85-1.46,7.45-1.46c1.48,0,2.94,0.16,4.37,0.47c1.43,0.31,2.94,0.8,4.52,1.46V266.92z"/>
			<path class="st1" d="M1193.59,266.87c4.11,0,7.24,1.05,9.38,3.16c2.14,2.11,3.21,5.22,3.21,9.33c0,1.88-0.28,3.57-0.84,5.08
				c-0.56,1.51-1.38,2.81-2.47,3.88c-1.09,1.07-2.44,1.9-4.05,2.49s-3.47,0.89-5.58,0.89h-16.54v-37.22h9.67v12.39H1193.59z
				 M1186.38,283.91h4.39c3.52,0,5.28-1.55,5.28-4.64c0-1.61-0.42-2.79-1.26-3.53c-0.84-0.74-2.2-1.11-4.07-1.11h-4.34V283.91z"/>
		</g>
	</g>
	<g>
		<rect x="805.06" y="26.74" class="st2" width="194.58" height="194.58"/>
		<path class="st1" d="M901.31,194.75c-38.3-0.61-67.17-31.22-67.17-71.24V57.94h40.03l0,72.8c0.16,14.9,12.27,26.91,27.14,26.91
			c14.79,0,26.86-11.9,27.14-26.62l0.01-73.08h40.03v65.58C968.47,163.53,939.6,194.14,901.31,194.75z"/>
		
			<rect x="26.74" y="26.74" transform="matrix(0.9435 -0.3313 0.3313 0.9435 -34.0906 48.1038)" class="st0" width="194.58" height="194.58"/>
		<rect x="221.32" y="26.74" class="st3" width="194.58" height="194.58"/>
		<rect x="415.9" y="26.79" class="st4" width="194.58" height="194.58"/>
		<rect x="610.48" y="26.74" class="st5" width="194.58" height="194.58"/>
		<rect x="999.64" y="26.74" class="st6" width="194.58" height="194.58"/>
		<polygon class="st1" points="298.08,190.27 298.08,89.12 248.13,89.12 248.13,57.94 389.09,57.94 389.09,89.12 339.14,89.12 
			339.14,190.27 		"/>
		<polygon class="st1" points="491.57,190.35 491.57,152.08 443.41,69.28 443.41,57.85 481.5,57.85 513.19,116.58 544.88,57.85 
			582.97,57.85 582.97,69.28 534.81,152.08 534.81,190.35 		"/>
		<polygon class="st1" points="655.95,190.27 655.95,57.94 694.82,57.94 694.82,160.59 759.59,160.59 759.59,190.27 		"/>
		<path class="st1" d="M61.18,190.22v-29.75h76.76c9.2,0,12.47-5.97,12.47-11.08c0-3.19-1.24-10.62-12.7-10.62h-36.38
			c-37.14,0-42.69-25.29-42.69-40.37c0-13.55,4.9-24.08,14.57-31.29c7.93-5.92,19.11-9.31,30.67-9.31h80v29.76h-72.58
			c-8.86,0-12.01,5.72-12.01,10.62c0,5.4,3.71,10.85,12.01,10.85h31.05c30.5,0,48.71,14.75,48.71,39.44
			c0,24.98-19.3,41.76-48.02,41.76H61.18z"/>
		<path class="st1" d="M1033.27,190.22v-29.75h76.75c9.2,0,12.47-5.97,12.47-11.08c0-3.19-1.24-10.62-12.7-10.62h-36.38
			c-37.14,0-42.69-25.29-42.69-40.37c0-13.55,4.9-24.08,14.57-31.29c7.93-5.92,19.11-9.31,30.67-9.31h80v29.76h-72.59
			c-8.86,0-12.01,5.72-12.01,10.62c0,5.4,3.71,10.85,12.01,10.85h31.06c30.5,0,48.71,14.75,48.71,39.44
			c0,24.98-19.3,41.76-48.02,41.76H1033.27z"/>
	</g>
</g>
</svg>
