<svg width="20" height="20" viewBox="0 0 20 20" fill="none" xmlns="http://www.w3.org/2000/svg">
<path d="M13.6674 8.33543C13.9732 8.33543 14.237 8.22286 14.4589 7.9977C14.6807 7.77257 14.7917 7.50711 14.7917 7.20134C14.7917 6.89559 14.6791 6.63177 14.454 6.40989C14.2288 6.18802 13.9634 6.07709 13.6576 6.07709C13.3518 6.07709 13.088 6.18965 12.8661 6.41479C12.6443 6.63994 12.5333 6.9054 12.5333 7.21115C12.5333 7.51692 12.6459 7.78074 12.871 8.0026C13.0962 8.22449 13.3616 8.33543 13.6674 8.33543ZM6.3424 8.33543C6.64817 8.33543 6.91199 8.22286 7.13385 7.9977C7.35574 7.77257 7.46668 7.50711 7.46668 7.20134C7.46668 6.89559 7.3541 6.63177 7.12895 6.40989C6.90382 6.18802 6.63836 6.07709 6.33259 6.07709C6.02684 6.07709 5.76302 6.18965 5.54114 6.41479C5.31927 6.63994 5.20834 6.9054 5.20834 7.21115C5.20834 7.51692 5.3209 7.78074 5.54604 8.0026C5.77119 8.22449 6.03664 8.33543 6.3424 8.33543ZM10.0083 11.6646C8.97845 11.6646 8.03278 11.9441 7.17134 12.5031C6.30989 13.0622 5.65833 13.8111 5.21665 14.75H6.13125C6.52848 14.0472 7.0724 13.4951 7.76302 13.0938C8.45365 12.6924 9.20191 12.4917 10.0078 12.4917C10.8137 12.4917 11.5594 12.6934 12.2448 13.0969C12.9302 13.5003 13.4806 14.0514 13.8958 14.75H14.7834C14.3458 13.807 13.6981 13.0569 12.8401 12.5C11.9822 11.9431 11.0382 11.6646 10.0083 11.6646ZM10.0036 19.75C8.65537 19.75 7.38778 19.4942 6.20086 18.9825C5.01394 18.4708 3.98148 17.7764 3.10347 16.8992C2.22549 16.022 1.53041 14.9905 1.01825 13.8047C0.506082 12.6189 0.25 11.3519 0.25 10.0036C0.25 8.65537 0.505838 7.38778 1.01751 6.20086C1.52921 5.01394 2.22364 3.98148 3.10082 3.10347C3.97799 2.22549 5.00948 1.53041 6.19528 1.01825C7.3811 0.506082 8.64813 0.25 9.99637 0.25C11.3446 0.25 12.6122 0.505838 13.7991 1.01751C14.9861 1.52921 16.0185 2.22364 16.8965 3.10082C17.7745 3.97799 18.4696 5.00948 18.9818 6.19528C19.4939 7.3811 19.75 8.64813 19.75 9.99637C19.75 11.3446 19.4942 12.6122 18.9825 13.7991C18.4708 14.9861 17.7764 16.0185 16.8992 16.8965C16.022 17.7745 14.9905 18.4696 13.8047 18.9818C12.6189 19.4939 11.3519 19.75 10.0036 19.75ZM9.99797 18.9167C12.4867 18.9167 14.5953 18.0531 16.3238 16.3259C18.0524 14.5986 18.9167 12.4907 18.9167 10.002C18.9167 7.51334 18.0531 5.40473 16.3259 3.67618C14.5986 1.94761 12.4907 1.08333 10.002 1.08333C7.51334 1.08333 5.40473 1.94693 3.67618 3.67415C1.94761 5.40136 1.08333 7.5093 1.08333 9.99797C1.08333 12.4867 1.94693 14.5953 3.67415 16.3238C5.40136 18.0524 7.5093 18.9167 9.99797 18.9167Z" fill="white"/>
</svg>
