<svg width="763" height="397" viewBox="0 0 763 397" fill="none" xmlns="http://www.w3.org/2000/svg">
<path d="M170.031 361.597C169.859 359.861 171.211 358.323 171.04 356.603C170.906 355.258 171.478 353.069 170.577 351.951C168.539 349.421 165.548 349.746 162.607 350.039" stroke="white" stroke-linecap="round"/>
<path d="M106.225 358.411C110.65 358.311 114.749 360.251 116.608 364.404" stroke="white" stroke-linecap="round"/>
<path d="M21.828 289.517C21.6883 288.114 21.5486 286.71 21.409 285.307C21.2739 283.95 22.1131 283.586 23.0073 282.736C25.0178 280.824 28.4536 281.176 31.056 280.82C33.7657 280.448 35.5853 277.543 38.2443 276.842C39.258 276.575 40.2156 276.117 41.2403 275.847C42.6171 275.484 44.1081 275.57 45.5143 275.365C46.8001 275.178 48.0912 274.607 49.3854 274.478C52.6147 274.157 55.2426 272.838 57.8641 271C59.4005 269.922 61.2604 268.896 62.9716 268.107C65.3033 267.033 67.0807 266.891 69.5211 266.396C72.7999 265.731 76.26 265.626 79.487 264.832C81.7744 264.27 84.4651 264.028 86.834 263.99C88.8949 263.957 91.6827 264.1 93.6432 264.748C94.1989 264.931 95.4326 265.378 95.9593 265.326" stroke="white" stroke-linecap="round"/>
<path d="M95.957 265.328C98.6914 265.055 101.468 265.281 104.234 265.006C105.298 264.9 106.424 265.097 107.462 264.935C108.486 264.776 109.896 263.444 110.876 262.964C113.219 261.819 115.574 261.326 118.178 261.108C121.13 260.862 124.079 262.278 126.993 261.988" stroke="white" stroke-linecap="round"/>
<path d="M127.242 261.962C131.56 261.532 134.951 259.777 138.58 257.376C141.207 255.638 143.696 253.767 146.363 252.084C150.289 249.607 154.49 247.955 158.96 246.704C161.367 246.03 163.997 246.007 166.478 245.761C167.918 245.617 169.547 245.64 170.689 244.644C176.308 239.747 183.81 236.739 191.09 235.587C194.573 235.037 198.037 235.091 201.518 234.745C202.495 234.648 204.06 234.593 204.991 234.901C206.711 235.469 209.239 234.729 210.98 234.556C214.474 234.208 217.468 232.684 220.628 231.198C223.673 229.766 226.571 228.439 229.787 227.414C231.663 226.816 233.448 227.05 235.364 226.859C241.015 226.297 246.666 225.734 252.317 225.172" stroke="white" stroke-linecap="round"/>
<path d="M252.291 224.924C252.775 224.451 253.591 224.445 254.176 224.109C255.354 223.431 256.562 222.712 257.73 221.999C260.729 220.166 263.554 218.134 266.659 216.467C275.388 211.782 285.884 209.786 295.663 208.813C298.974 208.483 302.561 208.217 305.785 207.415C308.886 206.643 312.028 206.468 315.09 205.513C318.539 204.437 322.134 203.494 325.254 201.602C325.983 201.159 328.32 200.144 328.56 199.516C341.146 194.143 370.046 182.621 396.972 174.16C401.45 172.753 405.873 171.43 410.157 170.235C421.472 167.077 432.355 166.099 442.892 165.434C456.007 164.606 468.587 164.261 480.798 160.8C491.34 157.811 501.607 152.499 511.707 142.547C536.667 117.953 587.3 94.7264 609.497 86.1877C623.53 85.0121 654.181 74.0461 664.522 39.5862C674.864 5.12622 705.196 0.370656 719.07 2.30036M745.386 150.37C732.929 160.74 700.77 184.591 671.789 197.04C642.807 209.49 595.968 229.395 576.171 237.792C571.171 240.496 559.238 248.083 551.498 256.797C543.759 265.511 529.485 268.42 523.315 268.786C517.772 273.93 501.34 284.535 479.951 285.802C476.909 287.448 471.81 289.527 464.811 291.543C448.806 296.152 422.864 300.429 388.857 298.424C366.033 302.184 312.026 307.93 278.584 300.831M469.81 201.785C480.738 200.45 506.914 201.031 524.197 214.041M286.193 272.518C298.542 272.818 324.49 273.344 329.488 273.048" stroke="white" stroke-linecap="round"/>
<path d="M21.6309 290.039C23.4625 291.539 24.6116 293.578 26.8522 294.594C29.4755 295.783 31.7881 296.688 34.6972 297.215C38.0041 297.814 42.8753 297.448 45.9674 296.149C49.7598 294.556 53.1766 292.169 57.311 291.758C61.909 291.3 66.5092 291.093 71.0991 290.637C72.7999 290.467 74.0362 290.177 75.506 289.25C76.3242 288.734 77.3563 287.518 78.2002 287.183C79.6028 286.627 81.6283 287.186 82.8933 287.832C84.4053 288.604 85.9194 289.553 87.5262 290.117C89.5529 290.828 91.8945 290.979 94.0219 291.227C98.2145 291.716 102.581 291.017 106.758 290.601" stroke="white" stroke-linecap="round"/>
<path d="M101.665 284.834C101.864 285.485 102.678 286.031 103.079 286.576C104.004 287.833 104.579 289.275 105.819 290.29C106.941 291.209 108.193 291.913 109.245 292.919C110.629 294.242 113.186 295.169 114.927 295.936C115.696 296.276 116.439 296.777 117.239 297.031C117.717 297.183 118.476 297.039 118.729 297.44" stroke="white" stroke-linecap="round"/>
<path d="M97.1404 337.732C94.7037 335.737 91.2045 333.562 90.859 330.09C90.711 328.604 90.5631 327.117 90.4152 325.631C90.271 324.182 91.1118 322.964 92.0555 321.941C93.187 320.714 95.0499 319.766 96.3929 318.735C97.9115 317.569 99.5768 316.462 101.195 315.44C101.781 315.071 102.408 315.255 103.039 315.048C105.335 314.292 107.608 312.655 109.578 311.274C110.624 310.541 111.537 309.595 112.59 308.897C113.337 308.402 114.477 307.093 115.27 306.832C116.229 306.516 117.338 305.696 118.211 305.145C119.421 304.382 120.715 303.774 121.999 303.137C123.199 302.542 124.46 302.612 125.657 302.076C127.206 301.382 128.833 301.209 130.304 300.303C132.308 299.069 134.822 297.473 136.369 295.684C137.79 294.042 140.52 292.468 141.167 290.383C141.463 289.429 142.719 288.077 143.293 287.229C144.276 285.78 144.96 284.213 146.196 282.911C148.023 280.986 149.321 278.476 151.014 276.409C151.712 275.556 152.706 274.841 153.549 274.149" stroke="white" stroke-linecap="round"/>
<path d="M97.1392 337.732C98.5704 337.59 99.9387 338.207 101.424 338.059C103.838 337.819 106.507 338.074 108.93 338.26C113.392 338.603 118.197 337.768 122.284 335.997C125.446 334.627 130.621 332.106 132.278 328.826C134.812 323.806 141.431 321.709 145.692 318.485C149.001 315.981 151.908 313.614 155.742 311.88C158.371 310.691 160.947 309.299 163.794 309.015" stroke="white" stroke-linecap="round"/>
<path d="M113.444 388.056C109.941 388.405 107.743 385.927 106.066 383.27C103.691 379.505 104.864 374.668 103.18 370.661C101.456 366.557 100.775 361.621 100.333 357.184C100.017 354.004 99.6273 350.935 100.02 347.735C100.382 344.783 101.064 341.832 100.77 338.877" stroke="white" stroke-linecap="round"/>
<path d="M105.303 313.834C105.238 313.183 105.922 312.903 106.366 312.473C107.163 311.703 107.785 310.744 108.575 310.009C110.315 308.386 111.309 306.231 112.966 304.539C114.313 303.162 115.584 301.528 116.811 300.029C117.213 299.539 118.072 298.407 118.007 297.763" stroke="white" stroke-linecap="round"/>
<path d="M113.22 388.329C123.815 385.92 118.721 370.91 119.066 363.294C119.164 361.115 118.732 358.131 119.421 356.079C120.351 353.305 120.538 350.114 121.039 347.26C121.499 344.639 121.836 342.093 122.473 339.533C122.781 338.295 124.173 335.599 125.222 334.938" stroke="white" stroke-linecap="round"/>
<path d="M119.185 382.717C120.869 385.267 123.236 387.082 126.502 386.757C128.046 386.603 129.876 386.562 131.134 385.529C132.073 384.759 133.942 382.153 134.045 380.876C134.185 379.141 134.243 377.679 134.06 375.841C133.884 374.073 133.961 372.449 134.036 370.699C134.149 368.049 135.26 364.367 137.245 362.461C138.258 361.488 139.038 359.843 139.362 358.514C140.086 355.545 141.319 352.237 141.503 349.211C141.561 348.264 141.706 347.29 141.664 346.351C141.648 345.965 142.999 345.833 143.299 345.686C144.886 344.909 146.154 343.791 147.45 342.569C150.065 340.102 149.888 335.067 152.907 333.242C153.837 332.68 155.056 332.722 156.107 332.617C157.111 332.517 157.251 334.026 157.324 334.755C157.464 336.16 155.881 337.79 155.359 339.105C154.265 341.857 152.635 344.649 152.063 347.589C151.725 349.324 149.935 351.287 150.112 353.067C150.358 355.534 150.708 357.949 151.078 360.387C151.645 364.129 152.22 366.904 154.077 370.21C155.281 372.356 156.051 374.684 157.837 376.472C158.771 377.407 159.898 378.085 160.957 378.825C162.087 379.614 163.045 379.356 164.371 379.224C167.353 378.927 168.476 374.937 169.327 372.708C170.381 369.943 171.08 367.069 170.783 364.087C170.642 362.672 170.616 361.845 169.462 360.9C168.66 360.243 167.774 359.894 166.823 359.601C162.328 358.214 159.017 360.756 155.372 363.055" stroke="white" stroke-linecap="round"/>
<path d="M170.784 351.484C170.708 350.719 172.137 349.513 172.58 348.796C173.471 347.355 174.308 346.285 174.813 344.614C175.279 343.069 175.493 340.508 174.196 339.252C172.634 337.74 171.055 337.103 169.125 336.076C167.096 334.997 165.136 332.723 162.668 332.969" stroke="white" stroke-linecap="round"/>
<path d="M143.07 320.112C144.524 320.919 145.652 321.867 147.208 322.461C150.007 323.529 152.069 326.729 153.03 329.41" stroke="white" stroke-linecap="round"/>
<path d="M137.292 294.84C135.714 294.2 133.938 293.729 132.516 292.806C130.492 291.493 128.573 290.224 126.663 288.76C124.7 287.256 123.005 285.349 121.181 283.687C120.419 282.994 119.718 281.442 118.861 281.116" stroke="white" stroke-linecap="round"/>
<path d="M174.368 339.583C179.809 339.041 185.782 339.054 190.93 337.056C193.652 336 196.25 334.764 198.698 333.16C201.653 331.224 204.951 330.946 208.314 330.182C211.478 329.462 214.632 328.103 217.354 326.326C219.999 324.601 221.664 320.932 223.636 318.563C224.905 317.04 226.291 315.54 227.841 314.311C229.35 313.114 231.351 312.841 232.952 311.864C235.931 310.046 239.563 307.585 241.398 304.555C241.922 303.689 242.963 303.011 243.356 302.101C243.728 301.241 244.383 299.97 245.151 299.399C245.547 299.104 245.184 298.753 245.768 298.599C247.044 298.262 248.325 297.866 249.639 297.712C250.869 297.567 252.106 297.466 253.339 297.343C257.772 296.902 262.336 296.121 266.777 296.912C269.85 297.459 272.957 298.261 275.897 299.309C276.44 299.503 278.583 300.831 278.583 300.831" stroke="white" stroke-linecap="round"/>
<path d="M163.052 309.089C164.643 311.06 165.614 312.412 167.911 313.513C170.167 314.594 172.715 314.994 175.199 315.158" stroke="white" stroke-linecap="round"/>
<path d="M172.866 311.877C173.461 311.884 174.237 312.551 174.747 312.847C177.411 314.395 180.412 315.932 183.28 317.059C188.609 319.152 194.464 319.919 200.089 320.795C201.699 321.046 203.276 321.147 204.89 320.987" stroke="white" stroke-linecap="round"/>
<path d="M185.015 312.926C192.655 311.879 200.604 309.499 207.367 305.683C211.332 303.446 215.131 300.223 217.91 296.603C219.723 294.242 220.343 290.829 221.125 288.002C221.386 287.056 221.976 285.909 221.877 284.916" stroke="white" stroke-linecap="round"/>
<path d="M174.326 319.01C173.436 319.329 175.781 322.693 176.044 323.105C177.569 325.498 179.501 326.621 181.665 328.317C183.389 329.667 185.858 330.7 187.862 331.464" stroke="white" stroke-linecap="round"/>
</svg>
