<svg width="17" height="17" viewBox="0 0 17 17" fill="none" xmlns="http://www.w3.org/2000/svg">
<path d="M12.0413 16.2913V15.2288C12.9268 15.2288 13.6794 14.9189 14.2992 14.2992C14.9189 13.6794 15.2288 12.9268 15.2288 12.0413H16.2913C16.2913 13.2219 15.8781 14.2254 15.0518 15.0518C14.2254 15.8781 13.2219 16.2913 12.0413 16.2913ZM0.708008 4.95801C0.708008 3.77745 1.1212 2.77398 1.94759 1.94759C2.77398 1.1212 3.77745 0.708008 4.95801 0.708008V1.77051C4.07259 1.77051 3.31999 2.0804 2.7002 2.7002C2.0804 3.31999 1.77051 4.07259 1.77051 4.95801H0.708008ZM2.40801 14.5913C1.84134 14.0247 1.41634 13.3813 1.13301 12.6611C0.849674 11.941 0.708008 11.2061 0.708008 10.4564C0.708008 9.70679 0.849674 8.9719 1.13301 8.25176C1.41634 7.53162 1.84134 6.88822 2.40801 6.32155L5.66634 3.06322C5.83162 2.89794 6.04117 2.8094 6.29499 2.79759C6.54881 2.78579 6.76426 2.86842 6.94134 3.04551C7.10662 3.21079 7.18926 3.42033 7.18926 3.67415C7.18926 3.92797 7.10662 4.13752 6.94134 4.3028L4.05488 7.18926C4.52711 7.56704 4.81634 8.07172 4.92259 8.70332C5.02884 9.33492 4.82224 9.91634 4.3028 10.4476L4.79863 10.9434C5.28266 10.4948 5.55714 9.89863 5.62207 9.15488C5.687 8.41113 5.48926 7.76183 5.02884 7.20697L10.4299 1.80592C10.607 1.62884 10.8165 1.5403 11.0585 1.5403C11.3005 1.5403 11.5101 1.62884 11.6872 1.80592C11.8525 1.9712 11.941 2.17485 11.9528 2.41686C11.9646 2.65888 11.8761 2.87433 11.6872 3.06322L7.80905 6.94134L8.28717 7.43717L13.1747 2.54967C13.34 2.3844 13.5495 2.30176 13.8033 2.30176C14.0571 2.30176 14.2667 2.3844 14.432 2.54967C14.5972 2.71495 14.6799 2.9245 14.6799 3.17832C14.6799 3.43214 14.5972 3.64169 14.432 3.80697L9.54447 8.69447L10.058 9.1903L14.184 5.06426C14.3611 4.88717 14.5707 4.79863 14.8127 4.79863C15.0547 4.79863 15.2643 4.88717 15.4413 5.06426C15.6066 5.22954 15.6893 5.43908 15.6893 5.6929C15.6893 5.94672 15.6066 6.15627 15.4413 6.32155L10.8018 10.9434L11.2976 11.457L14.432 8.32259C14.6209 8.1337 14.8363 8.04516 15.0783 8.05697C15.3203 8.06877 15.524 8.15731 15.6893 8.32259C15.8545 8.48787 15.9431 8.69151 15.9549 8.93353C15.9667 9.17554 15.8781 9.39099 15.6893 9.57988L10.6778 14.5913C10.1111 15.158 9.46773 15.583 8.74759 15.8663C8.02745 16.1497 7.29256 16.2913 6.5429 16.2913C5.79325 16.2913 5.05835 16.1497 4.33822 15.8663C3.61808 15.583 2.97467 15.158 2.40801 14.5913Z" fill="#EB5D2D"/>
</svg>
