<svg width="17" height="17" viewBox="0 0 17 17" fill="none" xmlns="http://www.w3.org/2000/svg">
<path d="M1.82191 7.22368L4.32132 8.28556C4.61496 7.69799 4.93366 7.11956 5.27743 6.55028C5.62118 5.98098 5.99294 5.43617 6.39271 4.91585L4.65568 4.57428C4.60851 4.56247 4.56281 4.56394 4.51858 4.5787C4.47435 4.59345 4.43455 4.61853 4.39916 4.65393L1.82191 7.22368ZM9.76237 15.1771L12.3396 12.6074C12.375 12.572 12.3986 12.5307 12.4104 12.4835C12.4222 12.4363 12.4251 12.392 12.4192 12.3507L12.069 10.6128C11.5489 11.0069 11.0059 11.3759 10.4399 11.7198C9.87382 12.0637 9.29421 12.3856 8.70103 12.6853L9.76237 15.1771ZM16.9847 0.0152888C17.0696 1.9538 16.8016 3.70383 16.1807 5.26538C15.5599 6.82692 14.5702 8.28435 13.2117 9.63764C13.1728 9.67659 13.1353 9.71552 13.0993 9.75445C13.0634 9.7934 13.0259 9.82939 12.987 9.86243L13.4398 12.1366C13.4799 12.3608 13.467 12.5758 13.4009 12.7817C13.3349 12.9876 13.2235 13.169 13.0666 13.3259L9.4086 17L7.66626 12.9136L4.07546 9.32973L0 7.56879L3.66333 3.9177C3.82606 3.76078 4.01032 3.64782 4.2161 3.5788C4.42188 3.50977 4.6368 3.49827 4.86087 3.54428L7.1427 3.99735C7.18161 3.96431 7.21758 3.93068 7.2506 3.89646C7.28362 3.86224 7.31959 3.82861 7.35852 3.79557C8.71699 2.43637 10.1751 1.44529 11.7329 0.822321C13.2907 0.199356 15.0413 -0.0696546 16.9847 0.0152888ZM1.52301 12.0428C1.97111 11.5886 2.51592 11.362 3.15743 11.3632C3.79893 11.3644 4.34668 11.5892 4.80069 12.0375C5.24879 12.4859 5.47049 13.031 5.46578 13.6728C5.46106 14.3146 5.23465 14.8627 4.78655 15.3169C4.42334 15.6744 3.86821 15.9732 3.12115 16.2133C2.3741 16.4534 1.34493 16.6531 0.0336193 16.8124C0.192809 15.5004 0.390041 14.4669 0.625315 13.7117C0.860573 12.9566 1.15981 12.4003 1.52301 12.0428ZM2.24999 12.8021C2.04127 13.0262 1.85406 13.3705 1.68837 13.8347C1.5227 14.299 1.39033 14.8704 1.29126 15.5488C1.96934 15.4438 2.54039 15.3084 3.00442 15.1426C3.46845 14.9768 3.8125 14.7866 4.03655 14.5718C4.29834 14.3347 4.4316 14.0397 4.43632 13.687C4.44103 13.3342 4.31721 13.0268 4.06486 12.7649C3.80306 12.5124 3.49587 12.39 3.14327 12.3977C2.79067 12.4053 2.49291 12.5401 2.24999 12.8021Z" fill="#EB5D2D"/>
<path d="M10 5.50465C10 5.92641 10.1444 6.27953 10.4333 6.564C10.7222 6.85467 11.0778 7 11.5 7C11.9222 7 12.2778 6.85467 12.5667 6.564C12.8556 6.27953 13 5.92641 13 5.50465C13 5.08288 12.8556 4.72666 12.5667 4.436C12.2778 4.14533 11.9222 4 11.5 4C11.0778 4 10.7222 4.14533 10.4333 4.436C10.1444 4.72666 10 5.08288 10 5.50465Z" fill="white"/>
</svg>
