<svg width="17" height="17" viewBox="0 0 17 17" fill="none" xmlns="http://www.w3.org/2000/svg">
<path d="M8.50944 17C7.32612 17 6.22195 16.777 5.19695 16.3309C4.17193 15.8848 3.27276 15.2755 2.49945 14.5029C1.72615 13.7303 1.11625 12.8314 0.669753 11.8062C0.223251 10.7809 0 9.67601 0 8.49136C0 7.31881 0.223039 6.21642 0.669115 5.18417C1.11521 4.15193 1.72455 3.25308 2.49713 2.48764C3.26972 1.72222 4.16862 1.11625 5.19383 0.669753C6.21906 0.223251 7.32399 0 8.50864 0C9.68118 0 10.7836 0.223039 11.8158 0.669115C12.8481 1.11521 13.7469 1.72061 14.5124 2.48533C15.2778 3.25005 15.8837 4.14929 16.3302 5.18306C16.7767 6.21685 17 7.31935 17 8.49055C17 9.67388 16.777 10.778 16.3309 11.8031C15.8848 12.8281 15.2794 13.7258 14.5147 14.4962C13.75 15.2666 12.8507 15.8765 11.8169 16.3259C10.7831 16.7753 9.68065 17 8.50944 17Z" fill="#EB5D2D"/>
<path d="M8.89246 12H8.17564V6.4466H8.89246V12Z" fill="white"/>
<path d="M8.85484 4.93378C8.75806 5.03359 8.63964 5.08349 8.49958 5.08349C8.35954 5.08349 8.24126 5.03359 8.14477 4.93378C8.04826 4.83397 8 4.70523 8 4.54757C8 4.38854 8.04541 4.25752 8.13622 4.15451C8.22701 4.0515 8.34841 4 8.50042 4C8.64047 4 8.75874 4.0515 8.85523 4.15451C8.95174 4.25752 9 4.38854 9 4.54757C9 4.70523 8.95161 4.83397 8.85484 4.93378Z" fill="white"/>
</svg>
