<svg width="15" height="17" viewBox="0 0 15 17" fill="none" xmlns="http://www.w3.org/2000/svg">
<path d="M7.52693 16.7116V16.0385H13.2885C13.4455 16.0385 13.5745 15.988 13.6755 15.8871C13.7764 15.7861 13.8269 15.6571 13.8269 15.5V14.689H11.2625V9.54331H13.8269V7.65198C13.8269 5.89973 13.2135 4.40186 11.9865 3.15835C10.7596 1.91483 9.27152 1.29307 7.52233 1.29307C5.77315 1.29307 4.27764 1.91483 3.03582 3.15835C1.79399 4.40186 1.17307 5.89973 1.17307 7.65198V9.54331H3.7375V14.689H1.71153C1.37528 14.689 1.08929 14.5711 0.853565 14.3354C0.617855 14.0997 0.5 13.8137 0.5 13.4775V7.65198C0.5 6.68553 0.682569 5.77453 1.04771 4.919C1.41286 4.06347 1.91346 3.3151 2.54951 2.67388C3.18558 2.03268 3.93306 1.53007 4.79196 1.16604C5.65088 0.80201 6.56402 0.619995 7.53139 0.619995C8.49876 0.619995 9.40677 0.802564 10.2554 1.1677C11.1041 1.53285 11.8423 2.03419 12.4701 2.67172C13.098 3.30924 13.5932 4.05705 13.9559 4.91515C14.3186 5.77325 14.5 6.68553 14.5 7.65198V15.5C14.5 15.8363 14.3821 16.1223 14.1464 16.358C13.9107 16.5937 13.6247 16.7116 13.2885 16.7116H7.52693ZM1.71153 14.0159H3.06443V10.2164H1.17307V13.4775C1.17307 13.6233 1.22355 13.7495 1.32451 13.8561C1.42547 13.9626 1.55448 14.0159 1.71153 14.0159ZM11.9356 14.0159H13.8269V10.2164H11.9356V14.0159Z" fill="white"/>
</svg>
