<svg width="17" height="17" viewBox="0 0 17 17" fill="none" xmlns="http://www.w3.org/2000/svg">
<path d="M13.8778 4.80649L13.1896 3.20793L11.554 2.50457L13.1896 1.78943L13.8778 0.249756L14.5661 1.78943L16.2016 2.50457L14.5661 3.20793L13.8778 4.80649ZM13.8778 16.7452L13.1896 15.1837L11.554 14.4853L13.1896 13.7702L13.8778 12.1666L14.5661 13.7702L16.2016 14.4853L14.5661 15.1837L13.8778 16.7452ZM5.40212 13.0399L3.96172 9.90842L0.793213 8.49495L3.96172 7.08149L5.40212 3.95503L6.84756 7.08149L10.011 8.49495L6.84756 9.90842L5.40212 13.0399ZM5.40212 11.3841L6.35115 9.40193L8.36028 8.49495L6.35115 7.58799L5.40212 5.60576L4.45813 7.58799L2.44394 8.49495L4.45813 9.40193L5.40212 11.3841Z" fill="white"/>
</svg>
