<svg width="29" height="20" viewBox="0 0 29 20" fill="none" xmlns="http://www.w3.org/2000/svg">
<path d="M15.1425 19.9738L9.1928 19.8653C7.26643 19.8275 5.33526 19.903 3.44666 19.5113C0.573661 18.9262 0.370127 16.057 0.157151 13.6504C-0.136309 10.2669 -0.0227016 6.82204 0.531094 3.46682C0.843731 1.58419 2.07408 0.460812 3.97677 0.338567C10.3998 -0.105078 16.8655 -0.0525011 23.2742 0.154475C23.9511 0.173449 24.6326 0.277155 25.3 0.395199C28.5944 0.970938 28.6747 4.22231 28.8883 6.95935C29.1013 9.72463 29.0114 12.5041 28.6043 15.2506C28.2777 17.5246 27.6529 19.4315 25.0159 19.6156C21.7121 19.8563 18.484 20.0501 15.1708 19.9884C15.171 19.9738 15.1519 19.9738 15.1425 19.9738ZM11.6446 14.2167C14.1344 12.7915 16.5767 11.39 19.0522 9.97434C16.5578 8.54911 14.1202 7.14764 11.6446 5.73197V14.2167Z" fill="white"/>
</svg>
