<svg width="17" height="17" viewBox="0 0 17 17" fill="none" xmlns="http://www.w3.org/2000/svg">
<path d="M3.61969 6.81743C2.73738 6.81743 1.98473 6.50506 1.36172 5.88032C0.738739 5.25556 0.427246 4.50202 0.427246 3.61969C0.427246 2.73738 0.739615 1.98473 1.36436 1.36173C1.98911 0.738739 2.74265 0.427246 3.62498 0.427246C4.50729 0.427246 5.25995 0.739615 5.88295 1.36436C6.50594 1.98911 6.81743 2.74265 6.81743 3.62498C6.81743 4.50729 6.50506 5.25995 5.88032 5.88295C5.25556 6.50594 4.50202 6.81743 3.61969 6.81743ZM3.61928 5.63558C4.17822 5.63558 4.654 5.44028 5.04662 5.04969C5.43926 4.6591 5.63558 4.18434 5.63558 3.6254C5.63558 3.06646 5.44028 2.59067 5.04969 2.19805C4.6591 1.80541 4.18434 1.60909 3.6254 1.60909C3.06646 1.60909 2.59067 1.80439 2.19805 2.19498C1.80541 2.58557 1.60909 3.06034 1.60909 3.61928C1.60909 4.17822 1.80439 4.654 2.19498 5.04662C2.58557 5.43926 3.06034 5.63558 3.61928 5.63558ZM13.3753 16.573C12.493 16.573 11.7403 16.2607 11.1173 15.6359C10.4943 15.0112 10.1828 14.2576 10.1828 13.3753C10.1828 12.493 10.4952 11.7403 11.12 11.1173C11.7447 10.4943 12.4983 10.1828 13.3806 10.1828C14.2629 10.1828 15.0155 10.4952 15.6385 11.12C16.2615 11.7447 16.573 12.4983 16.573 13.3806C16.573 14.2629 16.2607 15.0155 15.6359 15.6385C15.0112 16.2615 14.2576 16.573 13.3753 16.573ZM13.3749 15.3912C13.9338 15.3912 14.4096 15.1959 14.8022 14.8053C15.1949 14.4147 15.3912 13.9399 15.3912 13.381C15.3912 12.8221 15.1959 12.3463 14.8053 11.9537C14.4147 11.561 13.9399 11.3647 13.381 11.3647C12.8221 11.3647 12.3463 11.56 11.9537 11.9506C11.561 12.3412 11.3647 12.8159 11.3647 13.3749C11.3647 13.9338 11.56 14.4096 11.9506 14.8022C12.3412 15.1949 12.8159 15.3912 13.3749 15.3912ZM1.36071 16.4628L0.537428 15.6396L15.6396 0.537428L16.4628 1.36071L1.36071 16.4628Z" fill="white"/>
</svg>
