<svg width="20" height="20" viewBox="0 0 20 20" fill="none" xmlns="http://www.w3.org/2000/svg">
<path d="M13.7614 8.29275C14.075 8.29275 14.3456 8.17729 14.5732 7.94636C14.8008 7.71545 14.9145 7.44319 14.9145 7.12958C14.9145 6.81599 14.7991 6.54541 14.5682 6.31783C14.3372 6.09028 14.065 5.9765 13.7514 5.9765C13.4378 5.9765 13.1672 6.09195 12.9396 6.32286C12.7121 6.55379 12.5983 6.82605 12.5983 7.13964C12.5983 7.45325 12.7137 7.72383 12.9447 7.95139C13.1756 8.17896 13.4478 8.29275 13.7614 8.29275ZM6.24861 8.29275C6.56222 8.29275 6.83281 8.17729 7.06036 7.94636C7.28794 7.71545 7.40172 7.44319 7.40172 7.12958C7.40172 6.81599 7.28626 6.54541 7.05533 6.31783C6.82443 6.09028 6.55217 5.9765 6.23856 5.9765C5.92496 5.9765 5.65438 6.09195 5.42681 6.32286C5.19925 6.55379 5.08547 6.82605 5.08547 7.13964C5.08547 7.45325 5.20093 7.72383 5.43183 7.95139C5.66276 8.17896 5.93502 8.29275 6.24861 8.29275ZM10 15.4209C11.0513 15.4209 12.0196 15.1385 12.9049 14.5737C13.7903 14.0089 14.4573 13.2543 14.906 12.3098H13.9957C13.5698 13.0221 13.0043 13.5773 12.2991 13.9754C11.594 14.3736 10.8251 14.5726 9.99253 14.5726C9.17414 14.5726 8.41132 14.3746 7.70406 13.9786C6.9968 13.5826 6.43946 13.0264 6.03206 12.3098H5.094C5.547 13.2543 6.21509 14.0089 7.09828 14.5737C7.98148 15.1385 8.94872 15.4209 10 15.4209ZM10.0037 20C8.62089 20 7.3208 19.7376 6.10344 19.2128C4.88609 18.688 3.82716 17.9758 2.92664 17.0761C2.02614 16.1764 1.31324 15.1185 0.787944 13.9023C0.262648 12.6861 0 11.3865 0 10.0037C0 8.62089 0.262398 7.3208 0.787195 6.10344C1.31201 4.88609 2.02425 3.82716 2.92392 2.92664C3.82358 2.02614 4.88152 1.31324 6.09772 0.787944C7.31394 0.262648 8.61346 0 9.99628 0C11.3791 0 12.6792 0.262398 13.8966 0.787195C15.1139 1.31201 16.1728 2.02425 17.0734 2.92392C17.9739 3.82358 18.6868 4.88152 19.2121 6.09772C19.7374 7.31394 20 8.61346 20 9.99628C20 11.3791 19.7376 12.6792 19.2128 13.8966C18.688 15.1139 17.9758 16.1728 17.0761 17.0734C16.1764 17.9739 15.1185 18.6868 13.9023 19.2121C12.6861 19.7374 11.3865 20 10.0037 20Z" fill="url(#paint0_linear_483_7140)"/>
<defs>
<linearGradient id="paint0_linear_483_7140" x1="20" y1="30.9259" x2="-1.17529" y2="30.0991" gradientUnits="userSpaceOnUse">
<stop offset="0.135417" stop-color="#E1007A"/>
<stop offset="1" stop-color="#F19300"/>
</linearGradient>
</defs>
</svg>
