<svg width="300" height="377" viewBox="0 0 300 377" fill="none" xmlns="http://www.w3.org/2000/svg">
<mask id="mask0_588_1088" style="mask-type:alpha" maskUnits="userSpaceOnUse" x="0" y="0" width="300" height="377">
<rect width="300" height="377" rx="20" fill="#11151C" fill-opacity="0.7"/>
<rect x="0.5" y="0.5" width="299" height="376" rx="19.5" stroke="#1D2027" stroke-opacity="0.2"/>
</mask>
<g mask="url(#mask0_588_1088)">
<path d="M29.5836 201.729C30.9357 201.345 31.9071 200.685 33.1724 200.105C34.9277 199.3 36.6285 198.051 38.0483 196.753C41.4554 193.637 44.9434 190.322 49.0351 188.14C49.9589 187.647 51.1932 187.39 52.1736 187.016C52.8093 186.774 53.5015 186.233 54.0777 186.069C55.211 185.746 56.7928 184.644 57.6961 183.854C58.3295 183.301 58.7627 182.614 59.2359 181.934C60.0958 180.699 61.3143 179.673 62.4799 178.75C64.0886 177.477 65.8164 176.802 67.7826 176.243" stroke="white" stroke-opacity="0.7" stroke-linecap="round"/>
<path d="M65.7718 176.815C65.6082 175.841 67.2317 174.191 67.9918 173.659C68.7402 173.136 70.0667 173.025 70.9458 172.775C72.8992 172.219 74.8525 171.664 76.8059 171.108C77.9246 170.79 79.12 170.745 80.2643 170.531C80.9444 170.404 81.9103 170.242 82.6184 170.355C83.7822 170.543 85.1059 170.276 86.2108 170.519C87.3157 170.763 88.5368 170.632 89.6338 170.435C91.6528 170.073 93.8432 170.088 95.8778 170.273C97.4394 170.415 99.0106 170.473 100.489 171.047C101.515 171.446 102.425 171.9 103.397 172.394C105.589 173.507 108.361 173.377 110.747 173.421C113.643 173.474 116.524 173.164 119.386 173.226C120.161 173.242 121.107 173.26 121.846 173.536C122.268 173.694 123.311 174.171 123.444 174.64" stroke="white" stroke-opacity="0.7" stroke-linecap="round"/>
<path d="M101.022 171.533C102.649 171.07 104.467 171.266 106.124 171.059C107.417 170.897 108.669 170.543 109.926 170.186C111.549 169.724 113.218 169.794 114.877 169.568C118.623 169.059 124.459 171.262 125.584 175.217" stroke="white" stroke-opacity="0.7" stroke-linecap="round"/>
<path d="M125.465 175.111C126.629 174.781 127.738 174.455 128.943 174.333C129.947 174.231 130.813 174.277 131.837 174.418C132.601 174.524 133.361 174.543 134.116 174.725C134.924 174.918 135.657 175.383 136.431 175.666C137.045 175.89 137.565 176.066 138.197 176.23C138.861 176.401 139.617 176.146 140.274 176.357C141.24 176.667 142.175 176.839 143.127 177.224C143.936 177.55 144.403 178.174 145.079 178.67C145.561 179.023 145.96 179.646 146.296 180.127C146.523 180.452 146.884 180.768 147.07 181.111C147.323 181.579 148.031 181.987 148.459 182.316C149.934 183.448 151.132 184.863 152.61 185.986C153.83 186.914 154.692 188.247 155.854 189.224C156.766 189.99 157.761 190.873 158.546 191.769C159.863 193.272 157.548 194.067 156.445 194.381C155.804 194.563 155.141 194.828 154.472 194.85C153.638 194.876 152.831 194.44 152.083 194.134C150.895 193.647 149.649 192.342 148.942 191.328C148.728 191.022 148.309 189.943 147.895 189.914C146.946 189.849 146.227 189.52 145.35 189.183C144.61 188.899 144.141 188.265 143.485 187.877C142.821 187.485 142.261 186.774 141.722 186.239C141.079 185.602 140.353 185.035 139.723 184.392C139.561 184.228 138.957 183.73 138.714 183.784C138.197 183.899 137.688 184.076 137.179 184.221C136.267 184.48 135.301 184.399 134.412 184.652C133.819 184.821 132.841 184.77 132.218 184.736C131.775 184.712 131.327 184.715 130.886 184.681C130.486 184.65 130.128 184.382 129.719 184.328C128.784 184.205 127.841 183.623 126.926 183.582" stroke="white" stroke-opacity="0.7" stroke-linecap="round"/>
<path d="M117.61 185.402C118.01 185.379 118.489 185.808 118.878 185.924C119.577 186.132 120.271 186.273 121.02 186.328C122.007 186.4 122.794 186.179 123.756 185.905C124.577 185.672 125.438 185.506 126.164 185.043C126.423 184.877 126.661 184.605 126.957 184.521" stroke="white" stroke-opacity="0.7" stroke-linecap="round"/>
<path d="M111.874 190.233C112.148 189.848 112.817 189.747 113.15 189.396C113.503 189.023 114.065 188.824 114.419 188.442C115.017 187.797 115.591 187.201 116.087 186.487C116.475 185.93 117.187 185.649 117.584 185.107C117.977 184.57 118.98 183.946 119.63 183.761" stroke="white" stroke-opacity="0.7" stroke-linecap="round"/>
<path d="M109.026 188.554C109.398 188.448 110.874 189.835 111.122 190.183C111.867 191.226 113.305 191.992 114.335 192.731C115.954 193.893 118.008 194.733 119.945 195.191C122.159 195.714 123.991 196.868 125.817 198.227C126.684 198.872 127.778 199.36 128.725 199.888C129.372 200.248 130.064 200.462 130.621 200.975C131.544 201.826 132.486 202.654 133.403 203.514C134.101 204.168 134.359 204.724 134.619 205.636C134.985 206.923 135.078 207.5 134.492 208.707C133.748 210.238 131.856 211.474 130.195 210.587C128.86 209.875 127.584 209.352 126.321 208.516C125.266 207.817 124.116 207.293 123.015 206.679C122.664 206.484 122.052 206.331 121.644 206.233C121.111 206.105 120.753 205.834 120.306 205.534C119.053 204.692 117.86 203.807 116.538 203.071C116.013 202.778 115.415 202.63 114.895 202.34C114.436 202.084 113.514 201.642 113.018 201.755C112.38 201.901 111.61 201.578 110.967 201.535C110.482 201.503 110.034 201.327 109.543 201.295C108.536 201.229 107.576 201.212 106.56 201.222C105.927 201.228 105.099 201.253 104.485 201.101C103.194 200.782 102.171 199.863 101.038 199.231C100.221 198.777 99.6674 198.09 99.132 197.345C98.641 196.661 98.1401 196.102 97.904 195.272" stroke="white" stroke-opacity="0.7" stroke-linecap="round"/>
<path d="M103.565 201.008C99.9332 202.04 96.7904 199.188 94.522 196.707" stroke="white" stroke-opacity="0.7" stroke-linecap="round"/>
<path d="M83.9884 195.083C83.7684 195.145 84.4347 195.23 84.6063 195.381C84.9129 195.651 85.2938 195.897 85.6237 196.158C86.2891 196.683 87.0589 197.357 87.5556 198.044C88.2702 199.032 89.6807 199.407 90.7992 199.636C92.641 200.013 94.6633 200.168 96.277 201.237C97.1828 201.837 98.8172 201.741 99.8533 201.708" stroke="white" stroke-opacity="0.7" stroke-linecap="round"/>
<path d="M83.7246 192.907C83.4112 191.805 82.9456 191.042 82.1573 190.219C81.7637 189.808 81.2603 189.516 80.9569 189.007C80.5308 188.293 79.4387 187.422 78.5864 187.384C78.1523 187.365 76.5468 187.549 76.3271 187.309" stroke="white" stroke-opacity="0.7" stroke-linecap="round"/>
<path d="M83.8002 195.255C83.3298 195.388 83.11 195.827 82.6687 196.044C82.1431 196.302 81.6274 196.864 81.174 197.245C80.8053 197.556 80.3271 197.781 79.8938 197.998C79.4141 198.238 79.028 198.581 78.5692 198.849C77.8793 199.25 77.214 200.167 76.6762 200.756C76.187 201.292 75.6573 201.76 75.2185 202.342C73.7839 204.245 72.8272 206.519 71.5114 208.517C70.2538 210.428 68.8679 212.214 67.5225 214.049C66.1787 215.882 64.8936 217.756 63.5493 219.589C63.0789 220.231 62.7176 220.921 62.1538 221.487C61.4214 222.221 60.5583 222.844 59.8779 223.621C59.0463 224.572 58.1008 225.385 57.1718 226.234C55.7604 227.525 54.3888 228.826 52.8711 229.998C51.3701 231.157 50.0909 232.634 48.7111 233.932C47.5849 234.992 46.488 236.223 45.536 237.442C44.7523 238.446 43.8943 239.434 43.1756 240.483C42.8805 240.913 42.753 241.517 42.4155 241.884C42.2654 242.047 41.4863 242.514 41.4927 242.712C37.9019 246.572 30.8819 252.756 22.077 258.003C15.4842 261.933 7.89055 265.337 -0.0136379 266.847C-0.78712 266.995 -1.56358 267.124 -2.34237 267.235C-4.33788 266.775 -9.87853 266.794 -16.077 270.553C-22.2755 274.312 -26.3428 272.63 -27.6016 271.319C-41.5941 279.141 -74.4364 295.071 -93.8656 296.213C-113.295 297.354 -126.1 291.483 -130.074 288.406M-162.473 256.259C-159.575 254.151 -153.741 251.367 -146.132 250.353M-133.582 250.49C-133.582 250.49 -139.915 249.525 -146.132 250.353M-146.132 250.353C-140.866 245.965 -124.438 240.204 -100.848 252.271C-101.766 251.809 -62.8301 235.817 -42.753 237.023C-38.2712 236.075 -28.1714 232.531 -23.6259 225.941C-19.0805 219.351 7.57737 208.577 20.3381 204.013L29.8761 201.708M-121.661 259.723C-122.191 262.543 -124.437 268.954 -129.183 272.039C-135.116 275.895 -128.865 280.038 -135.361 294.932M-122.011 279.997C-111.761 283.981 -107.304 274.021 -96.1065 278.583M-30.0426 242.836C-26.56 243.879 -19.7026 247.525 -20.133 253.766" stroke="white" stroke-opacity="0.7" stroke-linecap="round"/>
<path d="M111.654 190.295C112.083 190.218 112.722 190.486 113.132 190.585C113.799 190.746 114.471 190.926 115.16 190.957C116.857 191.032 118.522 191.034 120.216 190.822" stroke="white" stroke-opacity="0.7" stroke-linecap="round"/>
<path d="M120.217 190.822C120.015 190.971 120.248 192.394 120.282 192.672C120.368 193.354 120.655 194.092 120.941 194.71C121.241 195.359 121.532 195.675 121.532 195.675" stroke="white" stroke-opacity="0.7" stroke-linecap="round"/>
<path d="M122.671 206.948C122.705 207.302 122.548 207.701 122.519 208.057C122.467 208.698 122.617 209.361 122.657 210C122.698 210.666 122.782 211.315 123.049 211.935C123.43 212.819 124.545 214.233 125.535 214.519C126.592 214.825 126.952 212.715 127.077 212.027C127.206 211.326 127.486 210.132 127.286 209.427" stroke="white" stroke-opacity="0.7" stroke-linecap="round"/>
<path d="M120.409 186.502C120.545 186.821 121.325 187.334 121.604 187.577C122.161 188.063 122.763 188.52 123.414 188.873C124.175 189.285 125.032 189.614 125.886 189.743C126.437 189.826 126.648 190.75 126.94 191.134C128.098 192.657 129.368 194.582 131.207 195.305C132.122 195.666 133.06 196.208 134.041 196.362C134.703 196.466 135.071 197.317 135.419 197.826C135.97 198.634 136.524 199.603 137.283 200.238C138.025 200.86 139.117 201.159 139.685 201.951C140.278 202.777 140.439 203.698 140.737 204.654C141.21 206.17 142.02 206.934 143.324 207.66C143.894 207.978 144.397 208.096 145.286 208.096C145.528 208.096 146.168 207.971 146.375 207.66C146.811 207.007 145.915 205.366 145.504 204.654" stroke="white" stroke-opacity="0.7" stroke-linecap="round"/>
<path d="M129.113 200.021C128.96 199.483 129.129 198.941 129.005 198.393C128.797 197.47 128.707 196.513 128.445 195.59C128.102 194.385 127.759 193.179 127.416 191.973" stroke="white" stroke-opacity="0.7" stroke-linecap="round"/>
<path d="M151.756 206.733C149.119 207.483 145.295 205.489 144.282 202.928C144.01 202.241 143.863 201.478 143.661 200.768C143.495 200.183 142.64 199.733 142.176 199.387C140.675 198.268 139.278 197.233 138.23 195.651C137.697 194.846 137.255 193.923 136.83 193.087C136.639 192.713 136.434 192.435 136.316 192.022C136.207 191.639 135.977 191.452 135.829 191.121C135.623 190.656 134.918 190.581 134.488 190.41C133.734 190.108 133.041 189.72 132.227 189.539C130.601 189.178 129.162 187.942 127.719 187.207C127 186.84 126.162 186.297 125.639 185.725" stroke="white" stroke-opacity="0.7" stroke-linecap="round"/>
<path d="M151.606 206.789C152.734 206.468 151.688 203.753 151.132 203.198C150.584 202.652 150.216 201.954 149.896 201.259C149.586 200.586 149.121 199.97 148.917 199.253C148.816 198.898 148.694 198.587 148.494 198.274C148.123 197.693 148.115 196.961 147.79 196.355C147.241 195.332 146.712 194.287 146.128 193.287C145.448 192.123 145.036 190.846 144.404 189.656C144.237 189.342 143.339 187.885 143.107 187.611" stroke="white" stroke-opacity="0.7" stroke-linecap="round"/>
<path d="M148.215 189.015C148.153 188.796 148.153 188.267 148.215 188.047" stroke="white" stroke-opacity="0.7" stroke-linecap="round"/>
</g>
</svg>
