<svg width="708" height="458" viewBox="0 0 708 458" fill="none" xmlns="http://www.w3.org/2000/svg">
<path d="M53.2741 365.254C52.9306 364.046 52.5872 362.839 52.2438 361.631C51.9118 360.464 52.5897 360.013 53.2391 359.127C54.6994 357.135 57.765 356.903 59.9887 356.18C62.3042 355.428 63.4407 352.596 65.6598 351.563C66.5058 351.169 67.2726 350.618 68.1278 350.219C69.2768 349.684 70.5967 349.526 71.7964 349.125C72.8934 348.758 73.9346 348.054 75.0481 347.738C77.8267 346.947 79.9213 345.378 81.9284 343.354C83.1047 342.169 84.5725 340.976 85.9475 340.016C87.821 338.707 89.3558 338.303 91.4159 337.485C94.1837 336.386 97.1985 335.749 99.9007 334.546C101.816 333.693 104.135 333.057 106.205 332.65C108.005 332.297 110.47 331.983 112.29 332.242C112.805 332.315 113.957 332.513 114.41 332.384" stroke="black" stroke-opacity="0.7" stroke-linecap="round"/>
<path d="M114.408 332.385C116.761 331.716 119.229 331.476 121.609 330.799C122.525 330.539 123.542 330.534 124.426 330.229C125.298 329.928 126.323 328.539 127.107 327.964C128.979 326.592 130.965 325.789 133.212 325.188C135.759 324.507 138.566 325.283 141.073 324.57" stroke="black" stroke-opacity="0.7" stroke-linecap="round"/>
<path d="M141.287 324.509C145.002 323.452 147.696 321.38 150.498 318.705C152.526 316.769 154.412 314.737 156.483 312.844C159.533 310.055 162.953 307.946 166.672 306.146C168.675 305.176 170.975 304.742 173.11 304.135C174.349 303.782 175.779 303.546 176.623 302.494C180.774 297.318 186.873 293.501 193.07 291.346C196.034 290.315 199.078 289.817 202.073 288.965C202.914 288.726 204.276 288.432 205.141 288.555C206.736 288.781 208.834 287.735 210.333 287.309C213.339 286.454 215.722 284.647 218.256 282.847C220.699 281.113 223.029 279.495 225.685 278.09C227.234 277.271 228.835 277.194 230.483 276.725C235.345 275.343 240.207 273.96 245.069 272.577" stroke="black" stroke-opacity="0.7" stroke-linecap="round"/>
<path d="M245.007 272.364C245.357 271.873 246.071 271.74 246.53 271.353C247.456 270.574 248.401 269.754 249.312 268.945C251.651 266.867 253.806 264.641 256.264 262.692C263.173 257.212 272.054 253.811 280.468 251.418C283.316 250.608 286.418 249.81 289.115 248.599C291.711 247.434 294.436 246.786 296.968 245.467C299.82 243.981 302.821 242.589 305.257 240.439C305.826 239.937 307.713 238.679 307.824 238.091C318.004 231.401 341.509 216.755 363.766 205.101C367.467 203.163 371.134 201.308 374.699 199.586C384.115 195.037 393.495 192.467 402.621 190.224C413.982 187.433 424.948 185.15 435.101 180.193C443.866 175.915 452.024 169.644 459.306 159.334C477.299 133.855 518 105.532 536.101 94.5551C548.21 91.315 573.337 76.8799 576.969 45.0609C580.601 13.2419 606.426 4.29792 618.885 3.80331M665.262 129.381C655.982 140.428 631.565 166.389 608.135 181.861C584.705 197.333 546.805 222.149 530.783 232.624C526.829 235.78 517.569 244.307 512.162 253.16C506.754 262.013 494.707 266.811 489.359 268.103C485.313 273.482 472.587 285.362 454.048 289.841C451.642 291.762 447.502 294.386 441.688 297.255C428.392 303.814 406.338 311.647 376.229 315.247C356.826 322.136 310.415 335.676 279.998 334.724M431.93 217.831C441.294 214.94 464.318 211.327 481.509 220.003M282.205 308.721C293.072 307.039 315.887 303.413 320.219 302.366" stroke="black" stroke-opacity="0.7" stroke-linecap="round"/>
<path d="M53.1846 365.742C55.0255 366.767 56.3534 368.373 58.4764 368.91C60.962 369.539 63.1306 369.967 65.7622 369.97C68.7536 369.974 72.9637 368.887 75.4681 367.262C78.5397 365.268 81.1572 362.639 84.7144 361.628C88.6707 360.502 92.6683 359.597 96.6175 358.474C98.081 358.057 99.1183 357.609 100.26 356.565C100.895 355.983 101.608 354.756 102.295 354.33C103.436 353.622 105.299 353.792 106.509 354.158C107.955 354.597 109.431 355.19 110.927 355.431C112.815 355.735 114.89 355.498 116.793 355.38C120.543 355.149 124.258 353.848 127.852 352.826" stroke="black" stroke-opacity="0.7" stroke-linecap="round"/>
<path d="M122.481 348.576C122.758 349.115 123.558 349.464 123.995 349.879C125.003 350.834 125.734 352.007 126.98 352.701C128.107 353.33 129.315 353.749 130.396 354.465C131.817 355.406 134.203 355.815 135.849 356.213C136.576 356.389 137.306 356.711 138.046 356.808C138.489 356.866 139.132 356.62 139.417 356.932" stroke="black" stroke-opacity="0.7" stroke-linecap="round"/>
<path d="M126.85 395.632C124.401 394.268 120.993 392.914 120.143 389.926C119.78 388.648 119.416 387.369 119.052 386.09C118.698 384.843 119.242 383.643 119.908 382.598C120.706 381.345 122.189 380.221 123.203 379.106C124.35 377.846 125.634 376.614 126.892 375.464C127.347 375.048 127.925 375.111 128.445 374.83C130.338 373.806 132.071 372.014 133.579 370.494C134.38 369.686 135.031 368.714 135.843 367.937C136.42 367.385 137.212 366.059 137.866 365.705C138.657 365.278 139.5 364.384 140.177 363.764C141.117 362.905 142.155 362.168 143.179 361.408C144.137 360.698 145.253 360.56 146.217 359.902C147.465 359.051 148.863 358.643 150.01 357.617C151.57 356.221 153.521 354.426 154.596 352.615C155.582 350.953 157.725 349.144 157.964 347.215C158.073 346.333 158.96 344.951 159.33 344.118C159.962 342.693 160.315 341.213 161.192 339.878C162.49 337.903 163.232 335.5 164.389 333.422C164.867 332.565 165.625 331.781 166.255 331.043" stroke="black" stroke-opacity="0.7" stroke-linecap="round"/>
<path d="M126.849 395.632C128.08 395.282 129.376 395.607 130.654 395.244C132.731 394.653 135.11 394.456 137.262 394.237C141.225 393.835 145.303 392.346 148.605 390.151C151.159 388.453 155.296 385.43 156.231 382.295C157.66 377.498 163.129 374.618 166.354 371.122C168.858 368.408 171.033 365.876 174.118 363.753C176.234 362.297 178.272 360.671 180.721 359.975" stroke="black" stroke-opacity="0.7" stroke-linecap="round"/>
<path d="M149.059 437.153C146.045 438.01 143.729 436.186 141.841 434.121C139.167 431.197 139.433 426.775 137.327 423.529C135.17 420.206 133.796 415.989 132.71 412.171C131.932 409.435 131.107 406.808 130.948 403.942C130.8 401.299 130.932 398.606 130.209 396.064" stroke="black" stroke-opacity="0.7" stroke-linecap="round"/>
<path d="M130.237 373.409C130.078 372.849 130.633 372.496 130.954 372.049C131.531 371.249 131.925 370.311 132.501 369.542C133.77 367.847 134.302 365.802 135.486 364.059C136.45 362.641 137.306 361.009 138.145 359.502C138.419 359.009 138.994 357.883 138.836 357.329" stroke="black" stroke-opacity="0.7" stroke-linecap="round"/>
<path d="M148.907 437.427C157.81 433.648 150.983 421.299 150.085 414.573C149.828 412.649 148.98 410.103 149.26 408.196C149.638 405.619 149.299 402.794 149.288 400.215C149.279 397.846 149.173 395.563 149.327 393.22C149.402 392.086 150.197 389.505 151.012 388.761" stroke="black" stroke-opacity="0.7" stroke-linecap="round"/>
<path d="M153.248 431.571C155.125 433.539 157.484 434.757 160.294 433.957C161.623 433.58 163.219 433.255 164.159 432.152C164.86 431.329 166.087 428.752 165.976 427.617C165.826 426.075 165.646 424.785 165.196 423.204C164.763 421.682 164.575 420.247 164.365 418.703C164.047 416.363 164.441 412.963 165.879 410.98C166.614 409.968 167.038 408.404 167.112 407.189C167.279 404.473 167.838 401.381 167.523 398.701C167.424 397.862 167.398 396.986 167.214 396.17C167.138 395.834 168.301 395.506 168.541 395.33C169.809 394.399 170.744 393.22 171.687 391.945C173.589 389.372 172.641 384.989 174.999 382.915C175.725 382.276 176.799 382.12 177.704 381.863C178.568 381.617 178.928 382.917 179.106 383.544C179.45 384.753 178.32 386.431 178.07 387.665C177.545 390.248 176.557 392.951 176.518 395.616C176.496 397.19 175.237 399.192 175.672 400.723C176.276 402.846 176.964 404.906 177.671 406.984C178.758 410.173 179.699 412.514 181.846 415.118C183.239 416.808 184.28 418.727 186.127 420.012C187.092 420.683 188.186 421.1 189.231 421.581C190.345 422.094 191.144 421.718 192.284 421.393C194.85 420.663 195.206 416.991 195.6 414.904C196.088 412.316 196.247 409.688 195.518 407.121C195.171 405.904 195.019 405.184 193.858 404.538C193.053 404.089 192.221 403.923 191.342 403.816C187.186 403.308 184.685 406.057 181.854 408.645" stroke="black" stroke-opacity="0.7" stroke-linecap="round"/>
<path d="M194.468 405.058C194.043 403.564 194.986 402.004 194.565 400.524C194.236 399.367 194.392 397.359 193.427 396.521C191.243 394.626 188.674 395.382 186.144 396.102" stroke="black" stroke-opacity="0.7" stroke-linecap="round"/>
<path d="M193.535 396.08C193.348 395.421 194.409 394.14 194.685 393.442C195.238 392.039 195.803 390.97 195.982 389.427C196.147 387.999 195.931 385.723 194.597 384.826C192.99 383.747 191.507 383.438 189.655 382.843C187.707 382.217 185.632 380.533 183.508 381.137" stroke="black" stroke-opacity="0.7" stroke-linecap="round"/>
<path d="M164.313 372.961C165.714 373.439 166.852 374.092 168.308 374.367C170.928 374.862 173.239 377.341 174.503 379.538" stroke="black" stroke-opacity="0.7" stroke-linecap="round"/>
<path d="M155.27 351.731C153.787 351.419 152.157 351.285 150.766 350.701C148.786 349.869 146.905 349.06 145.001 348.078C143.044 347.069 141.259 345.666 139.399 344.497C138.623 344.01 137.764 342.761 136.962 342.61" stroke="black" stroke-opacity="0.7" stroke-linecap="round"/>
<path d="M138.065 412.317C141.927 411.533 145.823 412.587 148.106 415.932" stroke="black" stroke-opacity="0.7" stroke-linecap="round"/>
<path d="M194.799 385.09C199.481 383.758 204.715 382.828 208.911 380.267C211.129 378.913 213.211 377.421 215.103 375.631C217.387 373.468 220.233 372.706 223.058 371.506C225.717 370.378 228.266 368.69 230.371 366.705C232.417 364.776 233.297 361.3 234.652 358.914C235.523 357.38 236.502 355.848 237.666 354.526C238.799 353.24 240.509 352.686 241.758 351.578C244.082 349.515 246.876 346.788 248.006 343.844C248.329 343.003 249.134 342.245 249.336 341.386C249.526 340.574 249.9 339.357 250.482 338.736C250.783 338.415 250.409 338.165 250.897 337.938C251.962 337.442 253.022 336.893 254.149 336.551C255.204 336.23 256.271 335.947 257.332 335.645C261.147 334.56 265.022 333.157 269.037 333.151C271.816 333.146 274.664 333.359 277.404 333.814C277.911 333.898 279.998 334.724 279.998 334.724" stroke="black" stroke-opacity="0.7" stroke-linecap="round"/>
<path d="M180.083 360.156C181.787 361.633 182.851 362.664 185.037 363.267C187.184 363.859 189.479 363.807 191.681 363.56" stroke="black" stroke-opacity="0.7" stroke-linecap="round"/>
<path d="M189.12 361.053C189.642 360.965 190.427 361.427 190.921 361.606C193.499 362.543 196.369 363.417 199.06 363.952C204.058 364.947 209.309 364.697 214.375 364.578C215.824 364.544 217.222 364.384 218.611 363.989" stroke="black" stroke-opacity="0.7" stroke-linecap="round"/>
<path d="M199.929 360.059C206.458 357.938 213.047 354.601 218.371 350.192C221.492 347.608 224.313 344.186 226.177 340.577C227.394 338.222 227.399 335.135 227.639 332.535C227.719 331.665 228.055 330.567 227.812 329.713" stroke="black" stroke-opacity="0.7" stroke-linecap="round"/>
<path d="M191.522 367.071C190.793 367.491 193.378 370.069 193.672 370.388C195.386 372.245 197.255 372.925 199.418 374.07C201.141 374.981 203.466 375.497 205.343 375.851" stroke="black" stroke-opacity="0.7" stroke-linecap="round"/>
</svg>
