<svg width="19" height="18" viewBox="0 0 19 18" fill="none" xmlns="http://www.w3.org/2000/svg">
<path d="M6.25648 13.23L9.83398 11.61L13.4115 13.23L13.524 13.1175L9.83398 4.185L6.14398 13.1175L6.25648 13.23ZM9.83398 18C8.60398 18 7.44148 17.7638 6.34648 17.2913C5.25148 16.8188 4.29523 16.1737 3.47773 15.3563C2.66023 14.5388 2.01523 13.5825 1.54273 12.4875C1.07023 11.3925 0.833984 10.23 0.833984 9C0.833984 7.755 1.07023 6.585 1.54273 5.49C2.01523 4.395 2.66023 3.4425 3.47773 2.6325C4.29523 1.8225 5.25148 1.18125 6.34648 0.70875C7.44148 0.23625 8.60398 0 9.83398 0C11.079 0 12.249 0.23625 13.344 0.70875C14.439 1.18125 15.3915 1.8225 16.2015 2.6325C17.0115 3.4425 17.6527 4.395 18.1252 5.49C18.5977 6.585 18.834 7.755 18.834 9C18.834 10.23 18.5977 11.3925 18.1252 12.4875C17.6527 13.5825 17.0115 14.5388 16.2015 15.3563C15.3915 16.1737 14.439 16.8188 13.344 17.2913C12.249 17.7638 11.079 18 9.83398 18Z" fill="white"/>
</svg>
