<svg width="768" height="347" viewBox="0 0 768 347" fill="none" xmlns="http://www.w3.org/2000/svg">
<path d="M451.037 92.3912C454.139 91.509 456.368 89.9946 459.271 88.6642C463.298 86.8185 467.201 83.953 470.458 80.9742C478.275 73.8258 486.278 66.2195 495.666 61.2118C497.786 60.0812 500.617 59.4915 502.867 58.635C504.325 58.0797 505.914 56.8366 507.236 56.4607C509.836 55.7211 513.465 53.1908 515.538 51.3794C516.991 50.1092 517.985 48.5343 519.07 46.9745C521.043 44.1392 523.839 41.7855 526.513 39.6693C530.204 36.7486 534.169 35.2002 538.68 33.9172" stroke="black" stroke-opacity="0.7" stroke-linecap="round"/>
<path d="M534.065 35.2295C533.69 32.9952 537.415 29.2077 539.159 27.988C540.876 26.787 543.919 26.5333 545.936 25.9597C550.418 24.6851 554.9 23.4105 559.382 22.1359C561.948 21.4059 564.691 21.3025 567.316 20.8111C568.877 20.519 571.093 20.1469 572.718 20.4084C575.388 20.8381 578.425 20.226 580.96 20.7845C583.495 21.343 586.297 21.0423 588.813 20.591C593.446 19.7604 598.472 19.7945 603.14 20.2191C606.723 20.545 610.328 20.6772 613.719 21.9957C616.072 22.9102 618.162 23.9532 620.391 25.0852C625.422 27.6399 631.78 27.3412 637.256 27.4418C643.901 27.5638 650.509 26.8527 657.076 26.9934C658.854 27.0314 661.025 27.0718 662.719 27.7057C663.689 28.0684 666.081 29.1636 666.387 30.2392" stroke="black" stroke-opacity="0.7" stroke-linecap="round"/>
<path d="M614.942 23.109C618.673 22.0479 622.846 22.4972 626.647 22.0218C629.613 21.6508 632.487 20.8395 635.371 20.0191C639.095 18.9603 642.924 19.1198 646.731 18.602C655.325 17.4331 668.716 22.4887 671.296 31.5633" stroke="black" stroke-opacity="0.7" stroke-linecap="round"/>
<path d="M671.023 31.3203C673.693 30.5612 676.237 29.815 679.003 29.5343C681.306 29.3005 683.293 29.4049 685.643 29.7299C687.394 29.9721 689.139 30.0172 690.872 30.4326C692.726 30.8771 694.406 31.9441 696.183 32.592C697.592 33.106 698.784 33.5103 700.236 33.8859C701.758 34.2799 703.493 33.6929 705 34.1771C707.217 34.8894 709.36 35.2833 711.546 36.1664C713.402 36.9161 714.474 38.348 716.024 39.4841C717.131 40.2961 718.046 41.725 718.817 42.8276C719.338 43.573 720.167 44.2994 720.592 45.0865C721.173 46.1601 722.797 47.0958 723.779 47.8499C727.164 50.4484 729.913 53.6934 733.303 56.2718C736.102 58.401 738.08 61.4586 740.746 63.6994C742.838 65.4575 745.121 67.4826 746.923 69.5393C749.944 72.9875 744.634 74.8115 742.103 75.5313C740.631 75.9499 739.111 76.558 737.576 76.6073C735.663 76.6687 733.811 75.6675 732.095 74.9645C729.368 73.8471 726.511 70.8532 724.888 68.5268C724.397 67.824 723.435 65.3486 722.485 65.2834C720.308 65.1341 718.658 64.378 716.647 63.6062C714.949 62.9547 713.873 61.5004 712.367 60.6101C710.844 59.7096 709.56 58.0792 708.323 56.8519C706.848 55.3891 705.182 54.0876 703.735 52.6143C703.364 52.2366 701.979 51.0947 701.42 51.2187C700.235 51.4816 699.066 51.8882 697.899 52.2201C695.807 52.815 693.591 52.6298 691.55 53.21C690.19 53.5968 687.945 53.4807 686.516 53.4034C685.5 53.3485 684.472 53.3547 683.459 53.276C682.542 53.2047 681.72 52.5898 680.783 52.4666C678.636 52.1849 676.474 50.8486 674.376 50.7548" stroke="black" stroke-opacity="0.7" stroke-linecap="round"/>
<path d="M653.001 54.9306C653.918 54.877 655.017 55.8615 655.909 56.1273C657.515 56.6058 659.106 56.929 660.825 57.0551C663.089 57.2213 664.894 56.7132 667.103 56.0851C668.984 55.55 670.962 55.17 672.626 54.1065C673.221 53.7266 673.766 53.1027 674.446 52.9095" stroke="black" stroke-opacity="0.7" stroke-linecap="round"/>
<path d="M639.84 66.014C640.468 65.1312 642.003 64.8999 642.767 64.0941C643.577 63.2397 644.867 62.7814 645.679 61.9068C647.052 60.4267 648.367 59.0583 649.507 57.42C650.397 56.1412 652.03 55.4969 652.941 54.2536C653.844 53.0225 656.143 51.5911 657.636 51.1666" stroke="black" stroke-opacity="0.7" stroke-linecap="round"/>
<path d="M633.308 62.1625C634.16 61.9203 637.547 65.1016 638.116 65.8996C639.825 68.2922 643.126 70.0512 645.488 71.7469C649.202 74.4128 653.915 76.3385 658.359 77.3893C663.439 78.5907 667.643 81.2381 671.833 84.3554C673.822 85.8351 676.331 86.9556 678.505 88.1666C679.989 88.9935 681.577 89.4841 682.853 90.6601C684.973 92.613 687.134 94.5135 689.237 96.4862C690.839 97.9879 691.431 99.2625 692.027 101.356C692.866 104.307 693.08 105.632 691.735 108.401C690.029 111.914 685.688 114.749 681.877 112.715C678.814 111.081 675.885 109.882 672.989 107.963C670.567 106.359 667.93 105.156 665.402 103.748C664.598 103.3 663.194 102.949 662.257 102.725C661.034 102.431 660.214 101.81 659.188 101.121C656.313 99.1894 653.575 97.1587 650.543 95.4694C649.338 94.798 647.967 94.4572 646.774 93.7927C645.721 93.2058 643.605 92.1904 642.466 92.4506C641.003 92.7847 639.237 92.0435 637.761 91.9461C636.647 91.8725 635.62 91.4697 634.494 91.3954C632.184 91.2428 629.979 91.2054 627.65 91.2274C626.197 91.2412 624.298 91.298 622.89 90.9503C619.926 90.2186 617.58 88.1097 614.979 86.6607C613.106 85.6171 611.835 84.0426 610.607 82.3315C609.48 80.7621 608.331 79.4803 607.789 77.5752" stroke="black" stroke-opacity="0.7" stroke-linecap="round"/>
<path d="M620.777 90.7357C612.445 93.1052 605.234 86.5611 600.029 80.8695" stroke="black" stroke-opacity="0.7" stroke-linecap="round"/>
<path d="M575.86 77.1416C575.355 77.2851 576.884 77.4788 577.278 77.8257C577.981 78.4456 578.855 79.0108 579.612 79.6084C581.139 80.8135 582.905 82.3589 584.045 83.9356C585.684 86.2042 588.92 87.0631 591.487 87.5882C595.712 88.4528 600.352 88.8102 604.055 91.2629C606.133 92.6397 609.883 92.4187 612.26 92.3423" stroke="black" stroke-opacity="0.7" stroke-linecap="round"/>
<path d="M575.255 72.1491C574.536 69.6207 573.468 67.8711 571.659 65.9832C570.756 65.0407 569.601 64.37 568.905 63.2024C567.927 61.5628 565.422 59.5659 563.466 59.4785C562.47 59.434 558.787 59.8577 558.283 59.3066" stroke="black" stroke-opacity="0.7" stroke-linecap="round"/>
<path d="M575.429 77.5361C574.35 77.843 573.846 78.8488 572.833 79.3467C571.627 79.9395 570.444 81.228 569.404 82.104C568.558 82.8164 567.461 83.3334 566.466 83.8304C565.366 84.3806 564.48 85.1688 563.427 85.7821C561.844 86.7042 560.318 88.8065 559.084 90.1585C557.962 91.3883 556.746 92.4623 555.739 93.7979C552.448 98.1647 550.253 103.381 547.234 107.966C544.349 112.349 541.169 116.447 538.082 120.657C534.999 124.863 532.05 129.162 528.966 133.368C527.887 134.841 527.058 136.425 525.764 137.722C524.084 139.408 522.103 140.836 520.542 142.62C518.634 144.802 516.465 146.666 514.334 148.615C511.095 151.576 507.948 154.562 504.466 157.251C501.022 159.91 498.087 163.299 494.922 166.278C492.338 168.709 489.821 171.533 487.637 174.33C485.839 176.633 483.87 178.901 482.221 181.307C481.544 182.295 481.252 183.679 480.477 184.521C480.133 184.896 478.345 185.967 478.36 186.422C470.121 195.277 454.015 209.466 433.813 221.506C418.687 230.521 401.264 238.331 383.129 241.796C381.354 242.135 379.573 242.432 377.786 242.685C373.207 241.63 360.495 241.675 346.273 250.299C332.052 258.923 322.72 255.064 319.832 252.056C287.728 270.003 212.375 306.553 167.797 309.171C123.22 311.789 93.8396 298.321 84.7219 291.26M10.3871 217.502C17.0366 212.666 30.4199 206.278 47.8786 203.953M76.6724 204.266C76.6724 204.266 62.1424 202.054 47.8786 203.953M47.8786 203.953C59.96 193.884 97.6538 180.667 151.777 208.354C149.67 207.293 239.005 170.602 285.069 173.369C295.352 171.194 318.525 163.062 328.953 147.943C339.382 132.824 400.545 108.102 429.823 97.6308L451.707 92.3434M104.026 225.45C102.809 231.92 97.655 246.63 86.7655 253.708C73.1536 262.555 87.4969 272.06 72.5913 306.234M103.221 271.967C126.738 281.108 136.966 258.255 162.656 268.724M314.231 186.705C322.222 189.098 337.955 197.464 336.968 211.784" stroke="black" stroke-opacity="0.7" stroke-linecap="round"/>
<path d="M639.336 66.1567C640.32 65.9804 641.787 66.5962 642.728 66.8233C644.257 67.1926 645.799 67.6043 647.38 67.675C651.274 67.8491 655.093 67.8522 658.981 67.3659" stroke="black" stroke-opacity="0.7" stroke-linecap="round"/>
<path d="M658.982 67.3652C658.519 67.7072 659.053 70.9732 659.133 71.6114C659.328 73.1757 659.987 74.8698 660.643 76.2863C661.333 77.7749 662 78.5 662 78.5" stroke="black" stroke-opacity="0.7" stroke-linecap="round"/>
<path d="M664.613 104.365C664.692 105.178 664.332 106.092 664.265 106.911C664.144 108.381 664.49 109.901 664.581 111.367C664.675 112.897 664.868 114.385 665.481 115.808C666.355 117.836 668.912 121.079 671.184 121.737C673.61 122.438 674.434 117.598 674.723 116.018C675.017 114.409 675.661 111.671 675.201 110.053" stroke="black" stroke-opacity="0.7" stroke-linecap="round"/>
<path d="M659.424 57.4539C659.735 58.1862 661.526 59.3642 662.165 59.9215C663.443 61.0367 664.825 62.0844 666.318 62.8936C668.064 63.8405 670.032 64.5947 671.99 64.8898C673.254 65.0802 673.738 67.2014 674.408 68.0833C677.064 71.5766 679.978 75.9929 684.198 77.6528C686.299 78.4793 688.45 79.7245 690.701 80.077C692.22 80.3148 693.065 82.2693 693.862 83.437C695.126 85.2899 696.398 87.5138 698.139 88.9712C699.842 90.3969 702.347 91.0841 703.651 92.9007C705.012 94.7959 705.381 96.9096 706.064 99.1011C707.148 102.58 709.008 104.333 712 106C713.308 106.729 714.462 107 716.5 107C717.057 107 718.525 106.713 719 106C720 104.5 717.944 100.735 717 99.1011" stroke="black" stroke-opacity="0.7" stroke-linecap="round"/>
<path d="M679.393 88.4726C679.042 87.2367 679.429 85.9941 679.146 84.7371C678.669 82.6199 678.463 80.4238 677.861 78.3066C677.074 75.5401 676.287 72.7736 675.501 70.0072" stroke="black" stroke-opacity="0.7" stroke-linecap="round"/>
<path d="M731.344 103.872C725.294 105.593 716.521 101.017 714.196 95.142C713.573 93.5665 713.235 91.8143 712.772 90.1859C712.39 88.8449 710.43 87.8125 709.364 87.0172C705.921 84.4493 702.716 82.0762 700.311 78.4462C699.088 76.5997 698.074 74.4822 697.098 72.5641C696.661 71.7053 696.189 71.0675 695.92 70.1204C695.67 69.2409 695.142 68.8122 694.803 68.0519C694.328 66.9863 692.712 66.8139 691.726 66.42C689.995 65.7284 688.404 64.837 686.537 64.4223C682.807 63.5942 679.505 60.7589 676.196 59.0723C674.544 58.2307 672.622 56.9835 671.423 55.6724" stroke="black" stroke-opacity="0.7" stroke-linecap="round"/>
<path d="M731 104C733.589 103.264 731.187 97.0348 729.912 95.7617C728.656 94.5076 727.81 92.9064 727.076 91.3126C726.366 89.7688 725.299 88.3554 724.831 86.7107C724.6 85.8965 724.319 85.1826 723.86 84.4648C723.008 83.1308 722.991 81.4515 722.245 80.0611C720.986 77.7142 719.772 75.3158 718.431 73.021C716.871 70.3512 715.926 67.4219 714.476 64.6917C714.094 63.9716 712.032 60.6272 711.5 60.0001" stroke="black" stroke-opacity="0.7" stroke-linecap="round"/>
</svg>
