<svg width="11" height="11" viewBox="0 0 11 11" fill="none" xmlns="http://www.w3.org/2000/svg">
<path d="M5.77139 10.2709C5.07984 10.2709 4.42982 10.1396 3.82133 9.87716C3.21283 9.61471 2.68352 9.25852 2.23341 8.80861C1.78328 8.35869 1.42694 7.82961 1.16436 7.22138C0.901793 6.61316 0.770508 5.96328 0.770508 5.27173C0.770508 4.58019 0.901736 3.93017 1.16419 3.32167C1.42665 2.71317 1.78283 2.18386 2.23275 1.73375C2.68267 1.28363 3.21175 0.927278 3.81998 0.664707C4.4282 0.402137 5.07808 0.270851 5.76963 0.270851C6.46117 0.270851 7.11119 0.40208 7.71968 0.664536C8.32819 0.926993 8.85749 1.28318 9.30761 1.73309C9.75773 2.18301 10.1141 2.71209 10.3767 3.32032C10.6392 3.92854 10.7705 4.57842 10.7705 5.26997C10.7705 5.96151 10.6393 6.61153 10.3768 7.22003C10.1144 7.82853 9.75818 8.35784 9.30827 8.80795C8.85835 9.25808 8.32927 9.61442 7.72104 9.87699C7.11282 10.1396 6.46293 10.2709 5.77139 10.2709ZM5.77051 9.67369C6.99917 9.67369 8.04014 9.24705 8.89342 8.39377C9.74671 7.54048 10.1733 6.49951 10.1733 5.27085C10.1733 4.7321 10.0779 4.2155 9.88691 3.72104C9.69595 3.22658 9.42705 2.7759 9.08023 2.36901L2.86867 8.58057C3.26679 8.93617 3.7145 9.20726 4.21181 9.39383C4.70912 9.58041 5.22869 9.67369 5.77051 9.67369ZM2.46889 8.17269L8.67234 1.96924C8.2722 1.61363 7.82351 1.34119 7.32626 1.15192C6.82902 0.962647 6.31044 0.86801 5.77051 0.86801C4.54185 0.86801 3.50087 1.29465 2.64759 2.14793C1.79431 3.00122 1.36767 4.04219 1.36767 5.27085C1.36767 5.81267 1.46585 6.33223 1.66221 6.82955C1.85856 7.32686 2.12745 7.77457 2.46889 8.17269Z" fill="white"/>
</svg>
