<svg width="10" height="10" viewBox="0 0 10 10" fill="none" xmlns="http://www.w3.org/2000/svg">
<path d="M0.5 5C0.5 3.95342 0.856797 2.99091 1.45609 2.22641L4.28571 5L1.45609 7.77359C0.856797 7.0091 0.5 6.04658 0.5 5ZM5 4.29986L2.15613 1.51232C2.93153 0.879168 3.92115 0.5 5 0.5C6.07885 0.5 7.06848 0.879168 7.84387 1.51232L5 4.29986ZM8.54391 7.77359L5.71429 5L8.54391 2.22641C9.1432 2.9909 9.5 3.95342 9.5 5C9.5 6.04658 9.1432 7.0091 8.54391 7.77359ZM5 5.70014L7.84387 8.48768C7.06848 9.12083 6.07885 9.5 5 9.5C3.92115 9.5 2.93153 9.12083 2.15613 8.48768L5 5.70014Z" stroke="white"/>
</svg>
